<svg xmlns="http://www.w3.org/2000/svg" width="24" height="24" viewBox="0 0 24 24">
  <g id="acc_payment_icon" transform="translate(16922 5360)">
    <g id="Group_7082" data-name="Group 7082" transform="translate(-19515.545 -5458.242)">
      <path id="Path_3037" data-name="Path 3037" d="M2617.451,111.392c-.376-2.222-.779-4.439-1.168-6.659q-.282-1.6-.567-3.2a2.658,2.658,0,0,0-3.031-2.18c-.867.159-1.736.3-2.6.458q-5.367.949-10.735,1.9c-.837.149-1.682.255-2.507.458a2.577,2.577,0,0,0-1.961,2.516,4.716,4.716,0,0,0,.1.974.271.271,0,0,1-.143.33,2.436,2.436,0,0,0-1.294,1.912v11c.056.177.036.368.106.545a2.621,2.621,0,0,0,2.012,1.671,2.979,2.979,0,0,0,.627.052c5.046,0,10.091-.015,15.137.007a2.718,2.718,0,0,0,2.83-2.816c-.045-.988-.011-1.98-.008-2.971,0-.263.026-.29.283-.337.33-.06.664-.1.989-.185a2.558,2.558,0,0,0,1.853-1.6A3.393,3.393,0,0,0,2617.451,111.392Zm-22.5-2.742c.02-.169-.007-.345.016-.513a1.176,1.176,0,0,1,1.109-1.019c.07-.006.14,0,.211,0h15.177a1.2,1.2,0,0,1,1.3.94,4.478,4.478,0,0,1,.023.746c0,.087-.04.1-.113.1-.055,0-.11,0-.164,0h-8.653q-4.326,0-8.653.005C2594.991,108.906,2594.925,108.853,2594.949,108.65Zm17.833,9.745a1.185,1.185,0,0,1-1.3,1.288h-15.229a1.194,1.194,0,0,1-1.3-1.309c0-1.552,0-3.1,0-4.655,0-.175.042-.217.216-.216q4.352.009,8.7,0t8.679,0c.192,0,.243.04.242.238C2612.777,115.291,2612.782,116.843,2612.782,118.395Zm.006-7.847c-.018.452-.011.9,0,1.357,0,.145-.024.2-.187.2q-8.726-.007-17.453,0c-.15,0-.2-.035-.2-.192.011-.452.014-.9,0-1.357-.006-.19.037-.245.238-.245q4.118.011,8.235.005h.468q4.329,0,8.656,0C2612.735,110.31,2612.795,110.348,2612.788,110.548Zm2.376,2.876c-.258.057-.524.081-.78.146-.182.047-.2-.013-.2-.173q.009-1.93,0-3.86a12.124,12.124,0,0,0-.028-1.589,2.557,2.557,0,0,0-2.646-2.242q-3.662,0-7.322,0c-2.487,0-4.975,0-7.462.006-.21,0-.266-.072-.284-.255s-.071-.383-.093-.576a1.166,1.166,0,0,1,1-1.329l10.487-1.842c1.679-.3,3.357-.6,5.036-.888a1.156,1.156,0,0,1,1.395.958c.353,1.969.695,3.94,1.042,5.91q.385,2.185.769,4.37A1.159,1.159,0,0,1,2615.164,113.424Z" transform="translate(0 0)" fill="#fff"/>
      <path id="Path_3038" data-name="Path 3038" d="M2647.979,379.7q-3.332-.009-6.662,0a1.565,1.565,0,1,0-.026,3.108c1.1.008,2.2,0,3.305,0,1.136,0,2.272.008,3.408,0a1.577,1.577,0,0,0,1.717-1.538A1.6,1.6,0,0,0,2647.979,379.7Z" transform="translate(-42.425 -265.098)" fill="#fff"/>
    </g>
    <rect id="Rectangle_17454" data-name="Rectangle 17454" width="24" height="24" transform="translate(-16922 -5360)" fill="none"/>
  </g>
</svg>
