<svg xmlns="http://www.w3.org/2000/svg" xmlns:xlink="http://www.w3.org/1999/xlink" width="54" height="54" viewBox="0 0 54 54">
  <defs>
    <clipPath id="clip-path">
      <rect id="Rectangle_269" data-name="Rectangle 269" width="28" height="28" transform="translate(254 599)" fill="#fff"/>
    </clipPath>
  </defs>
  <g id="apple_button" transform="translate(-241 -586)">
    <g id="Group_6188" data-name="Group 6188">
      <rect id="Rectangle_268" data-name="Rectangle 268" width="54" height="54" rx="27" transform="translate(241 586)" fill="#fff"/>
      <g id="Mask_Group_45" data-name="Mask Group 45" clip-path="url(#clip-path)">
        <path id="path4" d="M23.091,21.821a15.223,15.223,0,0,1-1.505,2.707,13.751,13.751,0,0,1-1.939,2.344,3.762,3.762,0,0,1-2.492,1.1,6.247,6.247,0,0,1-2.3-.55,6.606,6.606,0,0,0-2.478-.548,6.83,6.83,0,0,0-2.549.548,6.857,6.857,0,0,1-2.2.579,3.542,3.542,0,0,1-2.549-1.127,14.44,14.44,0,0,1-2.028-2.427A16.783,16.783,0,0,1,.9,20.184,15.6,15.6,0,0,1,0,15.106a9.272,9.272,0,0,1,1.218-4.851,7.143,7.143,0,0,1,2.55-2.58A6.86,6.86,0,0,1,7.215,6.7a8.118,8.118,0,0,1,2.667.621A8.573,8.573,0,0,0,12,7.945a12.656,12.656,0,0,0,2.345-.733,7.752,7.752,0,0,1,3.188-.566,6.769,6.769,0,0,1,5.3,2.792A5.9,5.9,0,0,0,19.7,14.8a5.911,5.911,0,0,0,1.941,4.454,6.378,6.378,0,0,0,1.939,1.272q-.233.677-.494,1.3ZM17.688.56a5.973,5.973,0,0,1-1.531,3.918,5.217,5.217,0,0,1-4.333,2.139,4.359,4.359,0,0,1-.032-.531,6.137,6.137,0,0,1,1.624-3.959A6.254,6.254,0,0,1,15.394.641,5.9,5.9,0,0,1,17.658,0a5.089,5.089,0,0,1,.029.56Z" transform="translate(256.207 599)"/>
      </g>
    </g>
  </g>
</svg>
