<svg xmlns="http://www.w3.org/2000/svg" width="58" height="28" viewBox="0 0 58 28">
  <g id="Apple_Pay_Mark_RGB_041619" transform="translate(5.133)">
    <g id="Rectangle_72" data-name="Rectangle 72" transform="translate(-5.133)" fill="#fff" stroke="#000" stroke-width="1">
      <rect width="58" height="28" rx="3" stroke="none"/>
      <rect x="0.5" y="0.5" width="57" height="27" rx="2.5" fill="none"/>
    </g>
    <path id="Path_6393" data-name="Path 6393" d="M40.645,30.8a2.441,2.441,0,0,0,.562-1.74,2.42,2.42,0,0,0-1.6.83,2.285,2.285,0,0,0-.575,1.672,2.02,2.02,0,0,0,1.618-.763" transform="translate(-26.671 -21.802)"/>
    <path id="Path_6394" data-name="Path 6394" d="M29,38.973c-.894-.053-1.654.507-2.08.507s-1.081-.48-1.787-.467a2.635,2.635,0,0,0-2.241,1.361c-.96,1.655-.253,4.11.68,5.458.453.667,1,1.4,1.72,1.375.68-.027.947-.441,1.774-.441s1.067.441,1.787.427c.747-.013,1.214-.667,1.667-1.335a5.924,5.924,0,0,0,.747-1.535,2.424,2.424,0,0,1-1.453-2.2,2.47,2.47,0,0,1,1.174-2.069A2.555,2.555,0,0,0,29,38.973" transform="translate(-14.474 -29.096)"/>
    <path id="Path_6395" data-name="Path 6395" d="M66.283,31.944a3.141,3.141,0,0,1,3.295,3.288,3.176,3.176,0,0,1-3.344,3.3H64.084v3.42H62.53V31.944Zm-2.2,5.286h1.783a1.992,1.992,0,1,0,.007-3.975h-1.79Z" transform="translate(-43.972 -23.927)"/>
    <path id="Path_6396" data-name="Path 6396" d="M90.74,47.066c0-1.277.978-2.06,2.713-2.158l2-.118v-.562c0-.812-.548-1.3-1.464-1.3A1.4,1.4,0,0,0,92.447,44H91.031c.083-1.318,1.207-2.289,3.011-2.289,1.769,0,2.9.937,2.9,2.4v5.03H95.506v-1.2h-.035a2.608,2.608,0,0,1-2.3,1.325A2.212,2.212,0,0,1,90.74,47.066Zm4.71-.659v-.576l-1.8.111c-.895.062-1.4.458-1.4,1.082s.527,1.054,1.332,1.054A1.749,1.749,0,0,0,95.45,46.407Z" transform="translate(-64.728 -31.113)"/>
    <path id="Path_6397" data-name="Path 6397" d="M117.333,52.192V50.978a2.773,2.773,0,0,0,.485.028,1.215,1.215,0,0,0,1.3-1.041c0-.014.132-.444.132-.451l-2.636-7.305h1.623l1.846,5.938h.028l1.846-5.938h1.582l-2.733,7.68c-.624,1.769-1.346,2.338-2.858,2.338A5.789,5.789,0,0,1,117.333,52.192Z" transform="translate(-83.763 -31.48)"/>
  </g>
</svg>
