<svg xmlns="http://www.w3.org/2000/svg" width="58" height="28" viewBox="0 0 58 28">
  <g id="banktransfer" transform="translate(2.082)">
    <rect id="Rectangle_72" data-name="Rectangle 72" width="58" height="28" rx="3" transform="translate(-2.082)" fill="#fff"/>
    <g id="bank" transform="translate(16.917 4.125)">
      <path id="Path_6383" data-name="Path 6383" d="M47.75,56.376v7.479c0,.523.319.947.713.947h1.462c.393,0,.713-.423.713-.947V56.376a.619.619,0,0,0,0-.071H62.051v7.36c0,.523.319.947.713.947h1.462c.393,0,.713-.423.713-.947V56.3h1.421v-2.65L61.4,50.577,56.437,47.5l-4.959,3.077-4.959,3.077V56.3h1.235A.705.705,0,0,0,47.75,56.376ZM64.426,55.24H48.447a.485.485,0,1,1,0-.97H64.426a.485.485,0,1,1,0,.97Z" transform="translate(-45.996 -47.5)" fill="#005093"/>
      <path id="Path_6384" data-name="Path 6384" d="M55.436,419.5H36.447a.949.949,0,0,0-.947.95v.241a.949.949,0,0,0,.947.95H55.436a.948.948,0,0,0,.947-.95v-.241A.949.949,0,0,0,55.436,419.5Z" transform="translate(-35.5 -401.89)" fill="#005093"/>
      <path id="Path_6385" data-name="Path 6385" d="M190.95,262.5a.95.95,0,0,0-.95.95v4.51a.95.95,0,0,0,.95.95h4.366a.95.95,0,0,0,.95-.95v-4.51a.95.95,0,0,0-.95-.95Zm2.516,3.687v.822a.362.362,0,0,1-.712,0v-.844a.926.926,0,1,1,.712.019Z" transform="translate(-182.692 -252.331)" fill="#c52114"/>
    </g>
  </g>
</svg>
