<svg xmlns="http://www.w3.org/2000/svg" width="24" height="24" viewBox="0 0 24 24">
  <g id="cash_delivery" transform="translate(16630 5735)">
    <g id="Group_7198" data-name="Group 7198" transform="translate(-17060.695 -6270.967)">
      <path id="Path_2751" data-name="Path 2751" d="M433.149,737.913c0-.007-.006-.019-.011-.02a1.541,1.541,0,0,1-1.218-1.7c.021-3.053.008-6.107.009-9.16a1.434,1.434,0,0,1,1.013-1.482,1.7,1.7,0,0,1,.5-.066H444.4a1.738,1.738,0,0,1,.99.294,1.041,1.041,0,0,1,.514.945c-.016,3.061-.009,6.122-.008,9.183a2.717,2.717,0,0,1-.183,1.117,1.255,1.255,0,0,1-1.091.844.73.73,0,0,1-.271.017l-10.841,0a.537.537,0,0,0-.269.022Z" transform="translate(0 -177.947)"/>
      <path id="Path_2752" data-name="Path 2752" d="M453.537,928.117c.046-.08.122-.044.185-.044q5.564,0,11.129,0a.642.642,0,0,1,.068.007.087.087,0,0,0-.006.041Z" transform="translate(-20.297 -368.151)" fill="#555"/>
      <path id="Path_2753" data-name="Path 2753" d="M782.927,538.693a.051.051,0,0,1,.039.007v6.58l-.018.009-.021,0a.352.352,0,0,1-.08-.3q0-3,0-6A.355.355,0,0,1,782.927,538.693Z" transform="translate(-329.494 -2.558)" fill="#5d5d5d"/>
      <path id="Path_2754" data-name="Path 2754" d="M533.222,536.134q0,3.127-.006,6.253c0,.114,0,.228.007.342-.04.136-.148.163-.268.163-.6,0-1.2.011-1.8,0a1.034,1.034,0,0,1-.994-.8c-.027-.091-.042-.144-.161-.133a4,4,0,0,0-2.068.936c-.079.061-.054.136-.054.207,0,.548,0,1.1,0,1.645a.835.835,0,0,1-.894.9q-4.591,0-9.182,0a.829.829,0,0,1-.9-.9q0-2.376,0-4.752a.842.842,0,0,1,.919-.924q1.793,0,3.586,0a.83.83,0,0,0,.432-.109c.839-.476,1.677-.952,2.524-1.413a5.308,5.308,0,0,1,2.563-.627q1.485-.005,2.969,0c.153,0,.235-.016.279-.2a1.011,1.011,0,0,1,.978-.753c.6-.019,1.2-.008,1.8-.006C533.071,535.972,533.182,536,533.222,536.134Z" transform="translate(-79.788 0)"/>
      <path id="Path_2755" data-name="Path 2755" d="M451.4,744.8c-.068,0-.137.01-.2.01H441.013a.934.934,0,0,1-1-.689,1.229,1.229,0,0,1-.032-.316q0-4.717,0-9.435a.922.922,0,0,1,.992-1c1.172,0,2.345,0,3.517-.006.195,0,.217.07.216.235-.006,1.089,0,2.178,0,3.267,0,.053,0,.107,0,.16a.252.252,0,0,0,.45.192c.39-.352.786-.7,1.171-1.055.116-.108.184-.122.31,0,.375.356.769.693,1.153,1.04.1.087.2.154.327.094s.14-.183.14-.311c0-1.135,0-2.269-.005-3.4,0-.169.038-.217.211-.215.982.013,1.963.012,2.945.016a.676.676,0,0,1,.334.54,1.653,1.653,0,0,1,.012.3q0,4.874,0,9.748a1.539,1.539,0,0,1-.016.319A.649.649,0,0,1,451.4,744.8Z" transform="translate(-7.565 -185.346)" fill="#dd4a48"/>
      <path id="Path_2756" data-name="Path 2756" d="M627.075,744.8a1.252,1.252,0,0,0,.28-.862q-.013-4.836,0-9.672a1.3,1.3,0,0,0-.28-.885,2.509,2.509,0,0,1,1.079.084.734.734,0,0,1,.513.756c-.019,3-.01,6.007-.011,9.01a2.783,2.783,0,0,1-.105.9.865.865,0,0,1-.929.676C627.439,744.813,627.257,744.807,627.075,744.8Z" transform="translate(-183.236 -185.345)" fill="#fff"/>
      <path id="Path_2757" data-name="Path 2757" d="M527.772,736.55l-.708-.629c-.119-.106-.242-.209-.357-.32a.28.28,0,0,0-.438.006c-.34.311-.687.616-1.069.959v-.584c0-.792,0-1.584,0-2.375,0-.161.028-.224.209-.221.73.011,1.461.008,2.192,0,.142,0,.2.029.2.187-.007.959,0,1.919,0,2.878A.729.729,0,0,1,527.772,736.55Z" transform="translate(-87.578 -185.361)" fill="#fff"/>
      <path id="Path_2758" data-name="Path 2758" d="M524.872,600.422c-.251-.041-.3-.221-.3-.436q0-1.85,0-3.7c0-.35,0-.7,0-1.05a.354.354,0,0,1,.392-.4q2.8,0,5.593,0a.489.489,0,0,1,.088.023,5.354,5.354,0,0,0-.832.652c-.044.051-.115.024-.175.024a2.113,2.113,0,0,0-2.145,1.921,2.087,2.087,0,0,0,1.835,2.26,2.088,2.088,0,0,0,2.118-3.021c-.093-.183-.062-.235.1-.34a2.476,2.476,0,0,1,1.79-.318h.015c.192,0,.249.014.374.013.1,0,.17.032.174.132a4.371,4.371,0,0,1-.028,1.145c-.136.1-.165-.049-.224-.106a.648.648,0,0,0-.74-.2.607.607,0,0,0-.416.569.644.644,0,0,0,.366.631.624.624,0,0,0,.7-.092c.072-.055.118-.186.224-.182a.138.138,0,0,1,.123.111.854.854,0,0,1,.014.194q0,.845,0,1.69a.872.872,0,0,1-.043.315.246.246,0,0,1-.256.179q-4.338,0-8.675,0A.226.226,0,0,1,524.872,600.422Z" transform="translate(-86.99 -55.273)" fill="#dd4a48"/>
      <path id="Path_2759" data-name="Path 2759" d="M611.887,561.21a18.766,18.766,0,0,1,2.381-1.328,4.71,4.71,0,0,1,1.8-.337q1.518,0,3.037,0c.144,0,.194.031.193.186-.006,1.233,0,2.467,0,3.7,0,.091.018.18-.124.191a3.815,3.815,0,0,0-2.026.8.7.7,0,0,1-.089.043c0-.478.017-.938-.006-1.4a.9.9,0,0,1,.341-.863,4.3,4.3,0,0,0,.632-.746.223.223,0,0,0-.033-.357.228.228,0,0,0-.339.064c-.168.206-.33.418-.5.62a1.759,1.759,0,0,1-1.4.645c-.3,0-.608-.026-.912-.045a2.384,2.384,0,0,0-1.415.35c-.156.094-.315.185-.477.268a.566.566,0,0,1-.624-.048c-.189-.135-.191-.274-.007-.419a9.158,9.158,0,0,1,1.7-1.018c.458-.222.923-.429,1.386-.638.161-.073.262-.181.177-.355s-.226-.149-.374-.081c-.489.227-.98.449-1.467.68a.769.769,0,0,1-.348.083C612.886,561.208,612.386,561.21,611.887,561.21Z" transform="translate(-168.976 -22.136)" fill="#ffcaa6"/>
      <path id="Path_2760" data-name="Path 2760" d="M742.879,549.959c-.349,0-.7.01-1.048,0a.536.536,0,0,1-.558-.565q-.007-2.405,0-4.811a.547.547,0,0,1,.558-.567c.349-.006.7,0,1.048,0a.4.4,0,0,1,.074.3q0,2.666,0,5.331A.408.408,0,0,1,742.879,549.959Z" transform="translate(-290.457 -7.559)" fill="#dd4a48"/>
      <path id="Path_2761" data-name="Path 2761" d="M583.357,615.844a1.623,1.623,0,1,1-3.245.081,1.607,1.607,0,0,1,1.578-1.62.239.239,0,0,1,.258.154.9.9,0,0,0,.9.5.267.267,0,0,1,.288.158A1.571,1.571,0,0,1,583.357,615.844Z" transform="translate(-139.141 -73.554)" fill="#fefefe"/>
      <path id="Path_2762" data-name="Path 2762" d="M767.612,549.924q0-2.967,0-5.935c.552-.027.552-.027.552.529v5.1c0,.308,0,.309-.3.308C767.779,549.93,767.7,549.927,767.612,549.924Z" transform="translate(-315.19 -7.525)" fill="#fff"/>
      <path id="Path_2763" data-name="Path 2763" d="M586.275,860.451c-.335,0-.669,0-1,0-.164,0-.3-.043-.3-.231s.121-.242.289-.241q1.016,0,2.031,0c.163,0,.3.042.3.232,0,.205-.141.242-.312.241C586.945,860.449,586.61,860.451,586.275,860.451Z" transform="translate(-143.705 -304.224)"/>
      <path id="Path_2764" data-name="Path 2764" d="M586.265,887.506h-1c-.165,0-.293-.055-.288-.243s.136-.232.3-.232q1.015,0,2.031,0c.167,0,.289.059.288.244s-.123.23-.278.23Z" transform="translate(-143.705 -329.623)"/>
      <path id="Path_2765" data-name="Path 2765" d="M538.262,629.545a.72.72,0,1,1-1.44,0,.746.746,0,0,1,.709-.726A.736.736,0,0,1,538.262,629.545Z" transform="translate(-98.495 -87.183)"/>
      <path id="Path_2766" data-name="Path 2766" d="M654.5,629.347a.949.949,0,0,1-.009.6c-.321.427-.719.53-1.07.272a.7.7,0,0,1-.3-.716.714.714,0,0,1,.552-.569.692.692,0,0,1,.724.265A1.38,1.38,0,0,1,654.5,629.347Z" transform="translate(-207.685 -87.267)"/>
      <path id="Path_2767" data-name="Path 2767" d="M544.975,636.727a.23.23,0,0,1,.229.262.238.238,0,0,1-.474-.03A.228.228,0,0,1,544.975,636.727Z" transform="translate(-105.919 -94.606)" fill="#fbfbfb"/>
      <path id="Path_2768" data-name="Path 2768" d="M661.427,637.022a.237.237,0,0,1-.249.243.237.237,0,0,1-.005-.475C661.33,636.786,661.4,636.881,661.427,637.022Z" transform="translate(-215.035 -94.666)" fill="#f9f9f9"/>
    </g>
    <rect id="Rectangle_17445" data-name="Rectangle 17445" width="24" height="24" transform="translate(-16630 -5735)" fill="none"/>
  </g>
</svg>
