<svg xmlns="http://www.w3.org/2000/svg" width="24.205" height="24.207" viewBox="0 0 24.205 24.207">
  <g id="change_acc_pic_icon" transform="translate(16515 5666)">
    <g id="Icon_feather-image" data-name="Icon feather-image" transform="translate(-16514.5 -5665.5)">
      <path id="Path_12214" data-name="Path 12214" d="M7.055,4.5H24.944A2.555,2.555,0,0,1,27.5,7.055V24.944A2.555,2.555,0,0,1,24.944,27.5H7.055A2.555,2.555,0,0,1,4.5,24.944V7.055A2.555,2.555,0,0,1,7.055,4.5Z" transform="translate(-4.5 -4.5)" fill="none" stroke="#fff" stroke-linecap="round" stroke-linejoin="round" stroke-width="1"/>
      <path id="Path_12215" data-name="Path 12215" d="M14.333,12.417A1.917,1.917,0,1,1,12.417,10.5,1.917,1.917,0,0,1,14.333,12.417Z" transform="translate(-5.389 -5.389)" fill="none" stroke="#fff" stroke-linecap="round" stroke-linejoin="round" stroke-width="1"/>
      <path id="Path_12216" data-name="Path 12216" d="M27.944,21.389,21.555,15,7.5,29.055" transform="translate(-4.945 -6.056)" fill="none" stroke="#fff" stroke-linecap="round" stroke-linejoin="round" stroke-width="1"/>
    </g>
    <path id="Path_12394" data-name="Path 12394" d="M0,0H24V24H0Z" transform="translate(-16515 -5666)" fill="none"/>
  </g>
</svg>
