<svg xmlns="http://www.w3.org/2000/svg" width="204.346" height="212.625" viewBox="0 0 204.346 212.625">
  <g id="connection_lost" transform="translate(-454.453 -386.295)">
    <g id="Group_7312" data-name="Group 7312" transform="translate(454.452 402.755)">
      <path id="Path_12450" data-name="Path 12450" d="M661.23,876.575c.008,12.07,0,24.14.046,36.21,0,1.171-.351,1.538-1.523,1.524-4.414-.056-8.829-.017-13.243-.014a5.657,5.657,0,0,1-1.66.2q-11.008-.017-22.015,0a5.668,5.668,0,0,1-1.66-.2H504.234a5.657,5.657,0,0,1-1.66.2q-11.008-.017-22.015,0a5.666,5.666,0,0,1-1.66-.2c-4.415,0-8.83-.042-13.244.014-1.172.015-1.527-.352-1.523-1.524.044-12.07.038-24.14.045-36.21a2.934,2.934,0,0,1,2.083-.461c12.274-.009,24.548.008,36.823-.023a3.146,3.146,0,0,1,3.3,2.194q6.936,15.982,24.336,17.726c2.353.235,4.694.274,7.046.275,18.5,0,36.991.035,55.487-.019a31.22,31.22,0,0,0,14.774-3.355,27.674,27.674,0,0,0,13.192-14.456c.907-2.248,1.008-2.343,3.456-2.344q17.151-.013,34.3,0A3.191,3.191,0,0,1,661.23,876.575Z" transform="translate(-460.873 -727.606)" fill="#fcecec"/>
      <path id="Path_12451" data-name="Path 12451" d="M539.843,793.657h46.813a3.489,3.489,0,0,1,1.894-.527c3.379-.01,6.759-.026,10.138.011a2.164,2.164,0,0,1,1.7.515q22.029.006,44.058,0c8.489-.012,15.07,5.434,16.689,13.186.415,1.984.1,4.02.138,6.031a2.525,2.525,0,0,1-1.734.5c-.56.023-1.12.014-1.68.014q-95.111,0-190.223-.012c-1.149,0-2.369.284-3.415-.5-.153-4.261.347-8.365,2.907-11.964a15.811,15.811,0,0,1,11.461-6.972,46.7,46.7,0,0,1,5.508-.266q20.841-.03,41.683-.02a2.6,2.6,0,0,1,2.031-.523c3.269-.025,6.539-.009,9.809-.011A3.886,3.886,0,0,1,539.843,793.657Z" transform="translate(-460.913 -672.575)" fill="#fcecec"/>
      <path id="Path_12452" data-name="Path 12452" d="M464.268,851.719c.5-.013,1.008-.038,1.511-.038q97.015,0,194.029,0c.5,0,1.008.025,1.511.038v8.665c-12.438.014-24.875.047-37.313.008a1.818,1.818,0,0,0-2.044,1.472,27.718,27.718,0,0,1-16.1,16.424,33.277,33.277,0,0,1-12.909,2.3q-28.827.066-57.653.016c-5.917,0-11.572-1-16.822-3.986a27.655,27.655,0,0,1-12.527-14.577,2.113,2.113,0,0,0-2.358-1.654c-13.109.052-26.22.013-39.33,0Z" transform="translate(-460.962 -711.415)" fill="#2c272e"/>
      <path id="Path_12453" data-name="Path 12453" d="M627.767,435.2a89.763,89.763,0,0,1,58.689,20.437,85.328,85.328,0,0,1,7.035,6.393,5.117,5.117,0,0,1-7.264,7.208,84.03,84.03,0,0,0-23.864-16.564,81.877,81.877,0,0,0-21.929-6.445,76.316,76.316,0,0,0-15.953-.911,82.713,82.713,0,0,0-30.6,7.627,86.93,86.93,0,0,0-18.7,12.079c-1.589,1.334-2.991,2.836-4.508,4.23-2.9,2.668-7.032,1.886-8.529-1.611a5.469,5.469,0,0,1,1.193-5.841,94.135,94.135,0,0,1,18.644-14.3,89.321,89.321,0,0,1,25.729-10.152,93.439,93.439,0,0,1,12.418-1.912C622.926,435.2,625.7,435.345,627.767,435.2Z" transform="translate(-525.622 -435.173)" fill="#dd4a48"/>
      <path id="Path_12454" data-name="Path 12454" d="M657.557,498.878a69.041,69.041,0,0,1,35.565,9.059,61.191,61.191,0,0,1,12.179,8.83c.846.8,1.8,1.491,2.621,2.311a5.223,5.223,0,0,1,.374,7.382c-2.282,2.321-5.32,2.448-7.65.086a59.233,59.233,0,0,0-14.669-10.755,55.129,55.129,0,0,0-15.191-5.434,60.074,60.074,0,0,0-14.034-1.348,61.213,61.213,0,0,0-41.3,17.8,5.135,5.135,0,0,1-7.186-.112,5.076,5.076,0,0,1-.088-7.056,68.34,68.34,0,0,1,25.856-16.664,69.269,69.269,0,0,1,15.035-3.667A39.885,39.885,0,0,1,657.557,498.878Z" transform="translate(-555.488 -477.365)" fill="#dd4a48"/>
      <path id="Path_12455" data-name="Path 12455" d="M686.2,559.972a51.114,51.114,0,0,1,30.226,9.561,48.637,48.637,0,0,1,5.294,4.557c2.428,2.311,2.652,5.475.658,7.5-2.329,2.361-5.595,2.353-8.067-.162a37.751,37.751,0,0,0-15.8-9.4,40.168,40.168,0,0,0-9.423-1.657,38.937,38.937,0,0,0-21.455,4.86,31.069,31.069,0,0,0-8.566,6.491c-1.725,1.913-5.638,1.936-7.309.418a5.259,5.259,0,0,1,.16-8.039,55.767,55.767,0,0,1,8.36-6.5,48.458,48.458,0,0,1,18.932-6.95A44.274,44.274,0,0,1,686.2,559.972Z" transform="translate(-584.123 -517.94)" fill="#dd4a48"/>
      <path id="Path_12456" data-name="Path 12456" d="M571.644,691.4H557.578c-.41-.451-.8-.92-1.231-1.351q-21.549-21.559-43.1-43.113c-.39-.39-.737-.822-1.1-1.234,2.326-2.3,4.347-4.91,7.1-6.76.294.248.609.476.88.747q25.351,25.348,50.692,50.706C571.118,690.705,571.368,691.068,571.644,691.4Z" transform="translate(-492.714 -570.323)" fill="#2c272e"/>
      <path id="Path_12457" data-name="Path 12457" d="M841.568,691.4h-13.73a9.544,9.544,0,0,1,.708-.893q25.463-25.473,50.938-50.934c.232-.231.5-.422.758-.631,2.083,1.162,3.406,3.151,5.119,4.718.639.585,1.434,1.093,1.643,2.044-.367.412-.715.844-1.1,1.234q-21.547,21.559-43.1,43.112C842.369,690.484,841.977,690.953,841.568,691.4Z" transform="translate(-702.095 -570.323)" fill="#2c272e"/>
      <path id="Path_12458" data-name="Path 12458" d="M713.4,618.816c9.33-.052,16.4,2.826,22.346,8.509a5.155,5.155,0,0,1-2.384,8.909c-2.153.528-3.9-.491-5.39-1.91a19.6,19.6,0,0,0-27.118.192c-2.986,2.942-7.16,2.315-8.755-1.295a5.822,5.822,0,0,1,1.372-6.1C698.837,622.267,706.108,618.538,713.4,618.816Z" transform="translate(-611.829 -556.962)" fill="#dd4a48"/>
      <path id="Path_12459" data-name="Path 12459" d="M747.4,684.1c.458,6.583-5.579,12.557-12.675,12.342a12.619,12.619,0,0,1-11.893-12.274,12.421,12.421,0,0,1,12.929-12.4C741.816,671.915,747.814,677.294,747.4,684.1Z" transform="translate(-632.452 -592.085)" fill="#dd4a48"/>
      <path id="Path_12460" data-name="Path 12460" d="M507.981,988.805c.279-.527.781-.336,1.193-.337q11.474-.017,22.948,0c.412,0,.915-.19,1.194.336-.019,1.512-.044,3.024-.054,4.537a4.748,4.748,0,0,1-4.889,4.871c-4.933.005-9.867-.089-14.8.036a5.367,5.367,0,0,1-5.534-5.411C507.989,991.495,508,990.149,507.981,988.805Z" transform="translate(-489.954 -802.117)" fill="#2c272e"/>
      <path id="Path_12461" data-name="Path 12461" d="M930.459,988.805c.279-.527.781-.336,1.193-.337q11.474-.017,22.948,0c.412,0,.915-.19,1.194.336-.018,1.565-.046,3.129-.053,4.694a4.758,4.758,0,0,1-4.686,4.711c-4.865.013-9.739-.162-14.593.064a5.574,5.574,0,0,1-5.945-5.781C930.487,991.264,930.477,990.035,930.459,988.805Z" transform="translate(-770.157 -802.117)" fill="#2c272e"/>
      <path id="Path_12462" data-name="Path 12462" d="M460.389,593.806c-1.833-1.788-3.655-3.587-5.505-5.356-.49-.468-.629-.792-.062-1.341,1.927-1.863,3.811-3.769,5.693-5.678.565-.573,1.025-.5,1.549.043,1.7,1.763,3.426,3.509,5.14,5.261a1.034,1.034,0,0,1-.389,1.042C464.9,589.731,463,591.7,461,593.56A.967.967,0,0,1,460.389,593.806Z" transform="translate(-454.452 -531.913)" fill="#2c272e"/>
      <path id="Path_12463" data-name="Path 12463" d="M1024.351,586.862c1.721-1.756,3.453-3.5,5.154-5.276.449-.468.754-.49,1.221-.012q2.818,2.883,5.7,5.7c.478.467.456.773-.012,1.221-1.775,1.7-3.52,3.433-5.277,5.154A19.256,19.256,0,0,1,1024.351,586.862Z" transform="translate(-832.43 -532.04)" fill="#2c272e"/>
      <path id="Path_12464" data-name="Path 12464" d="M472.08,605.036l6.815-7.071a52.534,52.534,0,0,1,4.689,4.72.894.894,0,0,1-.219,1.2c-1.869,1.962-3.752,3.912-5.765,5.729a.77.77,0,0,1-.773.171A48.236,48.236,0,0,1,472.08,605.036Z" transform="translate(-466.144 -543.143)" fill="#fcecec"/>
      <path id="Path_12465" data-name="Path 12465" d="M1014.495,597.965q3.237,3.55,6.788,6.788l-5,5c-1.2-.372-1.855-1.412-2.643-2.246-1.406-1.49-3.173-2.658-4.146-4.543Z" transform="translate(-822.573 -543.143)" fill="#fcecec"/>
      <path id="Path_12466" data-name="Path 12466" d="M510.487,629.943q-3.109,3.172-6.214,6.349a1.254,1.254,0,0,1-.883.411,42.112,42.112,0,0,1-4.408-4.409c-.011-.054-.051-.127-.03-.16a30.292,30.292,0,0,1,6.5-6.7c.176-.145.425-.013.62.1A42.011,42.011,0,0,1,510.487,629.943Z" transform="translate(-483.961 -561.319)" fill="#fcecec"/>
      <path id="Path_12467" data-name="Path 12467" d="M990.21,636.746q-3.544-3.218-6.761-6.761a42.009,42.009,0,0,1,4.411-4.406c.644-.378,1.068.064,1.461.441q2.474,2.379,4.854,4.854c.378.393.819.817.441,1.461A42,42,0,0,1,990.21,636.746Z" transform="translate(-805.302 -561.361)" fill="#fcecec"/>
      <path id="Path_12468" data-name="Path 12468" d="M497.608,616.656c-1.111.181-1.592,1.171-2.291,1.85-1.641,1.594-3.207,3.266-4.8,4.907a39.807,39.807,0,0,1-4.336-4.336c2.153-2.112,4.312-4.219,6.449-6.348a2.185,2.185,0,0,0,.307-.747A46.062,46.062,0,0,1,497.608,616.656Z" transform="translate(-475.493 -552.439)" fill="#2c272e"/>
      <path id="Path_12469" data-name="Path 12469" d="M1003.3,623.97c-1.016-2.062-2.977-3.27-4.472-4.9-.653-.712-1.172-1.676-2.285-1.857a45.749,45.749,0,0,1,4.359-4.392q3.555,3.234,6.79,6.789A45.661,45.661,0,0,1,1003.3,623.97Z" transform="translate(-813.989 -552.996)" fill="#2c272e"/>
      <path id="Path_12470" data-name="Path 12470" d="M642.749,880.843a4.284,4.284,0,0,1-4.177,4.421,4.482,4.482,0,0,1-4.556-4.458c.1-2.163,1.827-4.561,4.485-4.336C641.263,876.7,642.752,878.03,642.749,880.843Z" transform="translate(-573.543 -727.848)" fill="#dd4a48"/>
      <path id="Path_12471" data-name="Path 12471" d="M807.231,876.647a4.258,4.258,0,0,1,4.291,4.291,4.375,4.375,0,1,1-8.745-.127C802.785,878.149,804.4,876.641,807.231,876.647Z" transform="translate(-685.474 -727.975)" fill="#fcecec"/>
      <path id="Path_12472" data-name="Path 12472" d="M751.06,876.54c2.451-.463,4.344,2.135,4.387,4.366a4.508,4.508,0,0,1-4.292,4.37c-2.3.012-4.69-1.987-4.5-4.315C746.891,878.047,748.171,876.543,751.06,876.54Z" transform="translate(-648.244 -727.868)" fill="#fcecec"/>
      <path id="Path_12473" data-name="Path 12473" d="M863.1,876.647a4.126,4.126,0,0,1,4.356,4.379,4.372,4.372,0,1,1-8.745-.033A4.133,4.133,0,0,1,863.1,876.647Z" transform="translate(-722.571 -727.975)" fill="#fcecec"/>
      <path id="Path_12474" data-name="Path 12474" d="M690.917,880.753c0-2.649,1.545-4.1,4.271-4.137a4.212,4.212,0,0,1,4.431,4.2,4.679,4.679,0,0,1-4.558,4.567A4.354,4.354,0,0,1,690.917,880.753Z" transform="translate(-611.284 -727.954)" fill="#fcecec"/>
    </g>
    <path id="Path_12475" data-name="Path 12475" d="M828.63,402.172l-71.795,95.435,54.18-106.428a10.382,10.382,0,0,1,17.615,10.993Z" transform="translate(-200.551)" fill="#2c272e"/>
  </g>
</svg>
