<svg xmlns="http://www.w3.org/2000/svg" width="295" height="222.685" viewBox="0 0 295 222.685">
  <g id="coupon_applied" transform="translate(18097 6085.685)">
    <g id="Group_6966" data-name="Group 6966">
      <g id="Group_6965" data-name="Group 6965">
        <g id="Group_6963" data-name="Group 6963" transform="translate(-18135 -6163.667)">
          <g id="Group_6937" data-name="Group 6937">
            <g id="Group_6932" data-name="Group 6932" transform="translate(-192.544 -285.889)">
              <g id="Group_6930" data-name="Group 6930" transform="translate(308.441 422.596)">
                <g id="Group_6925" data-name="Group 6925" transform="translate(0)">
                  <path id="Path_2771" data-name="Path 2771" d="M453.3,523.812h-2.1a1.7,1.7,0,0,1-1.619-2.208h0c.775-2.461,1.677-4.907,2.677-7.275a81.957,81.957,0,0,1,129.576-29.743,1.7,1.7,0,0,1,.078,2.477l-1.445,1.445a1.694,1.694,0,0,1-2.314.078,76.557,76.557,0,0,0-123.235,34.053v0A1.7,1.7,0,0,1,453.3,523.812Z" transform="translate(-449.496 -464.26)" fill="#2c272e"/>
                  <path id="Path_2772" data-name="Path 2772" d="M609.771,634.259A82,82,0,0,1,452.253,666.17c-1-2.368-1.9-4.815-2.677-7.276h0a1.7,1.7,0,0,1,1.619-2.208h2.1a1.7,1.7,0,0,1,1.614,1.172v0a76.587,76.587,0,1,0,135.9-67.074,1.693,1.693,0,0,1,.2-2.159l1.466-1.466a1.7,1.7,0,0,1,2.59.223,81.873,81.873,0,0,1,13.089,30.56A82.365,82.365,0,0,1,609.771,634.259Z" transform="translate(-449.496 -552.28)" fill="#2c272e"/>
                </g>
              </g>
              <rect id="Rectangle_17349" data-name="Rectangle 17349" width="39.392" height="6.568" rx="3.284" transform="translate(274.547 475.581)" fill="#2c272e"/>
              <rect id="Rectangle_17350" data-name="Rectangle 17350" width="32.041" height="6.568" rx="3.284" transform="translate(281.897 526.922)" fill="#2c272e"/>
              <rect id="Rectangle_17351" data-name="Rectangle 17351" width="40.83" height="6.568" rx="3.284" transform="translate(271.625 501.938)" fill="#2c272e"/>
              <g id="Group_6931" data-name="Group 6931" transform="translate(306.262 406.32)">
                <path id="Path_2781" data-name="Path 2781" d="M535.487,410.071v.052a3.2,3.2,0,0,1-3.551,3.175,91.582,91.582,0,0,0-84.4,37.742,3.183,3.183,0,0,1-2.6,1.332h0a3.2,3.2,0,0,1-2.6-5.063,98.51,98.51,0,0,1,10.473-12.342,97.521,97.521,0,0,1,69.159-28.647,99.374,99.374,0,0,1,10.642.569A3.2,3.2,0,0,1,535.487,410.071Z" transform="translate(-441.739 -406.32)" fill="#2c272e"/>
                <path id="Path_2782" data-name="Path 2782" d="M877.949,452.507l-1.725,1.725a2.023,2.023,0,0,1-2.759.093,91.5,91.5,0,0,0-24.521-15.381A3.2,3.2,0,0,1,846.99,436v-.076a3.193,3.193,0,0,1,4.425-2.951l.044.019a97.361,97.361,0,0,1,26.4,16.559A2.03,2.03,0,0,1,877.949,452.507Z" transform="translate(-733.152 -425.304)" fill="#2c272e"/>
              </g>
            </g>
            <g id="Group_6933" data-name="Group 6933" transform="translate(-2983.66 -1251.905)">
              <path id="Path_2783" data-name="Path 2783" d="M3282.668,1385.108a4.809,4.809,0,0,1,4.694-7.337c.123.017.248.018.372.026a5.216,5.216,0,0,1,2.628,1.6,4.787,4.787,0,1,1-7.46,6C3282.827,1385.3,3282.746,1385.2,3282.668,1385.108Z" transform="translate(-26.959 -28.511)" fill="#dd4a48"/>
              <path id="Path_2784" data-name="Path 2784" d="M3252.681,1438.859a11.087,11.087,0,0,1-.486-1.605c-.074-.367.007-.646.386-.716s.52.206.583.526a4.79,4.79,0,0,0,.554,1.619,6.4,6.4,0,0,0,4.582,3.644,6.184,6.184,0,0,0,2.6.045c.351-.067.647-.025.718.377s-.222.549-.557.6a7.619,7.619,0,0,1-7.069-2.452A7.833,7.833,0,0,1,3252.681,1438.859Z" transform="translate(0 -81.796)" fill="#2c272e"/>
              <path id="Path_2785" data-name="Path 2785" d="M3266.927,1347.31a6.212,6.212,0,0,0-4.157.907,6.6,6.6,0,0,0-2.446,2.526c-.038.068-.075.136-.114.2-.152.262-.366.4-.66.251a.473.473,0,0,1-.2-.715,7.645,7.645,0,0,1,1.99-2.455,7.841,7.841,0,0,1,5.481-1.755c.472.085.946.165,1.417.255.359.069.575.273.462.655s-.414.364-.725.287A3.165,3.165,0,0,0,3266.927,1347.31Z" transform="translate(-6.432)" fill="#2c272e"/>
              <path id="Path_2786" data-name="Path 2786" d="M3387.458,1381.055a7.981,7.981,0,0,1-1.755,4.918c-.078.1-.16.192-.245.283-.22.239-.478.326-.735.084a.482.482,0,0,1,.019-.743,6.721,6.721,0,0,0,.527-8.346c-.026-.039-.052-.078-.081-.115-.208-.268-.273-.558.026-.779.324-.239.573-.06.781.228a7.605,7.605,0,0,1,1.3,2.972A7.865,7.865,0,0,1,3387.458,1381.055Z" transform="translate(-119.964 -27.171)" fill="#2c272e"/>
            </g>
            <g id="Group_6934" data-name="Group 6934" transform="translate(-3156.513 -1075.283)">
              <path id="Path_2783-2" data-name="Path 2783" d="M3282.6,1384.474a4.4,4.4,0,0,1,4.291-6.707c.113.015.227.017.34.024a4.769,4.769,0,0,1,2.4,1.464,4.376,4.376,0,1,1-6.82,5.481C3282.75,1384.646,3282.675,1384.561,3282.6,1384.474Z" transform="translate(-27.199 -28.764)" fill="#dd4a48"/>
              <path id="Path_2784-2" data-name="Path 2784" d="M3252.637,1438.659a10.117,10.117,0,0,1-.444-1.468c-.067-.335.006-.59.353-.654s.475.188.533.48a4.377,4.377,0,0,0,.507,1.48,5.849,5.849,0,0,0,4.188,3.331,5.651,5.651,0,0,0,2.38.041c.321-.061.591-.023.657.344s-.2.5-.51.547a6.965,6.965,0,0,1-6.462-2.241A7.156,7.156,0,0,1,3252.637,1438.659Z" transform="translate(0 -82.523)" fill="#2c272e"/>
              <path id="Path_2785-2" data-name="Path 2785" d="M3266.27,1347.22a5.679,5.679,0,0,0-3.8.829,6.031,6.031,0,0,0-2.236,2.309c-.035.062-.069.125-.1.186-.139.24-.335.365-.6.23a.432.432,0,0,1-.18-.654,6.984,6.984,0,0,1,1.818-2.244,7.169,7.169,0,0,1,5.011-1.6c.431.077.865.151,1.3.234.329.063.525.25.422.6s-.378.333-.663.262A2.891,2.891,0,0,0,3266.27,1347.22Z" transform="translate(-6.488 0)" fill="#2c272e"/>
              <path id="Path_2786-2" data-name="Path 2786" d="M3387.209,1380.643a7.3,7.3,0,0,1-1.605,4.5c-.071.089-.146.175-.224.259-.2.218-.436.3-.671.076a.44.44,0,0,1,.017-.679,6.144,6.144,0,0,0,.481-7.629c-.024-.035-.047-.071-.073-.1-.19-.245-.25-.51.024-.712.3-.219.524-.055.714.208a6.952,6.952,0,0,1,1.193,2.717A7.248,7.248,0,0,1,3387.209,1380.643Z" transform="translate(-121.03 -27.412)" fill="#2c272e"/>
            </g>
            <path id="Path_2787" data-name="Path 2787" d="M2002.882,626.974l6.722-12.636c.908,1.439,1.718,2.706,2.511,3.984,1.583,2.551,3.153,5.11,4.738,7.66.235.378.453.657-.266.677-4.422.12-8.844.259-13.266.389A3.233,3.233,0,0,1,2002.882,626.974Z" transform="matrix(0.438, 0.899, -0.899, 0.438, -139.518, -1802.769)" fill="#dd4a48"/>
            <path id="Path_2788" data-name="Path 2788" d="M2002.882,632.734l9.786-18.4c1.322,2.1,2.5,3.94,3.656,5.8,2.3,3.714,4.59,7.44,6.9,11.152.342.55.66.957-.386.985-6.438.174-12.875.377-19.313.566A4.706,4.706,0,0,1,2002.882,632.734Z" transform="matrix(0.438, 0.899, -0.899, 0.438, -271.212, -1953.777)" fill="#dd4a48"/>
            <path id="Path_2789" data-name="Path 2789" d="M3072,440.028c0,1.1-.018,2.194.009,3.29.011.426-.087.577-.549.578-1.345,0-1.345.026-1.341-1.349,0-1.358-.015-2.716.017-4.073.01-.451-.13-.564-.566-.556-1.54.027-3.082-.019-4.621.03-.7.023-.97-.143-.938-.9.064-1.538.005-3.081.04-4.621.011-.49-.136-.613-.615-.6-1.592.033-3.186,0-4.778.03-.554.012-.726-.175-.714-.719.033-1.592.006-3.186.037-4.778.009-.477-.126-.629-.615-.619-1.592.035-3.186,0-4.778.035-.556.012-.724-.176-.712-.721.033-1.592,0-3.186.032-4.778.011-.484-.12-.63-.605-.618-1.514.035-3.03-.01-4.542.046-.67.025-.909-.124-.875-.848.069-1.459,0-2.925.047-4.385.02-.6-.112-.814-.758-.79-1.513.055-3.029,0-4.542.043-.6.017-.837-.13-.817-.778.047-1.539-.018-3.082.041-4.621.024-.627-.188-.731-.746-.716-1.513.04-3.029,0-4.542.041-.546.015-.765-.136-.684-.689a2.611,2.611,0,0,0,0-.7c-.056-.433.144-.511.533-.509,2.246.011,4.491.014,6.736-.021.526-.008.587.2.58.644-.025,1.619.007,3.238-.029,4.857-.011.495.138.609.612.6,1.618-.033,3.238,0,4.856-.036.53-.012.66.161.649.666-.034,1.566,0,3.134-.034,4.7-.011.508.122.677.65.664,1.565-.04,3.133-.009,4.7-.042.5-.011.675.114.662.649-.041,1.618,0,3.238-.035,4.856-.011.5.141.608.614.6,1.592-.033,3.187.013,4.778-.037.612-.019.739.183.724.751-.041,1.592,0,3.186-.039,4.778-.011.489.131.611.609.6,1.618-.033,3.238.008,4.856-.032.53-.013.648.153.637.653-.034,1.618,0,3.238-.035,4.856-.01.477.109.627.6.616,1.592-.034,3.186.008,4.778-.03.553-.013.776.082.741.705-.061,1.093-.017,2.192-.017,3.289Z" transform="translate(-2739.033 -204.723)" fill="#2c272e"/>
            <g id="Group_6935" data-name="Group 6935" transform="translate(-2522.903 -1255.044)">
              <path id="Path_2790" data-name="Path 2790" d="M2665.994,1351.079c-.125-.081-.249-.229-.375-.232-1.755-.041-1.734-1.049-1.519-2.427.752-4.8,1.423-9.621,2.054-14.442.126-.965.4-1.035,1.315-.9q7.579,1.15,15.188,2.1c1.067.135,1.351.437,1.031,1.483-.2.647-.064,1.388-.335,2.049a2.344,2.344,0,0,1,.285,1.865c-.48,3.508-1.03,7.007-1.466,10.522-.258,2.084-.542,2.279-2.583,2.024-4.157-.52-8.3-1.137-12.449-1.735A2.756,2.756,0,0,1,2665.994,1351.079Z" fill="#dd4a48"/>
              <path id="Path_2791" data-name="Path 2791" d="M2669.929,1364.332c1.957-.391,3.819.325,5.722.527,2.968.314,5.92.792,8.872,1.241.613.093.876.036.966-.668.572-4.492,1.193-8.979,1.8-13.468,2.3.124,2.346.13,2.048,2.328-.655,4.842-1.373,9.676-2.023,14.519-.1.719-.186,1.018-1.059.886q-7.764-1.172-15.552-2.191c-.864-.114-1.285-.253-.979-1.246A9.756,9.756,0,0,0,2669.929,1364.332Z" transform="translate(-3.936 -13.253)" fill="#2c272e"/>
            </g>
          </g>
        </g>
        <g id="Group_6964" data-name="Group 6964" transform="translate(-18102.699 -6094.737)">
          <g id="Group_6958" data-name="Group 6958" transform="translate(110.77 98.284)">
            <g id="Group_6957" data-name="Group 6957" transform="translate(0 0)">
              <path id="Path_2816" data-name="Path 2816" d="M487.883,554.037a12.975,12.975,0,0,1,.5-3.225,7.551,7.551,0,0,0-2.132-7.886,11.281,11.281,0,0,1-3.664-8.31,10.489,10.489,0,0,1,3.212-7.871,8.489,8.489,0,0,0,2.453-9.04,11.046,11.046,0,0,1,7.937-13.6,8.558,8.558,0,0,0,6.58-6.541,11.171,11.171,0,0,1,13.8-7.875,8.519,8.519,0,0,0,8.887-2.367,11.255,11.255,0,0,1,16.006.033,8.39,8.39,0,0,0,8.775,2.342,11.238,11.238,0,0,1,13.932,8.032,8.146,8.146,0,0,0,6.343,6.295,11.128,11.128,0,0,1,8.12,13.611,8.682,8.682,0,0,0,2.478,9.147,11.031,11.031,0,0,1-.036,15.631,8.583,8.583,0,0,0-2.452,9.039,11.152,11.152,0,0,1-8.281,13.721,7.879,7.879,0,0,0-6.091,5.952c-1.8,6.6-7.722,9.982-14.42,8.229a7.879,7.879,0,0,0-8.048,2.151c-4.91,4.846-11.741,4.869-16.638.048a7.986,7.986,0,0,0-8.265-2.146,11.3,11.3,0,0,1-14.21-8.1,8.061,8.061,0,0,0-6.185-6.159A11.2,11.2,0,0,1,487.883,554.037Z" transform="translate(-482.586 -484.001)" fill="#2c272e"/>
              <path id="Path_2825" data-name="Path 2825" d="M570.056,590.93a6.077,6.077,0,0,1-3.948.078,11.8,11.8,0,0,0-12.381,3.279,7.524,7.524,0,0,1-10.851,0A11.92,11.92,0,0,0,530.489,591a7.5,7.5,0,0,1-9.319-5.326,11.911,11.911,0,0,0-9.148-9.079,7.439,7.439,0,0,1-5.352-9.264,11.712,11.712,0,0,0-3.3-12.3,7.4,7.4,0,0,1,0-10.773,11.7,11.7,0,0,0,3.3-12.3,7.442,7.442,0,0,1,5.362-9.257,11.911,11.911,0,0,0,9.142-9.086A7.5,7.5,0,0,1,530.5,508.3a11.867,11.867,0,0,0,12.383-3.284,7.53,7.53,0,0,1,10.85,0,11.8,11.8,0,0,0,12.384,3.273,6.117,6.117,0,0,1,3.946.079,6.743,6.743,0,0,1,3.053,4.368,10.744,10.744,0,0,0,6.537,7.756,17.262,17.262,0,0,0,4.83,2.222,7.727,7.727,0,0,1,3.408,5.632,11.021,11.021,0,0,1-.253,4.805,8.7,8.7,0,0,0,2.359,9.015c2.747,2.728,3.987,5.955,3.073,9.818a9.757,9.757,0,0,1-2.819,4.878c-2.813,2.676-3.5,5.832-2.58,9.528a9.822,9.822,0,0,1-1.57,8.757,4.65,4.65,0,0,1-1.619,1.433,17.106,17.106,0,0,0-4.832,2.221,10.6,10.6,0,0,0-5.824,5.568c-.427,1.049-.559,2.2-1.073,3.215A6.988,6.988,0,0,1,570.056,590.93Z" transform="translate(-497.452 -499.072)" fill="#dd4a48"/>
              <path id="Path_2826" data-name="Path 2826" d="M930.2,660.586a12.573,12.573,0,0,0,2.681-4.017,11.081,11.081,0,0,0,.135-6.464,9.178,9.178,0,0,1,2.57-9.454c4.276-4.227,4.267-10.142,0-14.381a9.214,9.214,0,0,1-2.541-9.565,10.19,10.19,0,0,0-2.844-10.363,7.467,7.467,0,0,1,5.484,9.2,11.891,11.891,0,0,0,3.282,12.495c3.188,3.172,3.039,7.862-.25,11.12a11.571,11.571,0,0,0-3.62,9.113,16.2,16.2,0,0,0,.612,3.1A7.565,7.565,0,0,1,930.2,660.586Z" transform="translate(-843.176 -582.884)" fill="#fff"/>
              <path id="Path_2827" data-name="Path 2827" d="M865.624,544.244a8.368,8.368,0,0,1-6.266-6.006,16.048,16.048,0,0,0-3.324-6.2,6.773,6.773,0,0,1,5.29,5.019A14.173,14.173,0,0,0,865.624,544.244Z" transform="translate(-783.427 -522.818)" fill="#fff"/>
              <path id="Path_2828" data-name="Path 2828" d="M856.016,909.055a15.927,15.927,0,0,0,3.327-6.2,8.38,8.38,0,0,1,6.264-6.008,14.167,14.167,0,0,0-4.3,7.192A6.777,6.777,0,0,1,856.016,909.055Z" transform="translate(-783.412 -817.114)" fill="#fff"/>
              <path id="Path_2829" data-name="Path 2829" d="M588.675,549.174c.072,0,3.169-.019,3.231.017,1.711.017,2.878-.188,4.454.71a4.8,4.8,0,0,0,2.436,1c1.738.318,1.529.49,3.159,1.283a39.6,39.6,0,0,1,8.85,5.577,38.236,38.236,0,0,1,13.434,23.809,38.561,38.561,0,0,1-19.666,39.711c-.857.468-1.742.874-2.6,1.339a25.843,25.843,0,0,1-8.375,1.513,36.8,36.8,0,0,1-38.249-33.005,35.33,35.33,0,0,1,5.476-23.321,35.741,35.741,0,0,1,24.953-16.609A3.217,3.217,0,0,0,588.675,549.174Z" transform="translate(-541.03 -536.815)" fill="#fff"/>
              <path id="Path_2830" data-name="Path 2830" d="M575.266,542.5a2.243,2.243,0,0,1-2.257,2.077,36.162,36.162,0,0,0-31.08,29.145c-3.9,19.05,9.441,38.579,28.71,42.117a37.359,37.359,0,0,0,16.443-.521,6.861,6.861,0,0,0,.678-.254c6.078-2.261,11.686-5.249,16.176-10.043a35.429,35.429,0,0,0,9.684-20.959A35.653,35.653,0,0,0,595.3,549.1a57.481,57.481,0,0,0-7.541-3.377,23.019,23.019,0,0,0-5.4-1.165,2.612,2.612,0,0,1-1.951-1.016c-.149-.337-.6-.61-.231-1.059.654-1.448,1.157-1.747,2.616-1.557a39.914,39.914,0,0,1,33.924,30.147c5.367,21.27-8.6,43.54-30.188,48.124-22.107,4.694-43.175-8.752-48.054-30.672-4.773-21.438,9.987-43.364,31.766-47.187q1.081-.19,2.165-.365C574.07,540.7,574.553,540.964,575.266,542.5Z" transform="translate(-526.887 -529.818)" fill="#2c272e"/>
              <path id="Path_2831" data-name="Path 2831" d="M635.927,670.908a2.141,2.141,0,0,1-.471,2.942c-1.417,1.345-2.753,2.776-4.164,4.129a8.634,8.634,0,0,1-12.3.034c-4.434-4.318-8.8-8.712-13.139-13.122a5.56,5.56,0,0,1,.064-8.091q2.428-2.495,4.922-4.926a5.613,5.613,0,0,1,8.271.042c1.772,1.741,3.568,3.462,5.251,5.287.83.9,1.291.99,2.217.047,5.651-5.752,11.376-11.43,17.079-17.13,2.9-2.9,6.053-2.9,8.972-.006,1.388,1.376,2.784,2.745,4.139,4.153a5.6,5.6,0,0,1-.04,8.275c-4.845,4.887-9.734,9.732-14.585,14.614a2.034,2.034,0,0,1-2.927.329,1.684,1.684,0,0,1-.46-2.417,6.779,6.779,0,0,1,1.127-1.275q6.72-6.726,13.442-13.449c1.583-1.586,1.582-2.274.012-3.855-1.231-1.24-2.453-2.489-3.711-3.7-1.1-1.059-1.728-1.06-2.958-.088-6.362,6.308-12.67,12.671-19.016,18.995a3.27,3.27,0,0,1-1.44,1.093,2.5,2.5,0,0,1-2.552-.744c-2.255-2.294-4.537-4.562-6.819-6.83-1.489-1.48-2.219-1.487-3.687-.034-1.361,1.346-2.722,2.692-4.057,4.063-1.2,1.232-1.216,2.048-.031,3.241q6.288,6.325,12.605,12.62a4.6,4.6,0,0,0,1.51,1.014,4.85,4.85,0,0,0,5.393-1.048c1.363-1.333,2.692-2.7,4.053-4.036a2.55,2.55,0,0,1,2.051-.889C635.208,670.192,635.744,670.274,635.927,670.908Z" transform="translate(-580.505 -608.345)" fill="#2c272e"/>
              <path id="Path_2832" data-name="Path 2832" d="M795.676,566.017a30.78,30.78,0,0,1,12.12,5.973c11.308,9.051,16.187,20.846,13.623,35s-11.292,23.474-25.034,28.143a5.33,5.33,0,0,1-.708.14,49.467,49.467,0,0,0,7.249-4.364,37.156,37.156,0,0,0,14.226-21.685,36.623,36.623,0,0,0-4.725-28.458A37.124,37.124,0,0,0,798,567.281C797.22,566.869,796.45,566.439,795.676,566.017Z" transform="translate(-734.804 -550.071)" fill="#dd4a48"/>
              <path id="Path_2833" data-name="Path 2833" d="M661.722,661.577a31.286,31.286,0,0,1,3.653,3.573,3.705,3.705,0,0,1-.189,4.812q-11.963,12.01-23.973,23.975a5.43,5.43,0,0,1-3.032,1.421,3.891,3.891,0,0,1-1.764-1.243q-6.174-6.167-12.339-12.343c-1.408-1.411-1.4-2.295.012-3.716,1.463-1.471,2.923-2.946,4.4-4.4,1.188-1.172,2.175-1.175,3.373.011,2.342,2.318,4.662,4.658,6.994,6.987,1.456,1.454,2.232,1.46,3.669.023q9.151-9.146,18.3-18.293C661.11,662.1,661.423,661.845,661.722,661.577Z" transform="translate(-595.722 -627.384)" fill="#dd4a48"/>
            </g>
          </g>
        </g>
      </g>
    </g>
  </g>
</svg>
