<svg xmlns="http://www.w3.org/2000/svg" width="24" height="24" viewBox="0 0 24 24">
  <g id="delivery_boy" transform="translate(3852 -113)">
    <rect id="Rectangle_17515" data-name="Rectangle 17515" width="24" height="24" transform="translate(-3852 113)" fill="none"/>
    <g id="Group_7493" data-name="Group 7493" transform="translate(-4051.845 -59.454)">
      <path id="Path_13597" data-name="Path 13597" d="M221.788,312.016l1.9-1.095-.632-.365-1.9,1.095Z" transform="translate(-17.15 -116.615)" fill="#dd4a48"/>
      <path id="Path_13598" data-name="Path 13598" d="M246.16,297.944l1.9-1.095-.632-.365-1.9,1.095Z" transform="translate(-37.731 -104.733)" fill="#dd4a48"/>
      <path id="Path_13599" data-name="Path 13599" d="M229.082,297.469a3.165,3.165,0,0,1-1.433,2.483.972.972,0,0,1-1.063.068,0,0,0,0,0,0,0,.944.944,0,0,1-.359-.689,1.755,1.755,0,0,0,.16-.082,3.165,3.165,0,0,0,1.433-2.483,1.419,1.419,0,0,0-.012-.2.85.85,0,0,1,1.276.909Z" transform="translate(-21.431 -104.699)" fill="#2c272e"/>
      <path id="Path_13600" data-name="Path 13600" d="M224.93,290.134l-.026-.016a1.577,1.577,0,0,0-1.536.173,4.888,4.888,0,0,0-2.212,3.831,1.349,1.349,0,0,0,2.212,1.277,4.889,4.889,0,0,0,2.211-3.832A1.552,1.552,0,0,0,224.93,290.134Zm-1.562,4.366a.971.971,0,0,1-1.064.067,1.04,1.04,0,0,1-.37-.895,3.172,3.172,0,0,1,1.435-2.483,1.059,1.059,0,0,1,.941-.137.964.964,0,0,1,.492.965A3.165,3.165,0,0,1,223.367,294.5Z" transform="translate(-17.15 -99.247)" fill="#2c272e"/>
      <path id="Path_13601" data-name="Path 13601" d="M228.6,296.538l-.017-.01a1.023,1.023,0,0,0-1,.112,3.168,3.168,0,0,0-1.434,2.483.874.874,0,0,0,1.434.828,3.169,3.169,0,0,0,1.433-2.484A1.006,1.006,0,0,0,228.6,296.538Zm-1.012,3.088a.781.781,0,0,1-.856.054.836.836,0,0,1-.3-.719,2.55,2.55,0,0,1,1.153-2,.851.851,0,0,1,.757-.11.775.775,0,0,1,.4.775A2.545,2.545,0,0,1,227.589,299.626Z" transform="translate(-21.372 -104.698)" fill="#dd4a48"/>
      <path id="Path_13602" data-name="Path 13602" d="M270.533,283.873l1.9-1.095-.632-.365-1.9,1.095Z" transform="translate(-58.311 -92.851)" fill="#dd4a48"/>
      <path id="Path_13603" data-name="Path 13603" d="M294.9,269.8l1.9-1.095-.632-.365-1.9,1.095Z" transform="translate(-78.891 -80.969)" fill="#dd4a48"/>
      <path id="Path_13604" data-name="Path 13604" d="M319.277,255.731l1.9-1.095-.632-.365-1.9,1.095Z" transform="translate(-99.472 -69.087)" fill="#dd4a48"/>
      <path id="Path_13605" data-name="Path 13605" d="M261.1,197.905c.125-.107.25-.063.28.1a.568.568,0,0,1-.171.485c-.124.107-.25.063-.28-.1A.569.569,0,0,1,261.1,197.905Z" transform="translate(-50.731 -21.442)" fill="#dd4a48"/>
      <path id="Path_13606" data-name="Path 13606" d="M263.05,198.666l-1.269-.732-.278.67,1.272.734Z" transform="translate(-51.221 -21.515)" fill="#dd4a48"/>
      <path id="Path_13607" data-name="Path 13607" d="M269.225,202.6c.125-.107.25-.063.28.1a.568.568,0,0,1-.171.485c-.124.107-.25.063-.28-.1A.569.569,0,0,1,269.225,202.6Z" transform="translate(-57.591 -25.403)" fill="#dd4a48"/>
      <path id="Path_13608" data-name="Path 13608" d="M308.849,234.271c0,.031,0,.059,0,.09,0,.062,0,.126-.006.19a1.058,1.058,0,0,0-.941.137,3.171,3.171,0,0,0-1.435,2.483,1.039,1.039,0,0,0,.37.895,2.255,2.255,0,0,1-.2.128c-.025.014-.048.025-.073.037l-.219.826-1.27-.708a1.554,1.554,0,0,1-.649-1.433,4.892,4.892,0,0,1,2.211-3.832,1.562,1.562,0,0,1,1.55-.162v0l1.251.7.026.015Z" transform="translate(-87.468 -50.941)" fill="#455a64"/>
      <path id="Path_13609" data-name="Path 13609" d="M316.325,237.459l-.026-.015a1.576,1.576,0,0,0-1.536.173,4.887,4.887,0,0,0-2.212,3.83,1.349,1.349,0,0,0,2.212,1.278,4.889,4.889,0,0,0,2.211-3.832A1.552,1.552,0,0,0,316.325,237.459Zm-1.562,4.366a.971.971,0,0,1-1.064.067,1.039,1.039,0,0,1-.37-.895,3.171,3.171,0,0,1,1.435-2.483,1.058,1.058,0,0,1,.941-.137.964.964,0,0,1,.492.965A3.165,3.165,0,0,1,314.762,241.825Z" transform="translate(-94.325 -54.767)" fill="#2c272e"/>
      <path id="Path_13610" data-name="Path 13610" d="M320.477,244.793a3.165,3.165,0,0,1-1.433,2.483.972.972,0,0,1-1.063.068,0,0,0,0,0,0,0,.943.943,0,0,1-.359-.689,1.781,1.781,0,0,0,.16-.082,3.165,3.165,0,0,0,1.433-2.483,1.418,1.418,0,0,0-.012-.2.85.85,0,0,1,1.276.909Z" transform="translate(-98.606 -60.219)" fill="#2c272e"/>
      <path id="Path_13611" data-name="Path 13611" d="M320,243.865l-.017-.01a1.022,1.022,0,0,0-1,.112,3.169,3.169,0,0,0-1.434,2.483.874.874,0,0,0,1.434.828,3.169,3.169,0,0,0,1.433-2.484A1.006,1.006,0,0,0,320,243.865Zm-1.013,3.088a.781.781,0,0,1-.856.054.836.836,0,0,1-.3-.719,2.549,2.549,0,0,1,1.153-2,.851.851,0,0,1,.757-.11.775.775,0,0,1,.4.776A2.544,2.544,0,0,1,318.984,246.953Z" transform="translate(-98.547 -60.22)" fill="#dd4a48"/>
      <path id="Path_13612" data-name="Path 13612" d="M318.643,232.551l3.579-2.067c.416-.24-.941-1.649-1.937-1.743a3.875,3.875,0,0,0-1.642.161s.763.979.632,1.534S318.643,232.551,318.643,232.551Z" transform="translate(-99.47 -47.512)" fill="#dd4a48"/>
      <path id="Path_13613" data-name="Path 13613" d="M243.3,215.814s5.187,2.616,5.411,2.773.007,1.983-.355,3.065-.9,2.745-1.124,3.22a2.011,2.011,0,0,1-1.032.944l-3.737,2.159-5.052.611-2.007-1.095.522-3.284s5.372-2.859,6.109-3.284A3.64,3.64,0,0,0,243.3,215.814Z" transform="translate(-29.183 -36.613)" fill="#dd4a48"/>
      <path id="Path_13614" data-name="Path 13614" d="M243.3,215.814s5.187,2.616,5.411,2.773.007,1.983-.355,3.065-.9,2.745-1.124,3.22a2.011,2.011,0,0,1-1.032.944l-3.737,2.159-5.052.611-2.007-1.095.522-3.284s5.372-2.859,6.109-3.284A3.64,3.64,0,0,0,243.3,215.814Z" transform="translate(-29.183 -36.613)" opacity="0.2"/>
      <path id="Path_13615" data-name="Path 13615" d="M295.087,221.179a8.4,8.4,0,0,0,.756-3c-.071-.832-.381-1.513-1.755-1.855a16.468,16.468,0,0,0-3.3-.337l-.585.337s3.946,2.287,4.394,2.537c.274.153.566.841.03,2.937l.092.053C294.775,221.884,294.938,221.582,295.087,221.179Z" transform="translate(-75.459 -36.763)" fill="#dd4a48"/>
      <path id="Path_13616" data-name="Path 13616" d="M295.087,221.179a8.4,8.4,0,0,0,.756-3c-.071-.832-.381-1.513-1.755-1.855a16.468,16.468,0,0,0-3.3-.337l-.585.337s3.946,2.287,4.394,2.537c.274.153.566.841.03,2.937l.092.053C294.775,221.884,294.938,221.582,295.087,221.179Z" transform="translate(-75.459 -36.763)" fill="#fff" opacity="0.3"/>
      <path id="Path_13617" data-name="Path 13617" d="M274.948,206.715l.638-.365s-.037-2.211-.967-2.747-4.09-.172-4.09-.172l-.632.365Z" transform="translate(-58.309 -26.054)" fill="#dd4a48"/>
      <path id="Path_13618" data-name="Path 13618" d="M287.827,207.728a.334.334,0,0,0,0,.634,1.213,1.213,0,0,0,1.1,0,.334.334,0,0,0,0-.634A1.214,1.214,0,0,0,287.827,207.728Z" transform="translate(-73.256 -29.675)" fill="#2c272e"/>
      <path id="Path_13619" data-name="Path 13619" d="M294.431,214.728a.236.236,0,0,0,0,.448.858.858,0,0,0,.776,0,.237.237,0,0,0,0-.448A.858.858,0,0,0,294.431,214.728Z" transform="translate(-78.889 -35.618)" fill="#2c272e"/>
      <path id="Path_13620" data-name="Path 13620" d="M278.718,206.122a.237.237,0,0,0,0,.448.858.858,0,0,0,.776,0,.237.237,0,0,0,0-.448A.858.858,0,0,0,278.718,206.122Z" transform="translate(-65.621 -28.351)" fill="#2c272e"/>
      <path id="Path_13621" data-name="Path 13621" d="M301.984,220.751c.125-.107.25-.063.28.1a.569.569,0,0,1-.171.485.157.157,0,0,1-.28-.1A.569.569,0,0,1,301.984,220.751Z" transform="translate(-85.253 -40.733)" fill="#dd4a48"/>
      <path id="Path_13622" data-name="Path 13622" d="M303.933,221.512l-1.269-.732-.278.67,1.272.734Z" transform="translate(-85.743 -40.807)" fill="#dd4a48"/>
      <path id="Path_13623" data-name="Path 13623" d="M310.108,225.442c.125-.107.25-.063.28.1a.568.568,0,0,1-.171.485c-.124.107-.25.063-.28-.1A.569.569,0,0,1,310.108,225.442Z" transform="translate(-92.113 -44.694)" fill="#dd4a48"/>
      <path id="Path_13624" data-name="Path 13624" d="M310.108,225.442c.125-.107.25-.063.28.1a.568.568,0,0,1-.171.485c-.124.107-.25.063-.28-.1A.569.569,0,0,1,310.108,225.442Z" transform="translate(-92.113 -44.694)"/>
      <path id="Path_13625" data-name="Path 13625" d="M217.454,286.946c0,.031,0,.059,0,.09,0,.062,0,.126-.006.19a1.058,1.058,0,0,0-.941.137,3.171,3.171,0,0,0-1.435,2.483,1.039,1.039,0,0,0,.37.895,2.31,2.31,0,0,1-.2.128c-.025.014-.048.025-.073.037l-.219.826-1.27-.708a1.554,1.554,0,0,1-.649-1.433,4.891,4.891,0,0,1,2.211-3.832,1.562,1.562,0,0,1,1.55-.162v0l1.251.7.026.016Z" transform="translate(-10.293 -95.421)" fill="#2c272e"/>
      <path id="Path_13626" data-name="Path 13626" d="M211.947,279.135,211,282.419l1.9,1.095.983-3.264Z" transform="translate(-8.574 -90.082)" fill="#dd4a48"/>
      <path id="Path_13627" data-name="Path 13627" d="M211.947,279.135,211,282.419l1.9,1.095.983-3.264Z" transform="translate(-8.574 -90.082)" opacity="0.2"/>
      <path id="Path_13628" data-name="Path 13628" d="M217.092,267.251a6.185,6.185,0,0,0,1.931,1.115,23.274,23.274,0,0,0,3.542.345,6.406,6.406,0,0,0,2.042-.057,20.425,20.425,0,0,0,1.965-1.038c.632-.365.9-1.8-.841-2.189a17.533,17.533,0,0,0-3.583-.365Z" transform="translate(-13.719 -78.199)" fill="#dd4a48"/>
      <path id="Path_13629" data-name="Path 13629" d="M285.1,272.243a1.764,1.764,0,0,0-.108.422.936.936,0,0,0-.034.464.922.922,0,0,0,.524.409,1.172,1.172,0,0,0,.923-.179,3.785,3.785,0,0,1,1.021-.556,2.327,2.327,0,0,0,.9-.41c.254-.2.593-.767.107-.9a20.5,20.5,0,0,0-2.5.372Z" transform="translate(-71.012 -83.612)" fill="#2c272e"/>
      <path id="Path_13630" data-name="Path 13630" d="M285.966,272.569v.719a.481.481,0,0,0,.613.278.642.642,0,0,0,.412-.569l.028-.428Z" transform="translate(-71.877 -84.538)" fill="#ffa8a7"/>
      <path id="Path_13631" data-name="Path 13631" d="M285.667,243.99c.005.895-.251,4.762-.251,4.762s-.366.463-1.161,0l-.27-4.319Z" transform="translate(-70.204 -60.406)" fill="#2c272e"/>
      <path id="Path_13632" data-name="Path 13632" d="M252.452,248.394l2.487-1.435a.633.633,0,0,0,0-1.119l-1.854-1.071a.744.744,0,0,0-.674,0l-2.487,1.436a.633.633,0,0,0,0,1.118l1.854,1.071A.744.744,0,0,0,252.452,248.394Z" transform="translate(-41.158 -60.996)" fill="#dd4a48"/>
      <path id="Path_13633" data-name="Path 13633" d="M252.452,248.394l2.487-1.435a.633.633,0,0,0,0-1.119l-1.854-1.071a.744.744,0,0,0-.674,0l-2.487,1.436a.633.633,0,0,0,0,1.118l1.854,1.071A.744.744,0,0,0,252.452,248.394Z" transform="translate(-41.158 -60.996)" fill="#2c272e"/>
      <path id="Path_13634" data-name="Path 13634" d="M250.993,246.594l1.855,1.07a.745.745,0,0,0,.674,0l2.486-1.435a.205.205,0,0,0,0-.389l-1.854-1.071a.744.744,0,0,0-.674,0l-2.487,1.436A.205.205,0,0,0,250.993,246.594Z" transform="translate(-42.227 -60.996)" fill="#dd4a48"/>
      <g id="Group_7483" data-name="Group 7483" transform="translate(208.61 172.839)">
        <g id="Group_7479" data-name="Group 7479" transform="translate(0 2.817)">
          <path id="Path_13635" data-name="Path 13635" d="M252.424,193.453l-.315,1.3-1.356.082.293-1.8Z" transform="translate(-250.752 -193.033)" fill="#ffa8a7"/>
        </g>
        <g id="Group_7482" data-name="Group 7482" transform="translate(0.212 0)">
          <g id="Group_7480" data-name="Group 7480" transform="translate(2.571 2.256)">
            <path id="Path_13636" data-name="Path 13636" d="M268.843,189.425s.147.552.092.582a.95.95,0,0,1-.3,0Z" transform="translate(-268.639 -189.425)" fill="#f28f8f"/>
          </g>
          <g id="Group_7481" data-name="Group 7481">
            <path id="Path_13637" data-name="Path 13637" d="M254.638,175.423c.219.257.417.678.264,1.709-.168,1.13-.377,1.26-.546,1.369a1.958,1.958,0,0,1-1.344-.114,2.827,2.827,0,0,1-.865-1.579c-.128-.8.139-1.678.724-1.828A1.97,1.97,0,0,1,254.638,175.423Z" transform="translate(-252.116 -174.925)" fill="#ffa8a7"/>
          </g>
        </g>
      </g>
      <g id="Group_7486" data-name="Group 7486" transform="translate(208.132 172.454)">
        <g id="Group_7484" data-name="Group 7484" transform="translate(0)">
          <path id="Path_13638" data-name="Path 13638" d="M248.314,176.021a1.769,1.769,0,0,0,.912.326c.271.049,1.1.1,1.349-.488s.077-1.019.38-1.162a4.852,4.852,0,0,0,.682-.317,1.532,1.532,0,0,0-.729-1.549,2.126,2.126,0,0,0-2.869.4A2.291,2.291,0,0,0,248.314,176.021Z" transform="translate(-247.68 -172.454)" fill="#2c272e"/>
        </g>
        <g id="Group_7485" data-name="Group 7485" transform="translate(1.447 1.685)">
          <path id="Path_13639" data-name="Path 13639" d="M256.983,185.5a1.583,1.583,0,0,0,1.074-.36,2.324,2.324,0,0,0,.3-1.021.447.447,0,0,1,.36-.425c.2-.063.644-.281.644-.281l0-.121a3.457,3.457,0,0,1,.429,0c.094.017.043.155-.194.276s-.885.351-.985.431a2.084,2.084,0,0,0-.225.77C258.315,185.124,258.081,185.657,256.983,185.5Z" transform="translate(-256.983 -183.283)" fill="#2c272e"/>
        </g>
      </g>
      <path id="Path_13640" data-name="Path 13640" d="M263.249,200.29l.774-.447c.074-.226-.045-.339-.258-.325s-.146-.191-.275-.25c-.17-.077-.266-.034-.341-.069-.1-.045-.109-.127-.209-.137-.445-.043-.749.592-.749.592Z" transform="translate(-51.801 -22.467)" fill="#f28f8f"/>
      <path id="Path_13641" data-name="Path 13641" d="M235.055,229.3s3.437-1.7,4.037-1.982a6.614,6.614,0,0,1,2.038-.674.813.813,0,0,1,.745.762,5.776,5.776,0,0,1-.052.9,21.294,21.294,0,0,1-2.882.736A32.064,32.064,0,0,1,235.055,229.3Z" transform="translate(-28.887 -45.756)" fill="#2c272e"/>
      <path id="Path_13642" data-name="Path 13642" d="M237.428,236.036a4.181,4.181,0,0,0,.228,1.957,3.992,3.992,0,0,0,3.387,1.461,28.161,28.161,0,0,0,3.89-1.505s1.41-.517,1.417-.886c.009-.544-.028-1.308-1.259-1.276a43.108,43.108,0,0,0-4.43.72Z" transform="translate(-30.886 -53.478)" fill="#2c272e"/>
      <path id="Path_13643" data-name="Path 13643" d="M238.409,198.391c.532-.556.891-.6,1.146-.535a8.977,8.977,0,0,1,1.694.679h0s-.205,1.989.766,2.562v3.1a1.075,1.075,0,0,1-.453.671,3.4,3.4,0,0,1-2.227.508,2.741,2.741,0,0,1-1.888-1.386,30.63,30.63,0,0,1,.139-3.541A4.28,4.28,0,0,1,238.409,198.391Z" transform="translate(-30.906 -21.429)" fill="#2c272e"/>
      <path id="Path_13644" data-name="Path 13644" d="M262.656,213.953a2.489,2.489,0,0,1-.766-1.073,2.1,2.1,0,0,0,.766,1.435Z" transform="translate(-51.547 -34.136)" fill="#2c272e"/>
      <path id="Path_13645" data-name="Path 13645" d="M300.346,221.166a1.217,1.217,0,0,0,.777-.24s.271-.527.6-.482c0,0,.059-.223-.078-.3s-.2-.053-.251-.129-.063-.224-.306-.224c-.1,0-.088-.073-.337-.1s-.5.545-.677.545Z" transform="translate(-83.793 -39.886)" fill="#ffa8a7"/>
      <path id="Path_13646" data-name="Path 13646" d="M261.465,202.349a2.36,2.36,0,0,1,1.475.674c.325.3,2.216,2.2,2.216,2.2l2.305.331a.775.775,0,0,1,.255.38.683.683,0,0,1-.079.636,26.488,26.488,0,0,1-2.736.051,20.6,20.6,0,0,1-2.677-1.565,1.989,1.989,0,0,1-.777-1.342A2.946,2.946,0,0,1,261.465,202.349Z" transform="translate(-51.122 -25.243)" fill="#2c272e"/>
      <g id="Group_7487" data-name="Group 7487" transform="translate(200.845 180.66)">
        <path id="Path_13647" data-name="Path 13647" d="M208.293,229.86l-3.538,4.313a.984.984,0,0,1-.118.008.847.847,0,0,1-.4-.095l-2.984-1.724-.2-.117a.763.763,0,0,1-.2-.583v-.727a4.252,4.252,0,0,1,2.125-3.683l3.563-2.057,3.792,2.189Z" transform="translate(-200.845 -225.195)" fill="#dd4a48"/>
      </g>
      <g id="Group_7488" data-name="Group 7488" transform="translate(200.845 180.66)" opacity="0.1">
        <path id="Path_13648" data-name="Path 13648" d="M208.293,229.86l-3.538,4.313a.984.984,0,0,1-.118.008.847.847,0,0,1-.4-.095l-2.984-1.724-.2-.117a.763.763,0,0,1-.2-.583v-.727a4.252,4.252,0,0,1,2.125-3.683l3.563-2.057,3.792,2.189Z" transform="translate(-200.845 -225.195)"/>
      </g>
      <g id="Group_7489" data-name="Group 7489" transform="translate(201.773 180.66)">
        <path id="Path_13649" data-name="Path 13649" d="M212.112,231.346l3.25-3.962L211.57,225.2l-3.562,2.056a4.243,4.243,0,0,0-1.2,1.034Z" transform="translate(-206.81 -225.195)" fill="#dd4a48"/>
      </g>
      <g id="Group_7492" data-name="Group 7492" transform="translate(204.637 182.849)">
        <g id="Group_7490" data-name="Group 7490" transform="translate(0 0)">
          <path id="Path_13650" data-name="Path 13650" d="M230.9,242.447a.763.763,0,0,1-.2.583l-.2.117-4.879,2.818a.78.78,0,0,1-.286.089.984.984,0,0,1-.118.008V245a4.251,4.251,0,0,1,2.127-3.683l.4-.232,3.158-1.825Z" transform="translate(-225.215 -239.265)" fill="#dd4a48"/>
        </g>
        <g id="Group_7491" data-name="Group 7491" transform="translate(0 0)" opacity="0.2">
          <path id="Path_13651" data-name="Path 13651" d="M230.9,242.447a.763.763,0,0,1-.2.583l-.2.117-4.879,2.818a.78.78,0,0,1-.286.089.984.984,0,0,1-.118.008V245a4.251,4.251,0,0,1,2.127-3.683l.4-.232,3.158-1.825Z" transform="translate(-225.215 -239.265)"/>
        </g>
      </g>
      <path id="Path_13652" data-name="Path 13652" d="M268.229,285.411l1.91-.007,2.732-1.579h0l-2.677,1.936-2.015.028Z" transform="translate(-56.857 -94.043)" fill="#dbdbdb"/>
      <path id="Path_13653" data-name="Path 13653" d="M235.75,296.627s3.441-1.3,3.731-1.45a7.418,7.418,0,0,0,.974-.71.414.414,0,0,0-.051-.556,10.106,10.106,0,0,0-1.76.046c-.2.061-3.439,1.1-3.439,1.1Z" transform="translate(-29.013 -102.544)" fill="#dbdbdb"/>
      <path id="Path_13654" data-name="Path 13654" d="M234.161,301.424c-.285-.244-.571-.143-.641.225a1.3,1.3,0,0,0,.39,1.109c.285.244.571.143.641-.225A1.3,1.3,0,0,0,234.161,301.424Z" transform="translate(-27.578 -108.791)" fill="#2c272e"/>
    </g>
  </g>
</svg>
