<svg xmlns="http://www.w3.org/2000/svg" width="24" height="24" viewBox="0 0 24 24">
  <g id="delivery_time" transform="translate(17035 5736)">
    <g id="Icon_feather-clock" data-name="Icon feather-clock" transform="translate(-17035 -5735.999)">
      <g id="Path_2674" data-name="Path 2674" transform="translate(-3 -3)" fill="none" stroke-linecap="round" stroke-linejoin="round">
        <path d="M27,15A12,12,0,1,1,15,3,12,12,0,0,1,27,15Z" stroke="none"/>
        <path d="M 14.99847221374512 4 C 12.06067276000977 4 9.298721313476562 5.144039154052734 7.221382141113281 7.221389770507812 C 5.14404296875 9.298728942871094 4.000001907348633 12.06069946289062 4.000001907348633 14.99850940704346 C 4.000001907348633 17.93631935119629 5.14404296875 20.69828987121582 7.221382141113281 22.7756290435791 C 9.298721313476562 24.85297966003418 12.06067276000977 25.99701881408691 14.99847221374512 25.99701881408691 C 17.93627166748047 25.99701881408691 20.69822311401367 24.85297966003418 22.77556228637695 22.7756290435791 C 24.85290145874023 20.69828987121582 25.9969425201416 17.93631935119629 25.9969425201416 14.99850940704346 C 25.9969425201416 12.06069946289062 24.85290145874023 9.298728942871094 22.77556228637695 7.221389770507812 C 20.69822311401367 5.144039154052734 17.93627166748047 4 14.99847221374512 4 M 14.99847221374512 3 C 21.62504196166992 3 26.9969425201416 8.371910095214844 26.9969425201416 14.99850940704346 C 26.9969425201416 21.62509918212891 21.62504196166992 26.99701881408691 14.99847221374512 26.99701881408691 C 8.371902465820312 26.99701881408691 3.000001907348633 21.62509918212891 3.000001907348633 14.99850940704346 C 3.000001907348633 8.371910095214844 8.371902465820312 3 14.99847221374512 3 Z" stroke="none" fill="#dd4a48"/>
      </g>
      <path id="Path_2675" data-name="Path 2675" d="M18,9v7.2l4.8,2.4" transform="translate(-6.002 -4.201)" fill="none" stroke="#dd4a48" stroke-linecap="round" stroke-linejoin="round" stroke-width="1"/>
    </g>
    <rect id="Rectangle_17440" data-name="Rectangle 17440" width="24" height="24" transform="translate(-17035 -5736)" fill="none"/>
  </g>
</svg>
