<svg xmlns="http://www.w3.org/2000/svg" width="295" height="222.685" viewBox="0 0 295 222.685">
  <g id="empty_cart" transform="translate(18009 6071.685)">
    <g id="Group_6985" data-name="Group 6985" transform="translate(88 14)">
      <g id="Group_6966" data-name="Group 6966">
        <g id="Group_6965" data-name="Group 6965">
          <g id="Group_6963" data-name="Group 6963" transform="translate(-18135 -6163.667)">
            <g id="Group_6937" data-name="Group 6937">
              <g id="Group_6932" data-name="Group 6932" transform="translate(-192.544 -285.889)">
                <g id="Group_6930" data-name="Group 6930" transform="translate(308.441 422.596)">
                  <g id="Group_6925" data-name="Group 6925" transform="translate(0)">
                    <path id="Path_2771" data-name="Path 2771" d="M453.3,523.812h-2.1a1.7,1.7,0,0,1-1.619-2.208h0c.775-2.461,1.677-4.907,2.677-7.275a81.957,81.957,0,0,1,129.576-29.743,1.7,1.7,0,0,1,.078,2.477l-1.445,1.445a1.694,1.694,0,0,1-2.314.078,76.557,76.557,0,0,0-123.235,34.053v0A1.7,1.7,0,0,1,453.3,523.812Z" transform="translate(-449.496 -464.26)" fill="#2c272e"/>
                    <path id="Path_2772" data-name="Path 2772" d="M609.771,634.259A82,82,0,0,1,452.253,666.17c-1-2.368-1.9-4.815-2.677-7.276h0a1.7,1.7,0,0,1,1.619-2.208h2.1a1.7,1.7,0,0,1,1.614,1.172v0a76.587,76.587,0,1,0,135.9-67.074,1.693,1.693,0,0,1,.2-2.159l1.466-1.466a1.7,1.7,0,0,1,2.59.223,81.873,81.873,0,0,1,13.089,30.56A82.365,82.365,0,0,1,609.771,634.259Z" transform="translate(-449.496 -552.28)" fill="#2c272e"/>
                  </g>
                </g>
                <rect id="Rectangle_17349" data-name="Rectangle 17349" width="39.392" height="6.568" rx="3.284" transform="translate(274.547 475.581)" fill="#2c272e"/>
                <rect id="Rectangle_17350" data-name="Rectangle 17350" width="32.041" height="6.568" rx="3.284" transform="translate(281.897 526.922)" fill="#2c272e"/>
                <rect id="Rectangle_17351" data-name="Rectangle 17351" width="40.83" height="6.568" rx="3.284" transform="translate(271.625 501.938)" fill="#2c272e"/>
                <g id="Group_6931" data-name="Group 6931" transform="translate(306.262 406.32)">
                  <path id="Path_2781" data-name="Path 2781" d="M535.487,410.071v.052a3.2,3.2,0,0,1-3.551,3.175,91.582,91.582,0,0,0-84.4,37.742,3.183,3.183,0,0,1-2.6,1.332h0a3.2,3.2,0,0,1-2.6-5.063,98.51,98.51,0,0,1,10.473-12.342,97.521,97.521,0,0,1,69.159-28.647,99.374,99.374,0,0,1,10.642.569A3.2,3.2,0,0,1,535.487,410.071Z" transform="translate(-441.739 -406.32)" fill="#2c272e"/>
                  <path id="Path_2782" data-name="Path 2782" d="M877.949,452.507l-1.725,1.725a2.023,2.023,0,0,1-2.759.093,91.5,91.5,0,0,0-24.521-15.381A3.2,3.2,0,0,1,846.99,436v-.076a3.193,3.193,0,0,1,4.425-2.951l.044.019a97.361,97.361,0,0,1,26.4,16.559A2.03,2.03,0,0,1,877.949,452.507Z" transform="translate(-733.152 -425.304)" fill="#2c272e"/>
                </g>
              </g>
              <g id="Group_6933" data-name="Group 6933" transform="translate(-2983.66 -1251.905)">
                <path id="Path_2783" data-name="Path 2783" d="M3282.668,1385.108a4.809,4.809,0,0,1,4.694-7.337c.123.017.248.018.372.026a5.216,5.216,0,0,1,2.628,1.6,4.787,4.787,0,1,1-7.46,6C3282.827,1385.3,3282.746,1385.2,3282.668,1385.108Z" transform="translate(-26.959 -28.511)" fill="#dd4a48"/>
                <path id="Path_2784" data-name="Path 2784" d="M3252.681,1438.859a11.087,11.087,0,0,1-.486-1.605c-.074-.367.007-.646.386-.716s.52.206.583.526a4.79,4.79,0,0,0,.554,1.619,6.4,6.4,0,0,0,4.582,3.644,6.184,6.184,0,0,0,2.6.045c.351-.067.647-.025.718.377s-.222.549-.557.6a7.619,7.619,0,0,1-7.069-2.452A7.833,7.833,0,0,1,3252.681,1438.859Z" transform="translate(0 -81.796)" fill="#2c272e"/>
                <path id="Path_2785" data-name="Path 2785" d="M3266.927,1347.31a6.212,6.212,0,0,0-4.157.907,6.6,6.6,0,0,0-2.446,2.526c-.038.068-.075.136-.114.2-.152.262-.366.4-.66.251a.473.473,0,0,1-.2-.715,7.645,7.645,0,0,1,1.99-2.455,7.841,7.841,0,0,1,5.481-1.755c.472.085.946.165,1.417.255.359.069.575.273.462.655s-.414.364-.725.287A3.165,3.165,0,0,0,3266.927,1347.31Z" transform="translate(-6.432)" fill="#2c272e"/>
                <path id="Path_2786" data-name="Path 2786" d="M3387.458,1381.055a7.981,7.981,0,0,1-1.755,4.918c-.078.1-.16.192-.245.283-.22.239-.478.326-.735.084a.482.482,0,0,1,.019-.743,6.721,6.721,0,0,0,.527-8.346c-.026-.039-.052-.078-.081-.115-.208-.268-.273-.558.026-.779.324-.239.573-.06.781.228a7.605,7.605,0,0,1,1.3,2.972A7.865,7.865,0,0,1,3387.458,1381.055Z" transform="translate(-119.964 -27.171)" fill="#2c272e"/>
              </g>
              <g id="Group_6934" data-name="Group 6934" transform="translate(-3156.513 -1075.283)">
                <path id="Path_2783-2" data-name="Path 2783" d="M3282.6,1384.474a4.4,4.4,0,0,1,4.291-6.707c.113.015.227.017.34.024a4.769,4.769,0,0,1,2.4,1.464,4.376,4.376,0,1,1-6.82,5.481C3282.75,1384.646,3282.675,1384.561,3282.6,1384.474Z" transform="translate(-27.199 -28.764)" fill="#dd4a48"/>
                <path id="Path_2784-2" data-name="Path 2784" d="M3252.637,1438.659a10.117,10.117,0,0,1-.444-1.468c-.067-.335.006-.59.353-.654s.475.188.533.48a4.377,4.377,0,0,0,.507,1.48,5.849,5.849,0,0,0,4.188,3.331,5.651,5.651,0,0,0,2.38.041c.321-.061.591-.023.657.344s-.2.5-.51.547a6.965,6.965,0,0,1-6.462-2.241A7.156,7.156,0,0,1,3252.637,1438.659Z" transform="translate(0 -82.523)" fill="#2c272e"/>
                <path id="Path_2785-2" data-name="Path 2785" d="M3266.27,1347.22a5.679,5.679,0,0,0-3.8.829,6.031,6.031,0,0,0-2.236,2.309c-.035.062-.069.125-.1.186-.139.24-.335.365-.6.23a.432.432,0,0,1-.18-.654,6.984,6.984,0,0,1,1.818-2.244,7.169,7.169,0,0,1,5.011-1.6c.431.077.865.151,1.3.234.329.063.525.25.422.6s-.378.333-.663.262A2.891,2.891,0,0,0,3266.27,1347.22Z" transform="translate(-6.488 0)" fill="#2c272e"/>
                <path id="Path_2786-2" data-name="Path 2786" d="M3387.209,1380.643a7.3,7.3,0,0,1-1.605,4.5c-.071.089-.146.175-.224.259-.2.218-.436.3-.671.076a.44.44,0,0,1,.017-.679,6.144,6.144,0,0,0,.481-7.629c-.024-.035-.047-.071-.073-.1-.19-.245-.25-.51.024-.712.3-.219.524-.055.714.208a6.952,6.952,0,0,1,1.193,2.717A7.248,7.248,0,0,1,3387.209,1380.643Z" transform="translate(-121.03 -27.412)" fill="#2c272e"/>
              </g>
              <path id="Path_2787" data-name="Path 2787" d="M2002.882,626.974l6.722-12.636c.908,1.439,1.718,2.706,2.511,3.984,1.583,2.551,3.153,5.11,4.738,7.66.235.378.453.657-.266.677-4.422.12-8.844.259-13.266.389A3.233,3.233,0,0,1,2002.882,626.974Z" transform="matrix(0.438, 0.899, -0.899, 0.438, -139.518, -1802.769)" fill="#dd4a48"/>
              <path id="Path_2788" data-name="Path 2788" d="M2002.882,632.734l9.786-18.4c1.322,2.1,2.5,3.94,3.656,5.8,2.3,3.714,4.59,7.44,6.9,11.152.342.55.66.957-.386.985-6.438.174-12.875.377-19.313.566A4.706,4.706,0,0,1,2002.882,632.734Z" transform="matrix(0.438, 0.899, -0.899, 0.438, -271.212, -1953.777)" fill="#dd4a48"/>
              <path id="Path_2789" data-name="Path 2789" d="M3072,440.028c0,1.1-.018,2.194.009,3.29.011.426-.087.577-.549.578-1.345,0-1.345.026-1.341-1.349,0-1.358-.015-2.716.017-4.073.01-.451-.13-.564-.566-.556-1.54.027-3.082-.019-4.621.03-.7.023-.97-.143-.938-.9.064-1.538.005-3.081.04-4.621.011-.49-.136-.613-.615-.6-1.592.033-3.186,0-4.778.03-.554.012-.726-.175-.714-.719.033-1.592.006-3.186.037-4.778.009-.477-.126-.629-.615-.619-1.592.035-3.186,0-4.778.035-.556.012-.724-.176-.712-.721.033-1.592,0-3.186.032-4.778.011-.484-.12-.63-.605-.618-1.514.035-3.03-.01-4.542.046-.67.025-.909-.124-.875-.848.069-1.459,0-2.925.047-4.385.02-.6-.112-.814-.758-.79-1.513.055-3.029,0-4.542.043-.6.017-.837-.13-.817-.778.047-1.539-.018-3.082.041-4.621.024-.627-.188-.731-.746-.716-1.513.04-3.029,0-4.542.041-.546.015-.765-.136-.684-.689a2.611,2.611,0,0,0,0-.7c-.056-.433.144-.511.533-.509,2.246.011,4.491.014,6.736-.021.526-.008.587.2.58.644-.025,1.619.007,3.238-.029,4.857-.011.495.138.609.612.6,1.618-.033,3.238,0,4.856-.036.53-.012.66.161.649.666-.034,1.566,0,3.134-.034,4.7-.011.508.122.677.65.664,1.565-.04,3.133-.009,4.7-.042.5-.011.675.114.662.649-.041,1.618,0,3.238-.035,4.856-.011.5.141.608.614.6,1.592-.033,3.187.013,4.778-.037.612-.019.739.183.724.751-.041,1.592,0,3.186-.039,4.778-.011.489.131.611.609.6,1.618-.033,3.238.008,4.856-.032.53-.013.648.153.637.653-.034,1.618,0,3.238-.035,4.856-.01.477.109.627.6.616,1.592-.034,3.186.008,4.778-.03.553-.013.776.082.741.705-.061,1.093-.017,2.192-.017,3.289Z" transform="translate(-2739.033 -204.723)" fill="#2c272e"/>
              <g id="Group_6935" data-name="Group 6935" transform="translate(-2522.903 -1255.044)">
                <path id="Path_2790" data-name="Path 2790" d="M2665.994,1351.079c-.125-.081-.249-.229-.375-.232-1.755-.041-1.734-1.049-1.519-2.427.752-4.8,1.423-9.621,2.054-14.442.126-.965.4-1.035,1.315-.9q7.579,1.15,15.188,2.1c1.067.135,1.351.437,1.031,1.483-.2.647-.064,1.388-.335,2.049a2.344,2.344,0,0,1,.285,1.865c-.48,3.508-1.03,7.007-1.466,10.522-.258,2.084-.542,2.279-2.583,2.024-4.157-.52-8.3-1.137-12.449-1.735A2.756,2.756,0,0,1,2665.994,1351.079Z" fill="#dd4a48"/>
                <path id="Path_2791" data-name="Path 2791" d="M2669.929,1364.332c1.957-.391,3.819.325,5.722.527,2.968.314,5.92.792,8.872,1.241.613.093.876.036.966-.668.572-4.492,1.193-8.979,1.8-13.468,2.3.124,2.346.13,2.048,2.328-.655,4.842-1.373,9.676-2.023,14.519-.1.719-.186,1.018-1.059.886q-7.764-1.172-15.552-2.191c-.864-.114-1.285-.253-.979-1.246A9.756,9.756,0,0,0,2669.929,1364.332Z" transform="translate(-3.936 -13.253)" fill="#2c272e"/>
              </g>
            </g>
          </g>
        </g>
      </g>
    </g>
    <g id="Group_7091" data-name="Group 7091" transform="translate(-18377.518 -6417.141)">
      <g id="Group_7089" data-name="Group 7089" transform="translate(561.782 484.882)">
        <path id="Path_12220" data-name="Path 12220" d="M973.593,778.592c-.047-1.513.557-2.305,1.57-2.385a1.756,1.756,0,0,1,1.827,1.743,14.46,14.46,0,0,1,.17,1.977,1.694,1.694,0,0,1-3.373.223C973.681,779.533,973.631,778.906,973.593,778.592Z" transform="translate(-973.591 -776.202)" fill="#dd4a48"/>
      </g>
      <path id="Path_12221" data-name="Path 12221" d="M502.228,595.3l-6.31,70.323h78.143v7.928l-85.262-.809,8.089-77.442Z" transform="translate(-7.585 -140.478)" fill="#dd4a48"/>
      <path id="Path_12222" data-name="Path 12222" d="M569.533,531.99c-.075-.729-.144-1.457-.216-2.186q-1.011-10.252-2.021-20.5c-.5-5.135-.991-10.271-1.507-15.405a1.72,1.72,0,0,0-2-1.771,1.763,1.763,0,0,0-1.462,2.157q1.733,17.484,3.468,34.969c.129,1.293.129,1.293-1.192,1.293H484.752c-1.5,0-1.471,0-1.323-1.456q.723-7.128,1.412-14.258.875-8.9,1.748-17.8,1-10.148,2-20.3.965-9.836,1.905-19.674c.05-.525.227-.709.766-.707q7.325.026,14.651,0c.535,0,.742.128.72.694-.028.747-.043,1.5-.03,2.245a4.473,4.473,0,1,0,3.537.131,20.386,20.386,0,0,0-.046-2.052c-.063-.836.221-1.031,1.035-1.027,7.988.031,15.978.018,23.966.018,1.047,0,2.1.042,3.139-.015.691-.037.91.185.87.872-.041.708-.049,1.42-.032,2.129a4.478,4.478,0,0,0-2.647,3.335q-.013.07-.023.14a4.473,4.473,0,1,0,8.829-.165h0c-.007-.037-.014-.075-.022-.112a4.48,4.48,0,0,0-2.457-3.124c-.053-.025-.106-.049-.159-.071.011-.752-.006-1.505-.024-2.257-.011-.5.068-.748.668-.745q7.378.034,14.756,0c.489,0,.665.16.708.647.191,2.187.415,4.372.63,6.558q.83,8.431,1.667,16.861a1.714,1.714,0,1,0,3.391-.348c-.263-3.021-.569-6.039-.862-9.059-.512-5.274-1.011-10.549-1.552-15.821-.2-1.929-.611-2.252-2.521-2.252-5.3,0-10.606-.018-15.908.018-.782,0-1-.193-.987-.985.05-2.825.041-5.652.012-8.477a15.737,15.737,0,0,0-2.827-8.93,18.658,18.658,0,0,0-23.125-5.966c-5.8,2.767-9.363,7.314-9.911,13.829-.259,3.084-.105,6.206-.066,9.31.011.912-.166,1.238-1.175,1.228-5.372-.057-10.744-.032-16.116-.024-1.379,0-1.916.456-2.054,1.816-.575,5.688-1.12,11.379-1.683,17.068q-1.525,15.4-3.056,30.806c-.944,9.61-1.849,19.224-2.828,28.832a2.524,2.524,0,0,0,.912,2.55h87.7A2.1,2.1,0,0,0,569.533,531.99ZM510.12,443.667c.041-6.291,4.547-11.575,11.072-13.009a15.2,15.2,0,0,1,15.707,5.864,11.944,11.944,0,0,1,2.19,6.858c0,2.893-.024,5.788.024,8.681.013.792-.3.9-.978.892-4.5-.024-9-.013-13.492-.013-4.533,0-9.065-.014-13.6.015-.715,0-.956-.175-.945-.922C510.141,449.245,510.1,446.456,510.12,443.667Z" transform="translate(0 0)" fill="#2c272e"/>
      <g id="Group_7090" data-name="Group 7090" transform="translate(500.781 492.038)">
        <path id="Path_12223" data-name="Path 12223" d="M848.858,819.269a4.038,4.038,0,1,1-3.939,4.07A4.07,4.07,0,0,1,848.858,819.269Z" transform="translate(-805.301 -819.267)" fill="#1e1e1e"/>
        <path id="Path_12224" data-name="Path 12224" d="M614.6,823.363a4.035,4.035,0,1,1-3.911-4.1A4.078,4.078,0,0,1,614.6,823.363Z" transform="translate(-606.533 -819.263)" fill="#1e1e1e"/>
        <path id="Path_12225" data-name="Path 12225" d="M709.512,930.044a14.8,14.8,0,0,1,7.24,2.078c.549.307,1.2.634.831,1.312-.32.6-.93.2-1.374-.063-4.62-2.688-9.232-2.538-13.84.023-.471.262-1.084.6-1.39.05-.389-.7.315-1,.845-1.3A15.433,15.433,0,0,1,709.512,930.044Z" transform="translate(-685.189 -911.633)" fill="#242424"/>
      </g>
      <circle id="Ellipse_201" data-name="Ellipse 201" cx="1.982" cy="1.982" r="1.982" transform="translate(506.135 461.477)" fill="#dd4a48"/>
      <circle id="Ellipse_202" data-name="Ellipse 202" cx="1.982" cy="1.982" r="1.982" transform="translate(538.77 461.477)" fill="#dd4a48"/>
    </g>
  </g>
</svg>
