<svg xmlns="http://www.w3.org/2000/svg" width="295" height="222.684" viewBox="0 0 295 222.684">
  <g id="favourite_empty_icon" transform="translate(15441 6741)">
    <g id="order_cancel" transform="translate(-1850 -7536)">
      <g id="Group_7099" data-name="Group 7099" transform="translate(-13629 717.018)">
        <g id="Group_7319" data-name="Group 7319" transform="translate(-1616.001 -265.861)">
          <g id="Group_7319-2" data-name="Group 7319" transform="translate(1769.611 442.973)">
            <path id="Path_13258" data-name="Path 13258" d="M1850.49,477.667h-4.106c-1.692-8.168-3.318-16.436-4.973-24.893-.123-.631-.264-1.262-.4-1.872-.056-.253-.113-.5-.167-.756a4.454,4.454,0,0,0-.685-1.726,2.187,2.187,0,0,0-.856-.7h0a4.486,4.486,0,0,0-1.573-.354c-.138-.01-.291-.034-.453-.06a5.8,5.8,0,0,0-.91-.09,3.07,3.07,0,0,0-.371.022l-.018,0a18.411,18.411,0,0,1-2.008.121l-.194,0a3.935,3.935,0,0,0-1.684.334,1.858,1.858,0,0,0-.943,1.117,3.929,3.929,0,0,0,0,1.86c.531,2.894,1.124,5.82,1.7,8.651q.307,1.511.611,3.025l.616,3.073c.788,3.927,1.6,7.988,2.389,11.983.017.086.036.172.056.257h-4.167l-.022-.112c-1.94-9.653-3.836-19.108-5.72-28.663a2.378,2.378,0,0,0-2.519-2.229q-2.985,0-5.958,0c-6.077,0-12.257-.01-18.234-.019l-8.584-.012a3.421,3.421,0,0,0-.373.022h0c-1.307-.015-2.615,0-3.917-.081-1.268-.082-1.812.379-2.075,1.645-.045.218-.091.434-.136.652a7.046,7.046,0,0,0-.5,1.626c-1.218,5.972-2.429,12.016-3.619,17.99q-2.344,11.109-4.7,22.218-1.361,6.446-2.714,12.9c-.393,1.861-.118,2.2,1.859,2.2,1.307,0,2.613-.03,3.92-.045l.03.036h.482l4.874.015c2.957.011,6.013.021,9.02.021,2.03,0,3.861-.005,5.595-.015h.042a3.538,3.538,0,0,1,.368.016c0,.062,0,.145-.015.257a21.118,21.118,0,0,0-.034,3.114l.009.237c-1.353,0-2.8-.005-4.538-.005l-3.833,0-3.831,0c-3.813,0-8.311-.009-12.76-.073a4.774,4.774,0,0,1-3.615-1.829,5.577,5.577,0,0,1-1.148-4.547c1.156-6.15,2.405-12.39,3.613-18.426q.593-2.96,1.184-5.922,1.32-6.634,2.647-13.267c1.128-5.647,2.294-11.487,3.434-17.232.7-3.519,2.61-5.16,6.02-5.162q7.49-.006,14.981-.005l18.825,0,10.681,0q3.69,0,7.38,0c3.553,0,5.46,1.633,6.181,5.282q.429,2.168.857,4.336c1.585,8.023,3.224,16.32,4.909,24.465A2.538,2.538,0,0,1,1850.49,477.667Z" transform="translate(-1769.611 -442.973)" fill="#2c272e"/>
            <path id="Path_13259" data-name="Path 13259" d="M1820.75,477.24q-3.12,15.462-6.244,30.926-2.632,13.01-5.294,26.013a11.486,11.486,0,0,0-.169,2.352h-.034c-1.259.016-2.517.042-3.775.046-1.9,0-2.169-.336-1.79-2.2q1.311-6.468,2.613-12.939,2.26-11.146,4.523-22.293,1.993-9.839,3.963-19.682c.043-.219.087-.436.131-.654.253-1.271.777-1.733,2-1.651,1.253.084,2.512.067,3.771.081h0Z" transform="translate(-1799.911 -473.711)" fill="#dd4a48"/>
            <path id="Path_13260" data-name="Path 13260" d="M1993.755,561.929a12.728,12.728,0,0,1-3.334-.446,13.276,13.276,0,0,1-9.768-12.518c-.045-1.414-.041-2.862-.037-4.262,0-1.112.006-2.262-.015-3.4,0-.034,0-.065,0-.092.109.007.224.011.343.011a12,12,0,0,0,1.291-.093,10.093,10.093,0,0,1,1.033-.079,1.076,1.076,0,0,1,.656.136c.223.2.119,1.12.05,1.726a9.758,9.758,0,0,0-.094,1.619c.036.662.023,1.326.008,2.029a17.51,17.51,0,0,0,.192,3.717,9.965,9.965,0,0,0,9.635,8.238c.309,0,.621-.015.93-.046a10.005,10.005,0,0,0,8.9-9.909c.042-2.572.041-4.927-.005-7.2,0-.063,0-.116,0-.16h.016c.492.032,1.007.048,1.574.048.509,0,1.06-.013,1.733-.04-.033,1-.027,2.018-.02,3.191,0,.546.007,1.133.007,1.781v.029l0,.029a15.673,15.673,0,0,1-1.954,9.274,13.427,13.427,0,0,1-4.823,4.728A12.8,12.8,0,0,1,1993.755,561.929Z" transform="translate(-1958.161 -531.195)" fill="#2c272e"/>
            <path id="Path_13261" data-name="Path 13261" d="M2193.332,883.045q-.386-.392-.779-.779a7.673,7.673,0,0,0-5.477-2.275,6.579,6.579,0,0,0-1.161.086c-.2.03-.4.069-.591.113q-.19.044-.377.1c.063-.093.129-.185.2-.275a2.673,2.673,0,0,1,2.154-1.329,7.277,7.277,0,0,1,5.915,4.138C2193.252,882.9,2193.292,882.972,2193.332,883.045Z" transform="translate(-2141.4 -833.05)" fill="#dd4a48"/>
            <path id="Path_13262" data-name="Path 13262" d="M2302.094,887.3a20.81,20.81,0,0,1-3.648,7.5,68.464,68.464,0,0,1-11.41,12.255,1.5,1.5,0,0,1-1.7-.314c.137-.144.274-.286.412-.428.614-.635,1.236-1.262,1.857-1.892q5.941-6.023,11.884-12.044a8.02,8.02,0,0,0,1.185-9.833,7.757,7.757,0,0,0-11.64-1.963c-1.063.9-1.968,1.964-2.956,2.943a1.323,1.323,0,0,1-2.1.005c-.04-.04-.08-.08-.12-.122a2.625,2.625,0,0,0,1.017.185c1.384,0,2.082-.841,2.688-2.006a7.7,7.7,0,0,1,9.649-3.749A8.109,8.109,0,0,1,2302.094,887.3Z" transform="translate(-2229.171 -830.698)" fill="#dd4a48"/>
            <path id="Path_13263" data-name="Path 13263" d="M2139.81,907.217c-2.1,1.948-2.116,1.972-4.249.091-4.978-4.389-9.653-9.068-13.1-14.888a15.987,15.987,0,0,1-2.2-5.837c-.752-5.123,3.927-9.907,8.778-8.966a9.149,9.149,0,0,0-1.381,1.394c-.2.03-.4.069-.591.113q-.19.044-.377.1a8.009,8.009,0,0,0-3.495,13.172c.594.629,1.2,1.241,1.812,1.857q6.26,6.342,12.516,12.689c.232.236.359.2.564-.018l.018-.019c.137-.144.274-.286.412-.428A3.3,3.3,0,0,0,2139.81,907.217Z" transform="translate(-2083.133 -830.86)" fill="#fff"/>
          </g>
          <g id="Group_7320" data-name="Group 7320" transform="translate(1805.667 487.999)">
            <path id="Path_13264" data-name="Path 13264" d="M2138.023,871.215c-.007-.029-.015-.058-.023-.088s-.017-.062-.019-.075a10.823,10.823,0,0,0-10.67-9.541c-.279,0-.561.012-.84.034a10.865,10.865,0,0,0-5.417,1.94,15.021,15.021,0,0,0-2.094,1.882c-.186.191-.373.381-.562.568l-.122.122c-.039-.041-.082-.085-.132-.134-.167-.165-.334-.339-.5-.507-.288-.3-.585-.6-.9-.889a10.688,10.688,0,0,0-7.281-3.062,11.226,11.226,0,0,0-4.1.822,10.978,10.978,0,0,0-3.945,17.631c1.351,1.441,2.764,2.863,4.132,4.239q.727.733,1.453,1.466c3.316,3.359,6.629,6.709,9.835,9.949a2.029,2.029,0,0,0,1.437.734,2.057,2.057,0,0,0,1.455-.748q1.481-1.5,2.958-3l2.353-2.384q4.863-4.922,9.729-9.841a11.377,11.377,0,0,0,2.639-4.1,15.3,15.3,0,0,0,.621-2.561l.008-.044v-2.361Zm-5.645,6.548c-2.569,2.612-5.186,5.261-7.717,7.824l-4.167,4.22-.3.3c-.515.522-1.046,1.06-1.566,1.6l-.112.115-.248.259c-3.176-3.227-6.408-6.5-9.535-9.667l-3.238-3.281c-.483-.488-.983-.995-1.461-1.5a7.317,7.317,0,0,1-2.041-4.681,7.4,7.4,0,0,1,5.307-7.662c.115-.032.233-.062.351-.089.205-.046.387-.082.56-.108a6.141,6.141,0,0,1,.975-.081h.1a7.211,7.211,0,0,1,5.13,2.132c.233.229.485.481.773.773q.405.412.808.824c.249.255.5.511.743.758.038.041.077.08.118.12l.009.009a2.431,2.431,0,0,0,.677.5,1.652,1.652,0,0,0,.72.167,2.005,2.005,0,0,0,1.411-.664c.344-.341.682-.694,1.007-1.037a25.29,25.29,0,0,1,1.92-1.879,7.182,7.182,0,0,1,4.637-1.695,7.277,7.277,0,0,1,6.245,3.531A7.53,7.53,0,0,1,2132.378,877.763Z" transform="translate(-2098.477 -861.464)" fill="#2c272e"/>
            <path id="Path_13265" data-name="Path 13265" d="M2151.16,922.166c-.4.4-.8.809-1.19,1.216l-.112.115-.248.259c-3.176-3.227-6.408-6.5-9.535-9.667l-3.238-3.281c-.483-.488-.983-.995-1.461-1.5a7.317,7.317,0,0,1-2.041-4.681,7.4,7.4,0,0,1,5.307-7.662c.115-.032.233-.062.351-.089.205-.046.387-.082.56-.108a6.131,6.131,0,0,1,.975-.081h.1a7.7,7.7,0,0,1,1.555.171l-.075.017c-.118.027-.236.057-.351.089a7.4,7.4,0,0,0-5.306,7.662,7.317,7.317,0,0,0,2.041,4.681c.479.507.978,1.013,1.461,1.5l3.238,3.281C2145.8,916.737,2148.493,919.458,2151.16,922.166Z" transform="translate(-2129.814 -893.143)" fill="#fff"/>
            <path id="Path_13266" data-name="Path 13266" d="M2191.6,909.478c-2.569,2.612-5.186,5.261-7.717,7.824l-4.167,4.22-.3.3-.376.381c-2.667-2.708-5.355-5.429-7.969-8.077l-3.238-3.281c-.483-.488-.983-.995-1.461-1.5a7.318,7.318,0,0,1-2.042-4.681,7.4,7.4,0,0,1,5.307-7.662c.115-.032.233-.062.351-.089l.075-.017h0a7.2,7.2,0,0,1,3.574,1.961c.233.229.485.481.773.773q.406.412.808.824c.249.255.5.511.743.758.038.041.077.08.117.12l.009.009a2.43,2.43,0,0,0,.677.5,1.651,1.651,0,0,0,.719.167,2,2,0,0,0,1.411-.664c.052-.051.1-.1.154-.155.291-.292.577-.591.853-.883a25.362,25.362,0,0,1,1.92-1.879,7.182,7.182,0,0,1,4.637-1.695,7.3,7.3,0,0,1,6.245,3.531A7.53,7.53,0,0,1,2191.6,909.478Z" transform="translate(-2157.698 -893.179)" fill="#dd4a48"/>
          </g>
        </g>
        <g id="Group_6932" data-name="Group 6932" transform="translate(-192.544 -285.889)">
          <g id="Group_6930" data-name="Group 6930" transform="translate(308.441 422.596)">
            <g id="Group_6925" data-name="Group 6925" transform="translate(0)">
              <path id="Path_2771" data-name="Path 2771" d="M453.3,523.812h-2.1a1.7,1.7,0,0,1-1.619-2.208h0c.775-2.461,1.677-4.907,2.677-7.275a81.957,81.957,0,0,1,129.576-29.743,1.7,1.7,0,0,1,.078,2.477l-1.445,1.445a1.694,1.694,0,0,1-2.314.078,76.557,76.557,0,0,0-123.235,34.053v0A1.7,1.7,0,0,1,453.3,523.812Z" transform="translate(-449.496 -464.26)" fill="#2c272e"/>
              <path id="Path_2772" data-name="Path 2772" d="M609.771,634.259A82,82,0,0,1,452.253,666.17c-1-2.368-1.9-4.815-2.677-7.276h0a1.7,1.7,0,0,1,1.619-2.208h2.1a1.7,1.7,0,0,1,1.614,1.172v0a76.587,76.587,0,1,0,135.9-67.074,1.693,1.693,0,0,1,.2-2.159l1.466-1.466a1.7,1.7,0,0,1,2.59.223,81.873,81.873,0,0,1,13.089,30.56A82.365,82.365,0,0,1,609.771,634.259Z" transform="translate(-449.496 -552.28)" fill="#2c272e"/>
            </g>
          </g>
          <rect id="Rectangle_17349" data-name="Rectangle 17349" width="39.392" height="6.568" rx="3.284" transform="translate(274.547 475.581)" fill="#2c272e"/>
          <rect id="Rectangle_17350" data-name="Rectangle 17350" width="32.041" height="6.568" rx="3.284" transform="translate(281.897 526.922)" fill="#2c272e"/>
          <rect id="Rectangle_17351" data-name="Rectangle 17351" width="40.83" height="6.568" rx="3.284" transform="translate(271.625 501.938)" fill="#2c272e"/>
          <g id="Group_6931" data-name="Group 6931" transform="translate(306.262 406.32)">
            <path id="Path_2781" data-name="Path 2781" d="M535.487,410.071v.052a3.2,3.2,0,0,1-3.551,3.175,91.582,91.582,0,0,0-84.4,37.742,3.183,3.183,0,0,1-2.6,1.332h0a3.2,3.2,0,0,1-2.6-5.063,98.51,98.51,0,0,1,10.473-12.342,97.521,97.521,0,0,1,69.159-28.647,99.374,99.374,0,0,1,10.642.569A3.2,3.2,0,0,1,535.487,410.071Z" transform="translate(-441.739 -406.32)" fill="#2c272e"/>
            <path id="Path_2782" data-name="Path 2782" d="M877.949,452.507l-1.725,1.725a2.023,2.023,0,0,1-2.759.093,91.5,91.5,0,0,0-24.521-15.381A3.2,3.2,0,0,1,846.99,436v-.076a3.193,3.193,0,0,1,4.425-2.951l.044.019a97.361,97.361,0,0,1,26.4,16.559A2.03,2.03,0,0,1,877.949,452.507Z" transform="translate(-733.152 -425.304)" fill="#2c272e"/>
          </g>
        </g>
        <g id="Group_6933" data-name="Group 6933" transform="translate(-2983.66 -1251.905)">
          <path id="Path_2783" data-name="Path 2783" d="M3282.668,1385.108a4.809,4.809,0,0,1,4.694-7.337c.123.017.248.018.372.026a5.216,5.216,0,0,1,2.628,1.6,4.787,4.787,0,1,1-7.46,6C3282.827,1385.3,3282.746,1385.2,3282.668,1385.108Z" transform="translate(-26.959 -28.511)" fill="#dd4a48"/>
          <path id="Path_2784" data-name="Path 2784" d="M3252.681,1438.859a11.087,11.087,0,0,1-.486-1.605c-.074-.367.007-.646.386-.716s.52.206.583.526a4.79,4.79,0,0,0,.554,1.619,6.4,6.4,0,0,0,4.582,3.644,6.184,6.184,0,0,0,2.6.045c.351-.067.647-.025.718.377s-.222.549-.557.6a7.619,7.619,0,0,1-7.069-2.452A7.833,7.833,0,0,1,3252.681,1438.859Z" transform="translate(0 -81.796)" fill="#2c272e"/>
          <path id="Path_2785" data-name="Path 2785" d="M3266.927,1347.31a6.212,6.212,0,0,0-4.157.907,6.6,6.6,0,0,0-2.446,2.526c-.038.068-.075.136-.114.2-.152.262-.366.4-.66.251a.473.473,0,0,1-.2-.715,7.645,7.645,0,0,1,1.99-2.455,7.841,7.841,0,0,1,5.481-1.755c.472.085.946.165,1.417.255.359.069.575.273.462.655s-.414.364-.725.287A3.165,3.165,0,0,0,3266.927,1347.31Z" transform="translate(-6.432)" fill="#2c272e"/>
          <path id="Path_2786" data-name="Path 2786" d="M3387.458,1381.055a7.981,7.981,0,0,1-1.755,4.918c-.078.1-.16.192-.245.283-.22.239-.478.326-.735.084a.482.482,0,0,1,.019-.743,6.721,6.721,0,0,0,.527-8.346c-.026-.039-.052-.078-.081-.115-.208-.268-.273-.558.026-.779.324-.239.573-.06.781.228a7.605,7.605,0,0,1,1.3,2.972A7.865,7.865,0,0,1,3387.458,1381.055Z" transform="translate(-119.964 -27.171)" fill="#2c272e"/>
        </g>
        <g id="Group_6934" data-name="Group 6934" transform="translate(-3156.513 -1075.283)">
          <path id="Path_2783-2" data-name="Path 2783" d="M3282.6,1384.474a4.4,4.4,0,0,1,4.291-6.707c.113.015.227.017.34.024a4.769,4.769,0,0,1,2.4,1.464,4.376,4.376,0,1,1-6.82,5.481C3282.75,1384.646,3282.675,1384.561,3282.6,1384.474Z" transform="translate(-27.199 -28.764)" fill="#dd4a48"/>
          <path id="Path_2784-2" data-name="Path 2784" d="M3252.637,1438.659a10.117,10.117,0,0,1-.444-1.468c-.067-.335.006-.59.353-.654s.475.188.533.48a4.377,4.377,0,0,0,.507,1.48,5.849,5.849,0,0,0,4.188,3.331,5.651,5.651,0,0,0,2.38.041c.321-.061.591-.023.657.344s-.2.5-.51.547a6.965,6.965,0,0,1-6.462-2.241A7.156,7.156,0,0,1,3252.637,1438.659Z" transform="translate(0 -82.523)" fill="#2c272e"/>
          <path id="Path_2785-2" data-name="Path 2785" d="M3266.27,1347.22a5.679,5.679,0,0,0-3.8.829,6.031,6.031,0,0,0-2.236,2.309c-.035.062-.069.125-.1.186-.139.24-.335.365-.6.23a.432.432,0,0,1-.18-.654,6.984,6.984,0,0,1,1.818-2.244,7.169,7.169,0,0,1,5.011-1.6c.431.077.865.151,1.3.234.329.063.525.25.422.6s-.378.333-.663.262A2.891,2.891,0,0,0,3266.27,1347.22Z" transform="translate(-6.488 0)" fill="#2c272e"/>
          <path id="Path_2786-2" data-name="Path 2786" d="M3387.209,1380.643a7.3,7.3,0,0,1-1.605,4.5c-.071.089-.146.175-.224.259-.2.218-.436.3-.671.076a.44.44,0,0,1,.017-.679,6.144,6.144,0,0,0,.481-7.629c-.024-.035-.047-.071-.073-.1-.19-.245-.25-.51.024-.712.3-.219.524-.055.714.208a6.952,6.952,0,0,1,1.193,2.717A7.248,7.248,0,0,1,3387.209,1380.643Z" transform="translate(-121.03 -27.412)" fill="#2c272e"/>
        </g>
        <path id="Path_2787" data-name="Path 2787" d="M2002.882,626.974l6.722-12.636c.908,1.439,1.718,2.706,2.511,3.984,1.583,2.551,3.153,5.11,4.738,7.66.235.378.453.657-.266.677-4.422.12-8.844.259-13.266.389A3.233,3.233,0,0,1,2002.882,626.974Z" transform="matrix(0.438, 0.899, -0.899, 0.438, -139.518, -1802.769)" fill="#dd4a48"/>
        <path id="Path_2788" data-name="Path 2788" d="M2002.882,632.734l9.786-18.4c1.322,2.1,2.5,3.94,3.656,5.8,2.3,3.714,4.59,7.44,6.9,11.152.342.55.66.957-.386.985-6.438.174-12.875.377-19.313.566A4.706,4.706,0,0,1,2002.882,632.734Z" transform="matrix(0.438, 0.899, -0.899, 0.438, -271.212, -1953.777)" fill="#dd4a48"/>
        <path id="Path_2789" data-name="Path 2789" d="M3072,440.028c0,1.1-.018,2.194.009,3.29.011.426-.087.577-.549.578-1.345,0-1.345.026-1.341-1.349,0-1.358-.015-2.716.017-4.073.01-.451-.13-.564-.566-.556-1.54.027-3.082-.019-4.621.03-.7.023-.97-.143-.938-.9.064-1.538.005-3.081.04-4.621.011-.49-.136-.613-.615-.6-1.592.033-3.186,0-4.778.03-.554.012-.726-.175-.714-.719.033-1.592.006-3.186.037-4.778.009-.477-.126-.629-.615-.619-1.592.035-3.186,0-4.778.035-.556.012-.724-.176-.712-.721.033-1.592,0-3.186.032-4.778.011-.484-.12-.63-.605-.618-1.514.035-3.03-.01-4.542.046-.67.025-.909-.124-.875-.848.069-1.459,0-2.925.047-4.385.02-.6-.112-.814-.758-.79-1.513.055-3.029,0-4.542.043-.6.017-.837-.13-.817-.778.047-1.539-.018-3.082.041-4.621.024-.627-.188-.731-.746-.716-1.513.04-3.029,0-4.542.041-.546.015-.765-.136-.684-.689a2.611,2.611,0,0,0,0-.7c-.056-.433.144-.511.533-.509,2.246.011,4.491.014,6.736-.021.526-.008.587.2.58.644-.025,1.619.007,3.238-.029,4.857-.011.495.138.609.612.6,1.618-.033,3.238,0,4.856-.036.53-.012.66.161.649.666-.034,1.566,0,3.134-.034,4.7-.011.508.122.677.65.664,1.565-.04,3.133-.009,4.7-.042.5-.011.675.114.662.649-.041,1.618,0,3.238-.035,4.856-.011.5.141.608.614.6,1.592-.033,3.187.013,4.778-.037.612-.019.739.183.724.751-.041,1.592,0,3.186-.039,4.778-.011.489.131.611.609.6,1.618-.033,3.238.008,4.856-.032.53-.013.648.153.637.653-.034,1.618,0,3.238-.035,4.856-.01.477.109.627.6.616,1.592-.034,3.186.008,4.778-.03.553-.013.776.082.741.705-.061,1.093-.017,2.192-.017,3.289Z" transform="translate(-2739.033 -204.723)" fill="#2c272e"/>
        <g id="Group_6935" data-name="Group 6935" transform="translate(-2522.903 -1255.044)">
          <path id="Path_2790" data-name="Path 2790" d="M2665.994,1351.079c-.125-.081-.249-.229-.375-.232-1.755-.041-1.734-1.049-1.519-2.427.752-4.8,1.423-9.621,2.054-14.442.126-.965.4-1.035,1.315-.9q7.579,1.15,15.188,2.1c1.067.135,1.351.437,1.031,1.483-.2.647-.064,1.388-.335,2.049a2.344,2.344,0,0,1,.285,1.865c-.48,3.508-1.03,7.007-1.466,10.522-.258,2.084-.542,2.279-2.583,2.024-4.157-.52-8.3-1.137-12.449-1.735A2.756,2.756,0,0,1,2665.994,1351.079Z" fill="#dd4a48"/>
          <path id="Path_2791" data-name="Path 2791" d="M2669.929,1364.332c1.957-.391,3.819.325,5.722.527,2.968.314,5.92.792,8.872,1.241.613.093.876.036.966-.668.572-4.492,1.193-8.979,1.8-13.468,2.3.124,2.346.13,2.048,2.328-.655,4.842-1.373,9.676-2.023,14.519-.1.719-.186,1.018-1.059.886q-7.764-1.172-15.552-2.191c-.864-.114-1.285-.253-.979-1.246A9.756,9.756,0,0,0,2669.929,1364.332Z" transform="translate(-3.936 -13.253)" fill="#2c272e"/>
        </g>
      </g>
    </g>
  </g>
</svg>
