<svg xmlns="http://www.w3.org/2000/svg" width="24" height="21.087" viewBox="0 0 24 21.087">
  <path id="favourite_icon" d="M17.493,1.917a6.4,6.4,0,0,0-5.5,3.3,6.4,6.4,0,0,0-5.5-3.3A6.8,6.8,0,0,0,0,8.964c0,4.545,4.784,9.509,8.8,12.875a4.972,4.972,0,0,0,6.4,0c4.012-3.366,8.8-8.33,8.8-12.875a6.8,6.8,0,0,0-6.5-7.047ZM13.909,20.309a2.972,2.972,0,0,1-3.828,0C4.945,16,2,11.866,2,8.964A4.8,4.8,0,0,1,6.5,3.916,4.8,4.8,0,0,1,11,8.964a1,1,0,1,0,2,0,4.8,4.8,0,0,1,4.5-5.048,4.8,4.8,0,0,1,4.5,5.048c0,2.9-2.946,7.036-8.082,11.341Z" transform="translate(0.005 -1.917)"/>
</svg>
