<svg id="filter_button" xmlns="http://www.w3.org/2000/svg" width="24" height="24" viewBox="0 0 24 24">
  <rect id="Rectangle_1182" data-name="Rectangle 1182" width="24" height="24" fill="none"/>
  <g id="Group_7197" data-name="Group 7197">
    <line id="Line_16" data-name="Line 16" x2="21.612" transform="translate(1.592 3.948)" fill="none" stroke="#fff" stroke-linecap="round" stroke-width="1.5"/>
    <g id="Path_2734" data-name="Path 2734" transform="translate(0 0.661)" fill="#2c272e">
      <path d="M 2.654109477996826 4.558219432830811 C 1.604179501533508 4.558219432830811 0.749999463558197 3.704039573669434 0.749999463558197 2.654109477996826 C 0.749999463558197 1.604179501533508 1.604179501533508 0.749999463558197 2.654109477996826 0.749999463558197 C 3.704039573669434 0.749999463558197 4.558219432830811 1.604179501533508 4.558219432830811 2.654109477996826 C 4.558219432830811 3.704039573669434 3.704039573669434 4.558219432830811 2.654109477996826 4.558219432830811 Z" stroke="none"/>
      <path d="M 2.654109477996826 1.499999523162842 C 2.017729520797729 1.499999523162842 1.499999523162842 2.017729520797729 1.499999523162842 2.654109477996826 C 1.499999523162842 3.290489435195923 2.017729520797729 3.808219432830811 2.654109477996826 3.808219432830811 C 3.290489435195923 3.808219432830811 3.808219432830811 3.290489435195923 3.808219432830811 2.654109477996826 C 3.808219432830811 2.017729520797729 3.290489435195923 1.499999523162842 2.654109477996826 1.499999523162842 M 2.654109477996826 -4.76837158203125e-07 C 4.119929313659668 -4.76837158203125e-07 5.308219432830811 1.188289642333984 5.308219432830811 2.654109477996826 C 5.308219432830811 4.119929313659668 4.119929313659668 5.308219432830811 2.654109477996826 5.308219432830811 C 1.188289642333984 5.308219432830811 -4.76837158203125e-07 4.119929313659668 -4.76837158203125e-07 2.654109477996826 C -4.76837158203125e-07 1.188289642333984 1.188289642333984 -4.76837158203125e-07 2.654109477996826 -4.76837158203125e-07 Z" stroke="none" fill="#fff"/>
    </g>
    <line id="Line_17" data-name="Line 17" x1="21.612" transform="translate(0.797 11.839)" fill="none" stroke="#fff" stroke-linecap="round" stroke-width="1.5"/>
    <g id="Path_2735" data-name="Path 2735" transform="translate(18.691 9.172)" fill="#2c272e">
      <path d="M 2.654109477996826 4.558219432830811 C 1.604179501533508 4.558219432830811 0.749999463558197 3.704039573669434 0.749999463558197 2.654109477996826 C 0.749999463558197 1.604179501533508 1.604179501533508 0.749999463558197 2.654109477996826 0.749999463558197 C 3.704039573669434 0.749999463558197 4.558219432830811 1.604179501533508 4.558219432830811 2.654109477996826 C 4.558219432830811 3.704039573669434 3.704039573669434 4.558219432830811 2.654109477996826 4.558219432830811 Z" stroke="none"/>
      <path d="M 2.654109477996826 1.499999523162842 C 2.017729520797729 1.499999523162842 1.499999523162842 2.017729520797729 1.499999523162842 2.654109477996826 C 1.499999523162842 3.290489435195923 2.017729520797729 3.808219432830811 2.654109477996826 3.808219432830811 C 3.290489435195923 3.808219432830811 3.808219432830811 3.290489435195923 3.808219432830811 2.654109477996826 C 3.808219432830811 2.017729520797729 3.290489435195923 1.499999523162842 2.654109477996826 1.499999523162842 M 2.654109477996826 -4.76837158203125e-07 C 4.119929313659668 -4.76837158203125e-07 5.308219432830811 1.188289642333984 5.308219432830811 2.654109477996826 C 5.308219432830811 4.119929313659668 4.119929313659668 5.308219432830811 2.654109477996826 5.308219432830811 C 1.188289642333984 5.308219432830811 -4.76837158203125e-07 4.119929313659668 -4.76837158203125e-07 2.654109477996826 C -4.76837158203125e-07 1.188289642333984 1.188289642333984 -4.76837158203125e-07 2.654109477996826 -4.76837158203125e-07 Z" stroke="none" fill="#fff"/>
    </g>
    <path id="Path_2733" data-name="Path 2733" d="M0,0H21.612" transform="translate(1.594 20.051)" fill="none" stroke="#fff" stroke-linecap="round" stroke-width="1.5"/>
    <g id="Path_2736" data-name="Path 2736" transform="translate(0 18.031)" fill="#2c272e">
      <path d="M 2.654109477996826 4.558219432830811 C 1.604179501533508 4.558219432830811 0.749999463558197 3.704039573669434 0.749999463558197 2.654109477996826 C 0.749999463558197 1.604179501533508 1.604179501533508 0.749999463558197 2.654109477996826 0.749999463558197 C 3.704039573669434 0.749999463558197 4.558219432830811 1.604179501533508 4.558219432830811 2.654109477996826 C 4.558219432830811 3.704039573669434 3.704039573669434 4.558219432830811 2.654109477996826 4.558219432830811 Z" stroke="none"/>
      <path d="M 2.654109477996826 1.499999523162842 C 2.017729520797729 1.499999523162842 1.499999523162842 2.017729520797729 1.499999523162842 2.654109477996826 C 1.499999523162842 3.290489435195923 2.017729520797729 3.808219432830811 2.654109477996826 3.808219432830811 C 3.290489435195923 3.808219432830811 3.808219432830811 3.290489435195923 3.808219432830811 2.654109477996826 C 3.808219432830811 2.017729520797729 3.290489435195923 1.499999523162842 2.654109477996826 1.499999523162842 M 2.654109477996826 -4.76837158203125e-07 C 4.119929313659668 -4.76837158203125e-07 5.308219432830811 1.188289642333984 5.308219432830811 2.654109477996826 C 5.308219432830811 4.119929313659668 4.119929313659668 5.308219432830811 2.654109477996826 5.308219432830811 C 1.188289642333984 5.308219432830811 -4.76837158203125e-07 4.119929313659668 -4.76837158203125e-07 2.654109477996826 C -4.76837158203125e-07 1.188289642333984 1.188289642333984 -4.76837158203125e-07 2.654109477996826 -4.76837158203125e-07 Z" stroke="none" fill="#fff"/>
    </g>
  </g>
</svg>
