<svg xmlns="http://www.w3.org/2000/svg" width="58" height="28" viewBox="0 0 58 28">
  <g id="flutterwave" transform="translate(2.916)">
    <rect id="Rectangle_72" data-name="Rectangle 72" width="58" height="28" rx="3" transform="translate(-2.916)" fill="#fff"/>
    <g id="Page-1" transform="translate(17.084 4.125)">
      <g id="Group-32">
        <g id="Group-31">
          <path id="Shape" d="M86.047,127.647c2.531-2.091,7.738-9.566-.4-8.249-3.544.542-8.751,3.989-9.8,7.939a31.717,31.717,0,0,0-1.807-3.059c-.979-1.355-2.1-.31-1.013,1.084,3.073,3.989,5.207,8.791,5.207,13.631a20.521,20.521,0,0,0-1.085-8.21,4.7,4.7,0,0,0,1.445.232,14.824,14.824,0,0,0,7.052,6.119c2.6,1.046,6.076.427,4.665-3.756a13.416,13.416,0,0,0-4.266-5.731Zm.362-7.28c4.521-.5-.326,5.112-1.916,6.159a7.979,7.979,0,0,0-5.135-1.588C80.66,123.274,83.806,120.678,86.409,120.367Zm-7.088,5.809a5.9,5.9,0,0,1,3.58,1.278,8.191,8.191,0,0,1-3.182.89c-1.663,0-1.989-2.014-.4-2.169Zm6.257,8.753a12.318,12.318,0,0,1-5.57-4.067,10.5,10.5,0,0,0,3.436-1.355,7.384,7.384,0,0,0,1.158-.736,10.4,10.4,0,0,1,3.073,4.454c.507,1.9-.867,2.055-2.1,1.7Z" transform="translate(-72.585 -119.244)" fill="#f5a623"/>
        </g>
      </g>
    </g>
  </g>
</svg>
