<svg xmlns="http://www.w3.org/2000/svg" xmlns:xlink="http://www.w3.org/1999/xlink" width="24" height="24" viewBox="0 0 24 24">
  <defs>
    <linearGradient id="linear-gradient" x1="0.15" y1="0.408" x2="0.909" y2="0.622" gradientUnits="objectBoundingBox">
      <stop offset="0.2" stop-color="#d93025"/>
      <stop offset="0.6" stop-color="#ea4335"/>
    </linearGradient>
    <linearGradient id="linear-gradient-2" x1="0.07" y1="0.363" x2="0.99" y2="0.575" gradientUnits="objectBoundingBox">
      <stop offset="0.2" stop-color="#4285f4"/>
      <stop offset="0.8" stop-color="#1b74e8"/>
    </linearGradient>
  </defs>
  <g id="gpay" transform="translate(16548 5738)">
    <rect id="Rectangle_17444" data-name="Rectangle 17444" width="24" height="24" transform="translate(-16548 -5738)" fill="none"/>
    <g id="Group_109" data-name="Group 109" transform="translate(-16548 -5738)">
      <rect id="bounding_box" width="24" height="24" transform="translate(0)" fill="none"/>
      <g id="art_layer" transform="translate(0.675 2.638)">
        <path id="Google_Red" d="M9.452,12.793l5.6-9.422,3.05,1.71a3.938,3.938,0,0,1,1.507,5.464l-3.153,5.3a2.616,2.616,0,0,1-3.516.915l-2.83-1.587A1.719,1.719,0,0,1,9.452,12.793Z" transform="translate(2.472 -1.49)" fill="url(#linear-gradient)"/>
        <path id="Google_Yellow" d="M10.873,5.742,3.907,17.461l3.05,1.71a4.185,4.185,0,0,0,5.626-1.464l4.519-7.6a2.461,2.461,0,0,0-.942-3.415L13.328,5.1a1.826,1.826,0,0,0-2.455.639Z" transform="translate(0.455 -0.979)" fill="#fdbd00"/>
        <path id="Google_Green" d="M17.174,3.849l-2.158-1.21a5.232,5.232,0,0,0-7.032,1.83l-4,6.735a2.461,2.461,0,0,0,.942,3.415l2.158,1.21a2.616,2.616,0,0,0,3.516-.915l4.78-8.041h0a3.654,3.654,0,0,1,4.911-1.278" transform="translate(0.351 -1.968)" fill="#2da94f"/>
        <path id="Google_Blue" d="M9.7,5.717,7.32,4.385a2.259,2.259,0,0,0-3.032.787l-2.859,4.8A4.806,4.806,0,0,0,.92,13.717a4.952,4.952,0,0,0,2.374,3l1.814,1.015,2.2,1.23.955.533a3.724,3.724,0,0,1-1.2-5.047l.74-1.241,2.71-4.548a2.094,2.094,0,0,0,.222-1.633A2.158,2.158,0,0,0,9.7,5.717Z" transform="translate(-0.747 -1.242)" fill="url(#linear-gradient-2)"/>
      </g>
    </g>
  </g>
</svg>
