<svg xmlns="http://www.w3.org/2000/svg" width="24" height="24" viewBox="0 0 24 24">
  <g id="gps_icon" transform="translate(16709 5820)">
    <path id="Icon_metro-my-location" data-name="Icon metro-my-location" d="M15.856,11.492a4.364,4.364,0,1,0,4.364,4.364,4.362,4.362,0,0,0-4.364-4.364Zm9.753,3.273A9.812,9.812,0,0,0,16.947,6.1V3.856H14.765V6.1A9.812,9.812,0,0,0,6.1,14.765H3.856v2.182H6.1a9.812,9.812,0,0,0,8.662,8.662v2.247h2.182V25.609a9.812,9.812,0,0,0,8.662-8.662h2.247V14.765H25.609Zm-9.753,8.727a7.636,7.636,0,1,1,7.636-7.636A7.638,7.638,0,0,1,15.856,23.492Z" transform="translate(-16712.855 -5823.856)" fill="#dd4a48"/>
    <rect id="Rectangle_17431" data-name="Rectangle 17431" width="24" height="24" transform="translate(-16709 -5820)" fill="none"/>
  </g>
</svg>
