<svg xmlns="http://www.w3.org/2000/svg" width="24" height="24" viewBox="0 0 24 24">
  <g id="home-address" transform="translate(16662 5818)">
    <g id="Group_7193" data-name="Group 7193" transform="translate(-17220.08 -6376.744)">
      <path id="Path_2681" data-name="Path 2681" d="M600.181,609.974a.515.515,0,0,1-.032.269l-.014.021a.228.228,0,0,1-.036.038.635.635,0,0,1-.3.041q-1.172,0-2.343,0c-.372,0-.411-.041-.411-.422q0-3.925,0-7.849a2.184,2.184,0,0,0-1.854-2.2,2.139,2.139,0,0,0-.374-.026q-2.19,0-4.381,0a2.184,2.184,0,0,0-2.244,2.258q0,3.866,0,7.732c0,.5-.012.508-.514.508h-1.207q-.966,0-1.932,0c-.682,0-.99-.308-.99-.989q0-.961,0-1.923,0-3.314,0-6.629a2.116,2.116,0,0,0-.018-.4.67.67,0,0,0-1.321.008,1.783,1.783,0,0,0-.015.327q0,4.112,0,8.226v.466a2.186,2.186,0,0,0,1.566,2.175.774.774,0,0,1,.216.087.063.063,0,0,1,.025.034.014.014,0,0,1,0,.007.021.021,0,0,1,0,.011.047.047,0,0,1,0,.017.036.036,0,0,0,0-.018,2.248,2.248,0,0,1-1.384-.818c-.02-.025-.039-.051-.058-.076l-.047-.066a2.255,2.255,0,0,1-.138-.234l-.024-.049a1.841,1.841,0,0,1-.086-.2,2.072,2.072,0,0,1-.124-.544.068.068,0,0,1,0-.011c0-.021,0-.042-.005-.063s0-.066,0-.1v-.006c0-.017,0-.034,0-.05V597.793c1.023-.842,2.038-1.7,3.057-2.545l4.348-3.624q1.051-.876,2.1-1.752c.075-.062.144-.134.248-.118a.166.166,0,0,1,.036.009h0c.569.44,1.1.919,1.654,1.381q2.856,2.409,5.707,4.826c.221.186.44.375.663.559a.638.638,0,0,1,.243.53Q600.18,603.517,600.181,609.974Z" transform="translate(-22.537 -29.049)" fill="#dd4a48"/>
      <path id="Path_2682" data-name="Path 2682" d="M582.079,568.286v.375a.767.767,0,0,1-1.233.47c-.049-.033-.088-.091-.164-.078a.524.524,0,0,0-.031.3c0,3.693,0,7.386,0,11.079a2.27,2.27,0,0,1-1.338,2.14,1.308,1.308,0,0,1-.565.131.305.305,0,0,1-.042,0h-.014a.4.4,0,0,0-.218.022h-16.78c-.069-.054-.156,0-.229-.036l-.011-.006a2.185,2.185,0,0,1-1.377-.8q-.03-.038-.058-.076l-.047-.066a2.26,2.26,0,0,1-.138-.234l-.024-.049a1.841,1.841,0,0,1-.086-.2,2.07,2.07,0,0,1-.124-.544.082.082,0,0,1,0-.011c0-.021,0-.042-.005-.063s0-.066,0-.1,0-.076,0-.113h0c0-.018,0-.036,0-.055-.011-1.006,0-2.012,0-3.018q0-2.906,0-5.812c0-.023,0-.044,0-.066a.748.748,0,1,1,1.5.026c0,.563,0,1.125,0,1.688v7.148a.776.776,0,0,0,.883.893c.665,0,1.331,0,2,0q.689,0,1.379.007c.218,0,.247-.065.246-.259q-.01-3.925,0-7.851a2.254,2.254,0,0,1,2.386-2.4q2.121,0,4.242,0a2.25,2.25,0,0,1,2.371,2.363q0,3.949,0,7.9c0,.192.04.246.239.243.922-.014,1.843-.011,2.765-.013a.2.2,0,0,1,.033-.021.6.6,0,0,1,.283-.036c.164,0,.328.009.491-.007a.677.677,0,0,0,.619-.6,2.369,2.369,0,0,0,.009-.3q0-6.127.006-12.254a.743.743,0,0,0-.3-.636q-3.312-2.741-6.609-5.5-.737-.615-1.475-1.23a.748.748,0,0,0-1.1-.013.69.69,0,0,1-.161.105.247.247,0,0,1-.062.016c-.7.58-1.41,1.158-2.111,1.742q-3.811,3.174-7.621,6.351l-.131.109c-.568.474-1.024.38-1.372-.271v-.375a.779.779,0,0,1,.325-.516c2.86-2.37,5.707-4.756,8.564-7.13.51-.424,1.032-.835,1.524-1.278a2.427,2.427,0,0,1,3.188.005c1.512,1.3,3.066,2.562,4.6,3.846a.2.2,0,0,0,.088.049c.052-.046.027-.111.028-.167,0-.312,0-.625,0-.937a.81.81,0,1,1,1.616-.006c0,.742.008,1.484,0,2.225a.536.536,0,0,0,.216.461c1.17.962,2.326,1.938,3.494,2.9A.824.824,0,0,1,582.079,568.286Z" transform="translate(0)" fill="#2c272e"/>
      <path id="Path_2684" data-name="Path 2684" d="M612.21,941.16h-.234a.035.035,0,0,0,0-.008.034.034,0,0,0,0-.018.032.032,0,0,0-.007-.016h.011A.258.258,0,0,1,612.21,941.16Z" transform="translate(-50.521 -358.438)" fill="#666196"/>
      <path id="Path_2685" data-name="Path 2685" d="M884.441,941.114a.041.041,0,0,0-.006.042H884.2A.268.268,0,0,1,884.441,941.114Z" transform="translate(-305.732 -358.434)" fill="#666197"/>
      <path id="Path_2686" data-name="Path 2686" d="M737.769,583.678c.062-.058.121-.12.187-.174a.774.774,0,0,1,1.152,0q1.09.9,2.177,1.814,3.049,2.541,6.1,5.08a.364.364,0,0,1,.151.313q-.005,6.313,0,12.626a.759.759,0,0,1-.845.835c-.218,0-.437,0-.655-.007q0-6.639,0-13.277a.387.387,0,0,0-.137-.328q-.846-.714-1.689-1.431l-1.387-1.174q-.837-.706-1.674-1.412-.685-.579-1.368-1.162l-1.653-1.4C738.008,583.875,737.888,583.777,737.769,583.678Z" transform="translate(-168.455 -22.947)" fill="#fff"/>
      <path id="Path_2687" data-name="Path 2687" d="M706.487,783.007c-1.445,0-2.89,0-4.335.011-.139,0-.167-.047-.166-.175q.005-4.042,0-8.084a.723.723,0,0,1,.724-.74c1.195-.006,2.39,0,3.585,0a.538.538,0,0,1,.2.331,1.979,1.979,0,0,1,.061.533q0,3.87,0,7.741A.5.5,0,0,1,706.487,783.007Z" transform="translate(-134.909 -201.793)" fill="#fff"/>
      <path id="Path_2688" data-name="Path 2688" d="M771.167,782.985q0-4.123,0-8.246a1.9,1.9,0,0,0-.19-.738c.312,0,.625-.011.937-.006a.74.74,0,0,1,.75.764c.006.633,0,1.265,0,1.9,0,2.031,0,4.062,0,6.093,0,.19-.04.256-.24.247C772.011,782.979,771.589,782.987,771.167,782.985Z" transform="translate(-199.589 -201.77)" fill="#dd4a48"/>
      <path id="Path_2689" data-name="Path 2689" d="M727.524,834.727a.749.749,0,1,1-.733-.754A.749.749,0,0,1,727.524,834.727Z" transform="translate(-157.445 -258)" fill="#dd4a48"/>
    </g>
    <rect id="Rectangle_17432" data-name="Rectangle 17432" width="24" height="24" transform="translate(-16662 -5818)" fill="none"/>
  </g>
</svg>
