<svg xmlns="http://www.w3.org/2000/svg" width="24" height="24" viewBox="0 0 24 24">
  <g id="home_icon" transform="translate(16552 5673)">
    <g id="Group_7205" data-name="Group 7205" transform="translate(-16544.99 -5674.064)">
      <g id="Group_7206" data-name="Group 7206">
        <path id="Path_2737" data-name="Path 2737" d="M223.458,774.664h-5.164a4.275,4.275,0,0,1-4.258-4.252q0-2.569,0-5.138a.854.854,0,0,1,1.682-.243,1.422,1.422,0,0,1,.029.345q0,2.5,0,5a2.555,2.555,0,0,0,2.584,2.57q5.124,0,10.249,0a2.556,2.556,0,0,0,2.586-2.569q0-2.556,0-5.111a.851.851,0,0,1,.555-.832.861.861,0,0,1,1.156.808c0,1.784.02,3.568-.006,5.352a4.271,4.271,0,0,1-3.612,4.016,5.965,5.965,0,0,1-.8.05q-2.5,0-5,0Z" transform="translate(-218.465 -749.6)" fill="#fff"/>
        <path id="Path_2738" data-name="Path 2738" d="M198.914,695.689a.909.909,0,0,1,.313-.682q1.963-1.956,3.919-3.917l7.041-7.042a.877.877,0,0,1,1.431-.01q5.48,5.479,10.959,10.96a.864.864,0,1,1-1.2,1.23q-1.557-1.566-3.121-3.126-3.576-3.579-7.147-7.163c-.175-.176-.251-.148-.407.009q-5.1,5.119-10.212,10.23a.913.913,0,0,1-1.032.3A.848.848,0,0,1,198.914,695.689Z" transform="translate(-205.914 -682.607)" fill="#fff"/>
      </g>
    </g>
    <path id="Path_12393" data-name="Path 12393" d="M0,0H24V24H0Z" transform="translate(-16552 -5673)" fill="none"/>
  </g>
</svg>
