<svg xmlns="http://www.w3.org/2000/svg" width="287.891" height="266.133" viewBox="0 0 287.891 266.133">
  <g id="intro_3" transform="translate(-678.941 -194.567)">
    <path id="Path_368" data-name="Path 368" d="M864.42,273.882c-4.7-20.48-16.668-23.14-12.341-9.057,7.6,24.736,2.932,50.789,2.932,50.789C856.346,316.306,869.735,297.065,864.42,273.882Z" transform="translate(96.06 34.278)" fill="#dd4a48"/>
    <path id="Path_369" data-name="Path 369" d="M692.412,331.346C701.054,358.1,718.132,359.916,709.9,342c-16.989-37-7.518-67.018-7.518-67.018C700.529,274.215,680.735,295.182,692.412,331.346Z" transform="translate(5.47 44.845)" fill="#dd4a48"/>
    <g id="Group_759" data-name="Group 759" transform="translate(711.926 215.08)">
      <circle id="Ellipse_23" data-name="Ellipse 23" cx="118.176" cy="118.176" r="118.176" fill="#e5d3d3"/>
    </g>
    <g id="Group_771" data-name="Group 771" transform="translate(731.766 194.567)">
      <path id="Path_370" data-name="Path 370" d="M781.826,226.866s22.088,6.89,33.131,55.171,3.116,59.985,3.116,59.985Z" transform="translate(-674.376 -176.551)" fill="#dd4a48"/>
      <g id="Group_763" data-name="Group 763" transform="translate(3.964)">
        <path id="Path_371" data-name="Path 371" d="M785.17,223.274c-11.863.365-50.5,14.388-55.771,33.945-6.328,23.471-21.423,119.119-9.629,135.734,38.8,54.652,127.617,47.586,136.49,32.282,17.056-29.418-6.418-168.772-35.868-195.956C817.4,226.521,804.012,222.693,785.17,223.274Z" transform="translate(-715.395 -178.587)" fill="#fcecec"/>
        <g id="Group_762" data-name="Group 762" transform="translate(61.462)">
          <path id="Path_372" data-name="Path 372" d="M758.19,239.193s1.444-13.135,1.5-15.544-3.821-7.964-.214-14.3,18.027-4.863,21.059,2.6,2.27,25.595-2.845,24.506-4.929-2.047-4.929-2.047l.4,9.968s-1.919,6.217-8.551,1.559S758.19,239.193,758.19,239.193Z" transform="translate(-753.126 -188.546)" fill="#fdcea3"/>
          <path id="Path_373" data-name="Path 373" d="M759.917,223.795s-10.641,9.485,1.066,18.324c8.773,6.624,11.705-.972,11.705-.972s7.775,3.192,10.828-2.221-9.439-13.325-9.439-13.325,1.457,6.315-3.541,7.01S759.917,223.795,759.917,223.795Z" transform="translate(-754.494 -178.264)" fill="#dd4a48"/>
          <path id="Path_374" data-name="Path 374" d="M781.079,217.258l.187,1.862s-3.056.7-7.929-1.12a14.05,14.05,0,0,1-7.088-6.533s.636,7.149-1.193,7.435-3.63-4.818-3.63-4.818l-1.3,7.562-.54-10.948,5.25-3.519Z" transform="translate(-752.21 -187.534)" fill="#e8a89e" opacity="0.31"/>
          <path id="Path_375" data-name="Path 375" d="M770.149,225.893l-7.523-5.267s4.219,8.8,7.733,10.51Z" transform="translate(-750.512 -180.032)" fill="#e8a89e"/>
          <path id="Path_376" data-name="Path 376" d="M765.673,217.893c-.248.91.667,1.952,2.042,2.327s2.694-.056,2.941-.966-.665-1.952-2.041-2.327S765.922,216.984,765.673,217.893Z" transform="translate(-748.836 -182.17)" fill="#33133f" opacity="0.05" style="mix-blend-mode: multiply;isolation: isolate"/>
          <g id="Group_761" data-name="Group 761" transform="translate(20.146 26.75)">
            <path id="Path_377" data-name="Path 377" d="M772.9,217.632a3.365,3.365,0,0,0-.318-1.207.393.393,0,0,0-.7.355c0,.011.548,1.117-.031,1.826a.393.393,0,1,0,.609.5A2.071,2.071,0,0,0,772.9,217.632Z" transform="translate(-765.562 -209.245)" fill="#33143f"/>
            <path id="Path_378" data-name="Path 378" d="M769.978,212.048a3.333,3.333,0,0,0-1.21-.308.393.393,0,0,0-.03.785c.012,0,1.242.062,1.581.913a.393.393,0,0,0,.731-.291A2.076,2.076,0,0,0,769.978,212.048Z" transform="translate(-767.46 -211.739)" fill="#33143f"/>
            <path id="Path_379" data-name="Path 379" d="M774.681,212.844a3.387,3.387,0,0,0-1.2.349.394.394,0,0,0,.374.693c.011-.006,1.1-.58,1.826-.02a.394.394,0,0,0,.481-.623A2.065,2.065,0,0,0,774.681,212.844Z" transform="translate(-764.717 -211.128)" fill="#33143f"/>
            <g id="Group_760" data-name="Group 760" transform="translate(1.646 14.51)">
              <path id="Path_380" data-name="Path 380" d="M775.374,222s-3.264-.625-6.535-.947C768.839,221.053,772.735,228.03,775.374,222Z" transform="translate(-768.839 -221.053)" fill="#33133f"/>
              <path id="Path_381" data-name="Path 381" d="M775.374,222s-.277.843-.433.874-4.5-.533-5.692-1.192l-.41-.629A26.359,26.359,0,0,1,775.374,222Z" transform="translate(-768.839 -221.053)" fill="#fff"/>
              <path id="Path_382" data-name="Path 382" d="M773.152,223.352a2.527,2.527,0,0,0-1.508-.879,3.622,3.622,0,0,0-1.573.231S771.445,224.461,773.152,223.352Z" transform="translate(-768.152 -220.267)" fill="#de5d36"/>
            </g>
            <path id="Path_383" data-name="Path 383" d="M770.1,214.152a1.164,1.164,0,1,1-1.027-1.382A1.22,1.22,0,0,1,770.1,214.152Z" transform="translate(-767.782 -211.167)" fill="#33133f"/>
            <path id="Path_384" data-name="Path 384" d="M775.744,215.1a1.164,1.164,0,1,1-1.027-1.38A1.219,1.219,0,0,1,775.744,215.1Z" transform="translate(-764.631 -210.638)" fill="#33133f"/>
          </g>
          <path id="Path_385" data-name="Path 385" d="M769.133,216.2s8.132,9.559,14.586,8.087,12.708-7.644,9.129-12.358-5.284-20.5-18.867-16.813c0,0-11.588,1-10.409,5.37,0,0-9.311-.226-8.693,7.339s1.921,20.124,5.261,21.49,2.615-1.863,2.615-1.863l.657-7.213s1.323-1.575,1.726,1.648,2.15,4.067,2.561.383S765.589,216.6,769.133,216.2Z" transform="translate(-754.85 -194.567)" fill="#2c272e"/>
        </g>
      </g>
      <g id="Group_767" data-name="Group 767" transform="translate(63.723 89.521)">
        <g id="Group_766" data-name="Group 766">
          <g id="Group_765" data-name="Group 765">
            <g id="Group_764" data-name="Group 764">
              <path id="Path_386" data-name="Path 386" d="M784.155,255.016a8.6,8.6,0,0,0-1.033,1.206c-.05.075-.1.137-.131.2-.977,1.59-1.866,3.223-2.639,4.764a83.091,83.091,0,0,0-3.379,7.6s-21.384,16.441-23.189,19.466c-.659,3.737,10.867,13.305,10.867,13.305,3.309.009,22.989-23.593,28.3-23.975,12.11-.869,15.693-3.013,13.592-6.041-.944-1.086-6.579.089-6.579.089s5.884-12.372,16.452-11.1c3.357.4,2.539-3.913.988-4.5-5.091-1.918-11.434,1.031-15.815,4.072-.037.023-.07.051-.108.075a3.548,3.548,0,0,0-1.935-3.32c-1-.432-4.3-2.449-4.3-2.449a10.536,10.536,0,0,0-3.028-2.273,4.841,4.841,0,0,0-2.994.486l.008.011a6.893,6.893,0,0,0-.7.048A8.171,8.171,0,0,0,784.155,255.016Z" transform="translate(-753.757 -252.034)" fill="#fdcea3"/>
            </g>
          </g>
          <path id="Path_387" data-name="Path 387" d="M778.44,252.413s2.343,4.049,2.3,6.158c-.065,3.363-3.672,6.46-5.625,5.163s-1.29-4.884-1.29-4.884-1.921,3.4.458,5.119,7.284-.793,7.336-5.236A7.271,7.271,0,0,0,778.44,252.413Z" transform="translate(-742.97 -251.822)" fill="#e8ad80"/>
          <path id="Path_388" data-name="Path 388" d="M781.244,253.5s4.078,8.308-2.383,12.015C778.861,265.514,787.455,261.967,781.244,253.5Z" transform="translate(-739.753 -251.216)" fill="#e8ad80"/>
          <path id="Path_389" data-name="Path 389" d="M786.44,257.263s-1.263,9.643-5.715,9.051C780.725,266.314,783.626,266.652,786.44,257.263Z" transform="translate(-738.714 -249.117)" fill="#e8ad80"/>
        </g>
      </g>
      <path id="Path_390" data-name="Path 390" d="M790.285,282.967s13.782,8.118,13.782,13.4S741.013,398.6,721.19,360.65s-.754-114.5,20.2-124.69,14.631,58.428,14.631,58.428Z" transform="translate(-712.851 -172.054)" fill="#dd4a48"/>
      <g id="Group_770" data-name="Group 770" transform="translate(120.179 50.881)">
        <path id="Path_391" data-name="Path 391" d="M815.423,227.333,837.3,231.9c2.564.536,3.854,3.148,2.9,5.829l-18.89,53.029a6.108,6.108,0,0,1-6.183,3.938l-8.4-1.059a3.828,3.828,0,0,1-1.067-.223.875.875,0,0,0-.22-.059l-1.84-.232a.906.906,0,0,0-.243,0,4.3,4.3,0,0,1-1.134-.055l-8.671-1.094a3.886,3.886,0,0,1-3.3-5.314l18.527-55.289A6.015,6.015,0,0,1,815.423,227.333Z" transform="translate(-789.997 -227.229)" fill="#2c272e"/>
        <path id="Path_392" data-name="Path 392" d="M814.215,228.542l21.636,4.466a2.763,2.763,0,0,1,1.915,3.828L818.99,289.714a4.014,4.014,0,0,1-4.072,2.591l-21.359-2.739a2.554,2.554,0,0,1-2.161-3.5l18.455-54.875A3.954,3.954,0,0,1,814.215,228.542Z" transform="translate(-789.308 -226.534)" fill="#534d55"/>
        <path id="Path_393" data-name="Path 393" d="M797.081,267.487l9.077,1.176a.127.127,0,0,1,.1.176.209.209,0,0,1-.213.136l-9.076-1.173a.13.13,0,0,1-.109-.179A.21.21,0,0,1,797.081,267.487Z" transform="translate(-786.171 -204.774)" fill="#2c272e"/>
        <path id="Path_394" data-name="Path 394" d="M820.377,232.806a2.043,2.043,0,0,1,1.295,2.707l-2.966,8.534a2.47,2.47,0,0,1-2.782,1.626,1.932,1.932,0,0,1-1.357-2.606l3-8.693A2.374,2.374,0,0,1,820.377,232.806Z" transform="translate(-776.363 -224.163)" fill="#2c272e"/>
        <g id="Group_768" data-name="Group 768" transform="translate(41.298 9.475)">
          <path id="Path_395" data-name="Path 395" d="M816.7,235.029c-.43,1.189-.1,2.362.724,2.619s1.827-.488,2.254-1.661.115-2.348-.7-2.619S817.127,233.837,816.7,235.029Z" transform="translate(-816.507 -233.311)" fill="#f9f8fd" opacity="0.35" style="mix-blend-mode: soft-light;isolation: isolate"/>
        </g>
        <g id="Group_769" data-name="Group 769" transform="translate(9.926 36.426)">
          <path id="Path_396" data-name="Path 396" d="M810.227,250.685c6.915,2.535,10.6,17.631,10.6,17.631s1.08-3.692,2.419-2.421c1.171,1.111.341,16.877-1.949,18.379l-2.824,20.769-7.326-5.728-2.757-18.8c-2.732-2.486-12.64-12.612-11.993-14.391.952-2.614,11.358,5.041,11.358,5.041s-11.867-10.635-9.052-12.185c2.795-1.541,13.062,10.012,13.062,10.012s-11.828-17.234-9.375-17.619c2.416-.377,14.1,16.237,14.1,16.237S806.486,249.313,810.227,250.685Z" transform="translate(-796.369 -250.612)" fill="#fdcea3"/>
          <path id="Path_397" data-name="Path 397" d="M797.769,262.117l.749-.98s-1.556-.807-1.787-.461S797.769,262.117,797.769,262.117Z" transform="translate(-796.182 -245.046)" fill="#e8ad80"/>
          <path id="Path_398" data-name="Path 398" d="M799.237,258.272c.058-.288,1.21-1.268,1.21-1.268s-1.556-.978-2.362-.748S799.237,258.272,799.237,258.272Z" transform="translate(-795.52 -247.483)" fill="#e8ad80"/>
          <path id="Path_399" data-name="Path 399" d="M801.021,253.225a11.135,11.135,0,0,1,.921-.865s-1.094-1.038-1.555-.922S801.021,253.225,801.021,253.225Z" transform="translate(-794.191 -250.156)" fill="#e8ad80"/>
          <path id="Path_400" data-name="Path 400" d="M805.511,252.642l1.21-.749a2.337,2.337,0,0,0-1.5-.865C804.416,251.028,805.511,252.642,805.511,252.642Z" transform="translate(-791.595 -250.38)" fill="#e8ad80"/>
        </g>
      </g>
      <path id="Path_401" data-name="Path 401" d="M800.72,270.187s18.5-1.132,19.633,0,7.929,51.727-7.552,44.93S798.453,287.178,800.72,270.187Z" transform="translate(-664.574 -152.667)" fill="#dd4a48"/>
    </g>
    <path id="Path_402" data-name="Path 402" d="M866.975,307.948A5.946,5.946,0,1,1,861.029,302,5.946,5.946,0,0,1,866.975,307.948Z" transform="translate(98.252 59.926)" fill="#dd4a48"/>
    <circle id="Ellipse_24" data-name="Ellipse 24" cx="1.321" cy="1.321" r="1.321" transform="translate(964.19 340.783)" fill="#dd4a48"/>
    <path id="Path_403" data-name="Path 403" d="M698.132,257.425a1.416,1.416,0,1,1-1.416-1.415A1.416,1.416,0,0,1,698.132,257.425Z" transform="translate(9.125 34.273)" fill="#dd4a48"/>
    <path id="Path_404" data-name="Path 404" d="M690.268,274.035a5.663,5.663,0,1,1-5.664-5.664A5.663,5.663,0,0,1,690.268,274.035Z" transform="translate(0 41.168)" fill="#dd4a48"/>
    <path id="Path_405" data-name="Path 405" d="M698.433,269.514a3.021,3.021,0,1,1-3.021-3.021A3.02,3.02,0,0,1,698.433,269.514Z" transform="translate(7.503 40.12)" fill="#dd4a48"/>
    <g id="Group_775" data-name="Group 775" transform="translate(711.385 258.592)">
      <g id="Group_773" data-name="Group 773">
        <g id="Group_772" data-name="Group 772">
          <path id="Path_406" data-name="Path 406" d="M743.564,236.121l9.13,53.146c-.489.083-.685.363-1,.876a2.425,2.425,0,0,1-4,.676c-.482-.377-.749-.579-1.237-.5s-.675.361-.991.874a2.419,2.419,0,0,1-4,.676c-.469-.379-.749-.579-1.235-.5s-.673.361-.989.872a2.416,2.416,0,0,1-3.993.674c-.467-.379-.735-.581-1.221-.5s-.671.361-.986.872a2.412,2.412,0,0,1-3.988.673c-.467-.377-.734-.579-1.22-.5s-.67.36-.984.871a2.409,2.409,0,0,1-3.982.673c-.467-.379-.734-.58-1.22-.5s-.668.36-1,.872a2.5,2.5,0,0,1-1.79,1.415,2.541,2.541,0,0,1-2.173-.745c-.467-.377-.734-.579-1.218-.5s-.679.361-.994.871a2.387,2.387,0,0,1-3.958.668c-.466-.377-.731-.578-1.215-.5l-9.088-52.889a2.487,2.487,0,0,1,2.156.734c.477.372.74.561,1.212.478.5-.087.682-.354,1-.866a2.391,2.391,0,0,1,3.957-.693c.467.375.743.562,1.227.478s.67-.352.983-.865a2.406,2.406,0,0,1,3.975-.7c.466.375.731.565,1.215.48s.672-.352.986-.865a2.409,2.409,0,0,1,3.98-.7c.467.375.732.565,1.218.48s.671-.352.988-.865a2.415,2.415,0,0,1,3.985-.7c.467.377.734.565,1.22.481s.673-.354.988-.868a2.573,2.573,0,0,1,1.81-1.43,2.516,2.516,0,0,1,2.182.732c.467.375.745.562,1.232.478s.674-.354.991-.868a2.421,2.421,0,0,1,4-.7c.481.374.746.562,1.235.478s.674-.354,1-.871A2.537,2.537,0,0,1,743.564,236.121Z" transform="translate(-699.52 -235.414)" fill="#fff"/>
          <path id="Path_407" data-name="Path 407" d="M750.227,292.419a3.127,3.127,0,0,1-2.648-.858c-.483-.377-.569-.419-.777-.385s-.259.083-.578.6a3.01,3.01,0,0,1-4.891.823c-.463-.374-.55-.4-.752-.368s-.262.079-.58.6a3,3,0,0,1-4.862.838c-.489-.4-.562-.421-.762-.386s-.26.081-.578.6a2.995,2.995,0,0,1-4.853.838c-.491-.4-.564-.422-.763-.388s-.259.079-.578.6a2.986,2.986,0,0,1-4.843.84c-.492-.4-.567-.422-.765-.389s-.274.1-.592.6a2.97,2.97,0,0,1-4.821.83c-.492-.4-.566-.424-.763-.389s-.274.087-.587.6a2.97,2.97,0,0,1-4.845.813c-.466-.377-.539-.4-.737-.368l-.589.1-9.294-54.082.59-.1a3.082,3.082,0,0,1,2.634.86c.466.363.539.386.735.352.215-.037.277-.084.587-.587a2.975,2.975,0,0,1,4.843-.846c.449.361.536.388.746.352s.271-.086.578-.587a2.991,2.991,0,0,1,4.856-.852c.458.369.539.394.742.358s.271-.086.579-.587a3.134,3.134,0,0,1,2.211-1.707,3.1,3.1,0,0,1,2.636.841c.475.382.553.407.759.371s.268-.084.58-.587a3.141,3.141,0,0,1,2.214-1.709,3.1,3.1,0,0,1,2.636.838c.481.386.556.41.762.374s.27-.083.581-.589a3.157,3.157,0,0,1,2.218-1.709,3.1,3.1,0,0,1,2.662.858c.449.36.544.388.752.352s.271-.087.581-.589a3.149,3.149,0,0,1,2.22-1.712,3.114,3.114,0,0,1,2.645.841c.492.383.567.407.774.369s.271-.083.6-.6a3.134,3.134,0,0,1,2.218-1.7l.6-.1,9.339,54.353-.6.1c-.2.034-.277.09-.594.6A3.136,3.136,0,0,1,750.227,292.419Zm-3.631-2.446a2.01,2.01,0,0,1,1.711.617,1.983,1.983,0,0,0,1.714.625,1.948,1.948,0,0,0,1.4-1.131,2.642,2.642,0,0,1,.846-.963l-8.925-51.942a2.506,2.506,0,0,0-.824.946,2.029,2.029,0,0,1-1.416,1.154,2,2,0,0,1-1.706-.6,1.978,1.978,0,0,0-1.714-.614,1.958,1.958,0,0,0-1.391,1.136,2.015,2.015,0,0,1-1.41,1.164,1.984,1.984,0,0,1-1.712-.6,1.925,1.925,0,0,0-1.7-.609,1.993,1.993,0,0,0-1.4,1.154,1.832,1.832,0,0,1-3.092.539,1.828,1.828,0,0,0-3.089.525,2,2,0,0,1-1.407,1.162,1.97,1.97,0,0,1-1.695-.6,1.825,1.825,0,0,0-3.086.527,2,2,0,0,1-1.4,1.157,1.966,1.966,0,0,1-1.692-.6,1.823,1.823,0,0,0-3.081.527,2,2,0,0,1-1.4,1.157,1.969,1.969,0,0,1-1.7-.6,1.91,1.91,0,0,0-1.682-.609,1.947,1.947,0,0,0-1.391,1.143,1.96,1.96,0,0,1-1.4,1.148,1.98,1.98,0,0,1-1.681-.6,2.526,2.526,0,0,0-1.081-.617l8.882,51.694a2.559,2.559,0,0,1,1.083.62,1.811,1.811,0,0,0,3.074-.516,1.822,1.822,0,0,1,3.1-.528,1.967,1.967,0,0,0,1.7.618,1.913,1.913,0,0,0,1.382-1.134,1.824,1.824,0,0,1,3.1-.53,1.828,1.828,0,0,0,3.1-.525,1.816,1.816,0,0,1,3.091-.52,1.973,1.973,0,0,0,1.7.617,1.941,1.941,0,0,0,1.388-1.123,1.823,1.823,0,0,1,3.106-.542,1.97,1.97,0,0,0,1.7.618,1.942,1.942,0,0,0,1.393-1.128,1.836,1.836,0,0,1,3.12-.541,1.839,1.839,0,0,0,3.112-.528A1.968,1.968,0,0,1,746.6,289.974Z" transform="translate(-699.768 -235.667)" fill="#dadbe3"/>
        </g>
      </g>
      <path id="Path_408" data-name="Path 408" d="M732.312,264.891a10.445,10.445,0,1,1-12.1-8.663A10.5,10.5,0,0,1,732.312,264.891Z" transform="translate(-693.186 -224.282)" fill="#dadbe3"/>
      <g id="Group_774" data-name="Group 774" transform="translate(25.661 36.269)">
        <path id="Path_409" data-name="Path 409" d="M721.092,267.179a1.192,1.192,0,0,0-.43-.784,2.6,2.6,0,0,0-1.072-.405,11.675,11.675,0,0,1-1.274-.318,3.906,3.906,0,0,1-.957-.449,2.419,2.419,0,0,1-.69-.693,2.716,2.716,0,0,1-.383-1.045,2.444,2.444,0,0,1,.377-1.882,2.894,2.894,0,0,1,1.67-1.115l-.235-1.366,1.009-.173.238,1.386a2.659,2.659,0,0,1,1.907.642,3.172,3.172,0,0,1,.98,1.919l-1.823.312a1.8,1.8,0,0,0-.509-1.092,1.036,1.036,0,0,0-.9-.237,1.07,1.07,0,0,0-.749.433,1.163,1.163,0,0,0-.143.869,1.1,1.1,0,0,0,.413.731,3.076,3.076,0,0,0,1.134.424,11.5,11.5,0,0,1,1.336.366,3.675,3.675,0,0,1,.925.472,2.474,2.474,0,0,1,.645.692,2.738,2.738,0,0,1,.351.989,2.424,2.424,0,0,1-.365,1.876,2.951,2.951,0,0,1-1.7,1.112l.218,1.27-1,.171-.217-1.263a2.85,2.85,0,0,1-3.229-2.564l1.821-.31a1.745,1.745,0,0,0,.556,1.1,1.312,1.312,0,0,0,1.093.231,1.258,1.258,0,0,0,.826-.447A1.046,1.046,0,0,0,721.092,267.179Z" transform="translate(-716.241 -258.949)" fill="#f7f8fa"/>
      </g>
      <path id="Path_410" data-name="Path 410" d="M738.083,247.059l-32.691,5.674-.53-3.084,32.689-5.685Z" transform="translate(-696.927 -231.039)" fill="#dadbe3"/>
      <rect id="Rectangle_110" data-name="Rectangle 110" width="33.18" height="3.134" transform="matrix(0.985, -0.17, 0.17, 0.985, 8.992, 24.771)" fill="#dadbe3"/>
    </g>
    <g id="Group_779" data-name="Group 779" transform="translate(903.227 281.576)">
      <g id="Group_777" data-name="Group 777">
        <g id="Group_776" data-name="Group 776">
          <path id="Path_411" data-name="Path 411" d="M864.307,254.581l-4.809,44.4c-.408-.045-.629.134-1,.469a2.1,2.1,0,0,1-1.77.72,2.127,2.127,0,0,1-1.573-1.09c-.3-.41-.464-.633-.871-.678s-.618.135-.988.47a2,2,0,0,1-3.337-.371c-.288-.407-.464-.631-.872-.676s-.617.135-.985.47a2,2,0,0,1-3.334-.371c-.286-.407-.453-.629-.86-.675s-.615.136-.983.47a2,2,0,0,1-3.329-.369c-.287-.408-.453-.629-.858-.674s-.615.134-.983.47a2,2,0,0,1-3.324-.369c-.285-.408-.452-.629-.857-.675s-.615.136-.991.469a2.076,2.076,0,0,1-1.748.718,2.1,2.1,0,0,1-1.562-1.086c-.285-.407-.452-.629-.857-.673s-.623.132-.989.467a1.976,1.976,0,0,1-3.3-.368c-.287-.4-.452-.626-.857-.671l4.787-44.189a2.063,2.063,0,0,1,1.55,1.075c.3.405.463.615.857.657.416.044.623-.128.989-.464a2.094,2.094,0,0,1,1.757-.728,2.073,2.073,0,0,1,1.553,1.075c.285.405.463.617.868.659s.614-.128.98-.464a1.993,1.993,0,0,1,3.324.349c.287.407.453.617.86.659s.614-.128.981-.464a2,2,0,0,1,3.329.349c.287.405.453.617.86.659s.615-.128.983-.464a2,2,0,0,1,3.332.349c.288.407.457.617.863.661s.615-.129.984-.466a2.126,2.126,0,0,1,1.766-.727,2.079,2.079,0,0,1,1.57,1.078c.288.407.466.618.874.662s.617-.129.986-.466a2.006,2.006,0,0,1,3.341.351c.3.408.466.618.874.662s.618-.128,1-.466A2.111,2.111,0,0,1,864.307,254.581Z" transform="translate(-822.721 -250.224)" fill="#fff"/>
          <path id="Path_412" data-name="Path 412" d="M856.871,300.874a2.592,2.592,0,0,1-1.915-1.285c-.3-.411-.357-.463-.531-.483s-.224.006-.6.344a2.492,2.492,0,0,1-4.081-.456c-.284-.4-.347-.446-.516-.464s-.227,0-.6.343a2.484,2.484,0,0,1-4.063-.438c-.3-.427-.352-.463-.519-.481s-.224.006-.595.344a2.481,2.481,0,0,1-4.057-.435c-.3-.428-.354-.464-.519-.483s-.224,0-.595.343a2.477,2.477,0,0,1-4.05-.432c-.3-.43-.354-.466-.519-.484s-.241.019-.611.346a2.548,2.548,0,0,1-2.13.841,2.58,2.58,0,0,1-1.9-1.276c-.3-.43-.352-.466-.517-.484s-.24.009-.6.343a2.46,2.46,0,0,1-4.043-.453c-.287-.407-.338-.442-.5-.461l-.492-.055,4.895-45.186.492.051a2.55,2.55,0,0,1,1.9,1.284c.288.4.341.43.5.447.181.019.241,0,.6-.335a2.464,2.464,0,0,1,4.049.428c.276.391.34.432.516.45s.234-.008.594-.336a2.476,2.476,0,0,1,4.06.425c.282.4.34.436.509.453s.235-.006.6-.335a2.594,2.594,0,0,1,2.148-.857,2.565,2.565,0,0,1,1.908,1.268c.291.413.349.45.52.467s.232,0,.6-.336a2.483,2.483,0,0,1,4.061.41c.294.417.349.453.522.472s.232-.006.6-.338a2.62,2.62,0,0,1,2.156-.857,2.576,2.576,0,0,1,1.925,1.29c.276.388.344.431.519.45s.235-.006.6-.336a2.612,2.612,0,0,1,2.158-.858A2.573,2.573,0,0,1,861.256,255c.305.417.36.452.533.47s.235,0,.614-.341a2.594,2.594,0,0,1,2.155-.854l.5.053-4.918,45.411-.5-.054c-.17-.019-.241.008-.609.343A2.6,2.6,0,0,1,856.871,300.874Zm-2.337-2.773a1.661,1.661,0,0,1,1.223.88,1.643,1.643,0,0,0,1.223.886,1.618,1.618,0,0,0,1.369-.583,2.175,2.175,0,0,1,.891-.575l4.7-43.4a2.073,2.073,0,0,0-.871.565,1.682,1.682,0,0,1-1.391.6,1.656,1.656,0,0,1-1.221-.863,1.642,1.642,0,0,0-1.226-.879,1.623,1.623,0,0,0-1.366.587,1.665,1.665,0,0,1-1.388.606,1.639,1.639,0,0,1-1.226-.868,1.594,1.594,0,0,0-1.218-.872,1.657,1.657,0,0,0-1.38.6,1.517,1.517,0,0,1-2.584-.273,1.514,1.514,0,0,0-2.58-.284,1.664,1.664,0,0,1-1.385.6,1.633,1.633,0,0,1-1.214-.865,1.51,1.51,0,0,0-2.577-.282,1.657,1.657,0,0,1-1.382.6,1.631,1.631,0,0,1-1.21-.865,1.509,1.509,0,0,0-2.574-.282,1.653,1.653,0,0,1-1.379.6,1.626,1.626,0,0,1-1.218-.865,1.583,1.583,0,0,0-1.2-.869,1.616,1.616,0,0,0-1.368.6,1.515,1.515,0,0,1-2.58-.262,2.1,2.1,0,0,0-.721-.737L824,294.8a2.145,2.145,0,0,1,.721.74,1.5,1.5,0,0,0,2.566.288,1.508,1.508,0,0,1,2.586.284,1.627,1.627,0,0,0,1.211.877,1.583,1.583,0,0,0,1.358-.587,1.51,1.51,0,0,1,2.589.282,1.515,1.515,0,0,0,2.587.287,1.5,1.5,0,0,1,2.58.288,1.635,1.635,0,0,0,1.213.879,1.607,1.607,0,0,0,1.362-.579,1.51,1.51,0,0,1,2.6.274,1.637,1.637,0,0,0,1.217.88,1.609,1.609,0,0,0,1.365-.583,1.522,1.522,0,0,1,2.608.279,1.522,1.522,0,0,0,2.6.288A1.629,1.629,0,0,1,854.534,298.1Z" transform="translate(-822.917 -250.421)" fill="#dadbe3"/>
        </g>
      </g>
      <path id="Path_413" data-name="Path 413" d="M847.452,276.373a8.651,8.651,0,1,1-7.664-9.649A8.695,8.695,0,0,1,847.452,276.373Z" transform="translate(-818.854 -241.355)" fill="#e2e3ea"/>
      <g id="Group_778" data-name="Group 778" transform="translate(17.201 29.061)">
        <path id="Path_414" data-name="Path 414" d="M837.612,276.173a.988.988,0,0,0-.165-.721,2.176,2.176,0,0,0-.762-.567,9.5,9.5,0,0,1-.942-.542,3.189,3.189,0,0,1-.659-.575,2.011,2.011,0,0,1-.393-.709,2.263,2.263,0,0,1-.067-.919,2.026,2.026,0,0,1,.728-1.414,2.4,2.4,0,0,1,1.584-.508l.123-1.142.843.092-.125,1.157a2.21,2.21,0,0,1,1.372.946,2.628,2.628,0,0,1,.344,1.753l-1.522-.167a1.5,1.5,0,0,0-.157-.986.861.861,0,0,0-.664-.393.884.884,0,0,0-.7.174.966.966,0,0,0-.312.659.919.919,0,0,0,.162.676,2.576,2.576,0,0,0,.807.6,9.67,9.67,0,0,1,.983.6,3.059,3.059,0,0,1,.629.587,2.013,2.013,0,0,1,.355.7,2.264,2.264,0,0,1,.056.868,2,2,0,0,1-.718,1.41,2.448,2.448,0,0,1-1.609.5l-.115,1.061-.838-.092.114-1.056a2.359,2.359,0,0,1-1.988-2.776l1.52.167a1.441,1.441,0,0,0,.192,1.006,1.087,1.087,0,0,0,.819.433,1.038,1.038,0,0,0,.759-.168A.87.87,0,0,0,837.612,276.173Z" transform="translate(-833.959 -269.076)" fill="#f7f8fa"/>
      </g>
      <path id="Path_415" data-name="Path 415" d="M855.686,262.591l-27.326-2.913.279-2.576,27.327,2.9Z" transform="translate(-819.881 -246.694)" fill="#e2e3ea"/>
      <rect id="Rectangle_111" data-name="Rectangle 111" width="2.596" height="27.481" transform="matrix(0.107, -0.994, 0.994, 0.107, 7.922, 18.135)" fill="#e2e3ea"/>
    </g>
    <g id="Group_784" data-name="Group 784" transform="translate(810.775 352.332)">
      <rect id="Rectangle_112" data-name="Rectangle 112" width="91.221" height="108.368" rx="8.708" fill="#fff"/>
      <path id="Rectangle_113" data-name="Rectangle 113" d="M2.453,0H9.6a2.453,2.453,0,0,1,2.453,2.453v7.3A2.452,2.452,0,0,1,9.6,12.2H2.453A2.453,2.453,0,0,1,0,9.749v-7.3A2.453,2.453,0,0,1,2.453,0Z" transform="matrix(1, -0.016, 0.016, 1, 12.059, 11.05)" fill="#e4ecf4"/>
      <path id="Rectangle_114" data-name="Rectangle 114" d="M2.453,0H9.6a2.453,2.453,0,0,1,2.453,2.453v7.3A2.453,2.453,0,0,1,9.6,12.2H2.452A2.452,2.452,0,0,1,0,9.749v-7.3A2.453,2.453,0,0,1,2.453,0Z" transform="matrix(1, -0.016, 0.016, 1, 12.059, 33.6)" fill="#e4ecf4"/>
      <path id="Rectangle_115" data-name="Rectangle 115" d="M2.453,0H9.6a2.453,2.453,0,0,1,2.453,2.453v7.3A2.452,2.452,0,0,1,9.6,12.2H2.452A2.452,2.452,0,0,1,0,9.749v-7.3A2.453,2.453,0,0,1,2.453,0Z" transform="matrix(1, -0.016, 0.016, 1, 12.059, 56.151)" fill="#e4ecf4"/>
      <g id="Group_780" data-name="Group 780" transform="translate(23.016 83.817)">
        <path id="Path_416" data-name="Path 416" d="M781.441,357.969v.8h-.9v-.8a2.214,2.214,0,0,1-2.2-2.2h1.531a1.047,1.047,0,0,0,.667.886v-1.648c-1.232-.5-1.935-1.064-1.935-2.229a2.09,2.09,0,0,1,1.938-2.164V349.8h.9v.815a2.228,2.228,0,0,1,2.078,2.207l-1.53,0a1.021,1.021,0,0,0-.55-.886v1.587c1.468.527,2.1,1.156,2.1,2.383A2.074,2.074,0,0,1,781.441,357.969Zm-.9-4.659v-1.4a.759.759,0,0,0,0,1.4Zm.9,3.382a.63.63,0,0,0,.55-.692.763.763,0,0,0-.548-.742Z" transform="translate(-778.344 -349.557)" fill="#dd4a48"/>
        <path id="Path_417" data-name="Path 417" d="M789.767,361.254l-2.606,0,.006-8.322-3.042,1.821,0-2.669,2.477-1.623a3.673,3.673,0,0,1,2.042-.646l1.13,0Z" transform="translate(-775.119 -349.553)" fill="#dd4a48"/>
        <path id="Path_418" data-name="Path 418" d="M797.7,359.033l0,2.321-7.747,0v-1.295l3.145-3.379c1.492-1.608,2-2.4,2-3.5,0-.863-.419-1.343-1.128-1.344-.754,0-1.131.547-1.232,1.74l-.016.167-2.606,0,.016-.167c.218-2.519,1.609-3.927,4.057-3.927,2.331,0,3.634,1.279,3.633,3.418,0,1.343-.537,2.371-2.465,4.491l-1.333,1.475Z" transform="translate(-771.869 -349.646)" fill="#dd4a48"/>
        <path id="Path_419" data-name="Path 419" d="M799.069,356.842a1.461,1.461,0,1,1-1.447-1.659A1.494,1.494,0,0,1,799.069,356.842Z" transform="translate(-768.399 -346.557)" fill="#dd4a48"/>
        <path id="Path_420" data-name="Path 420" d="M807,357.4a3.868,3.868,0,0,1-3.985,4.092c-2.4,0-3.75-1.014-3.966-3.452l-.014-.165h2.606l.015.165c.072.78.477,1.26,1.186,1.262.97,0,1.435-.8,1.435-1.823,0-1.045-.491-1.824-1.388-1.826a1.249,1.249,0,0,0-1.276,1.028l-2.4,0,.743-6.864,6.661,0,0,2.321-4.518,0-.321,2.5.377-.763a2.829,2.829,0,0,1,1.55-.413C805.7,353.473,807,354.9,807,357.4Z" transform="translate(-766.801 -349.548)" fill="#dd4a48"/>
        <path id="Path_421" data-name="Path 421" d="M813.578,355.632c0,3.812-1.235,5.951-4.131,5.949s-4.125-2.142-4.123-5.955c0-3.829,1.235-5.951,4.131-5.949S813.579,351.8,813.578,355.632Zm-2.723,0c0-2.837-.489-3.765-1.4-3.765s-1.405.927-1.407,3.762c0,2.82.489,3.764,1.4,3.765S810.853,358.449,810.855,355.631Z" transform="translate(-763.295 -349.629)" fill="#dd4a48"/>
      </g>
      <g id="Group_781" data-name="Group 781" transform="translate(31.807 12.549)">
        <path id="Path_422" data-name="Path 422" d="M810.342,303.911l-24.813-.014a1.537,1.537,0,0,0-1.539,1.538h0a1.537,1.537,0,0,0,1.538,1.539l24.813.016a1.539,1.539,0,0,0,1.539-1.538h0A1.538,1.538,0,0,0,810.342,303.911Z" transform="translate(-783.985 -303.897)" fill="#dadbe3"/>
        <path id="Path_423" data-name="Path 423" d="M794.279,307.73l-8.752-.006a1.539,1.539,0,1,0,0,3.078l8.752,0a1.538,1.538,0,1,0,0-3.077Z" transform="translate(-783.987 -301.762)" fill="#dadbe3"/>
        <path id="Path_424" data-name="Path 424" d="M803.292,307.735l-8.752,0a1.538,1.538,0,1,0,0,3.077l8.752.006a1.539,1.539,0,0,0,0-3.078Z" transform="translate(-778.959 -301.759)" fill="#dadbe3"/>
        <path id="Path_425" data-name="Path 425" d="M812.738,307.741l-8.752-.006a1.539,1.539,0,1,0,0,3.078l8.752.006a1.539,1.539,0,0,0,0-3.078Z" transform="translate(-773.69 -301.756)" fill="#dadbe3"/>
        <path id="Path_426" data-name="Path 426" d="M818.935,303.917l-14.329-.009a1.54,1.54,0,0,0-1.541,1.538h0a1.54,1.54,0,0,0,1.538,1.541l14.33.009a1.538,1.538,0,0,0,1.539-1.539h0A1.537,1.537,0,0,0,818.935,303.917Z" transform="translate(-773.345 -303.891)" fill="#dadbe3"/>
      </g>
      <g id="Group_782" data-name="Group 782" transform="translate(31.807 34.347)">
        <path id="Path_427" data-name="Path 427" d="M810.342,317.905l-24.813-.016a1.538,1.538,0,0,0-1.539,1.538h0a1.536,1.536,0,0,0,1.538,1.539l24.813.016a1.537,1.537,0,0,0,1.539-1.538h0A1.536,1.536,0,0,0,810.342,317.905Z" transform="translate(-783.985 -317.89)" fill="#dadbe3"/>
        <path id="Path_428" data-name="Path 428" d="M794.279,321.723l-8.752,0a1.538,1.538,0,1,0,0,3.077l8.752.006a1.539,1.539,0,0,0,0-3.078Z" transform="translate(-783.987 -315.755)" fill="#dadbe3"/>
        <path id="Path_429" data-name="Path 429" d="M803.292,321.729l-8.752-.006a1.539,1.539,0,0,0,0,3.078l8.752,0a1.538,1.538,0,0,0,0-3.077Z" transform="translate(-778.959 -315.752)" fill="#dadbe3"/>
        <path id="Path_430" data-name="Path 430" d="M812.738,321.734l-8.752,0a1.538,1.538,0,1,0,0,3.077l8.752.006a1.539,1.539,0,0,0,0-3.078Z" transform="translate(-773.69 -315.749)" fill="#dadbe3"/>
        <path id="Path_431" data-name="Path 431" d="M818.935,317.91l-14.329-.008a1.538,1.538,0,0,0-1.541,1.538h0a1.539,1.539,0,0,0,1.538,1.539l14.33.009a1.538,1.538,0,0,0,1.539-1.538h0A1.538,1.538,0,0,0,818.935,317.91Z" transform="translate(-773.345 -317.883)" fill="#dadbe3"/>
      </g>
      <g id="Group_783" data-name="Group 783" transform="translate(31.807 56.145)">
        <path id="Path_432" data-name="Path 432" d="M810.342,331.9l-24.813-.016a1.539,1.539,0,0,0-1.539,1.538h0a1.537,1.537,0,0,0,1.538,1.541l24.813.016a1.539,1.539,0,0,0,1.539-1.539h0A1.537,1.537,0,0,0,810.342,331.9Z" transform="translate(-783.985 -331.883)" fill="#dadbe3"/>
        <path id="Path_433" data-name="Path 433" d="M794.279,335.716l-8.752,0a1.538,1.538,0,1,0,0,3.077l8.752.006a1.539,1.539,0,0,0,0-3.078Z" transform="translate(-783.987 -329.748)" fill="#dadbe3"/>
        <path id="Path_434" data-name="Path 434" d="M803.292,335.722l-8.752-.006a1.539,1.539,0,0,0,0,3.078l8.752,0a1.538,1.538,0,0,0,0-3.077Z" transform="translate(-778.959 -329.745)" fill="#dadbe3"/>
        <path id="Path_435" data-name="Path 435" d="M812.738,335.728l-8.752-.006a1.539,1.539,0,1,0,0,3.078l8.752,0a1.538,1.538,0,1,0,0-3.077Z" transform="translate(-773.69 -329.742)" fill="#dadbe3"/>
        <path id="Path_436" data-name="Path 436" d="M818.935,331.9l-14.329-.009a1.539,1.539,0,0,0-1.541,1.538h0a1.54,1.54,0,0,0,1.538,1.541l14.33.008a1.538,1.538,0,0,0,1.539-1.538h0A1.536,1.536,0,0,0,818.935,331.9Z" transform="translate(-773.345 -331.876)" fill="#dadbe3"/>
      </g>
      <path id="Path_437" data-name="Path 437" d="M773.1,307.281l2.231-1,1.506,3.124,8.311-5.913-8.255,8.478Z" transform="translate(-758.255 -291.576)" fill="#ffc72b"/>
      <path id="Path_438" data-name="Path 438" d="M773.1,321.056l2.231-1,1.506,3.124,8.311-5.913-8.255,8.478Z" transform="translate(-758.255 -283.892)" fill="#ffc72b"/>
      <path id="Path_439" data-name="Path 439" d="M773.1,335.641l2.231-1,1.506,3.124,8.311-5.913-8.255,8.478Z" transform="translate(-758.255 -275.757)" fill="#ffc72b"/>
      <path id="Path_440" data-name="Path 440" d="M854.374,385.087l.386.263.047-75.686a13.565,13.565,0,0,0-13.558-13.575l-64.088-.039a13.566,13.566,0,0,0-13.575,13.557l0,7.942C766.945,320.53,845.378,379.048,854.374,385.087Z" transform="translate(-763.562 -295.725)" fill="#f9f8fd" opacity="0.5" style="mix-blend-mode: soft-light;isolation: isolate"/>
    </g>
  </g>
</svg>
