<svg xmlns="http://www.w3.org/2000/svg" xmlns:xlink="http://www.w3.org/1999/xlink" width="265" height="267.109" viewBox="0 0 265 267.109">
  <defs>
    <radialGradient id="radial-gradient" cx="1.728" cy="-0.552" r="2.519" gradientTransform="matrix(-1.19, 0.053, 0.055, 0.862, 262.409, -7.783)" gradientUnits="objectBoundingBox">
      <stop offset="0" stop-color="#fdab47"/>
      <stop offset="1" stop-color="#fa594d"/>
    </radialGradient>
    <radialGradient id="radial-gradient-2" cx="0.508" cy="0.502" r="0.542" gradientTransform="matrix(-0.869, -0.039, -0.034, 0.999, 2520.478, 52.04)" xlink:href="#radial-gradient"/>
    <radialGradient id="radial-gradient-3" cx="0.508" cy="0.502" r="0.542" gradientTransform="matrix(-0.87, -0.039, -0.034, 0.999, 2519.446, 52.017)" xlink:href="#radial-gradient"/>
    <radialGradient id="radial-gradient-4" cx="0.491" cy="0.499" r="0.374" gradientTransform="matrix(-2.941, -0.039, -0.114, 0.999, 10850.774, 106.262)" xlink:href="#radial-gradient"/>
    <radialGradient id="radial-gradient-5" cx="0.508" cy="0.502" r="0.542" gradientTransform="matrix(-0.87, -0.039, -0.034, 0.999, 2518.827, 52.001)" xlink:href="#radial-gradient"/>
    <radialGradient id="radial-gradient-6" cx="0.508" cy="0.502" r="0.542" gradientTransform="matrix(-0.87, -0.039, -0.034, 0.999, 2518.641, 51.997)" xlink:href="#radial-gradient"/>
  </defs>
  <g id="intro_1" transform="translate(-155.463 -202.269)">
    <g id="Group_658" data-name="Group 658" transform="translate(406.168 457.852)">
      <path id="Path_79" data-name="Path 79" d="M322.921,364.257c.607-2.666-7.093-4.636-10.136-4.114s-3.744.475-4.072,1.389.99,4.479.99,4.479S322.182,367.509,322.921,364.257Z" transform="translate(-308.661 -357.423)" fill="#2e353c"/>
      <path id="Path_80" data-name="Path 80" d="M311.687,358.448s1.856,3.535,1.183,4.477c-1.006,1.412-3.243.106-3.243.106l-.959-3.551Z" transform="translate(-308.657 -358.448)" fill="#fdb4a1"/>
    </g>
    <path id="Path_81" data-name="Path 81" d="M393.567,326.794c0,66.917-53.3,121.176-119.049,121.176-57.643,0-105.713-41.7-116.7-97.068a123.93,123.93,0,0,1-2.355-24.109c0-1.574.033-3.134.09-4.693,2.419-64.749,54.753-116.489,118.965-116.489,41.04,0,77.222,21.137,98.627,53.3a121.247,121.247,0,0,1,14.1,28.8A123.008,123.008,0,0,1,393.567,326.794Z" transform="translate(0 2.127)" fill="rgba(221,74,72,0.1)"/>
    <path id="Path_82" data-name="Path 82" d="M182.819,342.915s11.963,13.506,40.429,20.772c17.163,4.381,2.769,19.566-18.947,6.654C188.028,360.666,183.976,351.405,182.819,342.915Z" transform="translate(17.411 89.518)" fill="#dd4a48"/>
    <path id="Path_83" data-name="Path 83" d="M301.668,326.118s10.13-30,3.072-55.7c-3.646-13.273,11.365-9.511,11.886,10.113S302.814,326.93,301.668,326.118Z" transform="translate(93.056 38.396)" fill="#dd4a48"/>
    <path id="Path_84" data-name="Path 84" d="M179.545,246.457c9.987,9.582,20.346,18.769,30.723,27.923,5.523,4.873,11.054,9.739,16.535,14.66s10.833,10.009,16.327,14.926q4.976,4.453,9.991,8.866l-4.749-98.027a8.237,8.237,0,0,0-8.012-7.963l-54.611.3a7.875,7.875,0,0,0-7.824,8.423Z" transform="translate(14.289 2.911)" fill="#f9f8fd" opacity="0.5" style="mix-blend-mode: soft-light;isolation: isolate"/>
    <path id="Path_85" data-name="Path 85" d="M290.031,293.736s54.75,41.822,68.064,114.179l-4.582,2.17L297.171,348.34s-62.71-18.137-59.236-50.552S290.031,293.736,290.031,293.736Z" transform="translate(52.403 50.905)" fill="#2c272e"/>
    <g id="Group_659" data-name="Group 659" transform="translate(224.275 454.139)">
      <path id="Path_86" data-name="Path 86" d="M205.961,370.717c2.587-.887.209-8.47-1.838-10.783S201.747,357,200.8,357.2s-3.286,3.2-3.286,3.2S202.809,371.8,205.961,370.717Z" transform="translate(-197.512 -355.55)" fill="#2e353c"/>
      <path id="Path_87" data-name="Path 87" d="M204.55,358.2s-2.028,3.438-3.183,3.363c-1.731-.113-1.8-2.7-1.8-2.7l2.514-2.682Z" transform="translate(-196.203 -356.179)" fill="#fdb4a1"/>
    </g>
    <path id="Path_88" data-name="Path 88" d="M299.135,289.739s-.966,50.361-9.649,63.1C276.149,372.4,204.362,402.4,204.362,402.4a10.365,10.365,0,0,1-4.515-2.923L250.7,346.661s.862-32.833,2.316-53.641Z" transform="translate(28.249 55.673)" fill="#2c272e"/>
    <path id="Path_89" data-name="Path 89" d="M309.948,311.972a17.813,17.813,0,0,1,3.473-3.617c-4.579-10.066-30.118-55.824-38.364-57.4-4.59-.877-18.726,4.5.327,24.4C279.938,280.108,309.886,312.044,309.948,311.972Z" transform="translate(70.161 30.931)" fill="#fdcea3"/>
    <path id="Path_90" data-name="Path 90" d="M276.692,300.928a9.869,9.869,0,0,0,.491-1.794,5.055,5.055,0,0,0,.131-1.461,1.743,1.743,0,0,0-1.06-1.548,3.679,3.679,0,0,0-2.078-.029,13.907,13.907,0,0,0-2.523.836c-.81.34-1.6.73-2.386,1.113a19.763,19.763,0,0,1-4.422,1.53,22.065,22.065,0,0,1-9.037-.088,33.587,33.587,0,0,0-4.5-.975,13.4,13.4,0,0,0-3.939.453c-1.424.339-2.831.748-4.281.97a26.189,26.189,0,0,1-3.988.221,42.642,42.642,0,0,0-4.382.129l.115-6.662,9.339-1.19,45.584-3.983s.98,11.784-13.591,20.053C276.953,307.476,276.213,302.124,276.692,300.928Z" transform="translate(50.445 54.852)" fill="#231f20" opacity="0.25"/>
    <path id="Path_91" data-name="Path 91" d="M257.1,224.655s23.822,12.063,30.547,36.8c0,0-10.968,18.563-15.1,12.989S257.1,224.655,257.1,224.655Z" transform="translate(64.689 14.248)" fill="#dd4a48"/>
    <path id="Path_92" data-name="Path 92" d="M223.057,331.6s62.163,12.9,75.895-1.854c18.88-20.286,3.568-102.538-31.447-107.949C217.759,214.109,223.057,331.6,223.057,331.6Z" transform="translate(42.918 12.199)" fill="#fcecec"/>
    <path id="Path_93" data-name="Path 93" d="M235.828,323.863q2.386-.724,4.711-1.623a32.125,32.125,0,0,1,14.908-2.55c1.692.038,3.384.129,5.075.221,1.635.087,3.276.121,4.908.257,2.592.213,5.864.889,8.182-.677a8.263,8.263,0,0,0,2.33-2.6,7.942,7.942,0,0,1,1.56-2.195,5.446,5.446,0,0,1,3.489-.759,14.942,14.942,0,0,0,3.1-.277,4.846,4.846,0,0,0,3.391-2.7,26.463,26.463,0,0,0,2.167-8.024,94.132,94.132,0,0,0,.732-10.946,98.84,98.84,0,0,0-.147-10.832c-.3-3.6-.8-7.182-1.376-10.75s-1.221-7.129-1.8-10.7c-.6-3.669-1.142-7.348-1.758-11.015-1.175-7-2.483-13.989-4.011-20.924a.244.244,0,0,0,.133-.214l.065-1.71c24.735,21.245,33.558,83.771,17.432,101.1-13.732,14.754-75.895,1.854-75.895,1.854s-.038-.813-.075-2.289c.977-.116,1.954-.244,2.928-.394A72.639,72.639,0,0,0,235.828,323.863Z" transform="translate(42.952 15.004)" fill="#231f20" opacity="0.1"/>
    <g id="Group_666" data-name="Group 666" transform="translate(299.231 202.269)">
      <path id="Path_94" data-name="Path 94" d="M269.533,214.858a6.026,6.026,0,0,0-1.164-3.8c.018-.167.039-.334.046-.506A7.966,7.966,0,0,0,255.9,203.7a6.041,6.041,0,0,0-8.434,5.25,6.044,6.044,0,0,0-2.422,9.966,9.853,9.853,0,0,0-.164,1.383,9.681,9.681,0,0,0,16.776,6.962,6.046,6.046,0,0,0,4.911-7.431A6.045,6.045,0,0,0,269.533,214.858Z" transform="translate(-243.315 -202.269)" fill="#2c272e"/>
      <g id="Group_665" data-name="Group 665" transform="translate(1.4 12.203)">
        <g id="Group_660" data-name="Group 660" transform="translate(0 6.765)">
          <path id="Path_95" data-name="Path 95" d="M255.265,214.539s.337,7.529,1.37,9.645,5.206,5.237-.249,6.6-12.5-2.54-12.206-4.541,3.78-3.335,4.872-7.225.638-5.16.638-5.16Z" transform="translate(-244.171 -213.86)" fill="#fdcea3"/>
          <path id="Path_96" data-name="Path 96" d="M254.351,224.168c-1.033-2.116-1.37-9.645-1.37-9.645l-5.224-.637a.863.863,0,0,1,.363.627,20.574,20.574,0,0,0,2.5,7.493c1.021,2,3.759,4.72,2.661,6.844a4.812,4.812,0,0,1-2.365,2.177,10.45,10.45,0,0,0,3.183-.257C259.557,229.4,255.384,226.286,254.351,224.168Z" transform="translate(-241.887 -213.843)" fill="#d66e85" opacity="0.25"/>
        </g>
        <g id="Group_664" data-name="Group 664" transform="translate(4.888)">
          <path id="Path_97" data-name="Path 97" d="M259.96,212.1a38.977,38.977,0,0,1-.864,5.515c-.149.581-.3,1.177-.493,1.744-.6,1.848-1.445,3.5-2.623,4.188-2.906,1.715-8.794-2.757-8.377-6.364.134-1.134.373-3.086.373-3.086a2.541,2.541,0,0,1-.552-2.906c.655-1.222,1.445-.015,1.445-.015l.507-1.447Z" transform="translate(-247.158 -209.726)" fill="#fdcea3"/>
          <g id="Group_663" data-name="Group 663" transform="translate(2.143 0.949)">
            <path id="Path_98" data-name="Path 98" d="M248.506,213.78c-.188.547.329,1.222,1.155,1.509s1.651.074,1.839-.473-.327-1.221-1.155-1.507S248.7,213.235,248.506,213.78Z" transform="translate(-248.467 -208.476)" fill="#33133f" opacity="0.05" style="mix-blend-mode: multiply;isolation: isolate"/>
            <path id="Path_99" data-name="Path 99" d="M255.15,214.609c-.149.581-.3,1.177-.493,1.744a2.131,2.131,0,0,1-.268-.075c-.715-.239-1.162-.835-1-1.311s.88-.656,1.61-.419C255.046,214.565,255.1,214.594,255.15,214.609Z" transform="translate(-245.355 -207.672)" fill="#33133f" opacity="0.05" style="mix-blend-mode: multiply;isolation: isolate"/>
            <g id="Group_662" data-name="Group 662" transform="translate(2.31)">
              <path id="Path_100" data-name="Path 100" d="M252.513,215.195a2.075,2.075,0,0,0,.766-.023.241.241,0,0,0-.116-.468c-.008,0-.743.175-1.088-.268a.24.24,0,1,0-.38.295A1.266,1.266,0,0,0,252.513,215.195Z" transform="translate(-248.756 -207.737)" fill="#33143f"/>
              <path id="Path_101" data-name="Path 101" d="M251.272,210.545a2.008,2.008,0,0,0-.728-.237.238.238,0,0,0-.263.214.242.242,0,0,0,.213.265c.008,0,.758.088.931.623a.241.241,0,0,0,.458-.149A1.27,1.27,0,0,0,251.272,210.545Z" transform="translate(-249.624 -210.306)" fill="#33143f"/>
              <path id="Path_102" data-name="Path 102" d="M254.379,211.164a2.088,2.088,0,0,0-.748.165.241.241,0,0,0,.2.439c.007,0,.7-.309,1.118.062a.241.241,0,1,0,.319-.362A1.265,1.265,0,0,0,254.379,211.164Z" transform="translate(-247.579 -209.76)" fill="#33143f"/>
              <g id="Group_661" data-name="Group 661" transform="translate(0.537 8.894)">
                <path id="Path_103" data-name="Path 103" d="M254.166,216.585s-1.97-.514-3.959-.844C250.207,215.741,252.307,220.168,254.166,216.585Z" transform="translate(-250.207 -215.741)" fill="#33133f"/>
                <path id="Path_104" data-name="Path 104" d="M254.166,216.585s-.2.506-.3.517a14.629,14.629,0,0,1-3.435-.961l-.224-.4A16.142,16.142,0,0,1,254.166,216.585Z" transform="translate(-250.207 -215.741)" fill="#fff"/>
                <path id="Path_105" data-name="Path 105" d="M252.723,217.26a1.556,1.556,0,0,0-.889-.6,2.224,2.224,0,0,0-.97.077A1.446,1.446,0,0,0,252.723,217.26Z" transform="translate(-249.789 -215.17)" fill="#de5d36"/>
              </g>
              <path id="Path_106" data-name="Path 106" d="M251.293,211.8a.714.714,0,1,1-.573-.887A.748.748,0,0,1,251.293,211.8Z" transform="translate(-249.879 -209.928)" fill="#33133f"/>
              <path id="Path_107" data-name="Path 107" d="M254.945,212.568a.713.713,0,1,1-.571-.887A.747.747,0,0,1,254.945,212.568Z" transform="translate(-247.554 -209.437)" fill="#33133f"/>
            </g>
          </g>
          <path id="Path_108" data-name="Path 108" d="M248.323,210.9s-.226-.527-.509-.288a1.952,1.952,0,0,0-.147,2.01s-.214-1.234.077-1.527S248.377,211.249,248.323,210.9Z" transform="translate(-246.972 -209.205)" fill="#d66e85" opacity="0.25"/>
        </g>
      </g>
    </g>
    <g id="Group_667" data-name="Group 667" transform="translate(298.402 233.002)">
      <path id="Path_109" data-name="Path 109" d="M256.613,226.31s.975,4.445.309,5.942-11.382-1.645-13.236-4.471c-2.067-3.152-.013-7.579,1.35-6.592C251.942,226.189,256.613,226.31,256.613,226.31Z" transform="translate(-242.809 -221.049)" fill="#dd4a48"/>
      <path id="Path_110" data-name="Path 110" d="M251.191,225.772s1.872,5.193,4.7,5,5.67-2.829,5.413-4.057-5-4.708-7.132-4.867A6.766,6.766,0,0,1,251.191,225.772Z" transform="translate(-237.473 -220.542)" fill="#dd4a48"/>
    </g>
    <path id="Path_111" data-name="Path 111" d="M257.282,222.109s-5.062,1.548,4.919,23.875-3.721,88.074-3.721,88.074-32.9,9.765-37.742-.295S221.838,232.551,257.282,222.109Z" transform="translate(40.615 12.628)" fill="#dd4a48"/>
    <path id="Path_112" data-name="Path 112" d="M233.528,277.133a37.756,37.756,0,0,0,5.063-7.243,78.274,78.274,0,0,0,3.77-8.4c2.16-5.4,4.224-11.1,7.94-15.656-.123.5-.247.99-.365,1.486-.869,3.7-1.666,7.59-1.332,11.413a15.837,15.837,0,0,0,1.324,4.873c.632,1.483,1.386,2.916,1.923,4.438a11.139,11.139,0,0,1,.633,4.908,30.242,30.242,0,0,1-1.568,5.913c-1.262,3.9-2.73,7.732-3.754,11.7A32.544,32.544,0,0,0,246.1,302.49c.5,4.245,1.273,8.452,1.72,12.706.219,2.072.368,4.15.425,6.232-10.092,2.019-24.436,3.61-27.5-2.767-1.668-3.469-2.054-16.576-.393-32.689A34.21,34.21,0,0,0,233.528,277.133Z" transform="translate(40.615 27.73)" fill="#231f20" opacity="0.25"/>
    <path id="Path_113" data-name="Path 113" d="M231.943,280.278c3.739,2.656,10.529-.029,10.848-7.642s-4.248-7.371-1.386-14.908,6.723-15.681.969-15.952-10.76,7.166-11.784,12.19S231.943,280.278,231.943,280.278Z" transform="translate(47.654 25.14)" fill="#fdcea3"/>
    <path id="Path_114" data-name="Path 114" d="M241.374,243.3a9.928,9.928,0,0,0-3.244.352,22.581,22.581,0,0,0-3.32,1.042c-.514.206-1.029.434-1.533.689,2.029-2.194,4.545-3.739,7.223-3.613,1.841.087,2.694.982,2.915,2.4A3.688,3.688,0,0,0,241.374,243.3Z" transform="translate(49.527 25.14)" fill="#fff" opacity="0.25"/>
    <path id="Path_115" data-name="Path 115" d="M230.589,252.041a19.017,19.017,0,0,1,3.451-7.25,62.906,62.906,0,0,0,1.273,8.739c.488,2.951,1.015,5.893,1.5,8.844.239,1.458.421,2.928.684,4.379a18.639,18.639,0,0,0,1.121,3.79c.515,1.247,1.766,4.376,3.569,3.417-1.8,5.081-7.1,6.628-10.246,4.394C231.943,278.354,229.567,257.065,230.589,252.041Z" transform="translate(47.654 27.064)" fill="#d66e85" opacity="0.25"/>
    <path id="Path_116" data-name="Path 116" d="M257.37,224.82s23.884,37.888,15.324,109.189c0,0,16.252,10.307,19.346.36S288.677,241.72,257.37,224.82Z" transform="translate(64.862 14.353)" fill="#dd4a48"/>
    <g id="Group_677" data-name="Group 677" transform="translate(186.429 206.862)">
      <g id="Group_673" data-name="Group 673">
        <path id="Path_117" data-name="Path 117" d="M258.767,388.408l-23.678,2.582a10.867,10.867,0,0,1-3.113.077,2.658,2.658,0,0,0-.658-.021l-5.214.571a2.473,2.473,0,0,0-.65.162,11.378,11.378,0,0,1-3.124.6l-24.709,2.7a13.2,13.2,0,0,1-14.715-12.594l-1.74-32.921-1.679-31.99-5.081-96.353a13.466,13.466,0,0,1,13.422-14.409l62.059-.154c7.21-.025,13.3,6.081,13.669,13.622l7.385,153.307C271.3,381.005,265.871,387.634,258.767,388.408Z" transform="translate(-174.385 -204.072)" fill="#2c272e"/>
        <path id="Path_118" data-name="Path 118" d="M189.9,205.235l62.055-.159c7.21-.02,13.3,6.083,13.668,13.624l7.39,153.309c.357,7.417-5.071,14.049-12.177,14.823l-23.677,2.581a11,11,0,0,1-3.114.085,2.319,2.319,0,0,0-.658-.021l-5.214.566a2.49,2.49,0,0,0-.651.164,11.55,11.55,0,0,1-3.124.6l-24.7,2.69A13.191,13.191,0,0,1,184.981,380.9l-8.5-161.254A13.471,13.471,0,0,1,189.9,205.235Z" transform="translate(-173.067 -205.076)" fill="#534d55"/>
        <path id="Path_119" data-name="Path 119" d="M188.471,208.546l61.384-.34a9.256,9.256,0,0,1,9.007,8.95l7.41,152.942a9.3,9.3,0,0,1-8.027,9.747l-60.532,6.417a8.671,8.671,0,0,1-9.644-8.284l-8.4-159.964A8.853,8.853,0,0,1,188.471,208.546Z" transform="translate(-171.027 -203.084)" fill="#f9f8fd"/>
        <g id="Group_672" data-name="Group 672" transform="translate(26.637 120.083)">
          <g id="Group_668" data-name="Group 668" transform="translate(0.533)" opacity="0.1">
            <path id="Path_120" data-name="Path 120" d="M193.307,286.273l35.678-2.658a2.281,2.281,0,0,0,2.023-2.419,2.125,2.125,0,0,0-2.221-2.108l-35.646,2.543a2.384,2.384,0,0,0-2.152,2.481A2.182,2.182,0,0,0,193.307,286.273Z" transform="translate(-190.988 -278.055)" fill="#231f20"/>
            <path id="Path_121" data-name="Path 121" d="M219.437,283.484l7.279-.542a2.24,2.24,0,0,0,1.974-2.394,2.1,2.1,0,0,0-2.183-2.088l-7.274.519a2.26,2.26,0,0,0-2,2.406A2.114,2.114,0,0,0,219.437,283.484Z" transform="translate(-174.289 -278.455)" fill="#231f20"/>
            <path id="Path_122" data-name="Path 122" d="M234.668,283.943l-27.529,2.136a2.344,2.344,0,0,0-2.077,2.465,2.135,2.135,0,0,0,2.263,2.124l27.552-2.226a2.265,2.265,0,0,0,1.979-2.415A2.093,2.093,0,0,0,234.668,283.943Z" transform="translate(-182.031 -274.966)" fill="#231f20"/>
            <path id="Path_123" data-name="Path 123" d="M210.885,287.73a2.149,2.149,0,0,0-2.276-2.132l-15.265,1.185a2.412,2.412,0,0,0-2.155,2.507,2.171,2.171,0,0,0,2.321,2.155l15.28-1.236A2.366,2.366,0,0,0,210.885,287.73Z" transform="translate(-190.862 -273.913)" fill="#231f20"/>
          </g>
          <g id="Group_669" data-name="Group 669" transform="translate(17.247 18.727)" opacity="0.1">
            <path id="Path_124" data-name="Path 124" d="M202.093,291.486l-.013-.345.723-.061.013.345a.992.992,0,0,1,.992,1.052l0,.146-.835.07-.008-.191c-.013-.332-.178-.443-.46-.421a.414.414,0,0,0-.424.5c.038.954,1.766.853,1.818,2.178a1.122,1.122,0,0,1-.911,1.224l.013.339-.725.062-.013-.339a1,1,0,0,1-1-1.059l-.013-.318.838-.074.015.365c.013.332.195.437.476.412a.421.421,0,0,0,.44-.491c-.038-.954-1.769-.853-1.82-2.18A1.106,1.106,0,0,1,202.093,291.486Z" transform="translate(-201.201 -289.146)" fill="#231f20"/>
            <path id="Path_125" data-name="Path 125" d="M204.867,292.03c1.411-.119,1.7-.71,1.957-1.378l1.224-.1.391,9.609-1.825.165-.295-7.344-1.411.119Z" transform="translate(-198.868 -289.483)" fill="#231f20"/>
            <path id="Path_126" data-name="Path 126" d="M208.123,292.884c-.062-1.532.874-2.489,2.651-2.638s2.774.643,2.839,2.17l.209,4.972c.064,1.532-.866,2.5-2.641,2.656s-2.79-.632-2.854-2.17Zm2.023,4.924a.79.79,0,0,0,.979.862.873.873,0,0,0,.9-1.028l-.216-5.168a.791.791,0,0,0-.975-.864.871.871,0,0,0-.9,1.023Z" transform="translate(-196.797 -289.688)" fill="#231f20"/>
            <path id="Path_127" data-name="Path 127" d="M212.1,292.539c-.065-1.525.861-2.478,2.622-2.623s2.751.641,2.818,2.16l.216,4.949c.067,1.525-.854,2.483-2.613,2.641s-2.767-.628-2.833-2.159Zm2.013,4.9a.785.785,0,0,0,.97.859.867.867,0,0,0,.887-1.023l-.223-5.145a.786.786,0,0,0-.967-.859.862.862,0,0,0-.889,1.018Z" transform="translate(-194.266 -289.898)" fill="#231f20"/>
          </g>
          <g id="Group_671" data-name="Group 671" transform="translate(0 31.776)">
            <path id="Path_128" data-name="Path 128" d="M245.211,297.9,196.7,302.521a6.94,6.94,0,0,0-6.029,7.207h0a5.986,5.986,0,0,0,6.515,5.986l48.605-4.94a6.648,6.648,0,0,0,5.657-7.03A5.844,5.844,0,0,0,245.211,297.9Z" transform="translate(-190.662 -297.873)" fill="#2c272e"/>
            <g id="Group_670" data-name="Group 670" transform="translate(13.898 4.879)">
              <path id="Path_129" data-name="Path 129" d="M199.155,302.626l2.381-.231.02.524-1.455.141.065,1.689,1.365-.134.021.532-1.366.134.1,2.6-.926.092Z" transform="translate(-199.155 -299.873)" fill="#fff"/>
              <path id="Path_130" data-name="Path 130" d="M201.2,304.34a1.373,1.373,0,0,1,.7-1.453,2.185,2.185,0,0,1,.7-.177c.7-.069,1.157.077,1.365.442a1.972,1.972,0,0,1,.214.9l.064,1.609a1.654,1.654,0,0,1-.332,1.294,1.833,1.833,0,0,1-1.088.411c-.7.07-1.157-.088-1.365-.475a2.274,2.274,0,0,1-.2-.936Zm2.055-.326c-.016-.434-.118-.686-.3-.763a.654.654,0,0,0-.295-.028.5.5,0,0,0-.458.267,1.552,1.552,0,0,0-.082.635l.075,1.908q.025.67.309.782a.578.578,0,0,0,.28.029l.016,0a.484.484,0,0,0,.452-.272,1.628,1.628,0,0,0,.08-.651Z" transform="translate(-197.853 -299.683)" fill="#fff"/>
              <path id="Path_131" data-name="Path 131" d="M203.7,304.094a1.372,1.372,0,0,1,.7-1.452,2.164,2.164,0,0,1,.7-.175q1.046-.1,1.358.44a1.991,1.991,0,0,1,.216.9l.064,1.605a1.65,1.65,0,0,1-.331,1.293,1.832,1.832,0,0,1-1.083.409c-.7.07-1.152-.087-1.36-.475a2.257,2.257,0,0,1-.2-.933Zm2.046-.326c-.016-.432-.118-.684-.3-.759a.617.617,0,0,0-.291-.029.5.5,0,0,0-.457.267,1.517,1.517,0,0,0-.082.633l.075,1.9q.027.67.309.781a.553.553,0,0,0,.278.031l.018,0a.48.48,0,0,0,.448-.272,1.619,1.619,0,0,0,.08-.65Z" transform="translate(-196.262 -299.838)" fill="#fff"/>
              <path id="Path_132" data-name="Path 132" d="M208.154,301.735l.915-.088.218,5.368-.916.09-.015-.38a1.046,1.046,0,0,1-.9.511.9.9,0,0,1-1.113-.717,3.61,3.61,0,0,1-.08-.661l-.069-1.713a1.536,1.536,0,0,1,.345-1.193,1.39,1.39,0,0,1,.869-.352,1.045,1.045,0,0,1,.465.054.727.727,0,0,1,.331.226Zm.093,2.2a1.438,1.438,0,0,0-.144-.674.451.451,0,0,0-.463-.164.5.5,0,0,0-.443.255,1.545,1.545,0,0,0-.09.71l.074,1.83q.027.665.29.777a.61.61,0,0,0,.3.028.675.675,0,0,0,.317-.1c.17-.12.247-.4.229-.843Z" transform="translate(-194.679 -300.349)" fill="#fff"/>
              <path id="Path_133" data-name="Path 133" d="M210.077,303.008a1.5,1.5,0,0,1,.425-1.286,1.972,1.972,0,0,1,1.08-.37c.694-.067,1.146.082,1.357.453a2.031,2.031,0,0,1,.209.9l.1,2.332a1.858,1.858,0,0,1-.29,1.24,1.64,1.64,0,0,1-1.173.494,1.505,1.505,0,0,1-1.213-.259,1.67,1.67,0,0,1-.4-1.172Zm2.157-.247a1.513,1.513,0,0,0-.149-.709.481.481,0,0,0-.489-.165.591.591,0,0,0-.494.267,1.381,1.381,0,0,0-.111.727l.1,2.381a1.8,1.8,0,0,0,.157.81.5.5,0,0,0,.507.17.56.56,0,0,0,.491-.272,1.929,1.929,0,0,0,.088-.831Z" transform="translate(-192.205 -300.547)" fill="#fff"/>
              <path id="Path_134" data-name="Path 134" d="M214.69,301.55a1.589,1.589,0,0,1,.033.388l0,.133a1.553,1.553,0,0,0-1.118.486l.152,3.662-.907.09-.187-4.509.9-.088.021.5a.894.894,0,0,1,.385-.447A1.623,1.623,0,0,1,214.69,301.55Z" transform="translate(-190.556 -300.411)" fill="#fff"/>
              <path id="Path_135" data-name="Path 135" d="M216.321,300.941l.9-.087.227,5.33-.9.09-.016-.376a1.033,1.033,0,0,1-.89.507.9.9,0,0,1-1.1-.715,3.384,3.384,0,0,1-.082-.655l-.072-1.7a1.528,1.528,0,0,1,.339-1.186,1.373,1.373,0,0,1,.858-.349,1.039,1.039,0,0,1,.458.054.736.736,0,0,1,.327.224Zm.1,2.185a1.416,1.416,0,0,0-.146-.669.44.44,0,0,0-.455-.164.493.493,0,0,0-.439.254,1.53,1.53,0,0,0-.087.705l.077,1.818c.018.44.115.7.288.772a.639.639,0,0,0,.3.028.66.66,0,0,0,.313-.1c.169-.12.242-.4.224-.836Z" transform="translate(-189.461 -300.854)" fill="#fff"/>
              <path id="Path_136" data-name="Path 136" d="M216.9,302.769a1.456,1.456,0,0,1,.394-1.226,1.8,1.8,0,0,1,1.02-.365q.987-.1,1.263.461a2.259,2.259,0,0,1,.178.876l.038.846-1.956.193.038.9a1.19,1.19,0,0,0,.167.715.546.546,0,0,0,.434.1.437.437,0,0,0,.385-.206.77.77,0,0,0,.087-.375c0-.129-.007-.241-.01-.331l-.016-.362.877-.087.008.19a2.482,2.482,0,0,1-.1,1.018.945.945,0,0,1-.425.46,1.955,1.955,0,0,1-.73.2,2.618,2.618,0,0,1-.707,0,1.1,1.1,0,0,1-.429-.162.96.96,0,0,1-.29-.373,2.374,2.374,0,0,1-.157-.876Zm1.956-.308a1.718,1.718,0,0,0-.075-.571.592.592,0,0,0-.136-.162.4.4,0,0,0-.286-.046c-.262.025-.425.118-.489.275a1.558,1.558,0,0,0-.077.63l.023.552,1.065-.1Z" transform="translate(-187.862 -300.656)" fill="#fff"/>
              <path id="Path_137" data-name="Path 137" d="M221.308,300.9a1.621,1.621,0,0,1,.034.386l0,.131a1.537,1.537,0,0,0-1.106.484l.159,3.641-.9.09-.195-4.486.9-.087.021.5a.881.881,0,0,1,.38-.445A1.622,1.622,0,0,1,221.308,300.9Z" transform="translate(-186.33 -300.822)" fill="#fff"/>
            </g>
          </g>
        </g>
        <path id="Path_138" data-name="Path 138" d="M199.941,209.345l14.465-.093a.491.491,0,0,1,.481.47.443.443,0,0,1-.434.478l-14.463.1a.5.5,0,0,1-.489-.475A.447.447,0,0,1,199.941,209.345Z" transform="translate(-158.4 -202.418)" fill="#e0e2e5" style="mix-blend-mode: multiply;isolation: isolate"/>
      </g>
      <path id="Path_139" data-name="Path 139" d="M189.718,309.467l65.989-4.319a3.692,3.692,0,0,0,3.343-3.928l-3.926-80.768a3.8,3.8,0,0,0-3.729-3.679l-66.466.913a3.694,3.694,0,0,0-3.641,3.941l4.412,84.234A3.783,3.783,0,0,0,189.718,309.467Z" transform="translate(-169.995 -197.631)" opacity="0.15" fill="url(#radial-gradient)"/>
      <g id="Group_676" data-name="Group 676" transform="translate(25.886 38.721)">
        <path id="Path_140" data-name="Path 140" d="M230.534,228.737l-33.5.17a6.832,6.832,0,0,0-6.824,7.282l1.874,35.032a7.237,7.237,0,0,0,7.58,6.86l33.407-1.787a6.779,6.779,0,0,0,6.268-7.264l-1.787-33.417A7.19,7.19,0,0,0,230.534,228.737Z" transform="translate(-190.204 -228.737)" fill="#fff"/>
        <g id="Group_675" data-name="Group 675" transform="translate(6.763 9.478)">
          <path id="Path_141" data-name="Path 141" d="M228.8,243.893l.568,10.621a2.072,2.072,0,0,1-1.941,2.222l-8.888.38-.146-2.71c1.708-.527,2.9-2.505,2.78-4.819a5.593,5.593,0,0,0-1.334-3.409l.175,3.271a.6.6,0,0,1-.576.642.628.628,0,0,1-.635-.6l-.229-4.276a3.37,3.37,0,0,0-.861-.277l.244,4.582a.6.6,0,0,1-.569.643.625.625,0,0,1-.638-.6l-.245-4.587a3.173,3.173,0,0,0-.833.321l.229,4.3a.6.6,0,0,1-.573.645.633.633,0,0,1-.648-.6l-.177-3.3a5.409,5.409,0,0,0-.993,3.523c.124,2.332,1.545,4.222,3.32,4.612l.144,2.715-8.184.35-.147-2.736c1.741-.534,2.962-2.532,2.836-4.877-.142-2.672-2-4.793-4.152-4.728s-3.806,2.309-3.662,5a4.854,4.854,0,0,0,3.384,4.664l.146,2.739-9.115.391a2.232,2.232,0,0,1-2.307-2.114l-.573-10.721a2.489,2.489,0,0,0,.435.011,5.508,5.508,0,0,0,3-1.018,2.218,2.218,0,0,1,2.607.106,4.211,4.211,0,0,0,2.505.668,4.822,4.822,0,0,0,2.78-.957,2.148,2.148,0,0,1,2.545-.011,4.523,4.523,0,0,0,2.663.728,4.3,4.3,0,0,0,2.571-.889,2.07,2.07,0,0,1,2.483-.136,4.89,4.89,0,0,0,2.829.787,3.8,3.8,0,0,0,2.317-.8,2.063,2.063,0,0,1,2.469-.25,5.347,5.347,0,0,0,2.952.815A3.648,3.648,0,0,0,228.8,243.893Z" transform="translate(-193.786 -229.076)" fill="#dd4a48"/>
          <g id="Group_674" data-name="Group 674">
            <path id="Path_142" data-name="Path 142" d="M199.371,234.774a2.631,2.631,0,0,0-2.522,1.97l-2.437,9.222c-.422,1.6.954,2.908,3.086,2.846s4.022-1.455,4.238-3.034l1.509-11.061Z" transform="translate(-194.336 -234.409)" fill="#dd4a48"/>
            <path id="Path_143" data-name="Path 143" d="M200.377,234.75l-1.51,11.061c-.214,1.579,1.311,2.877,3.412,2.816s3.793-1.438,3.81-3l.1-10.961Z" transform="translate(-191.466 -234.442)" fill="#2c272e"/>
            <path id="Path_144" data-name="Path 144" d="M203.377,234.7l-.1,10.961c-.016,1.563,1.654,2.846,3.725,2.787s3.572-1.422,3.392-2.969l-1.263-10.865Z" transform="translate(-188.649 -234.475)" fill="#dd4a48"/>
            <path id="Path_145" data-name="Path 145" d="M206.85,234.645l1.263,10.865c.178,1.546,1.992,2.816,4.031,2.757s3.356-1.406,2.987-2.937l-2.6-10.766Z" transform="translate(-186.372 -234.507)" fill="#2c272e"/>
            <path id="Path_146" data-name="Path 146" d="M219.84,245.174l-3.216-8.806a2.75,2.75,0,0,0-2.586-1.839l-3.715.054,2.6,10.768c.368,1.532,2.316,2.787,4.325,2.73S220.393,246.69,219.84,245.174Z" transform="translate(-184.161 -234.529)" fill="#dd4a48"/>
          </g>
        </g>
      </g>
    </g>
    <g id="Group_678" data-name="Group 678" transform="translate(179.604 260.752)">
      <path id="Path_147" data-name="Path 147" d="M176.5,259.167s-5.723,1.134-6.264-4.888,11.946-18.608,17.068-15.9,2.2,8.12-2.347,10.655a12.056,12.056,0,0,0-5.677,6.654Z" transform="translate(-170.215 -238.006)" fill="#fdcea3"/>
      <path id="Path_148" data-name="Path 148" d="M186.691,240.3a7.846,7.846,0,0,0-4.662.191,12.5,12.5,0,0,0-4.785,3.451c-1.5,1.573-2.836,3.293-4.342,4.862-.808.841-1.594,1.7-2.368,2.576,2.355-6.387,12.167-15.324,16.563-13,2.2,1.167,2.913,2.833,2.651,4.551A4.774,4.774,0,0,0,186.691,240.3Z" transform="translate(-170.011 -238.006)" fill="#fff" opacity="0.25"/>
      <path id="Path_149" data-name="Path 149" d="M173.557,253.768a8.959,8.959,0,0,0,4.419-2.555,46.711,46.711,0,0,0,3.265-3.939,11.422,11.422,0,0,1,3.985-2.782c.984-.483,1.983-.946,2.926-1.5a11.91,11.91,0,0,1-3.456,2.879,12.056,12.056,0,0,0-5.677,6.654L176.237,256s-3.983.786-5.616-2.451A5.869,5.869,0,0,0,173.557,253.768Z" transform="translate(-169.956 -234.835)" fill="#d66e85" opacity="0.25"/>
      <path id="Path_150" data-name="Path 150" d="M182.51,241.956s-5.16,3.253-6.685,1.839,3.623-5.281,4.51-5.665S181.705,240.247,182.51,241.956Z" transform="translate(-166.822 -237.953)" opacity="0.15" fill="url(#radial-gradient-2)"/>
    </g>
    <g id="Group_679" data-name="Group 679" transform="translate(180.666 273.377)">
      <path id="Path_151" data-name="Path 151" d="M177.145,266.881s-5.723,1.136-6.264-4.887,11.946-18.61,17.068-15.9,2.2,8.12-2.347,10.655a12.05,12.05,0,0,0-5.677,6.652Z" transform="translate(-170.864 -245.721)" fill="#fdcea3"/>
      <path id="Path_152" data-name="Path 152" d="M184.517,247.5a16.851,16.851,0,0,0-4.644,2.2c-1.461.915-2.857,1.929-4.24,2.957a24.518,24.518,0,0,1-2.949,2.054c3.906-5.356,10.667-10.437,14.106-8.614a6.018,6.018,0,0,1,1.654,1.244A9.447,9.447,0,0,0,184.517,247.5Z" transform="translate(-169.705 -245.721)" fill="#fff" opacity="0.25"/>
      <path id="Path_153" data-name="Path 153" d="M171.57,257.4a7.2,7.2,0,0,0,.093,1.067,3.858,3.858,0,0,0,.928,2.016,3.218,3.218,0,0,0,2.193.931,6.033,6.033,0,0,0,3.379-.725,20.594,20.594,0,0,0,2.81-2.523,21.353,21.353,0,0,1,3.257-2.211,14.679,14.679,0,0,0,2.962-2.27,10.6,10.6,0,0,0,3.3-6.047c.835,2.731-1.6,6.062-4.888,7.894a12.05,12.05,0,0,0-5.677,6.652l-2.78,3.474s-5.723,1.136-6.264-4.888A7.352,7.352,0,0,1,171.57,257.4Z" transform="translate(-170.863 -244.5)" fill="#d66e85" opacity="0.25"/>
      <path id="Path_154" data-name="Path 154" d="M183.16,249.671s-5.16,3.253-6.687,1.839,3.625-5.281,4.51-5.667S182.355,247.963,183.16,249.671Z" transform="translate(-167.472 -245.668)" opacity="0.15" fill="url(#radial-gradient-3)"/>
    </g>
    <path id="Path_155" data-name="Path 155" d="M240.779,243.317s-2.735,3.139-3.194,6.266.637,3.558.637,3.558S241.138,246.574,240.779,243.317Z" transform="translate(52.197 26.126)" opacity="0.15" fill="url(#radial-gradient-4)"/>
    <g id="Group_680" data-name="Group 680" transform="translate(182.723 285.266)">
      <path id="Path_156" data-name="Path 156" d="M178.4,274.146s-5.723,1.136-6.264-4.888,11.948-18.608,17.07-15.893,2.2,8.12-2.347,10.655a12.057,12.057,0,0,0-5.679,6.652Z" transform="translate(-172.121 -252.986)" fill="#fdcea3"/>
      <path id="Path_157" data-name="Path 157" d="M185.809,254.524c-3.479-.785-6.922,1.041-9.549,3.188,3.62-3.383,7.831-5.664,10.313-4.348a4.427,4.427,0,0,1,2.7,3.669A5.74,5.74,0,0,0,185.809,254.524Z" transform="translate(-169.486 -252.986)" fill="#fff" opacity="0.25"/>
      <path id="Path_158" data-name="Path 158" d="M174.036,268.681a3.648,3.648,0,0,0,2.415-.97,8.993,8.993,0,0,0,1.707-2.723,6.5,6.5,0,0,1,2.4-2.234,22.074,22.074,0,0,1,3-1.45c1.1-.463,2.2-.944,3.266-1.481.6-.3,1.186-.632,1.762-.975a12.544,12.544,0,0,1-2.06,1.442,12.057,12.057,0,0,0-5.679,6.652l-2.78,3.474s-3.671.725-5.41-2.083A3.335,3.335,0,0,0,174.036,268.681Z" transform="translate(-171.782 -249.255)" fill="#d66e85" opacity="0.25"/>
      <path id="Path_159" data-name="Path 159" d="M184.416,256.936s-5.158,3.253-6.685,1.839,3.625-5.281,4.51-5.667S183.611,255.228,184.416,256.936Z" transform="translate(-168.728 -252.933)" opacity="0.15" fill="url(#radial-gradient-5)"/>
    </g>
    <g id="Group_681" data-name="Group 681" transform="translate(182.806 300.66)">
      <path id="Path_160" data-name="Path 160" d="M181.263,289.31s-8.531-4.621-9.074-10.644,11.948-18.61,17.07-15.9,2.2,8.12-2.347,10.655a12.063,12.063,0,0,0-5.679,6.652Z" transform="translate(-172.172 -262.393)" fill="#fdcea3"/>
      <path id="Path_161" data-name="Path 161" d="M186.587,263.864a6.19,6.19,0,0,0-5.047.126,30.259,30.259,0,0,0-4.741,2.69c-.115.072-.229.147-.345.219,3.568-3.262,7.651-5.415,10.079-4.129,2.144,1.136,2.875,2.744,2.672,4.415A6.02,6.02,0,0,0,186.587,263.864Z" transform="translate(-169.446 -262.393)" fill="#fff" opacity="0.25"/>
      <path id="Path_162" data-name="Path 162" d="M174.715,283.435c.247-.432.489-.869.736-1.3a7.849,7.849,0,0,1,.985-1.281A9.212,9.212,0,0,0,178,278.7a13.882,13.882,0,0,0,.648-2.923c.43-1.928,2.124-3.152,3.784-4.016s3.581-1.394,4.978-2.666c1.023-.931,1.679-2.242,2.69-3.18a10.263,10.263,0,0,1-4.8,5.273,12.063,12.063,0,0,0-5.679,6.652l.057,9.276A26.211,26.211,0,0,1,174.715,283.435Z" transform="translate(-170.553 -260.152)" fill="#d66e85" opacity="0.25"/>
      <path id="Path_163" data-name="Path 163" d="M184.467,266.343s-5.158,3.253-6.685,1.839,3.625-5.281,4.51-5.667S183.662,264.635,184.467,266.343Z" transform="translate(-168.779 -262.34)" opacity="0.15" fill="url(#radial-gradient-6)"/>
    </g>
    <g id="Group_682" data-name="Group 682" transform="translate(374.427 331.996)">
      <path id="Path_164" data-name="Path 164" d="M296.951,298.275s4.844-3.913,3.106-8.2-4.284-2.685-4.284-2.685,1.389,6.333.722,7.714S295.279,298.365,296.951,298.275Z" transform="translate(-285.123 -278.007)" fill="#dba783"/>
      <path id="Path_165" data-name="Path 165" d="M297.449,299.313s4.844-3.913,3.106-8.2-4.286-2.685-4.286-2.685,1.391,6.333.722,7.716S295.776,299.4,297.449,299.313Z" transform="translate(-284.807 -277.346)" fill="#e8b48e"/>
      <path id="Path_166" data-name="Path 166" d="M298.3,300.047s4.844-3.911,3.106-8.2-4.286-2.687-4.286-2.687,1.391,6.335.722,7.716S296.63,300.139,298.3,300.047Z" transform="translate(-284.264 -276.878)" fill="#f4c095"/>
      <path id="Path_167" data-name="Path 167" d="M289.265,284.23s3.227-2.51,5.037-2.689c0,0,2.975,6.1,4.679,7.436s5.875,1.5,8.439,5.166c1.366,1.954,2.705,4.17,2.627,5.778-.079,1.663-1.8,5.618-2.816,5.682s-.447-2.7-.246-4.363a5.071,5.071,0,0,0-1.867-4.5c-1.348-1.074-3.389.115-3.389.115s2.865,3.482,2.324,4.3-2.046-1.114-3.947-2.61-5.505-3.553-5.338-5.58S289.265,284.23,289.265,284.23Z" transform="translate(-289.265 -281.541)" fill="#fdcea3"/>
      <path id="Path_168" data-name="Path 168" d="M297.46,293.33c-.01-.018.319-.714.664-.5s.676,1.113.4,1.085A1.44,1.44,0,0,1,297.46,293.33Z" transform="translate(-284.049 -274.381)" fill="#fff" opacity="0.2"/>
      <path id="Path_169" data-name="Path 169" d="M300.177,296.581a2.907,2.907,0,0,1,.733-.954c.257-.126.38,0,.38,0S300.582,296.806,300.177,296.581Z" transform="translate(-282.321 -272.61)" fill="#fff" opacity="0.2"/>
    </g>
    <path id="Path_170" data-name="Path 170" d="M231.847,224.33a10.8,10.8,0,1,0-21.608,0s-1.4,5.842,10.778,21.271l.029-.034c10.03-12.706,10.82-18.887,10.786-20.674C231.842,224.706,231.847,224.518,231.847,224.33Zm-10.829,5.6a5.562,5.562,0,1,1,5.564-5.562A5.563,5.563,0,0,1,221.019,229.931Z" transform="translate(34.833 7.163)" fill="#dd4a48"/>
  </g>
</svg>
