<svg xmlns="http://www.w3.org/2000/svg" width="238.578" height="203.581" viewBox="0 0 238.578 203.581">
  <g id="logo_red" transform="translate(3098.773 -408.846)">
    <g id="Group_791" data-name="Group 791" transform="translate(-3059.957 408.846)">
      <g id="Group_790" data-name="Group 790" transform="translate(0 0)">
        <g id="Group_789" data-name="Group 789">
          <path id="Path_454" data-name="Path 454" d="M59.816,0A59.816,59.816,0,1,1,0,59.816,59.816,59.816,0,0,1,59.816,0Z" transform="translate(28.996)" fill="#dd4a48"/>
          <g id="Group_788" data-name="Group 788" transform="translate(0 9.365)">
            <g id="Group_786" data-name="Group 786" transform="translate(58.217 1.533)">
              <path id="Path_441" data-name="Path 441" d="M-2730.69,472.111a5.29,5.29,0,0,1-7.245-1.832,5.29,5.29,0,0,1,1.832-7.245,5.29,5.29,0,0,1,7.245,1.832A5.29,5.29,0,0,1-2730.69,472.111Zm-4.251-7.13a3.02,3.02,0,0,0-1.046,4.136,3.02,3.02,0,0,0,4.136,1.046,3.02,3.02,0,0,0,1.046-4.136A3.02,3.02,0,0,0-2734.941,464.981Z" transform="translate(2738.679 -462.289)" fill="#fff"/>
            </g>
            <g id="Group_787" data-name="Group 787" transform="translate(38.519)">
              <path id="Path_442" data-name="Path 442" d="M-2716.383,485a1.169,1.169,0,0,1-.469,1.489c-3.758,2.245-7.4,4.443-11.074,6.59-3.1,1.82-6.253,3.568-9.381,5.345q-8.013,4.569-16.023,9.136-15.308,8.711-30.621,17.423c-4.465,2.541-8.928,5.1-13.351,7.709l-4.206-7.055q14.485-9.074,28.914-18.228,16.259-10.256,32.538-20.48c1.82-1.142,3.678-2.219,5.718-3.422a1.171,1.171,0,0,0,.236-1.837c-1.139-1.152-2.121-2.171-3.194-3.088a37.243,37.243,0,0,0-42.563-4.093,37.084,37.084,0,0,0-18.3,38.786c.292,1.613.012,2.441-1.45,3.235-2.8,1.526-5.515,3.215-8.409,4.962a1.179,1.179,0,0,1-1.74-.685,48.856,48.856,0,0,1,.073-28.024c4.209-14.113,12.978-24.577,26.186-31.022C-2757.074,448.846-2727.271,461.543-2716.383,485Z" transform="translate(2811.778 -456.599)" fill="#fff"/>
              <path id="Path_443" data-name="Path 443" d="M-2673.83,627.594a1.173,1.173,0,0,1,1.77.907,49.684,49.684,0,0,1-27.462,48.169,49.981,49.981,0,0,1-58.014-9.389,1.164,1.164,0,0,1,.192-1.8l.011-.007c2.932-1.764,5.9-3.475,8.8-5.283a1.906,1.906,0,0,1,2.6.142c12.088,9.494,25.392,11.532,39.388,5.208,12.565-5.678,19.605-15.889,21.43-29.58a3.239,3.239,0,0,1,1.781-2.735C-2680.167,631.416-2677.051,629.525-2673.83,627.594Z" transform="translate(2772.402 -581.394)" fill="#fff"/>
            </g>
            <path id="Path_444" data-name="Path 444" d="M-2755.266,579.364c-.3,0-2.331-8.444.533-17.828,3.016-9.879,9.971-15.932,10.219-15.751s-5.768,5.983-8.9,16.091C-2756.4,571.54-2754.974,579.359-2755.266,579.364Z" transform="translate(2809.729 -521.75)" fill="#fff"/>
            <path id="Path_445" data-name="Path 445" d="M-2571.964,526.232c.107-.125-2.668-3.274-6.992-5.893-4.216-2.554-8.181-3.559-8.243-3.408a86.315,86.315,0,0,1,7.958,4.075A84.239,84.239,0,0,1-2571.964,526.232Z" transform="translate(2686.237 -500.663)" fill="#fff"/>
            <path id="Path_446" data-name="Path 446" d="M-2896,689.612l4.423,7.417c-2.249,1.385-4.257,2.432-5.3,3.046-5.56,3.286-4.845,3.883-5.831,7.623-.777,2.951-.724,4.753-5.13,8.524s-16.759,8.98-28.531,14.451-9.76,4.133-8.228,3.21,28.788-17.091,30.077-18.247-.552-3.42-1.809-2.909-2.24.975-8.424,4.075-23.93,13.386-24.085,12.974,29.52-19.058,30.914-19.959a1.166,1.166,0,0,0,.3-1.925l-.025-.042a1.218,1.218,0,0,0-1.895-.632c-1.445.814-31.774,18.4-32.076,18.082s17.029-11.263,22.655-15.27,6.48-4.66,7.519-5.536-.182-3.514-1.8-2.908-28.657,17.135-30.193,18.06-3.656,2.08,6.652-5.75,20.636-16.306,26.046-18.444,7.327-.806,11.24-.319c3.07.382,3.487.383,8.063-2.1C-2900.354,692.447-2898.323,690.98-2896,689.612Z" transform="translate(2954.724 -626.822)" fill="#fff"/>
          </g>
        </g>
      </g>
    </g>
    <g id="Group_792" data-name="Group 792" transform="translate(-3098.774 561.228)">
      <path id="Path_447" data-name="Path 447" d="M-3082.74,1041.426a17.364,17.364,0,0,1-8.2-1.9,14.138,14.138,0,0,1-5.726-5.507,17.087,17.087,0,0,1-2.1-8.758,17.659,17.659,0,0,1,2.021-8.758,13.708,13.708,0,0,1,5.574-5.507,16.965,16.965,0,0,1,8.135-1.9,14.757,14.757,0,0,1,8.1,2,12.2,12.2,0,0,1,4.6,5.221,16.269,16.269,0,0,1,1.482,6.888h-25.4v-.842h16.539q0-1.987-.152-4.16a19.489,19.489,0,0,0-.69-4.042,7.65,7.65,0,0,0-1.6-3.048,3.681,3.681,0,0,0-2.88-1.179,4.642,4.642,0,0,0-3.3,1.229,8.186,8.186,0,0,0-2.055,3.352,22.107,22.107,0,0,0-1.044,4.783,49.106,49.106,0,0,0-.3,5.558,47.377,47.377,0,0,0,.354,5.911,19.24,19.24,0,0,0,1.246,4.968,8.209,8.209,0,0,0,2.476,3.4,6.334,6.334,0,0,0,4.042,1.246,11.807,11.807,0,0,0,7.747-2.543,13.693,13.693,0,0,0,4.379-6.383h.909a14.5,14.5,0,0,1-4.8,7.124Q-3076.88,1041.427-3082.74,1041.426Z" transform="translate(3098.774 -990.227)" fill="#fff"/>
      <path id="Path_448" data-name="Path 448" d="M-2959.4,963.949v-.505h9.9a10.466,10.466,0,0,0,5.439-1.314,8.277,8.277,0,0,0,3.352-3.924,16.159,16.159,0,0,0,1.145-6.484,16.288,16.288,0,0,0-1.145-6.5,8.366,8.366,0,0,0-3.352-3.958,10.362,10.362,0,0,0-5.439-1.33h-22.029v-.842h23.04a30.538,30.538,0,0,1,9.465,1.33,13.12,13.12,0,0,1,6.333,4.126,11.064,11.064,0,0,1,2.257,7.175,11.1,11.1,0,0,1-2.122,7.074,12.018,12.018,0,0,1-6.164,3.924,33.856,33.856,0,0,1-9.768,1.23Zm-12.126,25.667v-.842h22.871v.842Zm7.006-.438V939.6h8.825v49.582Zm32.538.876a9.94,9.94,0,0,1-5.052-1.078,6.551,6.551,0,0,1-2.678-2.93,12.911,12.911,0,0,1-1.095-4.143q-.236-2.29-.27-4.733t-.236-4.749a13.692,13.692,0,0,0-.977-4.143,6.21,6.21,0,0,0-2.51-2.914,9.153,9.153,0,0,0-4.833-1.078h-9.768v-.472h13.541a17.7,17.7,0,0,1,7.579,1.347,9.668,9.668,0,0,1,4.177,3.587,13.624,13.624,0,0,1,1.835,4.9,32.918,32.918,0,0,1,.472,5.339q.016,2.678.1,4.918a9.255,9.255,0,0,0,.724,3.587,2.4,2.4,0,0,0,2.392,1.347,7.959,7.959,0,0,0,1.97-.236,7.988,7.988,0,0,0,1.6-.573l.3.775a10.977,10.977,0,0,1-2.728.842A22.334,22.334,0,0,1-2931.98,990.053Z" transform="translate(3005.815 -939.09)" fill="#dd4a48"/>
      <path id="Path_449" data-name="Path 449" d="M-2766.742,1041.426a17.364,17.364,0,0,1-8.2-1.9,14.14,14.14,0,0,1-5.726-5.507,17.087,17.087,0,0,1-2.1-8.758,17.662,17.662,0,0,1,2.021-8.758,13.71,13.71,0,0,1,5.574-5.507,16.966,16.966,0,0,1,8.135-1.9,14.756,14.756,0,0,1,8.1,2,12.2,12.2,0,0,1,4.6,5.221,16.269,16.269,0,0,1,1.482,6.888h-25.4v-.842h16.539q0-1.987-.152-4.16a19.489,19.489,0,0,0-.69-4.042,7.647,7.647,0,0,0-1.6-3.048,3.68,3.68,0,0,0-2.88-1.179,4.643,4.643,0,0,0-3.3,1.229,8.188,8.188,0,0,0-2.055,3.352,22.093,22.093,0,0,0-1.044,4.783,49.106,49.106,0,0,0-.3,5.558,47.378,47.378,0,0,0,.354,5.911,19.25,19.25,0,0,0,1.246,4.968,8.209,8.209,0,0,0,2.476,3.4,6.335,6.335,0,0,0,4.042,1.246,11.808,11.808,0,0,0,7.747-2.543,13.7,13.7,0,0,0,4.379-6.383h.909a14.505,14.505,0,0,1-4.8,7.124Q-2760.881,1041.427-2766.742,1041.426Z" transform="translate(2867.928 -990.227)" fill="#dd4a48"/>
      <path id="Path_450" data-name="Path 450" d="M-2650.028,1041.426V1031.22h.876a12.138,12.138,0,0,0,2.307,4.833,11.783,11.783,0,0,0,4.042,3.284,11.459,11.459,0,0,0,5.171,1.179,11.283,11.283,0,0,0,3.688-.573,6,6,0,0,0,2.678-1.752,4.443,4.443,0,0,0,1.01-3,3.787,3.787,0,0,0-1.364-3.082,11.433,11.433,0,0,0-3.52-1.886q-2.156-.758-4.581-1.549a28.4,28.4,0,0,1-4.6-1.954,9.984,9.984,0,0,1-3.537-3.116,8.761,8.761,0,0,1-1.364-5.12,9.386,9.386,0,0,1,1.162-4.581,8.985,8.985,0,0,1,3.368-3.436,10.4,10.4,0,0,1,5.406-1.314,11.343,11.343,0,0,1,4.278.775,12.484,12.484,0,0,1,3.368,1.987l3.335-2.829h.741v9.431h-.842a12.085,12.085,0,0,0-2-4.093,11.243,11.243,0,0,0-3.655-3.166,10.55,10.55,0,0,0-5.187-1.229,7.977,7.977,0,0,0-3.065.556,5.2,5.2,0,0,0-2.139,1.549,3.645,3.645,0,0,0-.791,2.341,3.529,3.529,0,0,0,1.431,2.931,13.308,13.308,0,0,0,3.688,1.92q2.256.808,4.766,1.634a29.608,29.608,0,0,1,4.766,2.038,10.877,10.877,0,0,1,3.672,3.133,8.138,8.138,0,0,1,1.415,4.952,9.455,9.455,0,0,1-1.634,5.608,10.458,10.458,0,0,1-4.312,3.52,13.839,13.839,0,0,1-5.777,1.213,13.265,13.265,0,0,1-4.716-.825,12.866,12.866,0,0,1-3.907-2.307l-3.436,3.133Z" transform="translate(2770.951 -990.227)" fill="#dd4a48"/>
      <path id="Path_451" data-name="Path 451" d="M-2544.9,988.69v-.842h20.042v.842Zm12.059,30.618a7.809,7.809,0,0,1-4.632-1.145,5.621,5.621,0,0,1-2.122-3,13.893,13.893,0,0,1-.556-4.008V981.111a18.081,18.081,0,0,0,4.312-.573,13.633,13.633,0,0,0,3.773-1.448v33.785a7.156,7.156,0,0,0,.606,3.5,2.158,2.158,0,0,0,1.987.977,4.947,4.947,0,0,0,3.267-1.482,10.535,10.535,0,0,0,2.627-3.773l.741.37a11.963,11.963,0,0,1-3.756,4.935A9.952,9.952,0,0,1-2532.845,1019.308Z" transform="translate(2694.155 -968.311)" fill="#dd4a48"/>
      <path id="Path_452" data-name="Path 452" d="M-2440.978,1009.855V1040h4.851v.842h-17.28V1040h4.413v-29.3h-4.413v-.842Zm-.505,16.37a38.6,38.6,0,0,1,.505-6.316,20.439,20.439,0,0,1,1.651-5.457,10.219,10.219,0,0,1,3-3.823,7.271,7.271,0,0,1,4.547-1.415,7.049,7.049,0,0,1,3.638.893,5.992,5.992,0,0,1,2.291,2.324,6.313,6.313,0,0,1,.775,3.049,5.246,5.246,0,0,1-1.347,3.6,4.506,4.506,0,0,1-3.537,1.516,4.962,4.962,0,0,1-3.621-1.331,4.327,4.327,0,0,1-1.364-3.217,4.633,4.633,0,0,1,1.448-3.587,4.994,4.994,0,0,1,3.5-1.33,5.011,5.011,0,0,1,2.492.623,4.788,4.788,0,0,1,1.735,1.6,3.874,3.874,0,0,1,.623,2.122h-.808a5.212,5.212,0,0,0-.724-2.661,5.431,5.431,0,0,0-2.055-2,6.258,6.258,0,0,0-3.149-.758,6.464,6.464,0,0,0-4.042,1.314,9.99,9.99,0,0,0-2.846,3.6,19.912,19.912,0,0,0-1.667,5.2,33.157,33.157,0,0,0-.539,6.046Z" transform="translate(2627.313 -990.318)" fill="#dd4a48"/>
      <path id="Path_453" data-name="Path 453" d="M-2316.376,1041.426a15.886,15.886,0,0,1-8.539-2.223,15.262,15.262,0,0,1-5.541-5.895,16.866,16.866,0,0,1-1.954-8.05,16.87,16.87,0,0,1,1.954-8.05,15.266,15.266,0,0,1,5.541-5.895,15.886,15.886,0,0,1,8.539-2.223,15.884,15.884,0,0,1,8.539,2.223,15.27,15.27,0,0,1,5.541,5.895,16.873,16.873,0,0,1,1.954,8.05,16.869,16.869,0,0,1-1.954,8.05,15.266,15.266,0,0,1-5.541,5.895A15.885,15.885,0,0,1-2316.376,1041.426Zm0-.842a5.074,5.074,0,0,0,3.621-1.347,8.753,8.753,0,0,0,2.206-3.571,22.628,22.628,0,0,0,1.078-4.951,49.365,49.365,0,0,0,.3-5.457,49.225,49.225,0,0,0-.3-5.474,22.619,22.619,0,0,0-1.078-4.935,8.756,8.756,0,0,0-2.206-3.57,5.076,5.076,0,0,0-3.621-1.347,5,5,0,0,0-3.621,1.347,9.092,9.092,0,0,0-2.189,3.57,21.97,21.97,0,0,0-1.095,4.935,49.225,49.225,0,0,0-.3,5.474,49.365,49.365,0,0,0,.3,5.457,21.98,21.98,0,0,0,1.095,4.951,9.089,9.089,0,0,0,2.189,3.571A5,5,0,0,0-2316.376,1040.584Z" transform="translate(2538.921 -990.227)" fill="#dd4a48"/>
    </g>
  </g>
</svg>
