<svg id="logo_bg_red" xmlns="http://www.w3.org/2000/svg" width="148.629" height="119.633" viewBox="0 0 148.629 119.633">
  <g id="Group_790" data-name="Group 790" transform="translate(0 0)">
    <g id="Group_789" data-name="Group 789">
      <path id="Path_454" data-name="Path 454" d="M59.816,0A59.816,59.816,0,1,1,0,59.816,59.816,59.816,0,0,1,59.816,0Z" transform="translate(28.996)" fill="#dd4a48"/>
      <g id="Group_788" data-name="Group 788" transform="translate(0 9.365)">
        <g id="Group_786" data-name="Group 786" transform="translate(58.217 1.533)">
          <path id="Path_441" data-name="Path 441" d="M-2730.69,472.111a5.29,5.29,0,0,1-7.245-1.832,5.29,5.29,0,0,1,1.832-7.245,5.29,5.29,0,0,1,7.245,1.832A5.29,5.29,0,0,1-2730.69,472.111Zm-4.251-7.13a3.02,3.02,0,0,0-1.046,4.136,3.02,3.02,0,0,0,4.136,1.046,3.02,3.02,0,0,0,1.046-4.136A3.02,3.02,0,0,0-2734.941,464.981Z" transform="translate(2738.679 -462.289)" fill="#fff"/>
        </g>
        <g id="Group_787" data-name="Group 787" transform="translate(38.519)">
          <path id="Path_442" data-name="Path 442" d="M-2716.383,485a1.169,1.169,0,0,1-.469,1.489c-3.758,2.245-7.4,4.443-11.074,6.59-3.1,1.82-6.253,3.568-9.381,5.345q-8.013,4.569-16.023,9.136-15.308,8.711-30.621,17.423c-4.465,2.541-8.928,5.1-13.351,7.709l-4.206-7.055q14.485-9.074,28.914-18.228,16.259-10.256,32.538-20.48c1.82-1.142,3.678-2.219,5.718-3.422a1.171,1.171,0,0,0,.236-1.837c-1.139-1.152-2.121-2.171-3.194-3.088a37.243,37.243,0,0,0-42.563-4.093,37.084,37.084,0,0,0-18.3,38.786c.292,1.613.012,2.441-1.45,3.235-2.8,1.526-5.515,3.215-8.409,4.962a1.179,1.179,0,0,1-1.74-.685,48.856,48.856,0,0,1,.073-28.024c4.209-14.113,12.978-24.577,26.186-31.022C-2757.074,448.846-2727.271,461.543-2716.383,485Z" transform="translate(2811.778 -456.599)" fill="#fff"/>
          <path id="Path_443" data-name="Path 443" d="M-2673.83,627.594a1.173,1.173,0,0,1,1.77.907,49.684,49.684,0,0,1-27.462,48.169,49.981,49.981,0,0,1-58.014-9.389,1.164,1.164,0,0,1,.192-1.8l.011-.007c2.932-1.764,5.9-3.475,8.8-5.283a1.906,1.906,0,0,1,2.6.142c12.088,9.494,25.392,11.532,39.388,5.208,12.565-5.678,19.605-15.889,21.43-29.58a3.239,3.239,0,0,1,1.781-2.735C-2680.167,631.416-2677.051,629.525-2673.83,627.594Z" transform="translate(2772.402 -581.394)" fill="#fff"/>
        </g>
        <path id="Path_444" data-name="Path 444" d="M-2755.266,579.364c-.3,0-2.331-8.444.533-17.828,3.016-9.879,9.971-15.932,10.219-15.751s-5.768,5.983-8.9,16.091C-2756.4,571.54-2754.974,579.359-2755.266,579.364Z" transform="translate(2809.729 -521.75)" fill="#fff"/>
        <path id="Path_445" data-name="Path 445" d="M-2571.964,526.232c.107-.125-2.668-3.274-6.992-5.893-4.216-2.554-8.181-3.559-8.243-3.408a86.315,86.315,0,0,1,7.958,4.075A84.239,84.239,0,0,1-2571.964,526.232Z" transform="translate(2686.237 -500.663)" fill="#fff"/>
        <path id="Path_446" data-name="Path 446" d="M-2896,689.612l4.423,7.417c-2.249,1.385-4.257,2.432-5.3,3.046-5.56,3.286-4.845,3.883-5.831,7.623-.777,2.951-.724,4.753-5.13,8.524s-16.759,8.98-28.531,14.451-9.76,4.133-8.228,3.21,28.788-17.091,30.077-18.247-.552-3.42-1.809-2.909-2.24.975-8.424,4.075-23.93,13.386-24.085,12.974,29.52-19.058,30.914-19.959a1.166,1.166,0,0,0,.3-1.925l-.025-.042a1.218,1.218,0,0,0-1.895-.632c-1.445.814-31.774,18.4-32.076,18.082s17.029-11.263,22.655-15.27,6.48-4.66,7.519-5.536-.182-3.514-1.8-2.908-28.657,17.135-30.193,18.06-3.656,2.08,6.652-5.75,20.636-16.306,26.046-18.444,7.327-.806,11.24-.319c3.07.382,3.487.383,8.063-2.1C-2900.354,692.447-2898.323,690.98-2896,689.612Z" transform="translate(2954.724 -626.822)" fill="#fff"/>
      </g>
    </g>
  </g>
</svg>
