<svg xmlns="http://www.w3.org/2000/svg" width="308.937" height="71.009" viewBox="0 0 308.937 71.009">
  <g id="logo_white" transform="translate(14418.34 6050.005)">
    <g id="Artboard_4" data-name="Artboard 4" transform="translate(-14910.213 -6465.538)">
      <g id="Group_799" data-name="Group 799" transform="translate(491.873 407.269)">
        <g id="Group_798" data-name="Group 798" transform="translate(0 0)">
          <g id="Group_797" data-name="Group 797" transform="translate(0 8.264)">
            <g id="Group_796" data-name="Group 796">
              <circle id="Ellipse_25" data-name="Ellipse 25" cx="35.505" cy="35.505" r="35.505" transform="translate(17.211)" fill="#fff"/>
              <g id="Group_795" data-name="Group 795" transform="translate(0 5.559)">
                <g id="Group_793" data-name="Group 793" transform="translate(34.556 0.91)">
                  <path id="Path_455" data-name="Path 455" d="M775.441,519a3.136,3.136,0,1,1,1.088-4.3A3.14,3.14,0,0,1,775.441,519Zm-2.523-4.232a1.791,1.791,0,1,0,2.455.621A1.793,1.793,0,0,0,772.918,514.771Z" transform="translate(-770.699 -513.174)" fill="#dd4a48"/>
                </g>
                <g id="Group_794" data-name="Group 794" transform="translate(22.864)">
                  <path id="Path_456" data-name="Path 456" d="M731.959,522.608a.694.694,0,0,1-.278.884c-2.231,1.333-4.393,2.637-6.573,3.911-1.842,1.08-3.712,2.118-5.568,3.173q-4.756,2.712-9.51,5.423-9.087,5.17-18.175,10.342c-2.65,1.508-5.3,3.026-7.925,4.576l-2.5-4.187q8.6-5.386,17.162-10.819,9.651-6.088,19.313-12.156c1.08-.678,2.183-1.317,3.394-2.031a.7.7,0,0,0,.14-1.09c-.676-.684-1.259-1.289-1.9-1.833a22.1,22.1,0,0,0-36.129,20.592,1.5,1.5,0,0,1-.861,1.92c-1.662.906-3.273,1.908-4.991,2.945a.7.7,0,0,1-1.033-.407A29.824,29.824,0,0,1,692.119,508.8,29.692,29.692,0,0,1,731.959,522.608Z" transform="translate(-675.336 -505.752)" fill="#dd4a48"/>
                  <path id="Path_457" data-name="Path 457" d="M795.541,728.707a.7.7,0,0,1,1.05.538,29.739,29.739,0,0,1-50.736,23.018.691.691,0,0,1,.114-1.07l.007,0c1.74-1.047,3.5-2.063,5.224-3.136a1.131,1.131,0,0,1,1.544.084c7.175,5.635,15.072,6.845,23.379,3.091,7.458-3.371,11.637-9.431,12.72-17.558a1.923,1.923,0,0,1,1.057-1.624C791.78,730.975,793.629,729.853,795.541,728.707Z" transform="translate(-737.032 -701.284)" fill="#dd4a48"/>
                </g>
                <path id="Path_458" data-name="Path 458" d="M748.363,642.028c-.18,0-1.384-5.012.317-10.582,1.79-5.864,5.918-9.457,6.066-9.349a29.844,29.844,0,0,0-5.28,9.551A30.507,30.507,0,0,0,748.363,642.028Z" transform="translate(-716.036 -607.831)" fill="#dd4a48"/>
                <path id="Path_459" data-name="Path 459" d="M977.357,589.969a14.654,14.654,0,0,0-4.15-3.5,14.5,14.5,0,0,0-4.893-2.023,51.239,51.239,0,0,1,4.724,2.419A49.98,49.98,0,0,1,977.357,589.969Z" transform="translate(-909.529 -574.792)" fill="#dd4a48"/>
                <path id="Path_460" data-name="Path 460" d="M523.71,809.733l2.625,4.4c-1.335.822-2.526,1.443-3.144,1.808-3.3,1.95-2.876,2.3-3.461,4.525-.461,1.751-.43,2.821-3.045,5.06s-9.948,5.33-16.935,8.578-5.794,2.453-4.884,1.905,17.087-10.145,17.853-10.831-.328-2.03-1.074-1.727-1.33.579-5,2.419-14.2,7.945-14.3,7.7,17.522-11.312,18.349-11.847a.692.692,0,0,0,.181-1.143l-.015-.025a.723.723,0,0,0-1.124-.375c-.858.483-18.86,10.92-19.039,10.733s10.108-6.685,13.447-9.064,3.846-2.766,4.463-3.286-.108-2.086-1.071-1.726-17.01,10.171-17.922,10.72-2.17,1.235,3.949-3.413,12.249-9.678,15.46-10.947,4.349-.479,6.672-.189c1.823.227,2.07.227,4.786-1.247C521.125,811.416,522.33,810.545,523.71,809.733Z" transform="translate(-488.853 -772.464)" fill="#dd4a48"/>
              </g>
            </g>
          </g>
          <path id="Path_12477" data-name="Path 12477" d="M15.736.56A14.432,14.432,0,0,1,8.918-1.022,11.759,11.759,0,0,1,4.158-5.6a14.2,14.2,0,0,1-1.75-7.28,14.679,14.679,0,0,1,1.68-7.28,11.4,11.4,0,0,1,4.634-4.578,14.1,14.1,0,0,1,6.762-1.582,12.263,12.263,0,0,1,6.734,1.666,10.131,10.131,0,0,1,3.822,4.34,13.519,13.519,0,0,1,1.232,5.726H6.16v-.7H19.908q0-1.652-.126-3.458a16.177,16.177,0,0,0-.574-3.36,6.354,6.354,0,0,0-1.33-2.534,3.059,3.059,0,0,0-2.394-.98A3.859,3.859,0,0,0,12.74-24.6a6.8,6.8,0,0,0-1.708,2.786,18.375,18.375,0,0,0-.868,3.976,40.824,40.824,0,0,0-.252,4.62A39.4,39.4,0,0,0,10.206-8.3a16.009,16.009,0,0,0,1.036,4.13A6.833,6.833,0,0,0,13.3-1.344,5.268,5.268,0,0,0,16.66-.308,9.816,9.816,0,0,0,23.1-2.422a11.382,11.382,0,0,0,3.64-5.306H27.5a12.059,12.059,0,0,1-3.99,5.922A11.916,11.916,0,0,1,15.736.56Z" transform="translate(108.205 63)" fill="#dd4a48"/>
        </g>
      </g>
    </g>
    <g id="Artboard_4-2" data-name="Artboard 4" transform="translate(-14880.562 -6465.049)">
      <g id="Group_799-2" data-name="Group 799" transform="translate(491.873 407.269)">
        <g id="Group_798-2" data-name="Group 798" transform="translate(0 0)">
          <path id="Path_12478" data-name="Path 12478" d="M11.34-21.336v-.42h8.232a8.7,8.7,0,0,0,4.522-1.092A6.878,6.878,0,0,0,26.88-26.11a13.431,13.431,0,0,0,.952-5.39,13.534,13.534,0,0,0-.952-5.4,6.95,6.95,0,0,0-2.786-3.29A8.613,8.613,0,0,0,19.572-41.3H1.26V-42H20.412a25.378,25.378,0,0,1,7.868,1.106,10.9,10.9,0,0,1,5.264,3.43A9.194,9.194,0,0,1,35.42-31.5a9.23,9.23,0,0,1-1.764,5.88,9.994,9.994,0,0,1-5.124,3.262,28.153,28.153,0,0,1-8.12,1.022ZM1.26,0V-.7H20.272V0ZM7.084-.364V-41.58H14.42V-.364ZM34.132.364a8.262,8.262,0,0,1-4.2-.9,5.447,5.447,0,0,1-2.226-2.436,10.749,10.749,0,0,1-.91-3.444q-.2-1.9-.224-3.934t-.2-3.948a11.368,11.368,0,0,0-.812-3.444,5.156,5.156,0,0,0-2.086-2.422,7.608,7.608,0,0,0-4.018-.9H11.34v-.392H22.6a14.7,14.7,0,0,1,6.3,1.12,8.031,8.031,0,0,1,3.472,2.982,11.319,11.319,0,0,1,1.526,4.074,27.325,27.325,0,0,1,.392,4.438q.014,2.226.084,4.088a7.709,7.709,0,0,0,.6,2.982A2,2,0,0,0,36.96-.644,6.62,6.62,0,0,0,38.6-.84a6.653,6.653,0,0,0,1.33-.476l.252.644a9.134,9.134,0,0,1-2.268.7A18.568,18.568,0,0,1,34.132.364Zm22.736.2A14.432,14.432,0,0,1,50.05-1.022,11.759,11.759,0,0,1,45.29-5.6a14.2,14.2,0,0,1-1.75-7.28,14.679,14.679,0,0,1,1.68-7.28,11.4,11.4,0,0,1,4.634-4.578,14.1,14.1,0,0,1,6.762-1.582,12.263,12.263,0,0,1,6.734,1.666,10.131,10.131,0,0,1,3.822,4.34A13.518,13.518,0,0,1,68.4-14.588H47.292v-.7H61.04q0-1.652-.126-3.458a16.177,16.177,0,0,0-.574-3.36,6.354,6.354,0,0,0-1.33-2.534,3.059,3.059,0,0,0-2.394-.98A3.859,3.859,0,0,0,53.872-24.6a6.8,6.8,0,0,0-1.708,2.786,18.375,18.375,0,0,0-.868,3.976,40.824,40.824,0,0,0-.252,4.62A39.4,39.4,0,0,0,51.338-8.3a16.009,16.009,0,0,0,1.036,4.13,6.833,6.833,0,0,0,2.058,2.828,5.268,5.268,0,0,0,3.36,1.036,9.816,9.816,0,0,0,6.44-2.114,11.382,11.382,0,0,0,3.64-5.306h.756a12.059,12.059,0,0,1-3.99,5.922A11.916,11.916,0,0,1,56.868.56Zm16.408,0V-7.924H74a10.1,10.1,0,0,0,1.918,4.018,9.8,9.8,0,0,0,3.36,2.73,9.531,9.531,0,0,0,4.3.98,9.391,9.391,0,0,0,3.066-.476,4.993,4.993,0,0,0,2.226-1.456,3.694,3.694,0,0,0,.84-2.492,3.147,3.147,0,0,0-1.134-2.562A9.5,9.5,0,0,0,85.652-8.75q-1.792-.63-3.808-1.288a23.629,23.629,0,0,1-3.822-1.624,8.3,8.3,0,0,1-2.94-2.59,7.285,7.285,0,0,1-1.134-4.256,7.8,7.8,0,0,1,.966-3.808,7.471,7.471,0,0,1,2.8-2.856,8.642,8.642,0,0,1,4.494-1.092,9.425,9.425,0,0,1,3.556.644,10.366,10.366,0,0,1,2.8,1.652l2.772-2.352h.616v7.84h-.7a10.033,10.033,0,0,0-1.666-3.4,9.337,9.337,0,0,0-3.038-2.632,8.768,8.768,0,0,0-4.312-1.022,6.632,6.632,0,0,0-2.548.462,4.325,4.325,0,0,0-1.778,1.288,3.03,3.03,0,0,0-.658,1.946,2.935,2.935,0,0,0,1.19,2.436,11.069,11.069,0,0,0,3.066,1.6q1.876.672,3.962,1.358a24.565,24.565,0,0,1,3.962,1.694,9.035,9.035,0,0,1,3.052,2.6A6.763,6.763,0,0,1,93.66-8.036,7.86,7.86,0,0,1,92.3-3.374,8.692,8.692,0,0,1,88.718-.448,11.5,11.5,0,0,1,83.916.56,11.023,11.023,0,0,1,80-.126a10.71,10.71,0,0,1-3.248-1.918L73.892.56ZM106.848.392A6.488,6.488,0,0,1,103-.56a4.674,4.674,0,0,1-1.764-2.492,11.547,11.547,0,0,1-.462-3.332V-31.36a15.046,15.046,0,0,0,3.584-.476,11.346,11.346,0,0,0,3.136-1.2V-4.956a5.949,5.949,0,0,0,.5,2.912,1.794,1.794,0,0,0,1.652.812,4.114,4.114,0,0,0,2.716-1.232A8.754,8.754,0,0,0,114.548-5.6l.616.308a9.944,9.944,0,0,1-3.122,4.1A8.273,8.273,0,0,1,106.848.392ZM96.824-25.06v-.7h16.66v.7Zm30.408,12.908a32.066,32.066,0,0,1,.42-5.25,16.989,16.989,0,0,1,1.372-4.536,8.5,8.5,0,0,1,2.492-3.178,6.045,6.045,0,0,1,3.78-1.176,5.857,5.857,0,0,1,3.024.742,4.976,4.976,0,0,1,1.9,1.932,5.245,5.245,0,0,1,.644,2.534,4.359,4.359,0,0,1-1.12,3,3.745,3.745,0,0,1-2.94,1.26,4.126,4.126,0,0,1-3.01-1.106,3.6,3.6,0,0,1-1.134-2.674,3.851,3.851,0,0,1,1.2-2.982A4.151,4.151,0,0,1,136.78-24.7a4.164,4.164,0,0,1,2.072.518,3.975,3.975,0,0,1,1.442,1.33,3.217,3.217,0,0,1,.518,1.764h-.672a4.331,4.331,0,0,0-.6-2.212,4.509,4.509,0,0,0-1.708-1.666,5.2,5.2,0,0,0-2.618-.63,5.373,5.373,0,0,0-3.36,1.092,8.3,8.3,0,0,0-2.366,3,16.571,16.571,0,0,0-1.386,4.326,27.585,27.585,0,0,0-.448,5.026Zm.42-13.608V-.7h4.032V0H117.32V-.7h3.668V-25.06H117.32v-.7ZM157.752.56a13.2,13.2,0,0,1-7.1-1.848,12.692,12.692,0,0,1-4.606-4.9,14.022,14.022,0,0,1-1.624-6.692,14.022,14.022,0,0,1,1.624-6.692,12.692,12.692,0,0,1,4.606-4.9,13.2,13.2,0,0,1,7.1-1.848,13.2,13.2,0,0,1,7.1,1.848,12.692,12.692,0,0,1,4.606,4.9,14.022,14.022,0,0,1,1.624,6.692,14.022,14.022,0,0,1-1.624,6.692,12.692,12.692,0,0,1-4.606,4.9A13.2,13.2,0,0,1,157.752.56Zm0-.7a4.218,4.218,0,0,0,3.01-1.12A7.274,7.274,0,0,0,162.6-4.228a18.813,18.813,0,0,0,.9-4.116,41.045,41.045,0,0,0,.252-4.536,40.92,40.92,0,0,0-.252-4.55,18.8,18.8,0,0,0-.9-4.1,7.274,7.274,0,0,0-1.834-2.968,4.218,4.218,0,0,0-3.01-1.12,4.157,4.157,0,0,0-3.01,1.12,7.562,7.562,0,0,0-1.82,2.968,18.263,18.263,0,0,0-.91,4.1,40.92,40.92,0,0,0-.252,4.55,41.045,41.045,0,0,0,.252,4.536,18.274,18.274,0,0,0,.91,4.116,7.562,7.562,0,0,0,1.82,2.968A4.157,4.157,0,0,0,157.752-.14Z" transform="translate(108.205 63)" fill="#fff"/>
        </g>
      </g>
    </g>
  </g>
</svg>
