<svg id="logo_bg_white" xmlns="http://www.w3.org/2000/svg" width="144.445" height="116.265" viewBox="0 0 144.445 116.265">
  <g id="Group_796" data-name="Group 796">
    <circle id="Ellipse_25" data-name="Ellipse 25" cx="58.132" cy="58.132" r="58.132" transform="translate(28.18)" fill="#fff"/>
    <g id="Group_795" data-name="Group 795" transform="translate(0 9.101)">
      <g id="Group_793" data-name="Group 793" transform="translate(56.579 1.49)">
        <path id="Path_455" data-name="Path 455" d="M778.463,522.719a5.135,5.135,0,1,1,1.781-7.041A5.141,5.141,0,0,1,778.463,522.719Zm-4.132-6.929a2.932,2.932,0,1,0,4.02,1.017A2.935,2.935,0,0,0,774.332,515.79Z" transform="translate(-770.699 -513.174)" fill="#dd4a48"/>
      </g>
      <g id="Group_794" data-name="Group 794" transform="translate(37.435)">
        <path id="Path_456" data-name="Path 456" d="M768.045,533.35a1.136,1.136,0,0,1-.456,1.447c-3.652,2.182-7.192,4.318-10.762,6.4-3.016,1.769-6.077,3.467-9.117,5.2q-7.787,4.441-15.571,8.879-14.878,8.465-29.758,16.933c-4.339,2.469-8.677,4.954-12.976,7.492l-4.088-6.856q14.077-8.819,28.1-17.715,15.8-9.967,31.622-19.9c1.769-1.11,3.574-2.157,5.557-3.326a1.138,1.138,0,0,0,.229-1.785c-1.107-1.119-2.062-2.11-3.1-3a36.177,36.177,0,0,0-59.154,33.716c.284,1.568.012,2.372-1.409,3.144-2.721,1.483-5.36,3.124-8.172,4.822a1.146,1.146,0,0,1-1.691-.666,47.48,47.48,0,0,1,.071-27.235c4.091-13.716,12.613-23.885,25.45-30.149C728.5,498.216,757.464,510.557,768.045,533.35Z" transform="translate(-675.336 -505.752)" fill="#dd4a48"/>
        <path id="Path_457" data-name="Path 457" d="M827.335,728.77a1.14,1.14,0,0,1,1.72.881,48.692,48.692,0,0,1-83.07,37.688,1.131,1.131,0,0,1,.186-1.752l.011-.007c2.85-1.715,5.731-3.378,8.554-5.134a1.852,1.852,0,0,1,2.528.138c11.747,9.227,24.677,11.208,38.279,5.061C807.754,760.127,814.6,750.2,816.37,736.9a3.149,3.149,0,0,1,1.731-2.658C821.177,732.484,824.2,730.647,827.335,728.77Z" transform="translate(-731.537 -683.871)" fill="#dd4a48"/>
      </g>
      <path id="Path_458" data-name="Path 458" d="M748.734,654.732c-.3,0-2.265-8.207.519-17.326,2.931-9.6,9.69-15.484,9.931-15.308s-5.606,5.815-8.646,15.638C747.632,647.129,749.018,654.728,748.734,654.732Z" transform="translate(-695.804 -598.74)" fill="#dd4a48"/>
      <path id="Path_459" data-name="Path 459" d="M983.121,593.494c.1-.122-2.593-3.182-6.8-5.727-4.1-2.482-7.951-3.459-8.011-3.312a83.918,83.918,0,0,1,7.734,3.96A81.812,81.812,0,0,1,983.121,593.494Z" transform="translate(-872.065 -568.644)" fill="#dd4a48"/>
      <path id="Path_460" data-name="Path 460" d="M545.924,809.733l4.3,7.208c-2.186,1.346-4.136,2.363-5.147,2.96-5.4,3.193-4.709,3.774-5.666,7.408-.755,2.868-.7,4.62-4.985,8.284s-16.288,8.727-27.728,14.044-9.486,4.016-8,3.119,27.977-16.61,29.23-17.734-.536-3.323-1.758-2.827-2.178.948-8.187,3.961-23.256,13.009-23.407,12.609,28.689-18.522,30.043-19.4a1.134,1.134,0,0,0,.3-1.871l-.024-.041a1.183,1.183,0,0,0-1.841-.614c-1.4.791-30.88,17.88-31.173,17.573s16.55-10.946,22.017-14.84,6.3-4.529,7.307-5.38-.177-3.415-1.753-2.826-27.851,16.653-29.343,17.552-3.554,2.021,6.465-5.588,20.055-15.847,25.312-17.924,7.121-.784,10.924-.31c2.984.372,3.39.372,7.836-2.041C541.692,812.489,543.666,811.063,545.924,809.733Z" transform="translate(-488.853 -748.711)" fill="#dd4a48"/>
    </g>
  </g>
</svg>
