<svg xmlns="http://www.w3.org/2000/svg" width="325" height="325" viewBox="0 0 325 325">
  <g id="maintainance" transform="translate(19167 8027)">
    <rect id="Rectangle_17486" data-name="Rectangle 17486" width="325" height="325" transform="translate(-19167 -8027)" fill="none"/>
    <g id="Layer_2" data-name="Layer 2" transform="translate(-19166.973 -8014.047)">
      <g id="Layer_1" data-name="Layer 1">
        <path id="Path_13332" data-name="Path 13332" d="M4.177,155.595s1.792,55.261,47.911,92.088,110.091,39.471,161.79,42.968,91.494-25.8,97.484-70.069S277.817,163.3,256.317,112.9,236.77,45.979,191.385,14.916,75.024,2.957,37.776,56.06,4.177,155.595,4.177,155.595Z" fill="#de4948"/>
        <path id="Path_13333" data-name="Path 13333" d="M4.177,155.595s1.792,55.261,47.911,92.088,110.091,39.471,161.79,42.968,91.494-25.8,97.484-70.069S277.817,163.3,256.317,112.9,236.77,45.979,191.385,14.916,75.024,2.957,37.776,56.06,4.177,155.595,4.177,155.595Z" fill="#fff" opacity="0.7"/>
        <path id="Path_13334" data-name="Path 13334" d="M308.448,54.333c.453-2.569,1.079-8.926-2.763-12.045-4.911-3.961-8.4,3.173-12.682-2.385s-5.548-17.593-18.23-17.431S261.2,29.757,261.2,32.142s-3.81,4.123-4.6,4.123-5.235-2.062-6.821,2.536-.507,7.253-3.033,7.35-5.645-3.335-9.077-1.619-3.421,5.4-4.857,6.627-3.8-.95-6.972.324a3.832,3.832,0,0,0-2.655,2.849Z" fill="#fff" stroke="#263238" stroke-miterlimit="10" stroke-width="1.079"/>
        <path id="Path_13335" data-name="Path 13335" d="M60.5,49.023c.313-1.792.777-6.26-1.943-8.44-3.443-2.806-5.893,2.223-8.9-1.673s-3.886-12.337-12.79-12.229-9.541,5.116-9.541,6.778-2.677,2.893-3.238,2.893-3.67-1.446-4.781,1.781-.356,5.084-2.159,5.159-3.961-2.342-6.368-1.144-2.407,3.767-3.4,4.652-2.677-.658-4.9.227a2.731,2.731,0,0,0-1.824,2Z" fill="#fff" stroke="#263238" stroke-miterlimit="10" stroke-width="1.079"/>
        <path id="Path_13336" data-name="Path 13336" d="M233.845,139.556c.313-1.792.766-6.26-1.943-8.451-3.443-2.774-5.893,2.223-8.894-1.662s-3.907-12.347-12.79-12.229-9.563,5.116-9.563,6.778-2.666,2.893-3.238,2.893-3.67-1.446-4.781,1.781-.356,5.084-2.159,5.159-3.961-2.342-6.368-1.144-2.407,3.767-3.411,4.652-2.666-.658-4.889.227a2.709,2.709,0,0,0-1.867,2Z" fill="#fff" stroke="#263238" stroke-miterlimit="10" stroke-width="1.079"/>
        <path id="Path_13337" data-name="Path 13337" d="M276.511,28.365c.151-.809.356-2.828-.874-3.821-1.554-1.252-2.655,1-4.015-.745s-1.759-5.58-5.774-5.526-4.317,2.31-4.317,3.065-1.2,1.328-1.414,1.328-1.651-.658-2.159.8-.162,2.3-.95,2.331-1.792-1.079-2.882-.518-1.079,1.705-1.533,2.159-1.209-.3-2.213.1a1.252,1.252,0,0,0-.842.907Z" fill="#fff" stroke="#263238" stroke-miterlimit="10" stroke-width="1.079"/>
        <line id="Line_58" data-name="Line 58" y1="3.206" transform="translate(75.693 137.915)" fill="none" stroke="#263238" stroke-miterlimit="10" stroke-width="1.079"/>
        <g id="Group_7362" data-name="Group 7362" opacity="0.3">
          <circle id="Ellipse_238" data-name="Ellipse 238" cx="2.677" cy="2.677" r="2.677" transform="translate(255.831 57.215)" fill="none" stroke="#000" stroke-linecap="round" stroke-linejoin="round" stroke-width="1.079"/>
          <circle id="Ellipse_239" data-name="Ellipse 239" cx="2.677" cy="2.677" r="2.677" transform="translate(20.593 102.794)" fill="none" stroke="#000" stroke-linecap="round" stroke-linejoin="round" stroke-width="1.079"/>
          <circle id="Ellipse_240" data-name="Ellipse 240" cx="2.677" cy="2.677" r="2.677" transform="translate(222.329 241.519)" fill="none" stroke="#000" stroke-linecap="round" stroke-linejoin="round" stroke-width="1.079"/>
          <circle id="Ellipse_241" data-name="Ellipse 241" cx="2.677" cy="2.677" r="2.677" transform="translate(25.288 219.404)" fill="none" stroke="#000" stroke-linecap="round" stroke-linejoin="round" stroke-width="1.079"/>
          <line id="Line_59" data-name="Line 59" x1="5.688" y2="5.688" transform="translate(204.067 106.648)" fill="none" stroke="#000" stroke-linecap="round" stroke-linejoin="round" stroke-width="1.079"/>
          <line id="Line_60" data-name="Line 60" x1="5.688" y1="5.688" transform="translate(204.067 106.648)" fill="none" stroke="#000" stroke-linecap="round" stroke-linejoin="round" stroke-width="1.079"/>
          <line id="Line_61" data-name="Line 61" x2="5.688" y2="5.688" transform="translate(189.324 270.175)" fill="none" stroke="#000" stroke-linecap="round" stroke-linejoin="round" stroke-width="1.079"/>
          <line id="Line_62" data-name="Line 62" x1="5.688" y2="5.688" transform="translate(189.324 270.175)" fill="none" stroke="#000" stroke-linecap="round" stroke-linejoin="round" stroke-width="1.079"/>
          <line id="Line_63" data-name="Line 63" x2="5.688" y2="5.688" transform="translate(10.372 142.168)" fill="none" stroke="#000" stroke-linecap="round" stroke-linejoin="round" stroke-width="1.079"/>
          <line id="Line_64" data-name="Line 64" x1="5.688" y2="5.688" transform="translate(10.372 142.168)" fill="none" stroke="#000" stroke-linecap="round" stroke-linejoin="round" stroke-width="1.079"/>
          <line id="Line_65" data-name="Line 65" x2="5.688" y2="5.688" transform="translate(220.149 9.466)" fill="none" stroke="#000" stroke-linecap="round" stroke-linejoin="round" stroke-width="1.079"/>
          <line id="Line_66" data-name="Line 66" x1="5.688" y2="5.688" transform="translate(220.149 9.466)" fill="none" stroke="#000" stroke-linecap="round" stroke-linejoin="round" stroke-width="1.079"/>
          <circle id="Ellipse_242" data-name="Ellipse 242" cx="2.677" cy="2.677" r="2.677" transform="translate(259.35 224.25)" fill="none" stroke="#000" stroke-linecap="round" stroke-linejoin="round" stroke-width="1.079"/>
          <circle id="Ellipse_243" data-name="Ellipse 243" cx="2.677" cy="2.677" r="2.677" transform="translate(293.866 144.726)" fill="none" stroke="#000" stroke-linecap="round" stroke-linejoin="round" stroke-width="1.079"/>
          <line id="Line_67" data-name="Line 67" x2="5.688" y2="5.677" transform="translate(223.657 176.501)" fill="none" stroke="#000" stroke-linecap="round" stroke-linejoin="round" stroke-width="1.079"/>
          <line id="Line_68" data-name="Line 68" x1="5.688" y2="5.677" transform="translate(223.657 176.501)" fill="none" stroke="#000" stroke-linecap="round" stroke-linejoin="round" stroke-width="1.079"/>
          <line id="Line_69" data-name="Line 69" x2="5.688" y2="5.688" transform="translate(285.243 131.191)" fill="none" stroke="#000" stroke-linecap="round" stroke-linejoin="round" stroke-width="1.079"/>
          <line id="Line_70" data-name="Line 70" x1="5.688" y2="5.688" transform="translate(285.243 131.191)" fill="none" stroke="#000" stroke-linecap="round" stroke-linejoin="round" stroke-width="1.079"/>
          <line id="Line_71" data-name="Line 71" x2="5.688" y2="5.688" transform="translate(82.082 14.161)" fill="none" stroke="#000" stroke-linecap="round" stroke-linejoin="round" stroke-width="1.079"/>
          <line id="Line_72" data-name="Line 72" x1="5.688" y2="5.688" transform="translate(82.082 14.161)" fill="none" stroke="#000" stroke-linecap="round" stroke-linejoin="round" stroke-width="1.079"/>
        </g>
        <rect id="Rectangle_17487" data-name="Rectangle 17487" width="141.639" height="262.393" transform="translate(42.396 25.278)" fill="#de4948"/>
        <path id="Path_13338" data-name="Path 13338" d="M140.97,25.278,42.4,197.246v61.532l133.846-233.5Z" fill="#fff" opacity="0.3"/>
        <path id="Path_13339" data-name="Path 13339" d="M184.046,132.756l-2.342-1.695L96.5,281.573l2.321,6.109h85.223Z" fill="#fff" opacity="0.3"/>
        <path id="Path_13340" data-name="Path 13340" d="M188.3,76.912a1.759,1.759,0,0,0,1.749-1.749V57.657a1.759,1.759,0,0,0-1.748-1.749,3.24,3.24,0,0,0-.335,0V23.216a11.279,11.279,0,0,0-11.279-11.279H52.358A11.279,11.279,0,0,0,41.079,23.216V287.3a11.279,11.279,0,0,0,11.279,11.279H176.685A11.279,11.279,0,0,0,187.964,287.3V126.647a3.235,3.235,0,0,0,.335,0,1.759,1.759,0,0,0,1.748-1.749V107.425a1.759,1.759,0,0,0-1.748-1.748,3.239,3.239,0,0,0-.335,0v-3.918a1.672,1.672,0,0,0,.335,0,1.748,1.748,0,0,0,1.748-1.748V82.546A1.749,1.749,0,0,0,188.3,80.8a1.674,1.674,0,0,0-.335,0V76.88A3.24,3.24,0,0,0,188.3,76.912Zm-6.864,204.661H47.6V31.408H181.434Z" fill="#2c272e"/>
        <path id="Path_13341" data-name="Path 13341" d="M135.595,209.679v-7.75L127.511,201a26.12,26.12,0,0,0-1.079-4.587l6.735-4.922-3.94-6.713-7.469,3.238a27.284,27.284,0,0,0-3.238-3.411l3.335-7.555-6.821-3.875-4.846,6.476a29.141,29.141,0,0,0-4.587-1.338l-.961-8.2H96.675l-.928,7.965a27.575,27.575,0,0,0-4.652,1.079l-5-6.638-6.811,3.875,3.238,7.372A28.192,28.192,0,0,0,79.06,187l-7.7-3.292-3.929,6.724,6.476,4.771a27.825,27.825,0,0,0-1.36,4.533l-8.322.939v7.631l8.084.917a27.111,27.111,0,0,0,1.079,4.587l-6.724,4.922,3.929,6.713,7.555-3.108a28.061,28.061,0,0,0,3.238,3.411l-3.324,7.555,6.811,3.886,4.846-6.476a27.641,27.641,0,0,0,4.641,1.338l.961,8.2h7.868l.939-7.965a28.906,28.906,0,0,0,4.652-1.079l4.986,6.627,6.811-3.875-3.238-7.361a29.047,29.047,0,0,0,3.465-3.238l7.7,3.238,3.929-6.713-6.476-4.781a28.061,28.061,0,0,0,1.36-4.522Zm-35.618,13.9a18.933,18.933,0,1,0-.043,0Z" fill="none" stroke="#263238" stroke-miterlimit="10" stroke-width="1.079"/>
        <path id="Path_13342" data-name="Path 13342" d="M170.425,170.953v-5.008l-5.224-.6a17.93,17.93,0,0,0-.723-2.957l4.317-3.184-2.536-4.317-4.825,2.062a17.991,17.991,0,0,0-2.159-2.159l2.159-4.9-4.4-2.5-3.13,4.155a18.35,18.35,0,0,0-2.968-.863l-.626-5.3h-5.084l-.594,5.148a18.541,18.541,0,0,0-3.011.712l-3.238-4.317-4.4,2.5,2.094,4.76a18,18,0,0,0-2.245,2.1l-4.976-2.159-2.536,4.317,4.22,3.087a17.915,17.915,0,0,0-.874,2.925l-5.4.615v5.008l5.213.594a18.079,18.079,0,0,0,.734,2.968l-4.317,3.238,2.536,4.317,4.868-2.029a17.169,17.169,0,0,0,2.159,2.159l-2.159,4.911,4.4,2.5,3.13-4.166a18.412,18.412,0,0,0,2.968.874l.626,5.3h5.084l.6-5.148a17.625,17.625,0,0,0,3-.723l3.238,4.317,4.4-2.5L158.66,181.9a18,18,0,0,0,2.245-2.1l4.976,2.159,2.536-4.317-4.22-3.1a16.806,16.806,0,0,0,.874-2.914Zm-23.043,8.98a11.873,11.873,0,1,1,12.088-11.873,12,12,0,0,1-12.088,11.873Z" fill="none" stroke="#263238" stroke-miterlimit="10" stroke-width="1.079"/>
        <path id="Path_13343" data-name="Path 13343" d="M251.061,99.643l1.835-5.105-4.242-2.31-3.238,4.317a11.484,11.484,0,0,0-2.893-.313l-2.31-4.911-4.641,1.371.712,5.4a11.764,11.764,0,0,0-2.256,1.824l-5.105-1.835L226.6,102.32l4.317,3.3a12.5,12.5,0,0,0-.313,2.893l-4.9,2.31,1.371,4.63,5.4-.712a12.239,12.239,0,0,0,1.835,2.267l-1.835,5.105,4.242,2.31,3.292-4.317a11.991,11.991,0,0,0,2.893.313l2.31,4.9,4.641-1.36-.712-5.4a11.765,11.765,0,0,0,2.256-1.824l5.105,1.824,2.321-4.242-4.317-3.238a12.565,12.565,0,0,0,.313-2.893l4.9-2.31-1.36-4.641-5.4.712-.4-.583M236.9,113.329a7.642,7.642,0,1,1,3.184,2.159" fill="none" stroke="#000" stroke-linecap="round" stroke-linejoin="round" stroke-width="1.079" opacity="0.3"/>
        <path id="Path_13344" data-name="Path 13344" d="M234.547,87.241l2.839,1.543,2.159-2.882a7.922,7.922,0,0,0,1.932.216l1.554,3.238,3.1-.917-.475-3.594a7.8,7.8,0,0,0,1.511-1.22l3.421,1.22,1.587-2.817-2.849-2.159a8.418,8.418,0,0,0,.216-1.932l3.238-1.554-.907-3.1-3.594.475a7.859,7.859,0,0,0-1.23-1.511l1.2-3.443L245.4,67.263l-2.159,2.882a7.933,7.933,0,0,0-1.943-.205L239.76,66.7l-3.1.907.475,3.594a7.857,7.857,0,0,0-1.511,1.23L232.2,71.2l-1.543,2.839,2.882,2.159a7.8,7.8,0,0,0-.216,1.932l-3.238,1.543.917,3.108L234.6,82.3a8.635,8.635,0,0,0,1.22,1.522Zm8.354-4.317a5.062,5.062,0,0,1-3.94-.4,5.116,5.116,0,1,1,6.94-2.04,6.086,6.086,0,0,1-.5.756" fill="none" stroke="#000" stroke-linecap="round" stroke-linejoin="round" stroke-width="1.079" opacity="0.3"/>
        <path id="Path_13345" data-name="Path 13345" d="M58.121,11.937V249.582a2.634,2.634,0,0,0,4.868,1.392h0a2.644,2.644,0,0,0,.4-1.392V11.937" fill="none" stroke="#263238" stroke-miterlimit="10" stroke-width="1.079"/>
        <path id="Path_13346" data-name="Path 13346" d="M76.977,80.722a2.8,2.8,0,0,0,.54,1.079c.432.54,1.176.216,1.176.863s-1.079,1.5-1.079,1.5a16.837,16.837,0,0,1-.971,4.512c-.648,1.079-3.864.108-3.864.108l-.863,2.688L62.6,90.717l.54-3.54-.971-5.4a4.317,4.317,0,0,1,2.159-2.9c1.716-.745,8.635-.216,9.887,0a6.649,6.649,0,0,1,2.763,1.846Z" fill="#fff" stroke="#263238" stroke-miterlimit="10" stroke-width="1.079"/>
        <path id="Path_13347" data-name="Path 13347" d="M62.147,81.8a28.656,28.656,0,0,0,.971,5.4c.529,1.079,2.364,1.5,5.051,1.079s3.864-1.284,4.188-2.364.961-3,1.392-3.108.54-.108.756.529-.54,1.3.216.648.971-3.432.971-3.432-6.562.853-9.358.853a27.823,27.823,0,0,1-4.08-.216Z" fill="#2c272e" stroke="#263238" stroke-miterlimit="10" stroke-width="1.079"/>
        <path id="Path_13348" data-name="Path 13348" d="M61.716,81.694s-.216,4.835,2.58,6.551,6.238-.108,7.555-1.284,1.932-4.835,1.932-4.835l-1.284.108s.432,2.688-2.8,3.648-4.188.756-5.159,0S62.18,81.8,62.18,81.8Z" fill="#fff" stroke="#263238" stroke-miterlimit="10" stroke-width="1.079"/>
        <path id="Path_13349" data-name="Path 13349" d="M61.823,76.966s.108,3.659-.216,4.188l-.324.54s1.835,1.932,8.17,1.5A21.338,21.338,0,0,0,79.87,79.762L77.83,77.83s.108-4.091-2.8-6.476-9.714-.853-11.4,1.3S61.716,76.211,61.823,76.966Z" fill="#fff" stroke="#263238" stroke-miterlimit="10" stroke-width="1.079"/>
        <path id="Path_13350" data-name="Path 13350" d="M52.045,116.728l-.216,4.317,20.96.432-.432-4.08s-1.716-.863-6.983-1.619a60.13,60.13,0,0,0-11.4-.216,9.907,9.907,0,0,0-1.824.216Z" fill="#de4948" stroke="#263238" stroke-miterlimit="10" stroke-width="0.54"/>
        <path id="Path_13351" data-name="Path 13351" d="M107.716,72.638h-6.724l2.623,1.748V85.892h1.371V74.408l.108-.022Z" fill="#fff" stroke="#263238" stroke-miterlimit="10" stroke-width="1.079"/>
        <rect id="Rectangle_17488" data-name="Rectangle 17488" width="20.647" height="1.144" transform="translate(93.879 71.872)" fill="#fff" stroke="#263238" stroke-miterlimit="10" stroke-width="1.079"/>
        <path id="Path_13352" data-name="Path 13352" d="M54.279,92.2s-2.849,1.5-2.849,4.047-5.4,11.7-5.4,16.643,3.152,4.2,5.256,3.152a24.533,24.533,0,0,0,4.2-2.849l1.2-19.795S56.373,92.044,54.279,92.2Z" fill="#fff" stroke="#263238" stroke-miterlimit="10" stroke-width="1.079"/>
        <path id="Path_13353" data-name="Path 13353" d="M54.279,92.2s-2.849,1.5-2.849,4.047c0,1.079-.982,3.357-2.094,5.99l6.551,4.177.788-13.017S56.373,92.044,54.279,92.2Z" fill="#fff" stroke="#263238" stroke-miterlimit="10" stroke-width="1.079"/>
        <path id="Path_13354" data-name="Path 13354" d="M73.005,92.012a3.788,3.788,0,0,0-1.77-1.716,36.417,36.417,0,0,0-8.268-1.511,3.778,3.778,0,0,0-2.9,1.716Z" fill="#fff" stroke="#263238" stroke-miterlimit="10" stroke-width="1.079"/>
        <path id="Path_13355" data-name="Path 13355" d="M61.284,90.188a41.145,41.145,0,0,0-6.12,1.608c-3.011,1.079-2.9,4.188-3.011,6.983s-.324,13.545-.432,15.046-.108,2.688.324,2.9,7.631-.756,11.926-.216,7.264,1.824,8.343,1.133,1.284-2.256,1.284-3.432,4.512-10.426,4.512-10.426,16.6,3.162,16.924,3.065,9.455-16.978,9.455-16.978a18.435,18.435,0,0,0,2.688-2.159c.324-.54-.108-3.443-.108-3.767s.108-1.392.108-2.159-1.3-1.392-1.511-1.079a3.4,3.4,0,0,1-.637.648l-1.079,1.511a8.106,8.106,0,0,0-.54-2.256c-.324-.432-1.608,0-1.079.853a1.781,1.781,0,0,1,0,2.04,6.767,6.767,0,0,0-.648,3.119,17.27,17.27,0,0,1-.54,3.551s-7.955,7.091-8.807,7.944a14.162,14.162,0,0,0-1.187,1.3S83.2,94.98,81.273,94.16A67.241,67.241,0,0,0,73.005,92S64.943,90.188,61.284,90.188Z" fill="#fff" stroke="#263238" stroke-miterlimit="10" stroke-width="1.079"/>
        <path id="Path_13356" data-name="Path 13356" d="M81.273,94.16A67.241,67.241,0,0,0,73.005,92s-8.063-1.824-11.721-1.824a41.145,41.145,0,0,0-6.12,1.608c-3.011,1.079-2.9,4.188-3.011,6.983s-.324,13.545-.432,15.046-.108,2.688.324,2.9,7.631-.756,11.926-.216,7.264,1.835,8.343,1.144,1.284-2.256,1.284-3.432,4.512-10.426,4.512-10.426l5.494,1.079L86.475,96.9C84.414,95.746,82.179,94.559,81.273,94.16Z" fill="#fff" stroke="#263238" stroke-miterlimit="10" stroke-width="1.079"/>
        <path id="Path_13357" data-name="Path 13357" d="M69.152,117.495a96.48,96.48,0,0,1-5.289-11.624,89.132,89.132,0,0,1-4.317-15.337c-.68.151-1.522.356-2.418.615l.14.108a1.173,1.173,0,0,0,.108.4c.734,2.741,5.116,18.78,8.246,25.116C66.993,117,68.17,117.279,69.152,117.495Z" fill="#de4948" stroke="#263238" stroke-miterlimit="10" stroke-width="0.54"/>
        <path id="Path_13358" data-name="Path 13358" d="M53.47,116.707l2.968-.205,17.474-24.3-.907-.194L71.062,91.8Z" fill="#de4948" stroke="#263238" stroke-miterlimit="10" stroke-width="0.54"/>
        <path id="Path_13359" data-name="Path 13359" d="M84.187,135.422s-33.308.54-34.171,0-2.58-2.159-1.716-6.336a25.223,25.223,0,0,1,3.508-8.063l20.96.432L74.16,125.1s9.023,1.835,12.25,4.2-1.079,6.476-1.079,6.476" fill="#2c272e" stroke="#263238" stroke-miterlimit="10" stroke-width="1.079"/>
        <path id="Path_13360" data-name="Path 13360" d="M74.182,125.1s.648,2.8.863,3.767" fill="#fff" stroke="#263238" stroke-miterlimit="10" stroke-width="1.079"/>
        <path id="Path_13361" data-name="Path 13361" d="M50.113,136.61,52.8,162.718l6.336.432s.756-20.313.756-20.745.648-5.688.648-5.688Z" fill="#2c272e" stroke="#263238" stroke-miterlimit="10" stroke-width="1.079"/>
        <path id="Path_13362" data-name="Path 13362" d="M52.8,162.718s-.648,5.267-.108,5.807,5.267.637,5.9,0,.432-5.807.432-5.807Z" fill="#fff" stroke="#263238" stroke-miterlimit="10" stroke-width="1.079"/>
        <path id="Path_13363" data-name="Path 13363" d="M59.006,166.679,52.53,166.6a3.842,3.842,0,0,0,.205,1.921c.54.54,5.267.637,5.9,0a3.788,3.788,0,0,0,.367-1.846Z" fill="#fff" stroke="#263238" stroke-miterlimit="10" stroke-width="1.079"/>
        <path id="Path_13364" data-name="Path 13364" d="M75.153,136.825l-3.011,26.433h6.012a21.889,21.889,0,0,0,.971-3.119,12.066,12.066,0,0,0-.54-2.159l5.807-20.745Z" fill="#2c272e" stroke="#263238" stroke-miterlimit="10" stroke-width="1.079"/>
        <path id="Path_13365" data-name="Path 13365" d="M78.154,163.258a13.535,13.535,0,0,0,3.335,2.364c1.3.432,3.011,1.176,3.011,1.824s-3.238.971-5.591.971a54.907,54.907,0,0,1-7.307-.971l.54-4.188Z" fill="#fff" stroke="#263238" stroke-miterlimit="10" stroke-width="1.079"/>
        <path id="Path_13366" data-name="Path 13366" d="M84.5,167.446a.658.658,0,0,0-.216-.421,25.687,25.687,0,0,1-4.08.313,41.09,41.09,0,0,1-8.408-1.371l-.194,1.479a54.909,54.909,0,0,0,7.307.971C81.273,168.374,84.5,168.093,84.5,167.446Z" fill="#fff" stroke="#263238" stroke-miterlimit="10" stroke-width="1.079"/>
        <path id="Path_13367" data-name="Path 13367" d="M85.784,152.508s2.9-7.307,4.091-11.279,2.04-2.256,2.04-.756-4.727,12.142-4.943,12.952S85.04,154.235,85.784,152.508Z" fill="#fff" stroke="#263238" stroke-miterlimit="10" stroke-width="1.079"/>
        <path id="Path_13368" data-name="Path 13368" d="M88.666,166.053H77L74.505,149.6H91.159Z" fill="#fff" stroke="#263238" stroke-miterlimit="10" stroke-width="1.079"/>
        <path id="Path_13369" data-name="Path 13369" d="M75.477,149.5s.917-8.483,7.555-8.376,7.2,8.376,7.2,8.376" fill="none" stroke="#263238" stroke-miterlimit="10" stroke-width="1.079"/>
        <rect id="Rectangle_17489" data-name="Rectangle 17489" width="45.45" height="2.472" transform="translate(42.266 135.206)" fill="#fff" stroke="#263238" stroke-miterlimit="10" stroke-width="1.079"/>
        <rect id="Rectangle_17490" data-name="Rectangle 17490" width="10.102" height="2.472" transform="translate(77.625 135.206)" fill="#fff" stroke="#263238" stroke-miterlimit="10" stroke-width="1.079"/>
        <line id="Line_73" data-name="Line 73" y1="3.065" transform="translate(93.448 50.145)" fill="none" stroke="#263238" stroke-miterlimit="10" stroke-width="1.079"/>
        <line id="Line_74" data-name="Line 74" y1="14.992" transform="translate(93.448 55.38)" fill="none" stroke="#263238" stroke-miterlimit="10" stroke-width="1.079"/>
        <line id="Line_75" data-name="Line 75" y1="10.664" transform="translate(114.753 59.891)" fill="none" stroke="#263238" stroke-miterlimit="10" stroke-width="1.079"/>
        <path id="Path_13370" data-name="Path 13370" d="M136.61,298.583h-5.44l7.253-50.609h5.451Z" fill="#2c272e" stroke="#263238" stroke-miterlimit="10" stroke-width="1.079"/>
        <path id="Path_13371" data-name="Path 13371" d="M147.5,298.583h5.451l-7.264-50.609h-5.44Z" fill="#fff" stroke="#263238" stroke-miterlimit="10" stroke-width="1.079"/>
        <path id="Path_13372" data-name="Path 13372" d="M213.878,298.583h-5.451l7.264-50.609h5.44Z" fill="#2c272e" stroke="#263238" stroke-miterlimit="10" stroke-width="1.079"/>
        <path id="Path_13373" data-name="Path 13373" d="M224.768,298.583h5.44l-7.264-50.609H217.5Z" fill="#fff" stroke="#263238" stroke-miterlimit="10" stroke-width="1.079"/>
        <rect id="Rectangle_17491" data-name="Rectangle 17491" width="103.852" height="10.07" transform="translate(124.726 240.041)" fill="#de4948" stroke="#263238" stroke-miterlimit="10" stroke-width="0.54"/>
        <rect id="Rectangle_17492" data-name="Rectangle 17492" width="103.852" height="10.07" transform="translate(127.252 240.041)" fill="#de4948" stroke="#263238" stroke-miterlimit="10" stroke-width="0.54"/>
        <path id="Path_13374" data-name="Path 13374" d="M128.957,250.111h8.807l4.555-10.07h-8.807Z" fill="#2c272e"/>
        <path id="Path_13375" data-name="Path 13375" d="M164.715,240.041H155.9l-4.555,10.07h8.818Z" fill="#2c272e"/>
        <path id="Path_13376" data-name="Path 13376" d="M228.395,240.041h-8.807l-4.555,10.07h8.807Z" fill="#2c272e"/>
        <path id="Path_13377" data-name="Path 13377" d="M206.884,240.041h-8.818l-4.555,10.07h8.818Z" fill="#2c272e"/>
        <path id="Path_13378" data-name="Path 13378" d="M185.362,240.041h-8.818l-4.555,10.07h8.818Z" fill="#2c272e"/>
        <line id="Line_76" data-name="Line 76" x1="17.183" transform="translate(213.349 244.509)" fill="none" stroke="#263238" stroke-miterlimit="10" stroke-width="1.079"/>
        <line id="Line_77" data-name="Line 77" x1="2.709" transform="translate(227.521 246.193)" fill="none" stroke="#263238" stroke-miterlimit="10" stroke-width="1.079"/>
        <line id="Line_78" data-name="Line 78" x2="17.194" transform="translate(126.809 245.772)" fill="none" stroke="#263238" stroke-miterlimit="10" stroke-width="1.079"/>
        <line id="Line_79" data-name="Line 79" x2="21.716" transform="translate(127.112 243.872)" fill="none" stroke="#263238" stroke-miterlimit="10" stroke-width="1.079"/>
        <rect id="Rectangle_17493" data-name="Rectangle 17493" width="26.476" height="1.986" transform="translate(230.1 296.597)" fill="#2c272e" stroke="#263238" stroke-linecap="round" stroke-linejoin="round" stroke-width="1.079"/>
        <path id="Path_13379" data-name="Path 13379" d="M252.108,296.543H234.569l6.875-37.4h3.788Z" fill="#de4948" stroke="#263238" stroke-linecap="round" stroke-linejoin="round" stroke-width="0.54"/>
        <path id="Path_13380" data-name="Path 13380" d="M238.886,273.046h8.9l-.853-4.641h-7.2Z" fill="#fff" stroke="#263238" stroke-linecap="round" stroke-linejoin="round" stroke-width="1.079"/>
        <line id="Line_80" data-name="Line 80" x2="0.443" y2="2.558" transform="translate(249.474 290.305)" fill="#de4948" stroke="#263238" stroke-linecap="round" stroke-linejoin="round" stroke-width="0.54"/>
        <line id="Line_81" data-name="Line 81" x2="4.458" y2="25.871" transform="translate(244.466 261.206)" fill="#de4948" stroke="#263238" stroke-linecap="round" stroke-linejoin="round" stroke-width="0.54"/>
        <line id="Line_82" data-name="Line 82" x2="8.041" y2="77.042" transform="translate(293.845 196.641)" fill="none" stroke="#263238" stroke-miterlimit="10" stroke-width="0.54"/>
        <line id="Line_83" data-name="Line 83" x1="3.648" y1="3.842" transform="translate(296.943 255.097)" fill="none" stroke="#263238" stroke-miterlimit="10" stroke-width="0.54"/>
        <path id="Path_13381" data-name="Path 13381" d="M298.043,256.241a4.112,4.112,0,0,0-1.446-3.087c-.939-.831-5.861-2.9-6.325-1.176C289.765,253.867,294.805,257.569,298.043,256.241Z" fill="#de4948" stroke="#263238" stroke-miterlimit="10" stroke-width="0.54"/>
        <line id="Line_84" data-name="Line 84" x1="4.684" y1="2.914" transform="translate(293.359 253.327)" fill="none" stroke="#263238" stroke-miterlimit="10" stroke-width="0.54"/>
        <line id="Line_85" data-name="Line 85" x1="3.637" y1="3.853" transform="translate(297.86 263.851)" fill="none" stroke="#263238" stroke-miterlimit="10" stroke-width="0.54"/>
        <path id="Path_13382" data-name="Path 13382" d="M298.972,265.005a4.1,4.1,0,0,0-1.446-3.087c-.939-.842-5.861-2.914-6.336-1.176S295.734,266.333,298.972,265.005Z" fill="#de4948" stroke="#263238" stroke-miterlimit="10" stroke-width="0.54"/>
        <line id="Line_86" data-name="Line 86" x1="4.684" y1="2.914" transform="translate(294.277 262.091)" fill="none" stroke="#263238" stroke-miterlimit="10" stroke-width="0.54"/>
        <line id="Line_87" data-name="Line 87" x1="3.648" y1="3.853" transform="translate(294.708 233.705)" fill="none" stroke="#263238" stroke-miterlimit="10" stroke-width="0.54"/>
        <path id="Path_13383" data-name="Path 13383" d="M295.82,234.86a4.134,4.134,0,0,0-1.457-3.087c-.928-.842-5.861-2.914-6.325-1.176S292.571,236.188,295.82,234.86Z" fill="#de4948" stroke="#263238" stroke-miterlimit="10" stroke-width="0.54"/>
        <line id="Line_88" data-name="Line 88" x1="4.695" y1="2.914" transform="translate(291.125 231.946)" fill="none" stroke="#263238" stroke-miterlimit="10" stroke-width="0.54"/>
        <line id="Line_89" data-name="Line 89" x1="3.648" y1="3.853" transform="translate(295.626 242.469)" fill="none" stroke="#263238" stroke-miterlimit="10" stroke-width="0.54"/>
        <path id="Path_13384" data-name="Path 13384" d="M296.727,243.624a4.1,4.1,0,0,0-1.446-3.087c-.939-.842-5.861-2.914-6.325-1.176S293.489,245.006,296.727,243.624Z" fill="#de4948" stroke="#263238" stroke-miterlimit="10" stroke-width="0.54"/>
        <line id="Line_90" data-name="Line 90" x1="4.684" y1="2.925" transform="translate(292.042 240.699)" fill="none" stroke="#263238" stroke-miterlimit="10" stroke-width="0.54"/>
        <line id="Line_91" data-name="Line 91" x1="3.648" y1="3.842" transform="translate(293.219 219.48)" fill="none" stroke="#263238" stroke-miterlimit="10" stroke-width="0.54"/>
        <path id="Path_13385" data-name="Path 13385" d="M294.331,220.624a4.112,4.112,0,0,0-1.446-3.087c-.939-.831-5.861-2.9-6.336-1.176C286.02,218.249,291.082,221.951,294.331,220.624Z" fill="#de4948" stroke="#263238" stroke-miterlimit="10" stroke-width="0.54"/>
        <line id="Line_92" data-name="Line 92" x1="4.684" y1="2.914" transform="translate(289.646 217.71)" fill="none" stroke="#263238" stroke-miterlimit="10" stroke-width="0.54"/>
        <line id="Line_93" data-name="Line 93" x1="3.648" y1="3.853" transform="translate(291.729 205.179)" fill="none" stroke="#263238" stroke-miterlimit="10" stroke-width="0.54"/>
        <path id="Path_13386" data-name="Path 13386" d="M292.841,206.334a4.166,4.166,0,0,0-1.425-3.1c-.928-.831-5.861-2.9-6.325-1.166S289.592,207.661,292.841,206.334Z" fill="#de4948" stroke="#263238" stroke-miterlimit="10" stroke-width="0.54"/>
        <line id="Line_94" data-name="Line 94" x1="4.695" y1="2.925" transform="translate(288.146 203.409)" fill="none" stroke="#263238" stroke-miterlimit="10" stroke-width="0.54"/>
        <line id="Line_95" data-name="Line 95" y1="4.522" x2="2.774" transform="translate(299.975 249.237)" fill="none" stroke="#263238" stroke-miterlimit="10" stroke-width="0.54"/>
        <path id="Path_13387" data-name="Path 13387" d="M301.9,250.6a4.112,4.112,0,0,1,.788-3.324c.734-1.015,5.127-4.058,5.947-2.461S305.35,251.223,301.9,250.6Z" fill="#de4948" stroke="#263238" stroke-miterlimit="10" stroke-width="0.54"/>
        <line id="Line_96" data-name="Line 96" y1="4.037" x2="4.22" transform="translate(301.897 246.56)" fill="none" stroke="#263238" stroke-miterlimit="10" stroke-width="0.54"/>
        <line id="Line_97" data-name="Line 97" y1="4.512" x2="2.774" transform="translate(297.569 226.182)" fill="none" stroke="#263238" stroke-miterlimit="10" stroke-width="0.54"/>
        <path id="Path_13388" data-name="Path 13388" d="M299.49,227.531a4.123,4.123,0,0,1,.788-3.324c.734-1,5.127-4.047,5.947-2.45S302.944,228.168,299.49,227.531Z" fill="#de4948" stroke="#263238" stroke-miterlimit="10" stroke-width="0.54"/>
        <line id="Line_98" data-name="Line 98" y1="4.026" x2="4.22" transform="translate(299.49 223.506)" fill="none" stroke="#263238" stroke-miterlimit="10" stroke-width="0.54"/>
        <line id="Line_99" data-name="Line 99" y1="4.522" x2="2.774" transform="translate(296.511 216.047)" fill="none" stroke="#263238" stroke-miterlimit="10" stroke-width="0.54"/>
        <path id="Path_13389" data-name="Path 13389" d="M298.432,217.407a4.145,4.145,0,0,1,.788-3.335c.734-1,5.127-4.047,5.947-2.45S301.886,218.023,298.432,217.407Z" fill="#de4948" stroke="#263238" stroke-miterlimit="10" stroke-width="0.54"/>
        <line id="Line_100" data-name="Line 100" y1="4.037" x2="4.22" transform="translate(298.432 213.371)" fill="none" stroke="#263238" stroke-miterlimit="10" stroke-width="0.54"/>
        <line id="Line_101" data-name="Line 101" y1="4.522" x2="2.774" transform="translate(294.957 201.185)" fill="none" stroke="#263238" stroke-miterlimit="10" stroke-width="0.54"/>
        <path id="Path_13390" data-name="Path 13390" d="M296.889,202.545a4.134,4.134,0,0,1,.777-3.324c.745-1.015,5.138-4.058,5.947-2.45S300.332,203.171,296.889,202.545Z" fill="#de4948" stroke="#263238" stroke-miterlimit="10" stroke-width="0.54"/>
        <line id="Line_102" data-name="Line 102" y1="4.037" x2="4.22" transform="translate(296.889 198.509)" fill="none" stroke="#263238" stroke-miterlimit="10" stroke-width="0.54"/>
        <path id="Path_13391" data-name="Path 13391" d="M293.769,196.21a4.123,4.123,0,0,1,.788-3.324c.745-1.015,5.127-4.058,5.947-2.45S297.223,196.836,293.769,196.21Z" fill="#de4948" stroke="#263238" stroke-miterlimit="10" stroke-width="0.54"/>
        <line id="Line_103" data-name="Line 103" y1="4.037" x2="4.22" transform="translate(293.769 192.173)" fill="none" stroke="#263238" stroke-miterlimit="10" stroke-width="0.54"/>
        <path id="Path_13392" data-name="Path 13392" d="M294.018,196.436a4.134,4.134,0,0,1-3.238-1.079c-.928-.842-3.5-5.526-1.813-6.174S295,193.015,294.018,196.436Z" fill="#de4948" stroke="#263238" stroke-miterlimit="10" stroke-width="0.54"/>
        <line id="Line_104" data-name="Line 104" x1="3.573" y1="4.619" transform="translate(290.445 191.763)" fill="none" stroke="#263238" stroke-miterlimit="10" stroke-width="0.54"/>
        <line id="Line_105" data-name="Line 105" x1="7.998" y2="77.053" transform="translate(307.056 207.251)" fill="none" stroke="#263238" stroke-miterlimit="10" stroke-width="0.54"/>
        <line id="Line_106" data-name="Line 106" x1="2.774" y1="4.512" transform="translate(306.052 265.092)" fill="none" stroke="#263238" stroke-miterlimit="10" stroke-width="0.54"/>
        <path id="Path_13393" data-name="Path 13393" d="M306.894,266.441a4.123,4.123,0,0,0-.788-3.324c-.745-1-5.127-4.047-5.947-2.45S303.44,267.078,306.894,266.441Z" fill="#de4948" stroke="#263238" stroke-miterlimit="10" stroke-width="0.54"/>
        <line id="Line_107" data-name="Line 107" x1="3.983" y1="3.821" transform="translate(302.911 262.62)" fill="none" stroke="#263238" stroke-miterlimit="10" stroke-width="0.54"/>
        <line id="Line_108" data-name="Line 108" x1="2.774" y1="4.522" transform="translate(308.265 243.7)" fill="none" stroke="#263238" stroke-miterlimit="10" stroke-width="0.54"/>
        <path id="Path_13394" data-name="Path 13394" d="M309.117,245.06a4.166,4.166,0,0,0-.788-3.324c-.745-1-5.138-4.047-5.947-2.45S305.663,245.686,309.117,245.06Z" fill="#de4948" stroke="#263238" stroke-miterlimit="10" stroke-width="0.54"/>
        <line id="Line_109" data-name="Line 109" x1="3.993" y1="3.821" transform="translate(305.124 241.239)" fill="none" stroke="#263238" stroke-miterlimit="10" stroke-width="0.54"/>
        <line id="Line_110" data-name="Line 110" x1="2.774" y1="4.522" transform="translate(307.358 252.464)" fill="none" stroke="#263238" stroke-miterlimit="10" stroke-width="0.54"/>
        <path id="Path_13395" data-name="Path 13395" d="M308.2,253.824a4.134,4.134,0,0,0-.777-3.324c-.745-1-5.138-4.047-5.958-2.45S304.757,254.45,308.2,253.824Z" fill="#de4948" stroke="#263238" stroke-miterlimit="10" stroke-width="0.54"/>
        <line id="Line_111" data-name="Line 111" x1="3.983" y1="3.821" transform="translate(304.217 250.003)" fill="none" stroke="#263238" stroke-miterlimit="10" stroke-width="0.54"/>
        <line id="Line_112" data-name="Line 112" x1="2.774" y1="4.512" transform="translate(309.743 229.474)" fill="none" stroke="#263238" stroke-miterlimit="10" stroke-width="0.54"/>
        <path id="Path_13396" data-name="Path 13396" d="M310.585,230.823a4.134,4.134,0,0,0-.777-3.324c-.745-1-5.138-4.047-5.958-2.45S307.142,231.46,310.585,230.823Z" fill="#de4948" stroke="#263238" stroke-miterlimit="10" stroke-width="0.54"/>
        <line id="Line_113" data-name="Line 113" x1="3.983" y1="3.821" transform="translate(306.602 227.003)" fill="none" stroke="#263238" stroke-miterlimit="10" stroke-width="0.54"/>
        <line id="Line_114" data-name="Line 114" x1="2.774" y1="4.522" transform="translate(311.222 215.173)" fill="none" stroke="#263238" stroke-miterlimit="10" stroke-width="0.54"/>
        <path id="Path_13397" data-name="Path 13397" d="M312.075,216.533a4.112,4.112,0,0,0-.788-3.324c-.745-1.015-5.138-4.058-5.947-2.45S308.621,217.159,312.075,216.533Z" fill="#de4948" stroke="#263238" stroke-miterlimit="10" stroke-width="0.54"/>
        <line id="Line_115" data-name="Line 115" x1="3.993" y1="3.832" transform="translate(308.081 212.702)" fill="none" stroke="#263238" stroke-miterlimit="10" stroke-width="0.54"/>
        <line id="Line_116" data-name="Line 116" y1="3.853" x2="3.637" transform="translate(309.29 260.559)" fill="none" stroke="#263238" stroke-miterlimit="10" stroke-width="0.54"/>
        <path id="Path_13398" data-name="Path 13398" d="M311.826,261.714a4.134,4.134,0,0,1,1.446-3.1c.939-.831,5.861-2.914,6.325-1.176S315.075,263.03,311.826,261.714Z" fill="#de4948" stroke="#263238" stroke-miterlimit="10" stroke-width="0.54"/>
        <line id="Line_117" data-name="Line 117" y1="3.087" x2="4.965" transform="translate(311.826 258.627)" fill="none" stroke="#263238" stroke-miterlimit="10" stroke-width="0.54"/>
        <line id="Line_118" data-name="Line 118" y1="3.853" x2="3.637" transform="translate(311.686 237.494)" fill="none" stroke="#263238" stroke-miterlimit="10" stroke-width="0.54"/>
        <path id="Path_13399" data-name="Path 13399" d="M314.222,238.648a4.134,4.134,0,0,1,1.446-3.1c.939-.831,5.861-2.9,6.325-1.176C322.5,236.263,317.46,239.976,314.222,238.648Z" fill="#de4948" stroke="#263238" stroke-miterlimit="10" stroke-width="0.54"/>
        <line id="Line_119" data-name="Line 119" y1="3.076" x2="4.954" transform="translate(314.222 235.572)" fill="none" stroke="#263238" stroke-miterlimit="10" stroke-width="0.54"/>
        <line id="Line_120" data-name="Line 120" y1="3.853" x2="3.648" transform="translate(312.733 227.359)" fill="none" stroke="#263238" stroke-miterlimit="10" stroke-width="0.54"/>
        <path id="Path_13400" data-name="Path 13400" d="M315.269,228.514a4.1,4.1,0,0,1,1.446-3.087c.939-.842,5.861-2.914,6.325-1.187C323.559,226.128,318.518,229.9,315.269,228.514Z" fill="#de4948" stroke="#263238" stroke-miterlimit="10" stroke-width="0.54"/>
        <line id="Line_121" data-name="Line 121" y1="3.076" x2="4.965" transform="translate(315.269 225.438)" fill="none" stroke="#263238" stroke-miterlimit="10" stroke-width="0.54"/>
        <line id="Line_122" data-name="Line 122" y1="3.853" x2="3.637" transform="translate(314.276 212.507)" fill="none" stroke="#263238" stroke-miterlimit="10" stroke-width="0.54"/>
        <path id="Path_13401" data-name="Path 13401" d="M316.813,213.705a4.134,4.134,0,0,1,1.446-3.1c.939-.831,5.861-2.914,6.325-1.176S320.062,214.979,316.813,213.705Z" fill="#de4948" stroke="#263238" stroke-miterlimit="10" stroke-width="0.54"/>
        <line id="Line_123" data-name="Line 123" y1="3.087" x2="4.965" transform="translate(316.813 210.575)" fill="none" stroke="#263238" stroke-miterlimit="10" stroke-width="0.54"/>
        <path id="Path_13402" data-name="Path 13402" d="M315.075,206.819a4.134,4.134,0,0,1,1.446-3.1c.928-.831,5.861-2.914,6.325-1.176S318.313,208.136,315.075,206.819Z" fill="#de4948" stroke="#263238" stroke-miterlimit="10" stroke-width="0.54"/>
        <line id="Line_124" data-name="Line 124" y1="3.087" x2="4.954" transform="translate(315.075 203.732)" fill="none" stroke="#263238" stroke-miterlimit="10" stroke-width="0.54"/>
        <path id="Path_13403" data-name="Path 13403" d="M315.269,207.035a4.134,4.134,0,0,1-2.914-1.759c-.734-1.025-2.288-6.131-.507-6.422S316.932,203.991,315.269,207.035Z" fill="#de4948" stroke="#263238" stroke-miterlimit="10" stroke-width="0.54"/>
        <line id="Line_125" data-name="Line 125" x1="2.536" y1="5.256" transform="translate(312.733 201.779)" fill="none" stroke="#263238" stroke-miterlimit="10" stroke-width="0.54"/>
        <line id="Line_126" data-name="Line 126" y2="97.441" transform="translate(305.89 175.875)" fill="none" stroke="#263238" stroke-miterlimit="10" stroke-width="0.54"/>
        <line id="Line_127" data-name="Line 127" x1="3.227" y1="4.209" transform="translate(302.738 254.45)" fill="none" stroke="#263238" stroke-miterlimit="10" stroke-width="0.54"/>
        <path id="Path_13404" data-name="Path 13404" d="M303.721,255.712a4.134,4.134,0,0,0-1.079-3.238c-.842-.928-5.526-3.5-6.174-1.813S300.353,256.695,303.721,255.712Z" fill="#de4948" stroke="#263238" stroke-miterlimit="10" stroke-width="0.54"/>
        <line id="Line_128" data-name="Line 128" x1="4.36" y1="3.389" transform="translate(299.36 252.323)" fill="none" stroke="#263238" stroke-miterlimit="10" stroke-width="0.54"/>
        <line id="Line_129" data-name="Line 129" x1="3.227" y1="4.209" transform="translate(302.738 236.144)" fill="none" stroke="#263238" stroke-miterlimit="10" stroke-width="0.54"/>
        <path id="Path_13405" data-name="Path 13405" d="M303.721,237.45a4.134,4.134,0,0,0-1.079-3.238c-.842-.928-5.526-3.5-6.174-1.824S300.353,238.389,303.721,237.45Z" fill="#de4948" stroke="#263238" stroke-miterlimit="10" stroke-width="0.54"/>
        <line id="Line_130" data-name="Line 130" x1="4.36" y1="3.4" transform="translate(299.36 234.007)" fill="none" stroke="#263238" stroke-miterlimit="10" stroke-width="0.54"/>
        <line id="Line_131" data-name="Line 131" x1="3.227" y1="4.209" transform="translate(302.738 214.644)" fill="none" stroke="#263238" stroke-miterlimit="10" stroke-width="0.54"/>
        <path id="Path_13406" data-name="Path 13406" d="M303.721,215.864a4.134,4.134,0,0,0-1.079-3.238c-.842-.928-5.526-3.5-6.174-1.824S300.353,216.943,303.721,215.864Z" fill="#de4948" stroke="#263238" stroke-miterlimit="10" stroke-width="0.54"/>
        <line id="Line_132" data-name="Line 132" x1="4.36" y1="3.389" transform="translate(299.36 212.518)" fill="none" stroke="#263238" stroke-miterlimit="10" stroke-width="0.54"/>
        <line id="Line_133" data-name="Line 133" x1="3.227" y1="4.209" transform="translate(302.738 200.333)" fill="none" stroke="#263238" stroke-miterlimit="10" stroke-width="0.54"/>
        <path id="Path_13407" data-name="Path 13407" d="M303.721,201.6a4.134,4.134,0,0,0-1.079-3.238c-.842-.928-5.526-3.5-6.174-1.824S300.353,202.578,303.721,201.6Z" fill="#de4948" stroke="#263238" stroke-miterlimit="10" stroke-width="0.54"/>
        <line id="Line_134" data-name="Line 134" x1="4.36" y1="3.389" transform="translate(299.36 198.206)" fill="none" stroke="#263238" stroke-miterlimit="10" stroke-width="0.54"/>
        <line id="Line_135" data-name="Line 135" x1="3.227" y1="4.209" transform="translate(302.738 185.956)" fill="none" stroke="#263238" stroke-miterlimit="10" stroke-width="0.54"/>
        <path id="Path_13408" data-name="Path 13408" d="M303.721,187.219a4.134,4.134,0,0,0-1.079-3.238c-.842-.928-5.526-3.5-6.174-1.824S300.353,188.2,303.721,187.219Z" fill="#de4948" stroke="#263238" stroke-miterlimit="10" stroke-width="0.54"/>
        <line id="Line_136" data-name="Line 136" x1="4.36" y1="3.389" transform="translate(299.36 183.83)" fill="none" stroke="#263238" stroke-miterlimit="10" stroke-width="0.54"/>
        <line id="Line_137" data-name="Line 137" y1="4.209" x2="3.227" transform="translate(305.89 260.041)" fill="none" stroke="#263238" stroke-miterlimit="10" stroke-width="0.54"/>
        <path id="Path_13409" data-name="Path 13409" d="M308.135,261.3a4.1,4.1,0,0,1,1.079-3.238c.842-.928,5.526-3.508,6.174-1.824S311.5,262.275,308.135,261.3Z" fill="#de4948" stroke="#263238" stroke-miterlimit="10" stroke-width="0.54"/>
        <line id="Line_138" data-name="Line 138" y1="3.573" x2="4.619" transform="translate(308.135 257.731)" fill="none" stroke="#263238" stroke-miterlimit="10" stroke-width="0.54"/>
        <line id="Line_139" data-name="Line 139" y1="4.209" x2="3.227" transform="translate(305.89 230.92)" fill="none" stroke="#263238" stroke-miterlimit="10" stroke-width="0.54"/>
        <path id="Path_13410" data-name="Path 13410" d="M308.135,232.183a4.134,4.134,0,0,1,1.079-3.238c.842-.928,5.526-3.5,6.174-1.824S311.5,233.133,308.135,232.183Z" fill="#de4948" stroke="#263238" stroke-miterlimit="10" stroke-width="0.54"/>
        <line id="Line_140" data-name="Line 140" y1="3.573" x2="4.619" transform="translate(308.135 228.611)" fill="none" stroke="#263238" stroke-miterlimit="10" stroke-width="0.54"/>
        <line id="Line_141" data-name="Line 141" y1="4.209" x2="3.227" transform="translate(305.89 216.544)" fill="none" stroke="#263238" stroke-miterlimit="10" stroke-width="0.54"/>
        <path id="Path_13411" data-name="Path 13411" d="M308.135,217.807a4.134,4.134,0,0,1,1.079-3.238c.842-.928,5.526-3.5,6.174-1.824S311.5,218.789,308.135,217.807Z" fill="#de4948" stroke="#263238" stroke-miterlimit="10" stroke-width="0.54"/>
        <line id="Line_142" data-name="Line 142" y1="3.573" x2="4.619" transform="translate(308.135 214.234)" fill="none" stroke="#263238" stroke-miterlimit="10" stroke-width="0.54"/>
        <line id="Line_143" data-name="Line 143" y1="4.209" x2="3.227" transform="translate(305.89 197.548)" fill="none" stroke="#263238" stroke-miterlimit="10" stroke-width="0.54"/>
        <path id="Path_13412" data-name="Path 13412" d="M308.135,198.811a4.134,4.134,0,0,1,1.079-3.238c.842-.928,5.526-3.5,6.174-1.824S311.5,199.793,308.135,198.811Z" fill="#de4948" stroke="#263238" stroke-miterlimit="10" stroke-width="0.54"/>
        <line id="Line_144" data-name="Line 144" y1="3.573" x2="4.619" transform="translate(308.135 195.238)" fill="none" stroke="#263238" stroke-miterlimit="10" stroke-width="0.54"/>
        <line id="Line_145" data-name="Line 145" y1="4.209" x2="3.227" transform="translate(305.89 182.61)" fill="none" stroke="#263238" stroke-miterlimit="10" stroke-width="0.54"/>
        <path id="Path_13413" data-name="Path 13413" d="M308.135,183.873a4.134,4.134,0,0,1,1.079-3.238c.842-.928,5.526-3.5,6.174-1.824S311.5,184.855,308.135,183.873Z" fill="#de4948" stroke="#263238" stroke-miterlimit="10" stroke-width="0.54"/>
        <line id="Line_146" data-name="Line 146" y1="3.573" x2="4.619" transform="translate(308.135 180.3)" fill="none" stroke="#263238" stroke-miterlimit="10" stroke-width="0.54"/>
        <path id="Path_13414" data-name="Path 13414" d="M305.7,177.246a4.134,4.134,0,0,1,1.079-3.238c.842-.928,5.526-3.5,6.174-1.813S309.063,178.228,305.7,177.246Z" fill="#de4948" stroke="#263238" stroke-miterlimit="10" stroke-width="0.54"/>
        <line id="Line_147" data-name="Line 147" y1="3.573" x2="4.619" transform="translate(305.696 173.673)" fill="none" stroke="#263238" stroke-miterlimit="10" stroke-width="0.54"/>
        <path id="Path_13415" data-name="Path 13415" d="M305.922,177.451a4.134,4.134,0,0,1-3.087-1.457c-.831-.939-2.9-5.861-1.166-6.325S307.25,174.2,305.922,177.451Z" fill="#de4948" stroke="#263238" stroke-miterlimit="10" stroke-width="0.54"/>
        <line id="Line_148" data-name="Line 148" x1="3.065" y1="4.965" transform="translate(302.857 172.486)" fill="none" stroke="#263238" stroke-miterlimit="10" stroke-width="0.54"/>
        <path id="Path_13416" data-name="Path 13416" d="M309.894,298.583H299.576l-1.3-26.055H311.19Z" fill="#2c272e" stroke="#263238" stroke-miterlimit="10" stroke-width="1.079"/>
        <line id="Line_149" data-name="Line 149" x2="39.654" transform="translate(285.318 298.583)" fill="none" stroke="#263238" stroke-miterlimit="10" stroke-width="1.079"/>
        <line id="Line_150" data-name="Line 150" x2="271.255" transform="translate(10.556 298.583)" fill="none" stroke="#263238" stroke-miterlimit="10" stroke-width="1.079"/>
      </g>
    </g>
  </g>
</svg>
