<svg xmlns="http://www.w3.org/2000/svg" width="24" height="24" viewBox="0 0 24 24">
  <g id="money_icon" transform="translate(16645 5754)">
    <path id="Icon_material-attach-money" data-name="Icon material-attach-money" d="M16.308,14.343c-2.828-.735-3.738-1.5-3.738-2.679,0-1.358,1.258-2.3,3.364-2.3,2.218,0,3.04,1.059,3.115,2.616H21.8a4.966,4.966,0,0,0-4-4.747V4.5H14.065V7.191c-2.417.523-4.361,2.093-4.361,4.5,0,2.878,2.38,4.311,5.856,5.146,3.115.748,3.738,1.844,3.738,3,0,.86-.61,2.23-3.364,2.23-2.567,0-3.576-1.146-3.713-2.616H9.48c.15,2.729,2.193,4.261,4.585,4.772v2.7H17.8V24.248c2.43-.461,4.361-1.869,4.361-4.423C22.163,16.286,19.136,15.078,16.308,14.343Z" transform="translate(-16648.822 -5757.713)" fill="none" stroke="#dd4a48" stroke-width="0.9"/>
    <rect id="Rectangle_17442" data-name="Rectangle 17442" width="24" height="24" transform="translate(-16645 -5754)" fill="none"/>
  </g>
</svg>
