<svg xmlns="http://www.w3.org/2000/svg" width="295" height="222.685" viewBox="0 0 295 222.685">
  <g id="no_notification" transform="translate(-40 -183.315)">
    <g id="Group_6987" data-name="Group 6987" transform="translate(12100 6726)">
      <g id="Group_6984" data-name="Group 6984" transform="translate(-13597.847 -6876.58)">
        <path id="Path_2845" data-name="Path 2845" d="M1722.861,450.378c1.428.041,1.732.319,2.07,1.755a78.08,78.08,0,0,1,1.646,16.483c.078,4.023.08,8.048.212,12.069a31.657,31.657,0,0,0,1.181,8.754c1.027,3.193,2.456,4.314,5.809,4.529a9.127,9.127,0,0,1,7.525,13.873,8.864,8.864,0,0,1-8.17,4.487q-10.627.031-21.253-.019c-.9-.006-1.14.25-1.239,1.107-.775,6.736-6.857,12.884-13.732,13.947a16.815,16.815,0,0,1-18.9-11.593,10.852,10.852,0,0,1-.586-2.708c-.033-.558-.249-.754-.828-.741-1.753.038-3.508.019-5.261.012-1.323-.005-1.689-.285-2.063-1.532a1.5,1.5,0,0,1,1.412-1.822c.5-.081,1.016,0,1.522-.061q29.919-.023,59.837-.007a11.7,11.7,0,0,0,2.766-.244,5.675,5.675,0,0,0,.59-10.874,8.8,8.8,0,0,0-3.049-.409q-29.557.007-59.115,0c-.344,0-.688.009-1.031,0-5.8-.042-11.6-.09-17.4.016a5.676,5.676,0,0,0-5.708,7.087,5.853,5.853,0,0,0,5.944,4.436c2.883.045,5.766.008,8.65.013a5.329,5.329,0,0,1,1.231.075,1.5,1.5,0,0,1,1.234,1.785c-.133.889-.617,1.523-1.533,1.516-3.813-.032-7.636.27-11.437-.153a9.112,9.112,0,0,1-7.524-7.1,9.306,9.306,0,0,1,4.225-9.753,10.058,10.058,0,0,1,4.591-1.345c3.129-.173,4.632-1.353,5.623-4.355a31.067,31.067,0,0,0,1.217-8.539c.256-6.08.065-12.171.429-18.248.352-5.883,1.181-11.673,3.535-17.148a24.184,24.184,0,0,1,14.811-13.822,28.718,28.718,0,0,1,3.96-1.1c.408-.08.749-.186.81-.741a9.232,9.232,0,0,1,7.9-7.931c.055-.007.1-.082.151-.125h2.27a11.435,11.435,0,0,1,4.794,2.155,8.9,8.9,0,0,1,3.215,5.562,1.2,1.2,0,0,0,1.134,1.149,26.838,26.838,0,0,1,11.2,5.109,24.79,24.79,0,0,1,7.165,9.39,1.709,1.709,0,0,1-.724,2.37,1.522,1.522,0,0,1-2.207-.7c-.413-.633-.666-1.352-1.031-2.014-3.429-6.215-8.848-9.572-15.657-10.941a44.677,44.677,0,0,0-12.894-.7c-1.2.108-2.389.218-3.572.435-6.763,1.1-12.52,3.881-16.348,9.836a28.005,28.005,0,0,0-3.655,9.042,71.8,71.8,0,0,0-1.493,11.95c-.235,4.2.006,8.39-.19,12.576a72.358,72.358,0,0,1-.787,10.37,17.133,17.133,0,0,1-1.755,5.366c-.343.6-.208.8.45.759.171-.012.344,0,.516,0h61.279c.172,0,.344,0,.516,0,.9-.025.922-.056.516-.842a22.926,22.926,0,0,1-1-2.377,32.592,32.592,0,0,1-1.293-8.426c-.273-4.557-.179-9.125-.253-13.688a76.414,76.414,0,0,0-1.411-14.836,4.527,4.527,0,0,1-.153-1.836C1721.693,450.943,1721.95,450.315,1722.861,450.378Z" fill="#2c272e"/>
        <path id="Path_2846" data-name="Path 2846" d="M1682.279,895.3c-.294-1.237-.7-1.57-2-1.574-3.089-.008-6.178.024-9.267-.011a6.061,6.061,0,0,1-6.168-4.984,5.952,5.952,0,0,1,5.835-7.117c5.832-.1,11.667-.011,17.5,0,.031.372-.284.52-.486.735a7.419,7.419,0,0,0-.047,10.524c.222.24.583.4.538.815-.305.013-.611.046-.916.035a1.663,1.663,0,0,0-1.875,1.587Z" transform="translate(-16.119 -384.504)" fill="#fff"/>
        <path id="Path_2847" data-name="Path 2847" d="M2107.019,489.195c.033.515.086,1.029.095,1.544.019,1.13-.532,1.83-1.458,1.886-.965.058-1.613-.511-1.668-1.669a43.761,43.761,0,0,0-.728-7.165c-1.435-6.682-4.54-12.317-10.235-16.33-.957-.674-1.21-1.581-.665-2.354a1.661,1.661,0,0,1,2.465-.2,26.611,26.611,0,0,1,9.473,11.8A34.213,34.213,0,0,1,2107.019,489.195Z" transform="translate(-373.605 -35.57)" fill="#2c272e"/>
        <path id="Path_2848" data-name="Path 2848" d="M1714.742,464.431a1.458,1.458,0,0,1,1.5,1.027,1.531,1.531,0,0,1-.69,1.874,21.374,21.374,0,0,0-5.177,4.829,28.39,28.39,0,0,0-5.663,14.361c-.175,1.473-.158,2.951-.276,4.422-.091,1.142-.732,1.719-1.694,1.651-.926-.065-1.467-.771-1.44-1.9a36.953,36.953,0,0,1,2.814-14.037,26.991,26.991,0,0,1,9.147-11.563A2.7,2.7,0,0,1,1714.742,464.431Z" transform="translate(-46.695 -35.543)" fill="#2c272e"/>
        <path id="Path_2849" data-name="Path 2849" d="M2175.079,484.492c0,.021,0,.227,0,.433.005,1.207-.539,1.92-1.494,1.959s-1.587-.673-1.619-1.856a21.186,21.186,0,0,0-.8-5.585,15.712,15.712,0,0,0-5.158-8.106c-.992-.789-1.178-1.725-.571-2.473s1.542-.745,2.538.061a19.064,19.064,0,0,1,6.656,11.5A22.553,22.553,0,0,1,2175.079,484.492Z" transform="translate(-434.688 -38.792)" fill="#2c272e"/>
        <path id="Path_2850" data-name="Path 2850" d="M1659.179,484.087a20.64,20.64,0,0,1,5.962-14.175,13.348,13.348,0,0,1,1.336-1.127,1.567,1.567,0,1,1,1.9,2.451,16.083,16.083,0,0,0-5.576,9.345,20.8,20.8,0,0,0-.5,4.183c-.041,1.4-.572,2.126-1.56,2.135-1.03.009-1.58-.773-1.558-2.215C1659.181,484.547,1659.179,484.41,1659.179,484.087Z" transform="translate(-11.454 -38.798)" fill="#2c272e"/>
        <path id="Path_2851" data-name="Path 2851" d="M1768.909,492.55c-3.314,2.692-5.074,6.317-6.193,10.326a66.617,66.617,0,0,0-2.1,13.259c-.259,3.631-.371,7.26-.4,10.9-.032,4.808-.176,9.616-.164,14.424a7.7,7.7,0,0,0,4.47,7.31,7.417,7.417,0,0,0,3.381.763q19.6-.005,39.192-.007a19.6,19.6,0,0,0,1.78,3.443h-65.1c-.015-.036-.077-.118-.058-.147,2.375-3.65,2.646-7.818,2.878-11.972.271-4.842.147-9.7.273-14.542a64.956,64.956,0,0,1,2.215-16.911c2.61-8.811,8.3-14.343,17.291-16.412A10.282,10.282,0,0,1,1768.909,492.55Z" transform="translate(-82.178 -59.065)" fill="#fff"/>
        <path id="Path_2852" data-name="Path 2852" d="M1850.781,489.415a17.087,17.087,0,0,1,3.974-.5,41.631,41.631,0,0,1,16.182,1.781,20.909,20.909,0,0,1,12.7,11.319c.71,1.522,1,1.7,2.381,1.592l.889,2.7a1.768,1.768,0,0,0-1.022,2.3c1.347,5.724,1.538,11.556,1.622,17.4.076,5.322-.009,10.648.586,15.952.169,1.5.566,2.958.874,4.432a1.6,1.6,0,0,1-1.263.307c-12.687.007-25.374.035-38.061-.012-4.547-.017-7.932-3.6-8.047-8.364-.062-2.577.085-5.15.167-7.726.114-3.538-.049-7.084.046-10.623a92.255,92.255,0,0,1,1.789-17.61,27.035,27.035,0,0,1,3.758-9.647A7.873,7.873,0,0,1,1850.781,489.415Z" transform="translate(-164.05 -55.93)" fill="#dd4a48"/>
        <path id="Path_2853" data-name="Path 2853" d="M1793.006,893.735a7.653,7.653,0,0,1-.006-12.074c.274-.011.548-.033.823-.033q30.014,0,60.028,0c3.441,0,5.948,1.943,6.484,4.992a6.041,6.041,0,0,1-5.757,7.134c-.24.018-.481.016-.722.016q-30.014,0-60.028,0C1793.554,893.771,1793.28,893.747,1793.006,893.735Z" transform="translate(-120.941 -384.556)" fill="#dd4a48"/>
        <path id="Path_2854" data-name="Path 2854" d="M1874.768,986.958c-4.673.83-10.315-1.966-13.019-6.442a14.61,14.61,0,0,1-1.82-4.786c-.108-.549-.012-.789.637-.787q12.843.029,25.686,0c.618,0,.8.2.661.769a10.387,10.387,0,0,1-.756,2.546,27.809,27.809,0,0,1-3.7.072c-3.056.019-6.112.006-9.168.007a7.444,7.444,0,0,0-1.538.1,2.717,2.717,0,0,0-1.623,4.519,13.807,13.807,0,0,0,3.73,3.207C1874.213,986.365,1874.6,986.536,1874.768,986.958Z" transform="translate(-179.365 -462.622)" fill="#fff"/>
        <path id="Path_2855" data-name="Path 2855" d="M1921.805,1002.9a14.033,14.033,0,0,1-4.964-3.895,2.8,2.8,0,0,1-.469-3.066,2.875,2.875,0,0,1,2.791-1.913c4.524-.049,9.048-.021,13.572-.011a1.4,1.4,0,0,1,.461.185A13.407,13.407,0,0,1,1921.805,1002.9Z" transform="translate(-226.402 -478.56)" fill="#dd4a48"/>
        <path id="Path_2856" data-name="Path 2856" d="M1905.948,445.979a6.175,6.175,0,0,1,5.776-4.857,6.262,6.262,0,0,1,6.012,4.013c.1.275.705,1-.362.9a60.244,60.244,0,0,0-11.1.007A1.314,1.314,0,0,1,1905.948,445.979Z" transform="translate(-217.895 -16.035)" fill="#dd4a48"/>
      </g>
    </g>
    <g id="Group_6986" data-name="Group 6986" transform="translate(18137 6269)">
      <g id="Group_6966" data-name="Group 6966">
        <g id="Group_6965" data-name="Group 6965">
          <g id="Group_6963" data-name="Group 6963" transform="translate(-18135 -6163.667)">
            <g id="Group_6937" data-name="Group 6937">
              <g id="Group_6932" data-name="Group 6932" transform="translate(-192.544 -285.889)">
                <g id="Group_6930" data-name="Group 6930" transform="translate(308.441 422.596)">
                  <g id="Group_6925" data-name="Group 6925" transform="translate(0)">
                    <path id="Path_2771" data-name="Path 2771" d="M453.3,523.812h-2.1a1.7,1.7,0,0,1-1.619-2.208h0c.775-2.461,1.677-4.907,2.677-7.275a81.957,81.957,0,0,1,129.576-29.743,1.7,1.7,0,0,1,.078,2.477l-1.445,1.445a1.694,1.694,0,0,1-2.314.078,76.557,76.557,0,0,0-123.235,34.053v0A1.7,1.7,0,0,1,453.3,523.812Z" transform="translate(-449.496 -464.26)" fill="#2c272e"/>
                    <path id="Path_2772" data-name="Path 2772" d="M609.771,634.259A82,82,0,0,1,452.253,666.17c-1-2.368-1.9-4.815-2.677-7.276h0a1.7,1.7,0,0,1,1.619-2.208h2.1a1.7,1.7,0,0,1,1.614,1.172v0a76.587,76.587,0,1,0,135.9-67.074,1.693,1.693,0,0,1,.2-2.159l1.466-1.466a1.7,1.7,0,0,1,2.59.223,81.873,81.873,0,0,1,13.089,30.56A82.365,82.365,0,0,1,609.771,634.259Z" transform="translate(-449.496 -552.28)" fill="#2c272e"/>
                  </g>
                </g>
                <rect id="Rectangle_17349" data-name="Rectangle 17349" width="39.392" height="6.568" rx="3.284" transform="translate(274.547 475.581)" fill="#2c272e"/>
                <rect id="Rectangle_17350" data-name="Rectangle 17350" width="32.041" height="6.568" rx="3.284" transform="translate(281.897 526.922)" fill="#2c272e"/>
                <rect id="Rectangle_17351" data-name="Rectangle 17351" width="40.83" height="6.568" rx="3.284" transform="translate(271.625 501.938)" fill="#2c272e"/>
                <g id="Group_6931" data-name="Group 6931" transform="translate(306.262 406.32)">
                  <path id="Path_2781" data-name="Path 2781" d="M535.487,410.071v.052a3.2,3.2,0,0,1-3.551,3.175,91.582,91.582,0,0,0-84.4,37.742,3.183,3.183,0,0,1-2.6,1.332h0a3.2,3.2,0,0,1-2.6-5.063,98.51,98.51,0,0,1,10.473-12.342,97.521,97.521,0,0,1,69.159-28.647,99.374,99.374,0,0,1,10.642.569A3.2,3.2,0,0,1,535.487,410.071Z" transform="translate(-441.739 -406.32)" fill="#2c272e"/>
                  <path id="Path_2782" data-name="Path 2782" d="M877.949,452.507l-1.725,1.725a2.023,2.023,0,0,1-2.759.093,91.5,91.5,0,0,0-24.521-15.381A3.2,3.2,0,0,1,846.99,436v-.076a3.193,3.193,0,0,1,4.425-2.951l.044.019a97.361,97.361,0,0,1,26.4,16.559A2.03,2.03,0,0,1,877.949,452.507Z" transform="translate(-733.152 -425.304)" fill="#2c272e"/>
                </g>
              </g>
              <g id="Group_6933" data-name="Group 6933" transform="translate(-2983.66 -1251.905)">
                <path id="Path_2783" data-name="Path 2783" d="M3282.668,1385.108a4.809,4.809,0,0,1,4.694-7.337c.123.017.248.018.372.026a5.216,5.216,0,0,1,2.628,1.6,4.787,4.787,0,1,1-7.46,6C3282.827,1385.3,3282.746,1385.2,3282.668,1385.108Z" transform="translate(-26.959 -28.511)" fill="#dd4a48"/>
                <path id="Path_2784" data-name="Path 2784" d="M3252.681,1438.859a11.087,11.087,0,0,1-.486-1.605c-.074-.367.007-.646.386-.716s.52.206.583.526a4.79,4.79,0,0,0,.554,1.619,6.4,6.4,0,0,0,4.582,3.644,6.184,6.184,0,0,0,2.6.045c.351-.067.647-.025.718.377s-.222.549-.557.6a7.619,7.619,0,0,1-7.069-2.452A7.833,7.833,0,0,1,3252.681,1438.859Z" transform="translate(0 -81.796)" fill="#2c272e"/>
                <path id="Path_2785" data-name="Path 2785" d="M3266.927,1347.31a6.212,6.212,0,0,0-4.157.907,6.6,6.6,0,0,0-2.446,2.526c-.038.068-.075.136-.114.2-.152.262-.366.4-.66.251a.473.473,0,0,1-.2-.715,7.645,7.645,0,0,1,1.99-2.455,7.841,7.841,0,0,1,5.481-1.755c.472.085.946.165,1.417.255.359.069.575.273.462.655s-.414.364-.725.287A3.165,3.165,0,0,0,3266.927,1347.31Z" transform="translate(-6.432)" fill="#2c272e"/>
                <path id="Path_2786" data-name="Path 2786" d="M3387.458,1381.055a7.981,7.981,0,0,1-1.755,4.918c-.078.1-.16.192-.245.283-.22.239-.478.326-.735.084a.482.482,0,0,1,.019-.743,6.721,6.721,0,0,0,.527-8.346c-.026-.039-.052-.078-.081-.115-.208-.268-.273-.558.026-.779.324-.239.573-.06.781.228a7.605,7.605,0,0,1,1.3,2.972A7.865,7.865,0,0,1,3387.458,1381.055Z" transform="translate(-119.964 -27.171)" fill="#2c272e"/>
              </g>
              <g id="Group_6934" data-name="Group 6934" transform="translate(-3156.513 -1075.283)">
                <path id="Path_2783-2" data-name="Path 2783" d="M3282.6,1384.474a4.4,4.4,0,0,1,4.291-6.707c.113.015.227.017.34.024a4.769,4.769,0,0,1,2.4,1.464,4.376,4.376,0,1,1-6.82,5.481C3282.75,1384.646,3282.675,1384.561,3282.6,1384.474Z" transform="translate(-27.199 -28.764)" fill="#dd4a48"/>
                <path id="Path_2784-2" data-name="Path 2784" d="M3252.637,1438.659a10.117,10.117,0,0,1-.444-1.468c-.067-.335.006-.59.353-.654s.475.188.533.48a4.377,4.377,0,0,0,.507,1.48,5.849,5.849,0,0,0,4.188,3.331,5.651,5.651,0,0,0,2.38.041c.321-.061.591-.023.657.344s-.2.5-.51.547a6.965,6.965,0,0,1-6.462-2.241A7.156,7.156,0,0,1,3252.637,1438.659Z" transform="translate(0 -82.523)" fill="#2c272e"/>
                <path id="Path_2785-2" data-name="Path 2785" d="M3266.27,1347.22a5.679,5.679,0,0,0-3.8.829,6.031,6.031,0,0,0-2.236,2.309c-.035.062-.069.125-.1.186-.139.24-.335.365-.6.23a.432.432,0,0,1-.18-.654,6.984,6.984,0,0,1,1.818-2.244,7.169,7.169,0,0,1,5.011-1.6c.431.077.865.151,1.3.234.329.063.525.25.422.6s-.378.333-.663.262A2.891,2.891,0,0,0,3266.27,1347.22Z" transform="translate(-6.488 0)" fill="#2c272e"/>
                <path id="Path_2786-2" data-name="Path 2786" d="M3387.209,1380.643a7.3,7.3,0,0,1-1.605,4.5c-.071.089-.146.175-.224.259-.2.218-.436.3-.671.076a.44.44,0,0,1,.017-.679,6.144,6.144,0,0,0,.481-7.629c-.024-.035-.047-.071-.073-.1-.19-.245-.25-.51.024-.712.3-.219.524-.055.714.208a6.952,6.952,0,0,1,1.193,2.717A7.248,7.248,0,0,1,3387.209,1380.643Z" transform="translate(-121.03 -27.412)" fill="#2c272e"/>
              </g>
              <path id="Path_2787" data-name="Path 2787" d="M2002.882,626.974l6.722-12.636c.908,1.439,1.718,2.706,2.511,3.984,1.583,2.551,3.153,5.11,4.738,7.66.235.378.453.657-.266.677-4.422.12-8.844.259-13.266.389A3.233,3.233,0,0,1,2002.882,626.974Z" transform="matrix(0.438, 0.899, -0.899, 0.438, -139.518, -1797.769)" fill="#dd4a48"/>
              <path id="Path_2788" data-name="Path 2788" d="M2002.882,632.734l9.786-18.4c1.322,2.1,2.5,3.94,3.656,5.8,2.3,3.714,4.59,7.44,6.9,11.152.342.55.66.957-.386.985-6.438.174-12.875.377-19.313.566A4.706,4.706,0,0,1,2002.882,632.734Z" transform="matrix(0.438, 0.899, -0.899, 0.438, -271.212, -1953.777)" fill="#dd4a48"/>
              <path id="Path_2789" data-name="Path 2789" d="M3072,440.028c0,1.1-.018,2.194.009,3.29.011.426-.087.577-.549.578-1.345,0-1.345.026-1.341-1.349,0-1.358-.015-2.716.017-4.073.01-.451-.13-.564-.566-.556-1.54.027-3.082-.019-4.621.03-.7.023-.97-.143-.938-.9.064-1.538.005-3.081.04-4.621.011-.49-.136-.613-.615-.6-1.592.033-3.186,0-4.778.03-.554.012-.726-.175-.714-.719.033-1.592.006-3.186.037-4.778.009-.477-.126-.629-.615-.619-1.592.035-3.186,0-4.778.035-.556.012-.724-.176-.712-.721.033-1.592,0-3.186.032-4.778.011-.484-.12-.63-.605-.618-1.514.035-3.03-.01-4.542.046-.67.025-.909-.124-.875-.848.069-1.459,0-2.925.047-4.385.02-.6-.112-.814-.758-.79-1.513.055-3.029,0-4.542.043-.6.017-.837-.13-.817-.778.047-1.539-.018-3.082.041-4.621.024-.627-.188-.731-.746-.716-1.513.04-3.029,0-4.542.041-.546.015-.765-.136-.684-.689a2.611,2.611,0,0,0,0-.7c-.056-.433.144-.511.533-.509,2.246.011,4.491.014,6.736-.021.526-.008.587.2.58.644-.025,1.619.007,3.238-.029,4.857-.011.495.138.609.612.6,1.618-.033,3.238,0,4.856-.036.53-.012.66.161.649.666-.034,1.566,0,3.134-.034,4.7-.011.508.122.677.65.664,1.565-.04,3.133-.009,4.7-.042.5-.011.675.114.662.649-.041,1.618,0,3.238-.035,4.856-.011.5.141.608.614.6,1.592-.033,3.187.013,4.778-.037.612-.019.739.183.724.751-.041,1.592,0,3.186-.039,4.778-.011.489.131.611.609.6,1.618-.033,3.238.008,4.856-.032.53-.013.648.153.637.653-.034,1.618,0,3.238-.035,4.856-.01.477.109.627.6.616,1.592-.034,3.186.008,4.778-.03.553-.013.776.082.741.705-.061,1.093-.017,2.192-.017,3.289Z" transform="translate(-2739.033 -204.723)" fill="#2c272e"/>
              <g id="Group_6935" data-name="Group 6935" transform="translate(-2522.903 -1255.044)">
                <path id="Path_2790" data-name="Path 2790" d="M2665.994,1351.079c-.125-.081-.249-.229-.375-.232-1.755-.041-1.734-1.049-1.519-2.427.752-4.8,1.423-9.621,2.054-14.442.126-.965.4-1.035,1.315-.9q7.579,1.15,15.188,2.1c1.067.135,1.351.437,1.031,1.483-.2.647-.064,1.388-.335,2.049a2.344,2.344,0,0,1,.285,1.865c-.48,3.508-1.03,7.007-1.466,10.522-.258,2.084-.542,2.279-2.583,2.024-4.157-.52-8.3-1.137-12.449-1.735A2.756,2.756,0,0,1,2665.994,1351.079Z" fill="#dd4a48"/>
                <path id="Path_2791" data-name="Path 2791" d="M2669.929,1364.332c1.957-.391,3.819.325,5.722.527,2.968.314,5.92.792,8.872,1.241.613.093.876.036.966-.668.572-4.492,1.193-8.979,1.8-13.468,2.3.124,2.346.13,2.048,2.328-.655,4.842-1.373,9.676-2.023,14.519-.1.719-.186,1.018-1.059.886q-7.764-1.172-15.552-2.191c-.864-.114-1.285-.253-.979-1.246A9.756,9.756,0,0,0,2669.929,1364.332Z" transform="translate(-3.936 -13.253)" fill="#2c272e"/>
              </g>
            </g>
          </g>
        </g>
      </g>
    </g>
  </g>
</svg>
