<svg xmlns="http://www.w3.org/2000/svg" width="24" height="24" viewBox="0 0 24 24">
  <g id="notification" transform="translate(-336.137 -72.228)">
    <rect id="Rectangle_17435" data-name="Rectangle 17435" width="24" height="24" transform="translate(336.137 72.228)" fill="none"/>
    <g id="Icon_feather-shopping-bag" data-name="Icon feather-shopping-bag" transform="translate(337.023 72.228)">
      <path id="Path_2740" data-name="Path 2740" d="M690.076,675.555c-.41-.68-.894-1.307-1.33-1.967a6.157,6.157,0,0,1-1.092-2.725c-.18-1.745-.258-3.5-.392-5.25a9.514,9.514,0,0,0-1.45-4.525,6.246,6.246,0,0,0-4.87-3.028,22.587,22.587,0,0,0-3.019-.024,6.07,6.07,0,0,0-3.9,1.574,8.429,8.429,0,0,0-2.633,5.23,45.514,45.514,0,0,0-.37,4.767,7.717,7.717,0,0,1-1.325,4.184c-.415.6-.826,1.2-1.2,1.829a1.89,1.89,0,0,0-.3,1.2,1.949,1.949,0,0,0,1.966,1.741c2.139.005,4.278,0,6.417,0a.591.591,0,0,1,.281.021,2.61,2.61,0,0,0,.971,2.962,2.581,2.581,0,0,0,2.889.024,2.627,2.627,0,0,0,1.006-3.009h.319c2.121,0,4.242.008,6.363,0a1.937,1.937,0,0,0,1.769-1.053A1.822,1.822,0,0,0,690.076,675.555ZM679.3,680.268a.855.855,0,1,1,.85-.872A.858.858,0,0,1,679.3,680.268Zm9.392-3.551c-.089.147-.262.129-.412.129q-1.337,0-2.674,0H679.32q-4.438,0-8.877,0c-.182,0-.4.052-.508-.144-.091-.174.074-.315.16-.451.5-.8,1.024-1.583,1.518-2.386a7.316,7.316,0,0,0,1.059-3.537c.084-1.663.215-3.326.376-4.984a7.463,7.463,0,0,1,1.045-3.166,4.658,4.658,0,0,1,3.775-2.419,18.55,18.55,0,0,1,2.858,0,4.68,4.68,0,0,1,3.851,2.564,8.486,8.486,0,0,1,1.027,3.641c.128,1.742.243,3.484.387,5.225a5.969,5.969,0,0,0,.97,2.63c.522.848,1.075,1.678,1.611,2.517C688.646,676.449,688.779,676.568,688.689,676.717Z" transform="translate(-668.184 -657.997)"/>
    </g>
  </g>
</svg>
