<svg xmlns="http://www.w3.org/2000/svg" width="183.102" height="199.102" viewBox="0 0 183.102 199.102">
  <g id="notification_thumb" transform="translate(0 0)">
    <g id="Group_6984" data-name="Group 6984">
      <path id="Path_2845" data-name="Path 2845" d="M1791.322,475.537c2.691.077,3.265.6,3.9,3.307,2.405,10.22,2.9,20.63,3.1,31.068.147,7.582.151,15.168.4,22.747.183,5.561.5,11.13,2.227,16.5,1.936,6.018,4.629,8.131,10.949,8.537,13.412.862,20.9,14.522,14.183,26.148-3.355,5.809-8.76,8.438-15.4,8.457q-20.029.06-40.059-.035c-1.689-.011-2.149.472-2.335,2.087-1.461,12.7-12.925,24.284-25.883,26.287a31.694,31.694,0,0,1-35.617-21.852,20.487,20.487,0,0,1-1.1-5.1c-.062-1.051-.469-1.421-1.561-1.4-3.3.072-6.61.036-9.917.022-2.493-.01-3.183-.537-3.889-2.887a2.835,2.835,0,0,1,2.662-3.434c.949-.153,1.914.007,2.867-.115q56.394-.044,112.783-.013a22.033,22.033,0,0,0,5.214-.46,10.7,10.7,0,0,0,1.113-20.5,16.6,16.6,0,0,0-5.748-.772q-55.708.013-111.42.005c-.647,0-1.3.018-1.943-.008-10.931-.079-21.864-.168-32.793.031-7.566.138-12.229,6.154-10.758,13.357.992,4.857,5.492,8.272,11.2,8.361,5.435.084,10.868.015,16.3.024a10.052,10.052,0,0,1,2.321.141,2.817,2.817,0,0,1,2.325,3.365c-.251,1.676-1.162,2.871-2.891,2.857-7.187-.061-14.393.509-21.558-.289-6.772-.755-12.822-6.608-14.181-13.385a17.539,17.539,0,0,1,7.963-18.384,18.959,18.959,0,0,1,8.651-2.534c5.9-.325,8.729-2.551,10.6-8.209,1.727-5.229,2.066-10.666,2.295-16.094.481-11.459.123-22.941.809-34.394.665-11.088,2.226-22,6.663-32.322a45.583,45.583,0,0,1,27.917-26.053,54.155,54.155,0,0,1,7.465-2.074c.769-.152,1.412-.35,1.525-1.4a17.4,17.4,0,0,1,14.887-14.948c.1-.012.19-.154.285-.234h4.279c3.241.841,6.4,1.808,9.036,4.062a16.77,16.77,0,0,1,6.06,10.484,2.261,2.261,0,0,0,2.137,2.166,50.589,50.589,0,0,1,21.114,9.629,46.731,46.731,0,0,1,13.5,17.7c.875,1.929.308,3.35-1.365,4.466-1.625.877-3,.465-4.159-1.312-.779-1.193-1.255-2.548-1.943-3.8-6.463-11.713-16.677-18.041-29.51-20.623a84.206,84.206,0,0,0-24.3-1.324c-2.255.2-4.5.411-6.732.82-12.748,2.068-23.6,7.314-30.812,18.54a52.791,52.791,0,0,0-6.89,17.042,135.249,135.249,0,0,0-2.813,22.524c-.442,7.908.011,15.813-.358,23.7-.306,6.522-.239,13.087-1.482,19.545a32.3,32.3,0,0,1-3.308,10.115c-.646,1.13-.392,1.514.848,1.43.324-.022.648,0,.973,0h115.5c.324,0,.648.008.972,0,1.691-.048,1.737-.107.973-1.588a43.176,43.176,0,0,1-1.879-4.479c-1.714-5.155-2.116-10.527-2.437-15.881-.516-8.589-.338-17.2-.479-25.8-.152-9.377-.682-18.746-2.658-27.963a8.545,8.545,0,0,1-.288-3.46C1789.122,476.6,1789.606,475.417,1791.322,475.537Z" transform="translate(-1645.485 -421.945)" fill="#2c272e"/>
      <path id="Path_2846" data-name="Path 2846" d="M1697.785,907.448c-.554-2.33-1.32-2.959-3.774-2.965-5.821-.016-11.644.046-17.465-.021-6.021-.068-10.748-3.946-11.625-9.394-1.145-7.106,3.714-13.289,11-13.415,10.991-.189,21.991-.021,32.984,0,.061.7-.534.98-.914,1.385-5.529,5.907-5.563,13.9-.087,19.836.415.453,1.1.746,1.015,1.536-.576.024-1.152.086-1.727.066-2.095-.072-3.206.991-3.534,2.991Z" transform="translate(-1658.819 -739.987)" fill="#fff"/>
      <path id="Path_2847" data-name="Path 2847" d="M2120.239,511.077c.064.97.163,1.939.18,2.91.036,2.13-1,3.45-2.748,3.555-1.817.109-3.041-.963-3.144-3.145a82.324,82.324,0,0,0-1.373-13.5c-2.7-12.6-8.555-23.216-19.29-30.779-1.8-1.271-2.279-2.979-1.254-4.437,1.013-1.437,2.809-1.636,4.645-.379a50.164,50.164,0,0,1,17.858,22.24A64.494,64.494,0,0,1,2120.239,511.077Z" transform="translate(-1954.512 -451.367)" fill="#2c272e"/>
      <path id="Path_2848" data-name="Path 2848" d="M1726.634,464.431a2.748,2.748,0,0,1,2.832,1.935,2.887,2.887,0,0,1-1.3,3.532,40.268,40.268,0,0,0-9.76,9.1,53.5,53.5,0,0,0-10.673,27.068c-.329,2.775-.3,5.562-.52,8.335-.173,2.152-1.38,3.24-3.193,3.113-1.745-.122-2.766-1.452-2.716-3.581.214-9.13,1.641-18.019,5.3-26.458a50.874,50.874,0,0,1,17.241-21.795A5.076,5.076,0,0,1,1726.634,464.431Z" transform="translate(-1684.11 -451.344)" fill="#2c272e"/>
      <path id="Path_2849" data-name="Path 2849" d="M2183.912,498.807v.816c.014,2.274-1.012,3.619-2.814,3.692-1.779.072-2.992-1.268-3.051-3.5a40.021,40.021,0,0,0-1.5-10.526c-1.807-6-4.719-11.3-9.723-15.278-1.867-1.487-2.219-3.252-1.074-4.66s2.9-1.4,4.783.114c6.947,5.616,10.795,13.049,12.547,21.675A42.463,42.463,0,0,1,2183.912,498.807Z" transform="translate(-2005.037 -454.031)" fill="#2c272e"/>
      <path id="Path_2850" data-name="Path 2850" d="M1659.179,498.035c.5-10.022,3.717-19.267,11.238-26.716a24.972,24.972,0,0,1,2.519-2.125c1.646-1.249,3.406-1.139,4.465.222s.8,3.067-.888,4.4c-5.752,4.545-8.862,10.645-10.51,17.615a39.027,39.027,0,0,0-.948,7.883c-.078,2.648-1.079,4.007-2.94,4.024-1.94.018-2.977-1.457-2.936-4.175C1659.182,498.9,1659.179,498.643,1659.179,498.035Z" transform="translate(-1654.959 -454.037)" fill="#2c272e"/>
      <path id="Path_2851" data-name="Path 2851" d="M1791.2,492.551c-6.246,5.074-9.563,11.907-11.674,19.462A125.453,125.453,0,0,0,1775.568,537c-.489,6.844-.7,13.685-.748,20.54-.061,9.062-.328,18.125-.306,27.186.015,6.2,2.794,10.936,8.423,13.778a13.986,13.986,0,0,0,6.373,1.438q36.936-.01,73.869-.012a36.973,36.973,0,0,0,3.354,6.488h-122.7c-.028-.068-.146-.222-.109-.276,4.477-6.88,4.987-14.736,5.425-22.565.511-9.126.278-18.274.515-27.408.281-10.759,1.092-21.461,4.176-31.873,4.919-16.606,15.646-27.034,32.592-30.935A19.392,19.392,0,0,1,1791.2,492.551Z" transform="translate(-1713.459 -470.8)" fill="#fff"/>
      <path id="Path_2852" data-name="Path 2852" d="M1858.92,489.958a32.2,32.2,0,0,1,7.488-.937c10.353-.625,20.592-.032,30.5,3.356a39.408,39.408,0,0,1,23.943,21.335c1.338,2.868,1.887,3.206,4.489,3q.838,2.542,1.675,5.085c-1.981.848-2.371,2.441-1.927,4.332,2.539,10.789,2.9,21.781,3.057,32.789.146,10.031-.018,20.07,1.105,30.067.318,2.836,1.067,5.575,1.647,8.353a3.015,3.015,0,0,1-2.38.579c-23.914.012-47.827.066-71.739-.022-8.571-.032-14.95-6.778-15.168-15.764-.117-4.857.158-9.708.316-14.562.213-6.668-.094-13.352.085-20.022.3-11.14.943-22.264,3.372-33.192,1.427-6.417,3.315-12.676,7.085-18.182C1854.187,493.666,1855.915,491.143,1858.92,489.958Z" transform="translate(-1781.18 -468.207)" fill="#dd4a48"/>
      <path id="Path_2853" data-name="Path 2853" d="M1795.618,904.448a14.424,14.424,0,0,1-.01-22.757c.517-.022,1.033-.062,1.551-.062q56.569,0,113.142,0c6.485,0,11.212,3.662,12.221,9.41,1.216,6.919-3.6,12.894-10.852,13.447-.451.035-.905.031-1.359.031q-56.569,0-113.142,0C1796.652,904.516,1796.136,904.472,1795.618,904.448Z" transform="translate(-1745.522 -740.029)" fill="#dd4a48"/>
      <path id="Path_2854" data-name="Path 2854" d="M1887.931,997.59c-8.808,1.564-19.44-3.7-24.539-12.141a27.563,27.563,0,0,1-3.43-9.022c-.2-1.035-.021-1.486,1.2-1.484q24.205.054,48.413,0c1.166,0,1.5.372,1.247,1.45a19.6,19.6,0,0,1-1.425,4.8,52.38,52.38,0,0,1-6.976.134c-5.76.036-11.521.011-17.28.012a14.046,14.046,0,0,0-2.9.2c-4.141.867-5.787,5.3-3.058,8.517a26.011,26.011,0,0,0,7.03,6.045C1886.885,996.473,1887.619,996.795,1887.931,997.59Z" transform="translate(-1793.847 -804.602)" fill="#fff"/>
      <path id="Path_2855" data-name="Path 2855" d="M1926.838,1010.773c-3.783-1.6-6.7-4.33-9.358-7.34a5.281,5.281,0,0,1-.884-5.779,5.419,5.419,0,0,1,5.26-3.606c8.525-.094,17.055-.04,25.581-.02a2.606,2.606,0,0,1,.868.349C1945.542,1003.05,1936.1,1010.266,1926.838,1010.773Z" transform="translate(-1832.753 -817.784)" fill="#dd4a48"/>
      <path id="Path_2856" data-name="Path 2856" d="M1905.948,450.284a11.64,11.64,0,0,1,10.886-9.154,11.8,11.8,0,0,1,11.331,7.564c.182.518,1.33,1.893-.68,1.7a113.625,113.625,0,0,0-20.916.014A2.456,2.456,0,0,1,1905.948,450.284Z" transform="translate(-1825.718 -435.208)" fill="#dd4a48"/>
    </g>
  </g>
</svg>
