<svg xmlns="http://www.w3.org/2000/svg" width="295" height="222.684" viewBox="0 0 295 222.684">
  <g id="order_cancel" transform="translate(13591 -795)">
    <g id="Group_7098" data-name="Group 7098" transform="translate(-15252.56 839.212)">
      <path id="Path_12229" data-name="Path 12229" d="M1770.739,123.335c2.382-5.043,5.4-9.731,8.172-14.554Q1794.38,81.864,1809.934,55a7.771,7.771,0,0,1,7.28-4.34,7.2,7.2,0,0,1,6.315,3.612c2.655,4.449,5.21,8.958,7.8,13.443q4.094,7.081,8.179,14.167c.716,1.243.609,1.875-.425,2.865a1.768,1.768,0,0,1-2.677-.607c-.72-1.117-1.358-2.285-2.021-3.437-3.544-6.15-7.083-12.3-10.668-18.43-1-1.866-2.072-3.688-3.16-5.5-1.841-3.065-5.416-3.045-7.221.066q-4.525,7.8-9.02,15.618-6.55,11.34-13.1,22.68-5.985,10.357-11.957,20.723c-1.221,2.12-2.433,4.246-3.671,6.357a5.218,5.218,0,0,0-1.107,3.466c.354,2.268,1.894,3.557,4.4,3.576,3.746.029,7.493.038,11.241-.013q32.04-.022,64.077-.009a9.786,9.786,0,0,0,1.806-.1,3.838,3.838,0,0,0,2.932-5.729c-1.064-2.136-2.338-4.16-3.531-6.226q-5.734-9.927-11.465-19.855a5.161,5.161,0,0,1-.639-1.494,1.558,1.558,0,0,1,1.137-1.925c1.3-.364,1.936-.149,2.585.975,5.1,8.815,10.229,17.609,15.251,26.466a7.769,7.769,0,0,1-6.852,11.759c-1.389.025-2.778,0-4.168,0H1779.23c-4.373,0-6.714-1.593-8.357-5.679-.018-.045-.088-.068-.134-.1Z" transform="translate(0 0)" fill="#2c272e"/>
      <path id="Path_12230" data-name="Path 12230" d="M2130.306,283.754c-1.115.884-1.233,1.618-.447,2.982q7.462,12.932,14.928,25.86c1.166,2.02,1.088,3.7-.232,5.281A4.347,4.347,0,0,1,2141,319.33q-6.073.009-12.145,0-26.012,0-52.024,0c-.331,0-.663-.021-.994-.032a1.234,1.234,0,0,1-.734-.63,5.964,5.964,0,0,1-.288-6.593q5.687-9.935,11.438-19.833,4.941-8.537,9.861-17.086a3.486,3.486,0,0,1,.562-.818c.168-.161.344-.269.506.014a3.641,3.641,0,0,1,.118,1.345c0,4.5-.012,9,.009,13.5a5.389,5.389,0,0,0,3.24,5.314,5.5,5.5,0,0,0,7.823-5.191c.023-3.381,0-6.763.005-10.145,0-1.812-.066-3.626.014-5.434a5.607,5.607,0,0,0-7.1-5.844,1.44,1.44,0,0,1-.447.051c-.6-.319-.147-.679.008-.962.945-1.72,1.944-3.408,2.927-5.106q2.629-4.546,5.263-9.089c.179-.308.318-.663.722-.761,1.326,2.26,2.66,4.515,3.974,6.782q4.243,7.319,8.47,14.648c.762,1.316,1.34,1.548,2.75,1.14l2.138,3.637c.082.289-.158.434-.292.617a1.535,1.535,0,0,0,1.4,2.505c.236-.023.476-.106.7.059Z" transform="translate(-285.867 -189.853)" fill="#dd4a48"/>
      <path id="Path_12231" data-name="Path 12231" d="M2989.553,710.87c-1.231.369-2.021.133-2.5-.747a1.872,1.872,0,0,1,.7-2.434c1.208-.33,1.952-.106,2.426.729C2990.642,709.238,2990.441,710.024,2989.553,710.87Z" transform="translate(-1146.525 -619.308)" fill="#2c272e"/>
      <path id="Path_12232" data-name="Path 12232" d="M2476.891,527.481a6.735,6.735,0,0,1,1.5-4.834,7.269,7.269,0,0,1,2.159-1.566,5.781,5.781,0,0,1,6.745,1.872,5.548,5.548,0,0,1,1.225,3.615c.011,5.374.029,10.749,0,16.123a5.794,5.794,0,1,1-11.585.006c-.035-4.74-.008-9.48-.01-14.221C2476.921,528.143,2476.9,527.812,2476.891,527.481Z" transform="translate(-665.753 -443.156)" fill="#2c272e"/>
      <path id="Path_12233" data-name="Path 12233" d="M2483.446,1085.547a5.777,5.777,0,1,1-5.9,5.622A5.794,5.794,0,0,1,2483.446,1085.547Z" transform="translate(-666.369 -975.685)" fill="#2c272e"/>
      <path id="Path_12234" data-name="Path 12234" d="M2540.745,594.273c0-2.659,0-5.318,0-7.977a2.2,2.2,0,0,1,1.322-2.187,2.054,2.054,0,0,1,2.207.312,2.237,2.237,0,0,1,.814,1.839c.007,5.318.015,10.637,0,15.955a2.179,2.179,0,1,1-4.338-.055C2540.731,599.531,2540.745,596.9,2540.745,594.273Z" transform="translate(-725.949 -502.758)" fill="#fff"/>
      <path id="Path_12235" data-name="Path 12235" d="M2543.191,1149.161a2.137,2.137,0,1,1-2.21,2.136A2.179,2.179,0,0,1,2543.191,1149.161Z" transform="translate(-726.176 -1035.661)" fill="#fff"/>
    </g>
    <g id="Group_7099" data-name="Group 7099" transform="translate(-13629 717.018)">
      <g id="Group_6932" data-name="Group 6932" transform="translate(-192.544 -285.889)">
        <g id="Group_6930" data-name="Group 6930" transform="translate(308.441 422.596)">
          <g id="Group_6925" data-name="Group 6925" transform="translate(0)">
            <path id="Path_2771" data-name="Path 2771" d="M453.3,523.812h-2.1a1.7,1.7,0,0,1-1.619-2.208h0c.775-2.461,1.677-4.907,2.677-7.275a81.957,81.957,0,0,1,129.576-29.743,1.7,1.7,0,0,1,.078,2.477l-1.445,1.445a1.694,1.694,0,0,1-2.314.078,76.557,76.557,0,0,0-123.235,34.053v0A1.7,1.7,0,0,1,453.3,523.812Z" transform="translate(-449.496 -464.26)" fill="#2c272e"/>
            <path id="Path_2772" data-name="Path 2772" d="M609.771,634.259A82,82,0,0,1,452.253,666.17c-1-2.368-1.9-4.815-2.677-7.276h0a1.7,1.7,0,0,1,1.619-2.208h2.1a1.7,1.7,0,0,1,1.614,1.172v0a76.587,76.587,0,1,0,135.9-67.074,1.693,1.693,0,0,1,.2-2.159l1.466-1.466a1.7,1.7,0,0,1,2.59.223,81.873,81.873,0,0,1,13.089,30.56A82.365,82.365,0,0,1,609.771,634.259Z" transform="translate(-449.496 -552.28)" fill="#2c272e"/>
          </g>
        </g>
        <rect id="Rectangle_17349" data-name="Rectangle 17349" width="39.392" height="6.568" rx="3.284" transform="translate(274.547 475.581)" fill="#2c272e"/>
        <rect id="Rectangle_17350" data-name="Rectangle 17350" width="32.041" height="6.568" rx="3.284" transform="translate(281.897 526.922)" fill="#2c272e"/>
        <rect id="Rectangle_17351" data-name="Rectangle 17351" width="40.83" height="6.568" rx="3.284" transform="translate(271.625 501.938)" fill="#2c272e"/>
        <g id="Group_6931" data-name="Group 6931" transform="translate(306.262 406.32)">
          <path id="Path_2781" data-name="Path 2781" d="M535.487,410.071v.052a3.2,3.2,0,0,1-3.551,3.175,91.582,91.582,0,0,0-84.4,37.742,3.183,3.183,0,0,1-2.6,1.332h0a3.2,3.2,0,0,1-2.6-5.063,98.51,98.51,0,0,1,10.473-12.342,97.521,97.521,0,0,1,69.159-28.647,99.374,99.374,0,0,1,10.642.569A3.2,3.2,0,0,1,535.487,410.071Z" transform="translate(-441.739 -406.32)" fill="#2c272e"/>
          <path id="Path_2782" data-name="Path 2782" d="M877.949,452.507l-1.725,1.725a2.023,2.023,0,0,1-2.759.093,91.5,91.5,0,0,0-24.521-15.381A3.2,3.2,0,0,1,846.99,436v-.076a3.193,3.193,0,0,1,4.425-2.951l.044.019a97.361,97.361,0,0,1,26.4,16.559A2.03,2.03,0,0,1,877.949,452.507Z" transform="translate(-733.152 -425.304)" fill="#2c272e"/>
        </g>
      </g>
      <g id="Group_6933" data-name="Group 6933" transform="translate(-2983.66 -1251.905)">
        <path id="Path_2783" data-name="Path 2783" d="M3282.668,1385.108a4.809,4.809,0,0,1,4.694-7.337c.123.017.248.018.372.026a5.216,5.216,0,0,1,2.628,1.6,4.787,4.787,0,1,1-7.46,6C3282.827,1385.3,3282.746,1385.2,3282.668,1385.108Z" transform="translate(-26.959 -28.511)" fill="#dd4a48"/>
        <path id="Path_2784" data-name="Path 2784" d="M3252.681,1438.859a11.087,11.087,0,0,1-.486-1.605c-.074-.367.007-.646.386-.716s.52.206.583.526a4.79,4.79,0,0,0,.554,1.619,6.4,6.4,0,0,0,4.582,3.644,6.184,6.184,0,0,0,2.6.045c.351-.067.647-.025.718.377s-.222.549-.557.6a7.619,7.619,0,0,1-7.069-2.452A7.833,7.833,0,0,1,3252.681,1438.859Z" transform="translate(0 -81.796)" fill="#2c272e"/>
        <path id="Path_2785" data-name="Path 2785" d="M3266.927,1347.31a6.212,6.212,0,0,0-4.157.907,6.6,6.6,0,0,0-2.446,2.526c-.038.068-.075.136-.114.2-.152.262-.366.4-.66.251a.473.473,0,0,1-.2-.715,7.645,7.645,0,0,1,1.99-2.455,7.841,7.841,0,0,1,5.481-1.755c.472.085.946.165,1.417.255.359.069.575.273.462.655s-.414.364-.725.287A3.165,3.165,0,0,0,3266.927,1347.31Z" transform="translate(-6.432)" fill="#2c272e"/>
        <path id="Path_2786" data-name="Path 2786" d="M3387.458,1381.055a7.981,7.981,0,0,1-1.755,4.918c-.078.1-.16.192-.245.283-.22.239-.478.326-.735.084a.482.482,0,0,1,.019-.743,6.721,6.721,0,0,0,.527-8.346c-.026-.039-.052-.078-.081-.115-.208-.268-.273-.558.026-.779.324-.239.573-.06.781.228a7.605,7.605,0,0,1,1.3,2.972A7.865,7.865,0,0,1,3387.458,1381.055Z" transform="translate(-119.964 -27.171)" fill="#2c272e"/>
      </g>
      <g id="Group_6934" data-name="Group 6934" transform="translate(-3156.513 -1075.283)">
        <path id="Path_2783-2" data-name="Path 2783" d="M3282.6,1384.474a4.4,4.4,0,0,1,4.291-6.707c.113.015.227.017.34.024a4.769,4.769,0,0,1,2.4,1.464,4.376,4.376,0,1,1-6.82,5.481C3282.75,1384.646,3282.675,1384.561,3282.6,1384.474Z" transform="translate(-27.199 -28.764)" fill="#dd4a48"/>
        <path id="Path_2784-2" data-name="Path 2784" d="M3252.637,1438.659a10.117,10.117,0,0,1-.444-1.468c-.067-.335.006-.59.353-.654s.475.188.533.48a4.377,4.377,0,0,0,.507,1.48,5.849,5.849,0,0,0,4.188,3.331,5.651,5.651,0,0,0,2.38.041c.321-.061.591-.023.657.344s-.2.5-.51.547a6.965,6.965,0,0,1-6.462-2.241A7.156,7.156,0,0,1,3252.637,1438.659Z" transform="translate(0 -82.523)" fill="#2c272e"/>
        <path id="Path_2785-2" data-name="Path 2785" d="M3266.27,1347.22a5.679,5.679,0,0,0-3.8.829,6.031,6.031,0,0,0-2.236,2.309c-.035.062-.069.125-.1.186-.139.24-.335.365-.6.23a.432.432,0,0,1-.18-.654,6.984,6.984,0,0,1,1.818-2.244,7.169,7.169,0,0,1,5.011-1.6c.431.077.865.151,1.3.234.329.063.525.25.422.6s-.378.333-.663.262A2.891,2.891,0,0,0,3266.27,1347.22Z" transform="translate(-6.488 0)" fill="#2c272e"/>
        <path id="Path_2786-2" data-name="Path 2786" d="M3387.209,1380.643a7.3,7.3,0,0,1-1.605,4.5c-.071.089-.146.175-.224.259-.2.218-.436.3-.671.076a.44.44,0,0,1,.017-.679,6.144,6.144,0,0,0,.481-7.629c-.024-.035-.047-.071-.073-.1-.19-.245-.25-.51.024-.712.3-.219.524-.055.714.208a6.952,6.952,0,0,1,1.193,2.717A7.248,7.248,0,0,1,3387.209,1380.643Z" transform="translate(-121.03 -27.412)" fill="#2c272e"/>
      </g>
      <path id="Path_2787" data-name="Path 2787" d="M2002.882,626.974l6.722-12.636c.908,1.439,1.718,2.706,2.511,3.984,1.583,2.551,3.153,5.11,4.738,7.66.235.378.453.657-.266.677-4.422.12-8.844.259-13.266.389A3.233,3.233,0,0,1,2002.882,626.974Z" transform="matrix(0.438, 0.899, -0.899, 0.438, -139.518, -1802.769)" fill="#dd4a48"/>
      <path id="Path_2788" data-name="Path 2788" d="M2002.882,632.734l9.786-18.4c1.322,2.1,2.5,3.94,3.656,5.8,2.3,3.714,4.59,7.44,6.9,11.152.342.55.66.957-.386.985-6.438.174-12.875.377-19.313.566A4.706,4.706,0,0,1,2002.882,632.734Z" transform="matrix(0.438, 0.899, -0.899, 0.438, -271.212, -1953.777)" fill="#dd4a48"/>
      <path id="Path_2789" data-name="Path 2789" d="M3072,440.028c0,1.1-.018,2.194.009,3.29.011.426-.087.577-.549.578-1.345,0-1.345.026-1.341-1.349,0-1.358-.015-2.716.017-4.073.01-.451-.13-.564-.566-.556-1.54.027-3.082-.019-4.621.03-.7.023-.97-.143-.938-.9.064-1.538.005-3.081.04-4.621.011-.49-.136-.613-.615-.6-1.592.033-3.186,0-4.778.03-.554.012-.726-.175-.714-.719.033-1.592.006-3.186.037-4.778.009-.477-.126-.629-.615-.619-1.592.035-3.186,0-4.778.035-.556.012-.724-.176-.712-.721.033-1.592,0-3.186.032-4.778.011-.484-.12-.63-.605-.618-1.514.035-3.03-.01-4.542.046-.67.025-.909-.124-.875-.848.069-1.459,0-2.925.047-4.385.02-.6-.112-.814-.758-.79-1.513.055-3.029,0-4.542.043-.6.017-.837-.13-.817-.778.047-1.539-.018-3.082.041-4.621.024-.627-.188-.731-.746-.716-1.513.04-3.029,0-4.542.041-.546.015-.765-.136-.684-.689a2.611,2.611,0,0,0,0-.7c-.056-.433.144-.511.533-.509,2.246.011,4.491.014,6.736-.021.526-.008.587.2.58.644-.025,1.619.007,3.238-.029,4.857-.011.495.138.609.612.6,1.618-.033,3.238,0,4.856-.036.53-.012.66.161.649.666-.034,1.566,0,3.134-.034,4.7-.011.508.122.677.65.664,1.565-.04,3.133-.009,4.7-.042.5-.011.675.114.662.649-.041,1.618,0,3.238-.035,4.856-.011.5.141.608.614.6,1.592-.033,3.187.013,4.778-.037.612-.019.739.183.724.751-.041,1.592,0,3.186-.039,4.778-.011.489.131.611.609.6,1.618-.033,3.238.008,4.856-.032.53-.013.648.153.637.653-.034,1.618,0,3.238-.035,4.856-.01.477.109.627.6.616,1.592-.034,3.186.008,4.778-.03.553-.013.776.082.741.705-.061,1.093-.017,2.192-.017,3.289Z" transform="translate(-2739.033 -204.723)" fill="#2c272e"/>
      <g id="Group_6935" data-name="Group 6935" transform="translate(-2522.903 -1255.044)">
        <path id="Path_2790" data-name="Path 2790" d="M2665.994,1351.079c-.125-.081-.249-.229-.375-.232-1.755-.041-1.734-1.049-1.519-2.427.752-4.8,1.423-9.621,2.054-14.442.126-.965.4-1.035,1.315-.9q7.579,1.15,15.188,2.1c1.067.135,1.351.437,1.031,1.483-.2.647-.064,1.388-.335,2.049a2.344,2.344,0,0,1,.285,1.865c-.48,3.508-1.03,7.007-1.466,10.522-.258,2.084-.542,2.279-2.583,2.024-4.157-.52-8.3-1.137-12.449-1.735A2.756,2.756,0,0,1,2665.994,1351.079Z" fill="#dd4a48"/>
        <path id="Path_2791" data-name="Path 2791" d="M2669.929,1364.332c1.957-.391,3.819.325,5.722.527,2.968.314,5.92.792,8.872,1.241.613.093.876.036.966-.668.572-4.492,1.193-8.979,1.8-13.468,2.3.124,2.346.13,2.048,2.328-.655,4.842-1.373,9.676-2.023,14.519-.1.719-.186,1.018-1.059.886q-7.764-1.172-15.552-2.191c-.864-.114-1.285-.253-.979-1.246A9.756,9.756,0,0,0,2669.929,1364.332Z" transform="translate(-3.936 -13.253)" fill="#2c272e"/>
      </g>
    </g>
  </g>
</svg>
