<svg xmlns="http://www.w3.org/2000/svg" width="295" height="222.685" viewBox="0 0 295 222.685">
  <g id="order_placed" transform="translate(-38 -77.982)">
    <g id="Group_6932" data-name="Group 6932" transform="translate(-192.544 -285.889)">
      <g id="Group_6930" data-name="Group 6930" transform="translate(308.441 422.596)">
        <g id="Group_6925" data-name="Group 6925" transform="translate(0)">
          <path id="Path_2771" data-name="Path 2771" d="M453.3,523.812h-2.1a1.7,1.7,0,0,1-1.619-2.208h0c.775-2.461,1.677-4.907,2.677-7.275a81.957,81.957,0,0,1,129.576-29.743,1.7,1.7,0,0,1,.078,2.477l-1.445,1.445a1.694,1.694,0,0,1-2.314.078,76.557,76.557,0,0,0-123.235,34.053v0A1.7,1.7,0,0,1,453.3,523.812Z" transform="translate(-449.496 -464.26)" fill="#2c272e"/>
          <path id="Path_2772" data-name="Path 2772" d="M609.771,634.259A82,82,0,0,1,452.253,666.17c-1-2.368-1.9-4.815-2.677-7.276h0a1.7,1.7,0,0,1,1.619-2.208h2.1a1.7,1.7,0,0,1,1.614,1.172v0a76.587,76.587,0,1,0,135.9-67.074,1.693,1.693,0,0,1,.2-2.159l1.466-1.466a1.7,1.7,0,0,1,2.59.223,81.873,81.873,0,0,1,13.089,30.56A82.365,82.365,0,0,1,609.771,634.259Z" transform="translate(-449.496 -552.28)" fill="#2c272e"/>
        </g>
        <g id="Group_6929" data-name="Group 6929" transform="translate(29.767 35.708)">
          <g id="Group_6926" data-name="Group 6926">
            <path id="Path_2773" data-name="Path 2773" d="M672.31,653.509a18.309,18.309,0,0,0-13.811-6.276h-.174c-.074,0-.152,0-.226,0a18.394,18.394,0,0,0-17.564,13.8c-.015.063-.03.122-.044.185a20.063,20.063,0,0,0-5.283,6.894V662.03H601.273q6.346.016,12.692.03c1.8,0,1.8,0,1.808,1.8,0,.415.029.83.048,1.245-.163,2.841-.163,2.841-3.049,2.841-7.031,0-14.063.018-21.091,0q.611-2.956,1.222-5.916a.014.014,0,0,0,0-.011c.015-.067.03-.137.041-.207q2.412-11.631,4.809-23.265c2.438-11.81,4.916-23.614,7.32-35.432a.948.948,0,0,0,.019-.1c.067-.326.133-.648.2-.974a3.64,3.64,0,0,1,1.108-2.519,5.514,5.514,0,0,1,2.589-.341q22.345-.005,44.686,0c3.341,0,3.857.433,4.531,3.731.17.826.341,1.656.511,2.482a.11.11,0,0,0,.007.033q2.09,10.169,4.2,20.331.989,4.757,1.986,9.506c.044.229.092.459.141.689h0q.578,2.773,1.16,5.546c.137.66.252,1.182.367,1.589.008.026.015.052.022.074.434,1.422.982,1.463,3.227,1.578.03,0,.059,0,.089,0a1.581,1.581,0,0,1,.963,1.286C671.328,648.526,671.87,651.008,672.31,653.509Z" transform="translate(-581.508 -596.982)" fill="#f2f2f0"/>
            <path id="Path_2774" data-name="Path 2774" d="M643.072,629.547a7.267,7.267,0,0,0-1.193.311,2.675,2.675,0,0,1-.7.441c-1.033.37-1.7.415-2.167.045h0a2.841,2.841,0,0,1-.767-1.664c-2-9.432-3.886-18.89-5.883-28.326-.541-2.556-.537-2.556-3.123-2.553-.393,0-.785.011-1.178,0a.4.4,0,0,1-.067,0c-.07,0-.141,0-.211,0-1.13.015-2.26.026-3.39-.007-1.008-.033-1.423.244-1.185,1.367,1.456,6.954,2.86,13.915,4.338,20.865.556,2.616,1.034,5.25,1.619,7.861.5,2.215.133,2.719-2.126,2.945a1.45,1.45,0,0,1-.941-.13c-.93-.126-2.03.9-2.682.141-.552-.648-.474-1.83-.671-2.779q-3.04-14.665-6.068-29.337c-.185-.908-.493-1.356-1.508-1.356q-17.71.017-35.416-.03a3.966,3.966,0,0,0-.548.067c-.056.037-.115.07-.17.1-1.059.578-2.227.237-3.338.282-1.878.074-2.015.134-2.393,1.949-3.738,17.8-7.372,35.624-11.077,53.432-.593,2.838-.537,2.864,2.367,2.893a6.3,6.3,0,0,1,2.312.141,1.74,1.74,0,0,1,.389.2q3.968.011,7.935.019,6.346.016,12.692.029c1.8,0,1.8,0,1.808,1.8,0,.415.029.83.048,1.245-.163,2.841-.163,2.841-3.049,2.841-7.031,0-14.063.018-21.091,0-1,0-2.012,0-3.016-.007a7.64,7.64,0,0,1-3.927-1.052,6.512,6.512,0,0,1-3.23-5.794,33.527,33.527,0,0,1,1.111-6.113q5.335-25.934,10.714-51.858c.819-3.986,3.378-6.131,7.483-6.135q18.01-.011,36.02,0h19.672c4.475,0,6.913,2.027,7.81,6.4,2.038,9.932,4.057,19.868,6.191,29.782C644.78,629.025,644.357,629.436,643.072,629.547Z" transform="translate(-555.463 -591.377)" fill="#2c272e"/>
            <path id="Path_2775" data-name="Path 2775" d="M829.311,656.872a16.193,16.193,0,0,0-8.844-3.054,2.7,2.7,0,0,1-.742-1.741q-3.427-18.828-6.839-37.659c-.112-.613-.366-1.266.09-1.866,4.154-.3,4.143-.293,4.968,3.716,1.914,9.3,3.872,18.585,5.721,27.9.244,1.228.724,1.345,1.71,1.085a14.926,14.926,0,0,1,1.492-.242Z" transform="translate(-740.451 -606.523)" fill="#dd4a48"/>
            <path id="Path_2776" data-name="Path 2776" d="M582.564,671.618c-1.43.017-2.859.049-4.289.045-1.48,0-1.783-.439-1.455-2.026q1.217-5.886,2.438-11.773,4.547-21.92,9.073-43.844c.215-1.049.617-1.54,1.722-1.482,1.472.078,2.948.06,4.423.082q-2.21,10.632-4.418,21.264-2.586,12.519-5.154,25.043c-.743,3.59-1.541,7.168-2.274,10.76A11.271,11.271,0,0,0,582.564,671.618Z" transform="translate(-570.735 -606.591)" fill="#dd4a48"/>
            <path id="Path_2777" data-name="Path 2777" d="M671.189,635.955a32.921,32.921,0,0,1-.35,6.19,15.729,15.729,0,0,1-31.107-2.6c-.1-2.861-.005-5.729-.065-8.592-.018-.846.321-1,1.056-.976,1.292.046,2.589.06,3.879,0,.811-.04,1,.253.99,1.022-.044,2.54-.03,5.082-.013,7.623a9.848,9.848,0,1,0,19.691.014c.019-2.541.03-5.082-.012-7.623-.013-.763.175-1.072.99-1.035,1.337.06,2.68.052,4.018,0,.745-.028.956.253.937.964C671.16,632.513,671.189,634.085,671.189,635.955Z" transform="translate(-616.013 -619.13)"/>
            <path id="Path_2778" data-name="Path 2778" d="M799.8,612.647q1.769,9.671,3.535,19.342,1.85,10.217,3.673,20.439c.089.5.188.99.283,1.485a17.06,17.06,0,0,0-7.513,1.919l-1.868-9.888c.087-.031.176-.058.261-.093.872-.368,2.177,0,2.628-.86.392-.749-.232-1.769-.416-2.666q-2.935-14.283-5.91-28.558c-.195-.926-.092-1.24.9-1.188C796.844,612.655,798.323,612.628,799.8,612.647Z" transform="translate(-727.273 -606.618)" fill="#b22b2b"/>
          </g>
          <g id="Group_6927" data-name="Group 6927" transform="translate(52.896 44.694)">
            <path id="Path_2779" data-name="Path 2779" d="M775.973,751.965c-.063-.026-.129-.052-.2-.074a23.924,23.924,0,0,0-31.741,18.946,23.924,23.924,0,1,0,31.938-18.872Zm-8.283,40.81a18.367,18.367,0,0,1-17.834-22.746c.015-.063.029-.123.044-.185a18.394,18.394,0,0,1,17.564-13.8c.074,0,.152,0,.226,0h.067a18.368,18.368,0,0,1-.067,36.735Z" transform="translate(-743.768 -750.483)" fill="#2c272e"/>
          </g>
          <g id="Group_6928" data-name="Group 6928" transform="translate(61.296 58.016)">
            <path id="Path_2780" data-name="Path 2780" d="M783.193,820.161l-8.783-8.783a2.528,2.528,0,1,1,3.575-3.576l5.208,5.208,14.36-14.361a2.528,2.528,0,0,1,3.576,3.575Z" transform="translate(-773.67 -797.909)" fill="#dd4a48"/>
          </g>
        </g>
      </g>
      <rect id="Rectangle_17349" data-name="Rectangle 17349" width="39.392" height="6.568" rx="3.284" transform="translate(274.547 475.581)" fill="#2c272e"/>
      <rect id="Rectangle_17350" data-name="Rectangle 17350" width="32.041" height="6.568" rx="3.284" transform="translate(281.897 526.922)" fill="#2c272e"/>
      <rect id="Rectangle_17351" data-name="Rectangle 17351" width="40.83" height="6.568" rx="3.284" transform="translate(271.625 501.938)" fill="#2c272e"/>
      <g id="Group_6931" data-name="Group 6931" transform="translate(306.262 406.32)">
        <path id="Path_2781" data-name="Path 2781" d="M535.487,410.071v.052a3.2,3.2,0,0,1-3.551,3.175,91.582,91.582,0,0,0-84.4,37.742,3.183,3.183,0,0,1-2.6,1.332h0a3.2,3.2,0,0,1-2.6-5.063,98.51,98.51,0,0,1,10.473-12.342,97.521,97.521,0,0,1,69.159-28.647,99.374,99.374,0,0,1,10.642.569A3.2,3.2,0,0,1,535.487,410.071Z" transform="translate(-441.739 -406.32)" fill="#2c272e"/>
        <path id="Path_2782" data-name="Path 2782" d="M877.949,452.507l-1.725,1.725a2.023,2.023,0,0,1-2.759.093,91.5,91.5,0,0,0-24.521-15.381A3.2,3.2,0,0,1,846.99,436v-.076a3.193,3.193,0,0,1,4.425-2.951l.044.019a97.361,97.361,0,0,1,26.4,16.559A2.03,2.03,0,0,1,877.949,452.507Z" transform="translate(-733.152 -425.304)" fill="#2c272e"/>
      </g>
    </g>
    <g id="Group_6933" data-name="Group 6933" transform="translate(-2983.66 -1251.905)">
      <path id="Path_2783" data-name="Path 2783" d="M3282.668,1385.108a4.809,4.809,0,0,1,4.694-7.337c.123.017.248.018.372.026a5.216,5.216,0,0,1,2.628,1.6,4.787,4.787,0,1,1-7.46,6C3282.827,1385.3,3282.746,1385.2,3282.668,1385.108Z" transform="translate(-26.959 -28.511)" fill="#dd4a48"/>
      <path id="Path_2784" data-name="Path 2784" d="M3252.681,1438.859a11.087,11.087,0,0,1-.486-1.605c-.074-.367.007-.646.386-.716s.52.206.583.526a4.79,4.79,0,0,0,.554,1.619,6.4,6.4,0,0,0,4.582,3.644,6.184,6.184,0,0,0,2.6.045c.351-.067.647-.025.718.377s-.222.549-.557.6a7.619,7.619,0,0,1-7.069-2.452A7.833,7.833,0,0,1,3252.681,1438.859Z" transform="translate(0 -81.796)" fill="#2c272e"/>
      <path id="Path_2785" data-name="Path 2785" d="M3266.927,1347.31a6.212,6.212,0,0,0-4.157.907,6.6,6.6,0,0,0-2.446,2.526c-.038.068-.075.136-.114.2-.152.262-.366.4-.66.251a.473.473,0,0,1-.2-.715,7.645,7.645,0,0,1,1.99-2.455,7.841,7.841,0,0,1,5.481-1.755c.472.085.946.165,1.417.255.359.069.575.273.462.655s-.414.364-.725.287A3.165,3.165,0,0,0,3266.927,1347.31Z" transform="translate(-6.432)" fill="#2c272e"/>
      <path id="Path_2786" data-name="Path 2786" d="M3387.458,1381.055a7.981,7.981,0,0,1-1.755,4.918c-.078.1-.16.192-.245.283-.22.239-.478.326-.735.084a.482.482,0,0,1,.019-.743,6.721,6.721,0,0,0,.527-8.346c-.026-.039-.052-.078-.081-.115-.208-.268-.273-.558.026-.779.324-.239.573-.06.781.228a7.605,7.605,0,0,1,1.3,2.972A7.865,7.865,0,0,1,3387.458,1381.055Z" transform="translate(-119.964 -27.171)" fill="#2c272e"/>
    </g>
    <g id="Group_6934" data-name="Group 6934" transform="translate(-3156.513 -1075.283)">
      <path id="Path_2783-2" data-name="Path 2783" d="M3282.6,1384.474a4.4,4.4,0,0,1,4.291-6.707c.113.015.227.017.34.024a4.769,4.769,0,0,1,2.4,1.464,4.376,4.376,0,1,1-6.82,5.481C3282.75,1384.646,3282.675,1384.561,3282.6,1384.474Z" transform="translate(-27.199 -28.764)" fill="#dd4a48"/>
      <path id="Path_2784-2" data-name="Path 2784" d="M3252.637,1438.659a10.117,10.117,0,0,1-.444-1.468c-.067-.335.006-.59.353-.654s.475.188.533.48a4.377,4.377,0,0,0,.507,1.48,5.849,5.849,0,0,0,4.188,3.331,5.651,5.651,0,0,0,2.38.041c.321-.061.591-.023.657.344s-.2.5-.51.547a6.965,6.965,0,0,1-6.462-2.241A7.156,7.156,0,0,1,3252.637,1438.659Z" transform="translate(0 -82.523)" fill="#2c272e"/>
      <path id="Path_2785-2" data-name="Path 2785" d="M3266.27,1347.22a5.679,5.679,0,0,0-3.8.829,6.031,6.031,0,0,0-2.236,2.309c-.035.062-.069.125-.1.186-.139.24-.335.365-.6.23a.432.432,0,0,1-.18-.654,6.984,6.984,0,0,1,1.818-2.244,7.169,7.169,0,0,1,5.011-1.6c.431.077.865.151,1.3.234.329.063.525.25.422.6s-.378.333-.663.262A2.891,2.891,0,0,0,3266.27,1347.22Z" transform="translate(-6.488 0)" fill="#2c272e"/>
      <path id="Path_2786-2" data-name="Path 2786" d="M3387.209,1380.643a7.3,7.3,0,0,1-1.605,4.5c-.071.089-.146.175-.224.259-.2.218-.436.3-.671.076a.44.44,0,0,1,.017-.679,6.144,6.144,0,0,0,.481-7.629c-.024-.035-.047-.071-.073-.1-.19-.245-.25-.51.024-.712.3-.219.524-.055.714.208a6.952,6.952,0,0,1,1.193,2.717A7.248,7.248,0,0,1,3387.209,1380.643Z" transform="translate(-121.03 -27.412)" fill="#2c272e"/>
    </g>
    <path id="Path_2787" data-name="Path 2787" d="M2002.882,626.974l6.722-12.636c.908,1.439,1.718,2.706,2.511,3.984,1.583,2.551,3.153,5.11,4.738,7.66.235.378.453.657-.266.677-4.422.12-8.844.259-13.266.389A3.233,3.233,0,0,1,2002.882,626.974Z" transform="matrix(0.438, 0.899, -0.899, 0.438, -139.518, -1802.769)" fill="#dd4a48"/>
    <path id="Path_2788" data-name="Path 2788" d="M2002.882,632.734l9.786-18.4c1.322,2.1,2.5,3.94,3.656,5.8,2.3,3.714,4.59,7.44,6.9,11.152.342.55.66.957-.386.985-6.438.174-12.875.377-19.313.566A4.706,4.706,0,0,1,2002.882,632.734Z" transform="matrix(0.438, 0.899, -0.899, 0.438, -271.212, -1953.777)" fill="#dd4a48"/>
    <path id="Path_2789" data-name="Path 2789" d="M3072,440.028c0,1.1-.018,2.194.009,3.29.011.426-.087.577-.549.578-1.345,0-1.345.026-1.341-1.349,0-1.358-.015-2.716.017-4.073.01-.451-.13-.564-.566-.556-1.54.027-3.082-.019-4.621.03-.7.023-.97-.143-.938-.9.064-1.538.005-3.081.04-4.621.011-.49-.136-.613-.615-.6-1.592.033-3.186,0-4.778.03-.554.012-.726-.175-.714-.719.033-1.592.006-3.186.037-4.778.009-.477-.126-.629-.615-.619-1.592.035-3.186,0-4.778.035-.556.012-.724-.176-.712-.721.033-1.592,0-3.186.032-4.778.011-.484-.12-.63-.605-.618-1.514.035-3.03-.01-4.542.046-.67.025-.909-.124-.875-.848.069-1.459,0-2.925.047-4.385.02-.6-.112-.814-.758-.79-1.513.055-3.029,0-4.542.043-.6.017-.837-.13-.817-.778.047-1.539-.018-3.082.041-4.621.024-.627-.188-.731-.746-.716-1.513.04-3.029,0-4.542.041-.546.015-.765-.136-.684-.689a2.611,2.611,0,0,0,0-.7c-.056-.433.144-.511.533-.509,2.246.011,4.491.014,6.736-.021.526-.008.587.2.58.644-.025,1.619.007,3.238-.029,4.857-.011.495.138.609.612.6,1.618-.033,3.238,0,4.856-.036.53-.012.66.161.649.666-.034,1.566,0,3.134-.034,4.7-.011.508.122.677.65.664,1.565-.04,3.133-.009,4.7-.042.5-.011.675.114.662.649-.041,1.618,0,3.238-.035,4.856-.011.5.141.608.614.6,1.592-.033,3.187.013,4.778-.037.612-.019.739.183.724.751-.041,1.592,0,3.186-.039,4.778-.011.489.131.611.609.6,1.618-.033,3.238.008,4.856-.032.53-.013.648.153.637.653-.034,1.618,0,3.238-.035,4.856-.01.477.109.627.6.616,1.592-.034,3.186.008,4.778-.03.553-.013.776.082.741.705-.061,1.093-.017,2.192-.017,3.289Z" transform="translate(-2739.033 -204.723)" fill="#2c272e"/>
    <g id="Group_6935" data-name="Group 6935" transform="translate(-2522.903 -1255.044)">
      <path id="Path_2790" data-name="Path 2790" d="M2665.994,1351.079c-.125-.081-.249-.229-.375-.232-1.755-.041-1.734-1.049-1.519-2.427.752-4.8,1.423-9.621,2.054-14.442.126-.965.4-1.035,1.315-.9q7.579,1.15,15.188,2.1c1.067.135,1.351.437,1.031,1.483-.2.647-.064,1.388-.335,2.049a2.344,2.344,0,0,1,.285,1.865c-.48,3.508-1.03,7.007-1.466,10.522-.258,2.084-.542,2.279-2.583,2.024-4.157-.52-8.3-1.137-12.449-1.735A2.756,2.756,0,0,1,2665.994,1351.079Z" fill="#dd4a48"/>
      <path id="Path_2791" data-name="Path 2791" d="M2669.929,1364.332c1.957-.391,3.819.325,5.722.527,2.968.314,5.92.792,8.872,1.241.613.093.876.036.966-.668.572-4.492,1.193-8.979,1.8-13.468,2.3.124,2.346.13,2.048,2.328-.655,4.842-1.373,9.676-2.023,14.519-.1.719-.186,1.018-1.059.886q-7.764-1.172-15.552-2.191c-.864-.114-1.285-.253-.979-1.246A9.756,9.756,0,0,0,2669.929,1364.332Z" transform="translate(-3.936 -13.253)" fill="#2c272e"/>
    </g>
  </g>
</svg>
