<svg xmlns="http://www.w3.org/2000/svg" width="24" height="24" viewBox="0 0 24 24">
  <g id="other_address" transform="translate(-24.039 -352.597)">
    <rect id="Rectangle_17305" data-name="Rectangle 17305" width="24" height="24" transform="translate(24.038 352.597)" fill="none"/>
    <path id="Path_2727" data-name="Path 2727" d="M-403.638,348a15.834,15.834,0,0,1,1.734.344,8.678,8.678,0,0,1,6.338,6.781,8.987,8.987,0,0,1-.707,5.539,19.194,19.194,0,0,1-2.057,3.489q-2.592,3.666-5.185,7.332a.862.862,0,0,1-1.578,0c-1.86-2.635-3.73-5.263-5.58-7.9a14.26,14.26,0,0,1-2.274-4.731,8.683,8.683,0,0,1,4.342-9.739,9.107,9.107,0,0,1,3.477-1.065.833.833,0,0,0,.156-.045Zm-.667,21.681c.073-.1.134-.175.191-.255q2.033-2.87,4.067-5.74a20.691,20.691,0,0,0,2.214-3.622,7.436,7.436,0,0,0,.453-5.339,7.269,7.269,0,0,0-7.643-5.013,7.118,7.118,0,0,0-6.138,9.334,13.552,13.552,0,0,0,1.91,3.657c1.6,2.284,3.221,4.556,4.834,6.833C-404.387,369.578-404.353,369.619-404.3,369.681Z" transform="translate(439.847 4.597)" fill="#2c272e"/>
    <path id="Path_2728" data-name="Path 2728" d="M-383.475,390.571c-.048-.062-.083-.1-.113-.145-1.613-2.277-3.232-4.549-4.834-6.833a13.549,13.549,0,0,1-1.91-3.657,7.118,7.118,0,0,1,6.138-9.335,7.27,7.27,0,0,1,7.643,5.013,7.435,7.435,0,0,1-.453,5.339,20.684,20.684,0,0,1-2.214,3.622q-2.04,2.866-4.067,5.74C-383.341,390.4-383.4,390.474-383.475,390.571Zm-.007-17.371a4.683,4.683,0,0,0-4.66,4.681,4.671,4.671,0,0,0,4.672,4.663,4.671,4.671,0,0,0,4.66-4.675A4.684,4.684,0,0,0-383.481,373.2Z" transform="translate(419.018 -16.294)" fill="#dd4a48"/>
    <path id="Path_2729" data-name="Path 2729" d="M-351.556,406.03a4.684,4.684,0,0,1,4.672,4.669,4.671,4.671,0,0,1-4.66,4.675,4.671,4.671,0,0,1-4.672-4.663A4.683,4.683,0,0,1-351.556,406.03Zm.005,7.672a3,3,0,0,0,3-2.982,3.013,3.013,0,0,0-3-3.018,3.014,3.014,0,0,0-3,2.988A3,3,0,0,0-351.551,413.7Z" transform="translate(387.092 -49.124)" fill="#2c272e"/>
  </g>
</svg>
