<svg xmlns="http://www.w3.org/2000/svg" width="295" height="222.685" viewBox="0 0 295 222.685">
  <g id="payment_failed" transform="translate(11838.001 2268.685)">
    <g id="Group_6973" data-name="Group 6973" transform="translate(-12114.879 -2598.324)">
      <path id="Path_2839" data-name="Path 2839" d="M437.832,530.85l-2.82-.72c-.377-1.428-1.54-1.839-2.765-2.317a21.5,21.5,0,0,1-5.617-2.782,1.189,1.189,0,0,0-1.53-.04c-.236.162-.465.38-.8.287l-2.393-1.557c0-1.456-.964-2.244-1.99-3.08a43.48,43.48,0,0,1-14.472-20.9,44.917,44.917,0,0,1-1.955-10.793,46.242,46.242,0,0,1,5.032-23.956,43.878,43.878,0,0,1,36.332-24.382,45.331,45.331,0,0,1,48.6,39.943,43.471,43.471,0,0,1-7.755,30.755,46.085,46.085,0,0,1-19.972,16.121,44.061,44.061,0,0,1-20.091,3.416,24.176,24.176,0,0,1-4.622-.608A3.149,3.149,0,0,0,437.832,530.85Z" transform="translate(-16.212 -15.844)" fill="#dd4a48"/>
      <path id="Path_2840" data-name="Path 2840" d="M421.621,515.006a1.851,1.851,0,0,1,2.367-1.074c14.808,2.685,27.734-1.3,38.8-11.3A42.234,42.234,0,0,0,476.617,477.4a44.823,44.823,0,0,0-87.857-17.658c-3.156,13.75-.661,26.389,8.008,37.658a42.782,42.782,0,0,0,8.16,7.987,1.859,1.859,0,0,1,.77,2.485,1.693,1.693,0,0,1-2.551.1c-10.862-8.408-17.228-19.361-18.586-33.08a49.028,49.028,0,0,1,26.163-48.072,45.2,45.2,0,0,1,26.167-4.675c9.154,1.055,17.59,3.956,24.957,9.579a45.087,45.087,0,0,1,17.316,28.448c2.541,13.553.169,26.248-7.7,37.687-6.533,9.5-15.666,15.346-26.758,18.194a46.726,46.726,0,0,1-21.338.934C422.044,516.715,421.717,516.4,421.621,515.006Z" transform="translate(0)" fill="#2c272e"/>
      <path id="Path_2841" data-name="Path 2841" d="M541.978,1001.24c1.23-1.17,1.36-1.091,2.9-.138a29.982,29.982,0,0,0,6.356,2.85,1.8,1.8,0,0,1,1.457,2.141c-.795,1.149-1.2,1.285-2.512.813a48.036,48.036,0,0,1-7.159-3.232C541.843,1003.019,541.646,1002.571,541.978,1001.24Z" transform="translate(-133.888 -491.807)" fill="#2c272e"/>
      <path id="Path_2842" data-name="Path 2842" d="M569.786,602.121c1.166-.724,1.655-.679,2.627.286q2.25,2.232,4.482,4.482c2.257,2.279,2.344,5.419.219,7.528a5.122,5.122,0,0,1-7.446-.255q-8.543-8.52-17.052-17.074c-.673-.679-1-.729-1.706-.017-5.656,5.719-11.365,11.386-17.047,17.08a5.115,5.115,0,0,1-5.038,1.61,5.108,5.108,0,0,1-2.432-8.644q5.525-5.562,11.082-11.092c2.07-2.071,4.116-4.168,6.226-6.2.641-.617.723-.945.035-1.627q-8.656-8.564-17.231-17.21a5.127,5.127,0,1,1,7.134-7.357c2.8,2.753,5.564,5.549,8.342,8.328,2.936,2.936,5.9,5.846,8.787,8.826.741.764,1.122.883,1.948.042,5.639-5.736,11.34-11.411,17.033-17.094a5.13,5.13,0,1,1,7.344,7.152c-4.016,4.057-8.063,8.083-12.1,12.121-1.781,1.783-3.546,3.584-5.358,5.336-.519.5-.535.786-.007,1.3,2.622,2.567,5.206,5.173,7.8,7.773.964.968,1,1.432.28,2.627-.593.846-1.341.579-2.068.26a3.881,3.881,0,0,1-1.1-.925q-4.05-4.047-8.1-8.1c-1.878-1.88-1.877-2.7.037-4.623q8.718-8.732,17.448-17.454a9.312,9.312,0,0,0,.918-.967,1.677,1.677,0,0,0-2.364-2.344,9.057,9.057,0,0,0-.885.843l-17.529,17.529a9.518,9.518,0,0,1-.97.914,2.08,2.08,0,0,1-2.668.022,9.52,9.52,0,0,1-1.053-.988q-8.766-8.764-17.53-17.529a5.239,5.239,0,0,0-1.076-.959,1.54,1.54,0,0,0-2.02.319,1.512,1.512,0,0,0-.225,2.025,6.622,6.622,0,0,0,.973,1.065q8.724,8.727,17.449,17.453a12.437,12.437,0,0,1,.924.961,2.1,2.1,0,0,1,.025,2.842,11.093,11.093,0,0,1-.92.965q-8.724,8.727-17.449,17.453a6.955,6.955,0,0,0-.975,1.063A1.59,1.59,0,0,0,528.8,612a1.568,1.568,0,0,0,2.121.16,7.7,7.7,0,0,0,.974-.909q8.569-8.567,17.136-17.136c.262-.262.519-.53.79-.782,1.5-1.393,2.459-1.393,3.906.051q8.853,8.833,17.689,17.684c.288.288.565.589.874.855a1.641,1.641,0,0,0,2.464.017,1.588,1.588,0,0,0-.067-2.374c-.8-.879-1.669-1.684-2.5-2.529-.779-.793-1.617-1.531-2.332-2.382A1.75,1.75,0,0,1,569.786,602.121Z" transform="translate(-119.422 -119.179)" fill="#2c272e"/>
      <path id="Path_2843" data-name="Path 2843" d="M587.5,620.079a1.846,1.846,0,0,0,.414,2.488c1.517,1.47,3,2.974,4.485,4.478,1.058,1.072,1.145,2.248.261,3.122s-2.052.778-3.121-.29q-9.165-9.154-18.317-18.32c-1.49-1.49-2-1.491-3.482-.007q-9.006,9-18.011,18a6.821,6.821,0,0,1-.988.891,1.969,1.969,0,0,1-2.534-.327,1.929,1.929,0,0,1-.14-2.541,8.54,8.54,0,0,1,.834-.891q9-9,18.008-18c1.43-1.43,1.433-1.99.014-3.41q-9-9.007-18-18.012c-.236-.236-.483-.462-.7-.715a2,2,0,0,1,2.836-2.82c.5.436.957.929,1.429,1.4L567.7,602.343c1.5,1.5,2.04,1.5,3.575-.039l17.757-17.78c.236-.236.464-.481.711-.7a1.985,1.985,0,0,1,2.884-.059,1.951,1.951,0,0,1-.033,2.879c-1.437,1.5-2.919,2.951-4.386,4.419q-7.112,7.119-14.225,14.236c-1.382,1.384-1.38,1.945,0,3.324,2.96,2.963,5.935,5.911,8.873,8.9a1.9,1.9,0,0,0,2.567.491A11.891,11.891,0,0,1,587.5,620.079Z" transform="translate(-137.132 -137.136)" fill="#fff"/>
    </g>
    <g id="Group_6974" data-name="Group 6974" transform="translate(6258.999 3817)">
      <g id="Group_6966" data-name="Group 6966">
        <g id="Group_6965" data-name="Group 6965">
          <g id="Group_6963" data-name="Group 6963" transform="translate(-18135 -6163.667)">
            <g id="Group_6937" data-name="Group 6937">
              <g id="Group_6932" data-name="Group 6932" transform="translate(-192.544 -285.889)">
                <g id="Group_6930" data-name="Group 6930" transform="translate(308.441 422.596)">
                  <g id="Group_6925" data-name="Group 6925" transform="translate(0)">
                    <path id="Path_2771" data-name="Path 2771" d="M453.3,523.812h-2.1a1.7,1.7,0,0,1-1.619-2.208h0c.775-2.461,1.677-4.907,2.677-7.275a81.957,81.957,0,0,1,129.576-29.743,1.7,1.7,0,0,1,.078,2.477l-1.445,1.445a1.694,1.694,0,0,1-2.314.078,76.557,76.557,0,0,0-123.235,34.053v0A1.7,1.7,0,0,1,453.3,523.812Z" transform="translate(-449.496 -464.26)" fill="#2c272e"/>
                    <path id="Path_2772" data-name="Path 2772" d="M609.771,634.259A82,82,0,0,1,452.253,666.17c-1-2.368-1.9-4.815-2.677-7.276h0a1.7,1.7,0,0,1,1.619-2.208h2.1a1.7,1.7,0,0,1,1.614,1.172v0a76.587,76.587,0,1,0,135.9-67.074,1.693,1.693,0,0,1,.2-2.159l1.466-1.466a1.7,1.7,0,0,1,2.59.223,81.873,81.873,0,0,1,13.089,30.56A82.365,82.365,0,0,1,609.771,634.259Z" transform="translate(-449.496 -552.28)" fill="#2c272e"/>
                  </g>
                </g>
                <rect id="Rectangle_17349" data-name="Rectangle 17349" width="39.392" height="6.568" rx="3.284" transform="translate(274.547 475.581)" fill="#2c272e"/>
                <rect id="Rectangle_17350" data-name="Rectangle 17350" width="32.041" height="6.568" rx="3.284" transform="translate(281.897 526.922)" fill="#2c272e"/>
                <rect id="Rectangle_17351" data-name="Rectangle 17351" width="40.83" height="6.568" rx="3.284" transform="translate(271.625 501.938)" fill="#2c272e"/>
                <g id="Group_6931" data-name="Group 6931" transform="translate(306.262 406.32)">
                  <path id="Path_2781" data-name="Path 2781" d="M535.487,410.071v.052a3.2,3.2,0,0,1-3.551,3.175,91.582,91.582,0,0,0-84.4,37.742,3.183,3.183,0,0,1-2.6,1.332h0a3.2,3.2,0,0,1-2.6-5.063,98.51,98.51,0,0,1,10.473-12.342,97.521,97.521,0,0,1,69.159-28.647,99.374,99.374,0,0,1,10.642.569A3.2,3.2,0,0,1,535.487,410.071Z" transform="translate(-441.739 -406.32)" fill="#2c272e"/>
                  <path id="Path_2782" data-name="Path 2782" d="M877.949,452.507l-1.725,1.725a2.023,2.023,0,0,1-2.759.093,91.5,91.5,0,0,0-24.521-15.381A3.2,3.2,0,0,1,846.99,436v-.076a3.193,3.193,0,0,1,4.425-2.951l.044.019a97.361,97.361,0,0,1,26.4,16.559A2.03,2.03,0,0,1,877.949,452.507Z" transform="translate(-733.152 -425.304)" fill="#2c272e"/>
                </g>
              </g>
              <g id="Group_6933" data-name="Group 6933" transform="translate(-2983.66 -1251.905)">
                <path id="Path_2783" data-name="Path 2783" d="M3282.668,1385.108a4.809,4.809,0,0,1,4.694-7.337c.123.017.248.018.372.026a5.216,5.216,0,0,1,2.628,1.6,4.787,4.787,0,1,1-7.46,6C3282.827,1385.3,3282.746,1385.2,3282.668,1385.108Z" transform="translate(-26.959 -28.511)" fill="#dd4a48"/>
                <path id="Path_2784" data-name="Path 2784" d="M3252.681,1438.859a11.087,11.087,0,0,1-.486-1.605c-.074-.367.007-.646.386-.716s.52.206.583.526a4.79,4.79,0,0,0,.554,1.619,6.4,6.4,0,0,0,4.582,3.644,6.184,6.184,0,0,0,2.6.045c.351-.067.647-.025.718.377s-.222.549-.557.6a7.619,7.619,0,0,1-7.069-2.452A7.833,7.833,0,0,1,3252.681,1438.859Z" transform="translate(0 -81.796)" fill="#2c272e"/>
                <path id="Path_2785" data-name="Path 2785" d="M3266.927,1347.31a6.212,6.212,0,0,0-4.157.907,6.6,6.6,0,0,0-2.446,2.526c-.038.068-.075.136-.114.2-.152.262-.366.4-.66.251a.473.473,0,0,1-.2-.715,7.645,7.645,0,0,1,1.99-2.455,7.841,7.841,0,0,1,5.481-1.755c.472.085.946.165,1.417.255.359.069.575.273.462.655s-.414.364-.725.287A3.165,3.165,0,0,0,3266.927,1347.31Z" transform="translate(-6.432)" fill="#2c272e"/>
                <path id="Path_2786" data-name="Path 2786" d="M3387.458,1381.055a7.981,7.981,0,0,1-1.755,4.918c-.078.1-.16.192-.245.283-.22.239-.478.326-.735.084a.482.482,0,0,1,.019-.743,6.721,6.721,0,0,0,.527-8.346c-.026-.039-.052-.078-.081-.115-.208-.268-.273-.558.026-.779.324-.239.573-.06.781.228a7.605,7.605,0,0,1,1.3,2.972A7.865,7.865,0,0,1,3387.458,1381.055Z" transform="translate(-119.964 -27.171)" fill="#2c272e"/>
              </g>
              <g id="Group_6934" data-name="Group 6934" transform="translate(-3156.513 -1075.283)">
                <path id="Path_2783-2" data-name="Path 2783" d="M3282.6,1384.474a4.4,4.4,0,0,1,4.291-6.707c.113.015.227.017.34.024a4.769,4.769,0,0,1,2.4,1.464,4.376,4.376,0,1,1-6.82,5.481C3282.75,1384.646,3282.675,1384.561,3282.6,1384.474Z" transform="translate(-27.199 -28.764)" fill="#dd4a48"/>
                <path id="Path_2784-2" data-name="Path 2784" d="M3252.637,1438.659a10.117,10.117,0,0,1-.444-1.468c-.067-.335.006-.59.353-.654s.475.188.533.48a4.377,4.377,0,0,0,.507,1.48,5.849,5.849,0,0,0,4.188,3.331,5.651,5.651,0,0,0,2.38.041c.321-.061.591-.023.657.344s-.2.5-.51.547a6.965,6.965,0,0,1-6.462-2.241A7.156,7.156,0,0,1,3252.637,1438.659Z" transform="translate(0 -82.523)" fill="#2c272e"/>
                <path id="Path_2785-2" data-name="Path 2785" d="M3266.27,1347.22a5.679,5.679,0,0,0-3.8.829,6.031,6.031,0,0,0-2.236,2.309c-.035.062-.069.125-.1.186-.139.24-.335.365-.6.23a.432.432,0,0,1-.18-.654,6.984,6.984,0,0,1,1.818-2.244,7.169,7.169,0,0,1,5.011-1.6c.431.077.865.151,1.3.234.329.063.525.25.422.6s-.378.333-.663.262A2.891,2.891,0,0,0,3266.27,1347.22Z" transform="translate(-6.488 0)" fill="#2c272e"/>
                <path id="Path_2786-2" data-name="Path 2786" d="M3387.209,1380.643a7.3,7.3,0,0,1-1.605,4.5c-.071.089-.146.175-.224.259-.2.218-.436.3-.671.076a.44.44,0,0,1,.017-.679,6.144,6.144,0,0,0,.481-7.629c-.024-.035-.047-.071-.073-.1-.19-.245-.25-.51.024-.712.3-.219.524-.055.714.208a6.952,6.952,0,0,1,1.193,2.717A7.248,7.248,0,0,1,3387.209,1380.643Z" transform="translate(-121.03 -27.412)" fill="#2c272e"/>
              </g>
              <path id="Path_2787" data-name="Path 2787" d="M2002.882,626.974l6.722-12.636c.908,1.439,1.718,2.706,2.511,3.984,1.583,2.551,3.153,5.11,4.738,7.66.235.378.453.657-.266.677-4.422.12-8.844.259-13.266.389A3.233,3.233,0,0,1,2002.882,626.974Z" transform="matrix(0.438, 0.899, -0.899, 0.438, -139.518, -1802.769)" fill="#dd4a48"/>
              <path id="Path_2788" data-name="Path 2788" d="M2002.882,632.734l9.786-18.4c1.322,2.1,2.5,3.94,3.656,5.8,2.3,3.714,4.59,7.44,6.9,11.152.342.55.66.957-.386.985-6.438.174-12.875.377-19.313.566A4.706,4.706,0,0,1,2002.882,632.734Z" transform="matrix(0.438, 0.899, -0.899, 0.438, -271.212, -1953.777)" fill="#dd4a48"/>
              <path id="Path_2789" data-name="Path 2789" d="M3072,440.028c0,1.1-.018,2.194.009,3.29.011.426-.087.577-.549.578-1.345,0-1.345.026-1.341-1.349,0-1.358-.015-2.716.017-4.073.01-.451-.13-.564-.566-.556-1.54.027-3.082-.019-4.621.03-.7.023-.97-.143-.938-.9.064-1.538.005-3.081.04-4.621.011-.49-.136-.613-.615-.6-1.592.033-3.186,0-4.778.03-.554.012-.726-.175-.714-.719.033-1.592.006-3.186.037-4.778.009-.477-.126-.629-.615-.619-1.592.035-3.186,0-4.778.035-.556.012-.724-.176-.712-.721.033-1.592,0-3.186.032-4.778.011-.484-.12-.63-.605-.618-1.514.035-3.03-.01-4.542.046-.67.025-.909-.124-.875-.848.069-1.459,0-2.925.047-4.385.02-.6-.112-.814-.758-.79-1.513.055-3.029,0-4.542.043-.6.017-.837-.13-.817-.778.047-1.539-.018-3.082.041-4.621.024-.627-.188-.731-.746-.716-1.513.04-3.029,0-4.542.041-.546.015-.765-.136-.684-.689a2.611,2.611,0,0,0,0-.7c-.056-.433.144-.511.533-.509,2.246.011,4.491.014,6.736-.021.526-.008.587.2.58.644-.025,1.619.007,3.238-.029,4.857-.011.495.138.609.612.6,1.618-.033,3.238,0,4.856-.036.53-.012.66.161.649.666-.034,1.566,0,3.134-.034,4.7-.011.508.122.677.65.664,1.565-.04,3.133-.009,4.7-.042.5-.011.675.114.662.649-.041,1.618,0,3.238-.035,4.856-.011.5.141.608.614.6,1.592-.033,3.187.013,4.778-.037.612-.019.739.183.724.751-.041,1.592,0,3.186-.039,4.778-.011.489.131.611.609.6,1.618-.033,3.238.008,4.856-.032.53-.013.648.153.637.653-.034,1.618,0,3.238-.035,4.856-.01.477.109.627.6.616,1.592-.034,3.186.008,4.778-.03.553-.013.776.082.741.705-.061,1.093-.017,2.192-.017,3.289Z" transform="translate(-2739.033 -204.723)" fill="#2c272e"/>
              <g id="Group_6935" data-name="Group 6935" transform="translate(-2522.903 -1255.044)">
                <path id="Path_2790" data-name="Path 2790" d="M2665.994,1351.079c-.125-.081-.249-.229-.375-.232-1.755-.041-1.734-1.049-1.519-2.427.752-4.8,1.423-9.621,2.054-14.442.126-.965.4-1.035,1.315-.9q7.579,1.15,15.188,2.1c1.067.135,1.351.437,1.031,1.483-.2.647-.064,1.388-.335,2.049a2.344,2.344,0,0,1,.285,1.865c-.48,3.508-1.03,7.007-1.466,10.522-.258,2.084-.542,2.279-2.583,2.024-4.157-.52-8.3-1.137-12.449-1.735A2.756,2.756,0,0,1,2665.994,1351.079Z" fill="#dd4a48"/>
                <path id="Path_2791" data-name="Path 2791" d="M2669.929,1364.332c1.957-.391,3.819.325,5.722.527,2.968.314,5.92.792,8.872,1.241.613.093.876.036.966-.668.572-4.492,1.193-8.979,1.8-13.468,2.3.124,2.346.13,2.048,2.328-.655,4.842-1.373,9.676-2.023,14.519-.1.719-.186,1.018-1.059.886q-7.764-1.172-15.552-2.191c-.864-.114-1.285-.253-.979-1.246A9.756,9.756,0,0,0,2669.929,1364.332Z" transform="translate(-3.936 -13.253)" fill="#2c272e"/>
              </g>
            </g>
          </g>
        </g>
      </g>
    </g>
  </g>
</svg>
