<svg xmlns="http://www.w3.org/2000/svg" width="24" height="24" viewBox="0 0 24 24">
  <g id="Paypal" transform="translate(16586 5737)">
    <rect id="Rectangle_17443" data-name="Rectangle 17443" width="24" height="24" transform="translate(-16586 -5737)" fill="none"/>
    <g id="paypal_1_" data-name="paypal (1)" transform="translate(-16584.043 -5737)">
      <path id="Path_8" data-name="Path 8" d="M17.248,20.851c-1.05-1.2-3-1.8-5.7-1.8H4.05a1.287,1.287,0,0,0-1.05.9L0,39.6a.686.686,0,0,0,.6.75H5.249L6.449,33v.3a1.287,1.287,0,0,1,1.05-.9h2.25c4.35,0,7.649-1.8,8.7-6.749V25.2h0a5.238,5.238,0,0,0-1.2-4.35" transform="translate(0 -19.051)" fill="#263b80"/>
      <path id="Path_9" data-name="Path 9" d="M16.1,22.382h0v.45c-1.05,5.1-4.35,6.749-8.7,6.749H5.151a1.287,1.287,0,0,0-1.05.9L2.6,39.63a.549.549,0,0,0,.6.6H7.1a.84.84,0,0,0,.9-.75v-.15l.75-4.65v-.3a.84.84,0,0,1,.9-.75h.6c3.75,0,6.749-1.5,7.5-6,.3-1.8.15-3.45-.75-4.5a1.536,1.536,0,0,0-.9-.75" transform="translate(2.199 -16.233)" fill="#139ad6"/>
      <path id="Path_10" data-name="Path 10" d="M14.292,22.346c-.15,0-.3-.15-.45-.15a.551.551,0,0,1-.45-.15,7.924,7.924,0,0,0-1.95-.15H5.593a.551.551,0,0,0-.45.15.825.825,0,0,0-.45.75l-1.2,7.8v.3a1.287,1.287,0,0,1,1.05-.9h2.25c4.35,0,7.649-1.8,8.7-6.749a.551.551,0,0,1,.15-.45c-.3-.15-.45-.3-.75-.3-.45-.15-.45-.15-.6-.15" transform="translate(2.956 -16.647)" fill="#232c65"/>
    </g>
  </g>
</svg>
