<svg xmlns="http://www.w3.org/2000/svg" width="58" height="28" viewBox="0 0 58 28">
  <g id="paystack" transform="translate(2.068 -0.39)">
    <rect id="Rectangle_72" data-name="Rectangle 72" width="58" height="28" rx="3" transform="translate(-2.069 0.39)" fill="#fff"/>
    <g id="Group_50" data-name="Group 50" transform="translate(16.879 4.515)">
      <path id="Path_17771" data-name="Path 17771" d="M18,15.5H1.053A1.063,1.063,0,0,0,0,16.553v1.888a1.053,1.053,0,0,0,1.053,1.053H18a1.075,1.075,0,0,0,1.07-1.053V16.57A1.07,1.07,0,0,0,18,15.5Zm0,10.512H1.053A1.053,1.053,0,0,0,0,27.065v1.888a1.053,1.053,0,0,0,1.053,1.054H18a1.07,1.07,0,0,0,1.07-1.053V27.065A1.057,1.057,0,0,0,18,26.012Zm-7.406,5.24H1.053A1.053,1.053,0,0,0,0,32.309V34.2A1.053,1.053,0,0,0,1.053,35.25h9.529A1.053,1.053,0,0,0,11.635,34.2V32.309a1.034,1.034,0,0,0-1.04-1.053Zm8.472-10.5H1.053A1.053,1.053,0,0,0,0,21.81V23.7a1.053,1.053,0,0,0,1.053,1.053h18A1.053,1.053,0,0,0,20.106,23.7V21.81a1.042,1.042,0,0,0-1.04-1.053Z" transform="translate(0 -15.5)" fill="#00c3f7"/>
    </g>
  </g>
</svg>
