<svg xmlns="http://www.w3.org/2000/svg" width="58" height="28" viewBox="0 0 58 28">
  <g id="paytm" transform="translate(2.703 -0.07)">
    <rect id="Rectangle_72" data-name="Rectangle 72" width="58" height="28" rx="3" transform="translate(-2.704 0.07)" fill="#fff"/>
    <g id="layer1" transform="translate(5.064 7.416)">
      <g id="g52" transform="translate(30.953 2.032)">
        <path id="path54" d="M6.866,1.144A2.83,2.83,0,0,0,4.2-.75H4.173A2.818,2.818,0,0,0,2.128.119,2.82,2.82,0,0,0,.094-.75H.07a2.812,2.812,0,0,0-1.844.685V-.283a.416.416,0,0,0-.415-.385h-1.9a.418.418,0,0,0-.295.12.418.418,0,0,0-.12.3V10.026a.419.419,0,0,0,.12.3.418.418,0,0,0,.3.12h1.892a.417.417,0,0,0,.412-.361V2.707a.663.663,0,0,1,0-.072A.689.689,0,0,1-1.127,2h.355a.736.736,0,0,1,.4.155.7.7,0,0,1,.255.551l.007,7.336a.42.42,0,0,0,.421.425H2.2a.418.418,0,0,0,.416-.4V2.7a.694.694,0,0,1,.308-.592.77.77,0,0,1,.348-.12h.349a.691.691,0,0,1,.655.708l.008,7.336a.418.418,0,0,0,.418.42H6.593a.418.418,0,0,0,.418-.42V2.143a2.634,2.634,0,0,0-.144-1" transform="translate(4.499 0.75)" fill="#54c1f0"/>
      </g>
      <g id="g56" transform="translate(24.191 0)">
        <path id="path58" d="M3.21,1.292H2.127V-.462h0a.376.376,0,0,0-.137-.3.376.376,0,0,0-.317-.077c-1.2.33-.958,1.991-3.148,2.132h-.212a.438.438,0,0,0-.091.011h0a.417.417,0,0,0-.33.409V3.6a.42.42,0,0,0,.42.418H-.546v8.024a.414.414,0,0,0,.414.412H1.737a.412.412,0,0,0,.412-.415V4.02H3.21a.418.418,0,0,0,.42-.417V1.711a.418.418,0,0,0-.418-.418" transform="translate(2.108 0.849)" fill="#54c1f0"/>
      </g>
      <g id="g60" transform="translate(15.973 2.14)">
        <path id="path62" d="M4.052,0H2.16a.418.418,0,0,0-.416.418V4.329a.443.443,0,0,1-.444.437H.507a.444.444,0,0,1-.446-.437V.418a.419.419,0,0,0-.124-.3A.418.418,0,0,0-.363,0H-2.254a.418.418,0,0,0-.418.418V4.707a2.685,2.685,0,0,0,.785,2.006A2.685,2.685,0,0,0,.119,7.5s1.223,0,1.261.007a.44.44,0,0,1,0,.874l-.032.006-2.766.008a.418.418,0,0,0-.3.12.418.418,0,0,0-.12.3V10.7a.417.417,0,0,0,.12.3.417.417,0,0,0,.3.12h3.1A2.684,2.684,0,0,0,4.472,8.334V.418A.418.418,0,0,0,4.052,0" transform="translate(2.675 0)" fill="#233266"/>
      </g>
      <g id="g64" transform="translate(0 2.139)">
        <path id="path66" d="M2.645,2.09V3.258A.444.444,0,0,1,2.2,3.7H1V1.362H2.2a.443.443,0,0,1,.444.444Zm.166-3.467H-1.331a.41.41,0,0,0-.41.41V9.315a.408.408,0,0,0,.382.418H.566a.418.418,0,0,0,.418-.418L1,6.439H2.8A2.457,2.457,0,0,0,5.382,3.868V1.2A2.459,2.459,0,0,0,2.81-1.377" transform="translate(1.741 1.379)" fill="#233266"/>
      </g>
      <g id="g68" transform="translate(7.784 2.151)">
        <path id="path70" d="M2.686,4.768v.3a.425.425,0,0,1-.446.416H1.452a.433.433,0,0,1-.446-.416V3.444a.431.431,0,0,1,.445-.415h.788a.432.432,0,0,1,.446.416Zm-.3-7.9H-.243a.408.408,0,0,0-.292.113.408.408,0,0,0-.126.286V-.965a.432.432,0,0,0,.445.416h2.5a.435.435,0,0,1,.376.4V.092A.418.418,0,0,1,2.3.481H1.058a2.626,2.626,0,0,0-2.82,2.634v2.2A2.48,2.48,0,0,0,.883,7.929H4.312A1.082,1.082,0,0,0,5.428,6.888V-.292c0-1.741-.9-2.84-3.042-2.84" transform="translate(1.766 3.132)" fill="#233266"/>
      </g>
    </g>
  </g>
</svg>
