<svg xmlns="http://www.w3.org/2000/svg" width="58" height="28" viewBox="0 0 58 28">
  <g id="payu" transform="translate(3.34 -0.39)">
    <rect id="Rectangle_72" data-name="Rectangle 72" width="58" height="28" rx="3" transform="translate(-3.34 0.39)" fill="#84b211"/>
    <g id="logo-white" transform="translate(6.826 4.924)">
      <path id="Path_51" data-name="Path 51" d="M73.3,3.963H71.633a.331.331,0,0,1-.329-.332V1.936a.33.33,0,0,1,.331-.331H73.3a.331.331,0,0,1,.33.333v1.7a.33.33,0,0,1-.33.33M71.078,1.6H69.947a.224.224,0,0,1-.223-.225V.225A.224.224,0,0,1,69.948,0H71.08A.224.224,0,0,1,71.3.225V1.38a.224.224,0,0,1-.224.225" transform="translate(-35.963)" fill="#fff" fill-rule="evenodd"/>
      <g id="Group_32" data-name="Group 32" transform="translate(0 4.724)">
        <path id="Path_52" data-name="Path 52" d="M33.757,1.29V7.046a4.3,4.3,0,0,1-.608,2.34c-.773,1.224-2.27,1.877-4.4,1.877h-.015c-2.129,0-3.627-.653-4.4-1.877a4.3,4.3,0,0,1-.607-2.34V1.29c0-.932.376-1.1,1.391-1.1h.319c1.013,0,1.389.168,1.389,1.1V7.046a1.632,1.632,0,0,0,.218.9c.276.429.822.625,1.7.625s1.422-.2,1.7-.625a1.632,1.632,0,0,0,.218-.9V1.29c0-.932.376-1.1,1.389-1.1h.319c1.013,0,1.389.168,1.389,1.1ZM22.684,3.5,20.8,11.1c-.551,2.225-1.5,3.18-3.255,3.3q-.064,0-.129.006c-.38,0-.5-.211-.57-.551l-.033-.147a.572.572,0,0,1,.037-.45c.086-.117.242-.15.481-.173,1.18-.117,1.578-.671,1.972-1.915a2.06,2.06,0,0,1-.656.1c-1.3,0-1.642-.91-1.935-2.008l-1.549-5.74a.625.625,0,0,1,.014-.526.6.6,0,0,1,.5-.149H15.8a.688.688,0,0,1,.8.621l1.54,5.689c.2.71.4.83.9.83.408,0,.646-.128.816-.828l1.358-5.683a.669.669,0,0,1,.789-.624h.147a.612.612,0,0,1,.5.149.631.631,0,0,1,.033.522ZM13.179,7.351h-1.81c-1.457,0-2.023.373-2.023,1.33,0,.873.565,1.3,1.73,1.3,1.762,0,2.106-.542,2.106-1.479ZM11.073,2.592c2.384,0,3.542.881,3.542,2.695V8.551c0,1.875-1.086,2.711-3.526,2.711-2.053,0-3.182-.916-3.182-2.579,0-1.715,1.094-2.513,3.444-2.513h1.828V5.287c0-.992-.591-1.4-2.041-1.4a8.7,8.7,0,0,0-1.775.178,1.049,1.049,0,0,1-.251.036.35.35,0,0,1-.318-.155.719.719,0,0,1-.084-.4V3.426c0-.466.169-.575.573-.663a8.625,8.625,0,0,1,1.789-.168ZM6.468,3.7c0,1.36-.346,2.1-2.173,2.1H1.485V2.274c0-.488.179-.67.666-.67H4.3C5.67,1.6,6.469,1.95,6.469,3.7ZM4.3.19H1.873C.583.19,0,.773,0,2.077v8.381c0,.5.161.666.661.666H.824c.5,0,.661-.162.661-.666V7.195H4.3c2.5,0,3.656-1.113,3.656-3.5S6.791.19,4.3.19Z" transform="translate(0 -0.19)" fill="#fff" fill-rule="evenodd" opacity="0.963"/>
      </g>
      <path id="Path_53" data-name="Path 53" d="M69.207,11.375H66.963a.444.444,0,0,1-.443-.446V8.64a.444.444,0,0,1,.443-.446h2.244a.444.444,0,0,1,.443.446v2.288a.444.444,0,0,1-.443.445" transform="translate(-34.311 -4.228)" fill="#fff" fill-rule="evenodd" opacity="0.921"/>
    </g>
  </g>
</svg>
