<svg xmlns="http://www.w3.org/2000/svg" xmlns:xlink="http://www.w3.org/1999/xlink" width="480" height="443" viewBox="0 0 480 443">
  <defs>
    <clipPath id="clip-refer_and_earn">
      <rect width="480" height="443"/>
    </clipPath>
  </defs>
  <g id="refer_and_earn" clip-path="url(#clip-refer_and_earn)">
    <g id="Group_7454" data-name="Group 7454" transform="translate(-31.147 -70.46)">
      <ellipse id="Ellipse_244" data-name="Ellipse 244" cx="228.242" cy="19.643" rx="228.242" ry="19.643" transform="translate(31.147 473.617)" fill="#ececf6"/>
      <g id="Group_7368" data-name="Group 7368" transform="translate(52.759 79.813)">
        <g id="Group_7366" data-name="Group 7366" transform="translate(0 14.769)">
          <g id="Group_7363" data-name="Group 7363" transform="translate(101.794 291.611)">
            <path id="Path_13417" data-name="Path 13417" d="M297.356,742.136a.6.6,0,0,0,.612-.389c.063-.258-.161-.507-.5-.554-.013,0-1.349-.191-3.634-.581a.647.647,0,0,0-.744.361c-.075.256.136.51.472.568,2.31.395,3.666.586,3.679.588A.768.768,0,0,0,297.356,742.136Z" transform="translate(-293.076 -740.6)" fill="#201d22"/>
          </g>
          <g id="Group_7364" data-name="Group 7364" transform="translate(0 0.413)">
            <path id="Path_13418" data-name="Path 13418" d="M171.994,413.31c-2.418-.487-4.857-1.013-7.253-1.562-.33-.075-.516-.341-.417-.592a.673.673,0,0,1,.776-.319c2.382.547,4.808,1.069,7.212,1.553.333.067.532.327.443.581a.62.62,0,0,1-.6.354A.8.8,0,0,1,171.994,413.31ZM157.566,410c-2.405-.624-4.789-1.281-7.087-1.953-.321-.094-.482-.369-.359-.614a.694.694,0,0,1,.805-.274c2.282.668,4.652,1.321,7.041,1.94.326.085.5.355.389.6a.635.635,0,0,1-.59.323A.809.809,0,0,1,157.566,410ZM143.5,405.871c-2.353-.778-4.655-1.59-6.84-2.415a.431.431,0,0,1-.283-.637.722.722,0,0,1,.834-.216c2.167.817,4.45,1.623,6.784,2.4.316.1.461.384.324.625a.654.654,0,0,1-.572.286A.769.769,0,0,1,143.5,405.871Zm-13.507-5.11c-2.25-.977-4.413-1.992-6.43-3.019a.412.412,0,0,1-.172-.66.748.748,0,0,1,.864-.132c1.992,1.014,4.131,2.018,6.354,2.983a.422.422,0,0,1,.234.649.677.677,0,0,1-.542.24A.78.78,0,0,1,129.994,400.761Zm-12.536-6.418a67.148,67.148,0,0,1-5.65-3.842.4.4,0,0,1,0-.672.766.766,0,0,1,.881,0,65.931,65.931,0,0,0,5.549,3.772.4.4,0,0,1,.1.669.711.711,0,0,1-.487.179A.744.744,0,0,1,117.458,394.343Zm-10.646-8.192a34.29,34.29,0,0,1-4.066-4.894.429.429,0,0,1,.268-.641.729.729,0,0,1,.84.2,33.286,33.286,0,0,0,3.953,4.757.406.406,0,0,1-.121.666.754.754,0,0,1-.376.1A.706.706,0,0,1,106.811,386.151Zm-6.873-10.285a21.635,21.635,0,0,1-1.284-5.719c-.022-.262.239-.489.582-.505a.585.585,0,0,1,.662.444,20.885,20.885,0,0,0,1.239,5.52c.094.253-.1.516-.43.588a.838.838,0,0,1-.17.018A.623.623,0,0,1,99.939,375.866Zm6.539-6.378c-.339-.047-.563-.294-.5-.553a.63.63,0,0,1,.724-.383,30.122,30.122,0,0,0,7.267.128.62.62,0,0,1,.7.405c.048.26-.19.5-.531.537a30.928,30.928,0,0,1-3.258.172A32.232,32.232,0,0,1,106.477,369.488Zm14.155-1.806c-.148-.237-.017-.521.294-.634a17.518,17.518,0,0,0,5.783-3.246.763.763,0,0,1,.878-.057.4.4,0,0,1,.075.67,18.757,18.757,0,0,1-6.2,3.491.783.783,0,0,1-.268.047A.661.661,0,0,1,120.632,367.681Zm-21.41-.037a35.628,35.628,0,0,1-6.4-3.161.4.4,0,0,1-.087-.669.762.762,0,0,1,.877-.066,34.321,34.321,0,0,0,6.162,3.043.432.432,0,0,1,.285.637.664.664,0,0,1-.56.266A.775.775,0,0,1,99.223,367.644Zm.253-2.766c-.341-.035-.58-.275-.534-.535a27.9,27.9,0,0,1,1.671-5.656.673.673,0,0,1,.781-.312c.328.078.512.345.409.6a27.153,27.153,0,0,0-1.625,5.5.592.592,0,0,1-.617.411C99.532,364.882,99.5,364.881,99.475,364.878Zm-12.026-4.513a34.227,34.227,0,0,1-4.27-4.8.423.423,0,0,1,.24-.647.736.736,0,0,1,.848.183,33.238,33.238,0,0,0,4.147,4.66.4.4,0,0,1-.087.669.745.745,0,0,1-.394.108A.713.713,0,0,1,87.449,360.365Zm42.439-1c-.343-.011-.611-.233-.6-.5.007-.118.01-.236.01-.354a8.137,8.137,0,0,0-1.8-4.853.42.42,0,0,1,.229-.649.737.737,0,0,1,.851.174,8.924,8.924,0,0,1,1.966,5.328q0,.2-.011.394a.573.573,0,0,1-.622.456Zm-26.111-5.4a.422.422,0,0,1-.234-.649,15.887,15.887,0,0,1,5-4.47.755.755,0,0,1,.871.1.408.408,0,0,1-.137.665,14.8,14.8,0,0,0-4.655,4.171.676.676,0,0,1-.542.241A.783.783,0,0,1,103.777,353.969Zm-23.746-3.676a31.37,31.37,0,0,1-2.025-5.581c-.066-.258.154-.508.491-.559a.636.636,0,0,1,.732.375,30.539,30.539,0,0,0,1.974,5.441c.117.247-.05.52-.374.609a.8.8,0,0,1-.212.028A.639.639,0,0,1,80.031,350.293Zm42.574-.607a15.543,15.543,0,0,0-6.7-1.7c-.344-.006-.617-.224-.609-.486s.3-.462.637-.465a17.068,17.068,0,0,1,7.356,1.854.413.413,0,0,1,.175.66.691.691,0,0,1-.52.212A.765.765,0,0,1,122.605,349.686ZM77.086,338.968c-.046-.69-.068-1.394-.068-2.093a33.014,33.014,0,0,1,.209-3.691.6.6,0,0,1,.674-.433c.343.023.6.253.567.515a32.328,32.328,0,0,0-.2,3.609c0,.684.023,1.372.067,2.045.017.262-.247.486-.591.5h-.032A.574.574,0,0,1,77.086,338.968Zm1.747-10.934c-.336-.055-.55-.308-.478-.565a41.222,41.222,0,0,1,2.027-5.565.684.684,0,0,1,.791-.3c.326.085.5.355.389.6a40.335,40.335,0,0,0-1.988,5.459.611.611,0,0,1-.609.376A.784.784,0,0,1,78.834,328.034Zm4.673-10.853c-.312-.111-.448-.393-.3-.632a57.546,57.546,0,0,1,3.507-5.108.74.74,0,0,1,.853-.171.42.42,0,0,1,.223.651,56.7,56.7,0,0,0-3.453,5.028.657.657,0,0,1-.565.276A.8.8,0,0,1,83.507,317.181Zm7.447-9.92a.41.41,0,0,1-.15-.663c1.419-1.533,2.962-3.071,4.588-4.572a.764.764,0,0,1,.877-.063.4.4,0,0,1,.083.669c-1.606,1.482-3.131,3-4.531,4.515a.7.7,0,0,1-.51.2A.761.761,0,0,1,90.954,307.26Zm9.493-8.835a.4.4,0,0,1,.016-.672,54.373,54.373,0,0,1,5.789-3.69.755.755,0,0,1,.871.1.408.408,0,0,1-.137.664,53.276,53.276,0,0,0-5.658,3.606.736.736,0,0,1-.433.133A.727.727,0,0,1,100.446,298.425Zm11.912-6.842a.421.421,0,0,1,.228-.65c2.081-.916,4.332-1.812,6.69-2.661a.719.719,0,0,1,.829.228c.147.237.014.521-.3.633-2.327.838-4.547,1.721-6.6,2.624a.774.774,0,0,1-.311.064A.679.679,0,0,1,112.358,291.583Zm13.491-4.973c-.126-.244.031-.521.351-.617,2.245-.676,4.629-1.339,7.082-1.968a.683.683,0,0,1,.789.3c.11.249-.065.519-.392.6-2.433.624-4.8,1.281-7.021,1.952a.794.794,0,0,1-.229.033A.645.645,0,0,1,125.849,286.611Zm14.2-3.708c-.1-.252.095-.516.425-.589,2.33-.515,4.776-1.02,7.269-1.5a.656.656,0,0,1,.757.345c.084.254-.118.513-.451.577-2.48.478-4.912.98-7.227,1.493a.809.809,0,0,1-.174.019A.625.625,0,0,1,140.047,282.9Zm14.547-2.846c-.075-.256.137-.511.473-.568,2.379-.4,4.858-.8,7.367-1.173a.635.635,0,0,1,.731.375c.066.258-.154.508-.491.558-2.5.374-4.968.767-7.337,1.169a.88.88,0,0,1-.136.011A.61.61,0,0,1,154.594,280.056Zm14.73-2.237c-.059-.259.168-.505.506-.55,2.4-.32,4.894-.635,7.421-.936a.627.627,0,0,1,.712.4c.053.26-.179.5-.52.543-2.519.3-5.008.614-7.4.933a.749.749,0,0,1-.108.007A.6.6,0,0,1,169.324,277.82Zm14.836-1.79c-.048-.26.189-.5.531-.537q3.682-.394,7.453-.759a.608.608,0,0,1,.7.413c.043.261-.2.5-.54.531q-3.761.363-7.437.756a.793.793,0,0,1-.087,0A.593.593,0,0,1,184.16,276.03Zm14.9-1.456c-.039-.261.206-.5.548-.527q3.7-.324,7.472-.624a.607.607,0,0,1,.684.424c.036.261-.213.5-.555.522q-3.763.3-7.46.623c-.024,0-.048,0-.072,0A.589.589,0,0,1,199.058,274.574Zm14.938-1.2c-.032-.262.219-.494.561-.519q3.714-.27,7.484-.521a.6.6,0,0,1,.675.432c.03.262-.223.492-.566.515q-3.764.252-7.474.521l-.06,0A.583.583,0,0,1,214,273.373Zm14.961-1.007c-.027-.262.228-.491.571-.513q3.724-.23,7.491-.444a.59.59,0,0,1,.668.439c.025.262-.231.49-.575.51q-3.763.214-7.484.443l-.051,0A.581.581,0,0,1,228.957,272.365Zm14.978-.862c-.024-.262.235-.49.578-.507q3.731-.2,7.494-.387a.588.588,0,0,1,.663.443c.022.262-.238.489-.581.506q-3.759.188-7.489.387h-.045A.578.578,0,0,1,243.934,271.5Zm14.986-.756c-.022-.262.239-.487.583-.5q3.737-.177,7.5-.347a.587.587,0,0,1,.659.447c.021.262-.241.488-.585.5q-3.758.17-7.494.347h-.039A.577.577,0,0,1,258.92,270.747Zm14.992-.68c-.019-.262.244-.487.587-.5q3.733-.163,7.479-.321a.578.578,0,0,1,.657.449c.019.262-.245.487-.588.5q-3.745.158-7.477.32h-.036A.577.577,0,0,1,273.913,270.066Zm14.97-.636c-.018-.262.245-.487.588-.5l7.508-.311a.593.593,0,0,1,.656.449c.018.262-.245.486-.589.5l-7.507.311H289.5A.576.576,0,0,1,288.882,269.431Zm15.03-.622c-.019-.262.245-.486.589-.5l7.5-.312a.592.592,0,0,1,.657.449c.018.262-.245.487-.589.5l-7.5.312h-.034A.576.576,0,0,1,303.912,268.808Zm15-.63c-.019-.262.244-.487.587-.5q3.753-.161,7.5-.328a.574.574,0,0,1,.658.447c.02.262-.242.487-.585.5q-3.744.167-7.5.328h-.035A.577.577,0,0,1,318.908,268.178Zm14.993-.666c-.021-.262.241-.488.585-.5q3.756-.175,7.492-.357a.591.591,0,0,1,.662.444c.022.262-.239.489-.582.505q-3.737.182-7.5.357h-.039A.578.578,0,0,1,333.9,267.512Zm14.988-.73c-.023-.262.237-.489.58-.506q3.758-.2,7.488-.4a.6.6,0,0,1,.667.44c.025.262-.234.49-.577.509q-3.731.206-7.494.4l-.043,0A.579.579,0,0,1,348.889,266.782Zm14.98-.826c-.027-.261.23-.49.573-.511q3.76-.224,7.481-.463a.609.609,0,0,1,.673.434c.029.262-.226.492-.569.514q-3.724.24-7.489.463h-.049A.579.579,0,0,1,363.869,265.956ZM378.835,265c-.031-.262.221-.493.564-.517q3.761-.262,7.471-.543a.6.6,0,0,1,.682.426c.034.262-.216.495-.558.52q-3.713.282-7.48.545l-.057,0A.584.584,0,0,1,378.835,265Zm14.946-1.13c-.037-.261.21-.5.553-.524q3.76-.312,7.453-.649a.6.6,0,0,1,.693.416c.041.261-.2.5-.544.529q-3.7.339-7.468.651l-.068,0A.587.587,0,0,1,393.781,263.871Zm14.914-1.353c-.045-.261.2-.5.537-.534q3.756-.378,7.43-.786a.622.622,0,0,1,.707.4c.049.26-.186.5-.527.539q-3.681.41-7.446.788a.684.684,0,0,1-.082,0A.591.591,0,0,1,408.694,262.518Zm14.863-1.645c-.056-.26.176-.5.515-.546,2.523-.312,5.009-.637,7.39-.965a.633.633,0,0,1,.724.383c.061.259-.164.506-.5.553-2.389.33-4.882.656-7.412.969a.808.808,0,0,1-.1.007A.6.6,0,0,1,423.558,260.873Zm14.78-2.026c-.069-.257.149-.508.487-.561,2.492-.385,4.957-.79,7.325-1.2a.649.649,0,0,1,.747.358c.076.256-.134.511-.469.57-2.378.414-4.853.82-7.355,1.207a.877.877,0,0,1-.125.009A.606.606,0,0,1,438.338,258.847Zm14.642-2.533c-.086-.254.114-.514.447-.58,2.473-.488,4.9-1,7.214-1.522a.67.67,0,0,1,.774.321c.1.252-.091.516-.421.591-2.327.524-4.767,1.039-7.254,1.53a.806.806,0,0,1-.156.016A.619.619,0,0,1,452.98,256.314Zm14.4-3.223c-.111-.249.063-.519.389-.6,2.422-.629,4.78-1.291,7.009-1.966a.7.7,0,0,1,.809.267c.127.244-.029.521-.349.618-2.249.681-4.627,1.348-7.068,1.983a.812.812,0,0,1-.2.025A.636.636,0,0,1,467.379,253.091Zm13.944-4.193c-.147-.238-.012-.521.3-.633,2.319-.832,4.543-1.707,6.608-2.6a.738.738,0,0,1,.849.179.421.421,0,0,1-.234.648c-2.093.907-4.345,1.793-6.694,2.636a.786.786,0,0,1-.265.045A.66.66,0,0,1,481.322,248.9Zm13.021-5.589a.41.41,0,0,1,.151-.663,60.294,60.294,0,0,0,5.764-3.5.765.765,0,0,1,.881.033.4.4,0,0,1-.043.671,61.476,61.476,0,0,1-5.884,3.579.76.76,0,0,1-.358.087A.7.7,0,0,1,494.343,243.31Zm11.05-7.55a.4.4,0,0,1-.092-.669,31.5,31.5,0,0,0,4.075-4.646.731.731,0,0,1,.845-.192.425.425,0,0,1,.252.645,32.437,32.437,0,0,1-4.2,4.791.709.709,0,0,1-.485.177A.756.756,0,0,1,505.393,235.759Zm7.308-9.884c-.323-.09-.49-.363-.372-.61a42.4,42.4,0,0,0,2.159-5.423.654.654,0,0,1,.753-.35c.334.062.54.319.458.574a43.11,43.11,0,0,1-2.2,5.525.641.641,0,0,1-.586.313A.8.8,0,0,1,512.7,225.875Zm3.636-11.082c-.342-.029-.588-.265-.55-.526a32.177,32.177,0,0,0,.346-4.668q0-.491-.016-.98c-.008-.263.264-.481.608-.487h.016a.57.57,0,0,1,.623.464q.015.5.016,1a32.84,32.84,0,0,1-.354,4.775.587.587,0,0,1-.618.423C516.384,214.8,516.36,214.8,516.337,214.793Zm-.911-11.778a33.436,33.436,0,0,0-1.7-5.481c-.1-.251.082-.517.411-.6a.674.674,0,0,1,.78.314,34.081,34.081,0,0,1,1.743,5.608c.056.259-.173.5-.513.547a.771.771,0,0,1-.1.007A.6.6,0,0,1,515.426,203.015Zm-4.347-10.751a47.187,47.187,0,0,0-3.464-5,.417.417,0,0,1,.212-.652.741.741,0,0,1,.856.162,48.062,48.062,0,0,1,3.531,5.093c.143.239.005.521-.308.63a.79.79,0,0,1-.259.043A.658.658,0,0,1,511.078,192.265Zm-7.618-9.693c-1.443-1.471-3.03-2.948-4.716-4.388a.4.4,0,0,1,.05-.671.763.763,0,0,1,.88.038c1.71,1.461,3.32,2.958,4.785,4.451a.408.408,0,0,1-.126.666.755.755,0,0,1-.373.095A.706.706,0,0,1,503.46,182.572Zm-9.888-8.479c-1.739-1.28-3.6-2.563-5.537-3.813a.4.4,0,0,1-.073-.67.764.764,0,0,1,.878-.056c1.955,1.264,3.838,2.56,5.6,3.854a.4.4,0,0,1,.017.673.731.731,0,0,1-.449.145A.738.738,0,0,1,493.572,174.092ZM482.2,166.723c-1.936-1.115-3.979-2.233-6.072-3.321a.411.411,0,0,1-.165-.661.752.752,0,0,1,.866-.126c2.111,1.1,4.171,2.223,6.123,3.348a.407.407,0,0,1,.122.666.706.706,0,0,1-.5.189A.754.754,0,0,1,482.2,166.723ZM469.859,160.3c-2.071-.979-4.236-1.958-6.434-2.91a.421.421,0,0,1-.235-.648.736.736,0,0,1,.849-.179c2.212.957,4.39,1.943,6.475,2.928a.417.417,0,0,1,.2.655.685.685,0,0,1-.53.225A.767.767,0,0,1,469.859,160.3Zm-13.006-5.639c-2.163-.863-4.413-1.725-6.688-2.564-.31-.115-.44-.4-.29-.635a.718.718,0,0,1,.832-.221c2.287.843,4.549,1.71,6.724,2.578a.427.427,0,0,1,.264.642.67.67,0,0,1-.553.255A.781.781,0,0,1,456.853,154.657Zm-13.476-4.974c-2.241-.767-4.553-1.53-6.873-2.269-.318-.1-.468-.38-.335-.622a.7.7,0,0,1,.816-.256c2.33.742,4.652,1.509,6.9,2.279.314.107.455.389.314.629a.657.657,0,0,1-.569.281A.8.8,0,0,1,443.377,149.683Zm-13.821-4.4c-2.284-.678-4.644-1.355-7.012-2.011-.324-.09-.49-.363-.373-.609a.69.69,0,0,1,.8-.285c2.377.659,4.745,1.338,7.039,2.019.32.1.48.371.355.616a.645.645,0,0,1-.581.3A.792.792,0,0,1,429.556,145.278Zm-14.081-3.9c-2.325-.6-4.719-1.2-7.119-1.783-.328-.079-.51-.347-.406-.6a.675.675,0,0,1,.783-.31c2.407.583,4.81,1.185,7.143,1.788.326.085.5.355.39.6a.636.636,0,0,1-.59.323A.81.81,0,0,1,415.475,141.373Zm-14.283-3.46c-2.368-.536-4.792-1.066-7.2-1.576-.332-.07-.526-.332-.434-.585a.663.663,0,0,1,.767-.331c2.419.511,4.85,1.043,7.226,1.58.33.075.518.34.42.592a.627.627,0,0,1-.6.34A.784.784,0,0,1,401.191,137.914Zm-14.443-3.054c-2.39-.471-4.837-.937-7.273-1.385-.335-.061-.54-.318-.46-.574a.654.654,0,0,1,.752-.351c2.441.449,4.9.916,7.292,1.389.334.065.534.325.448.579a.618.618,0,0,1-.6.357A.8.8,0,0,1,386.748,134.859Zm-14.573-2.679c-2.411-.412-4.875-.818-7.327-1.206-.337-.054-.553-.305-.483-.562a.639.639,0,0,1,.737-.369c2.457.39,4.929.8,7.347,1.209.335.057.547.311.472.568a.611.611,0,0,1-.608.372A.847.847,0,0,1,372.175,132.18ZM357.5,129.855c-2.442-.358-4.916-.705-7.354-1.033-.339-.046-.565-.292-.505-.551a.63.63,0,0,1,.722-.386c2.443.329,4.923.677,7.371,1.036.338.049.56.3.5.557a.6.6,0,0,1-.612.386A.918.918,0,0,1,357.5,129.855Zm-14.733-1.985q-3.693-.454-7.4-.87c-.34-.038-.576-.279-.526-.539a.619.619,0,0,1,.707-.4q3.717.416,7.421.873c.34.041.571.285.516.545a.6.6,0,0,1-.614.4A.811.811,0,0,1,342.764,127.87Zm-14.829-1.659q-3.72-.375-7.446-.709c-.342-.031-.587-.267-.546-.528a.6.6,0,0,1,.691-.416q3.735.334,7.464.71c.341.034.582.273.537.533a.592.592,0,0,1-.618.414A.807.807,0,0,1,327.936,126.211Zm-14.912-1.336q-3.743-.295-7.483-.547c-.343-.024-.6-.254-.566-.516a.6.6,0,0,1,.676-.432q3.749.254,7.5.548c.342.027.592.261.556.522a.585.585,0,0,1-.619.427Zm-14.954-1.009q-3.75-.211-7.486-.38c-.344-.016-.605-.241-.585-.5a.576.576,0,0,1,.659-.447q3.745.169,7.5.381c.343.019.6.247.576.509a.579.579,0,0,1-.621.44Z" transform="translate(-77.018 -122.535)" fill="#201d22"/>
          </g>
          <g id="Group_7365" data-name="Group 7365" transform="translate(201.616)">
            <path id="Path_13419" data-name="Path 13419" d="M509.3,122.724a.573.573,0,0,0,.622-.455c.015-.263-.252-.485-.6-.5q-1.872-.062-3.739-.114a.587.587,0,0,0-.646.458c-.013.262.256.483.6.492q1.863.052,3.73.114Z" transform="translate(-504.946 -121.659)" fill="#201d22"/>
          </g>
        </g>
        <g id="Group_7367" data-name="Group 7367" transform="translate(180.211 0)">
          <path id="Path_13420" data-name="Path 13420" d="M530.786,117.858,511,118.775l5.947-7.658Z" transform="translate(-486.742 -101.315)" fill="#201d22"/>
          <path id="Path_13421" data-name="Path 13421" d="M485.345,124.76l-25.778-5.785,31.953-1.112Z" transform="translate(-459.542 -104.883)" fill="#201d22"/>
          <path id="Path_13422" data-name="Path 13422" d="M459.514,104.38l39.7-14.068-5.657,7.013Z" transform="translate(-459.514 -90.313)" fill="#201d22"/>
          <path id="Path_13423" data-name="Path 13423" d="M459.567,112.151l32.021-1.046,12,3.5-10-9.642Z" transform="translate(-459.542 -98.059)" fill="#201d22"/>
        </g>
      </g>
      <path id="Path_13424" data-name="Path 13424" d="M256.642,196.911a4.837,4.837,0,0,0-4.621-2.012,7.331,7.331,0,0,0-4.513,2.573,15.762,15.762,0,0,0-2.617,4.6,19.909,19.909,0,0,0-1.673,8.573,83.96,83.96,0,0,1-8.839-9.406c-.246-.305-.486-.615-.727-.923l7.567-5.255a16.13,16.13,0,0,0,4.533-4.092,5.5,5.5,0,0,0,.424-5.8,4.837,4.837,0,0,0-4.621-2.012,7.333,7.333,0,0,0-4.513,2.573,15.767,15.767,0,0,0-2.617,4.6,19.613,19.613,0,0,0-1.652,8.848,85.67,85.67,0,0,1-7.652-12.119l7.462-5.619a16.14,16.14,0,0,0,4.373-4.264,5.5,5.5,0,0,0,.2-5.816,4.834,4.834,0,0,0-4.695-1.833,7.331,7.331,0,0,0-4.411,2.744,15.771,15.771,0,0,0-2.439,4.695,20.246,20.246,0,0,0-1.371,8.35,84.256,84.256,0,0,1-4-9.576c-.335-.968-.645-1.944-.943-2.925l7.484-6.031a16.118,16.118,0,0,0,4.23-4.406,5.5,5.5,0,0,0,.011-5.82,4.836,4.836,0,0,0-4.752-1.678,7.332,7.332,0,0,0-4.319,2.888,15.768,15.768,0,0,0-2.284,4.772,21.348,21.348,0,0,0-1.169,7.485,80.712,80.712,0,0,1-2.02-10.221q1.808-4.322,3.616-8.646a16.155,16.155,0,0,0,1.624-5.892,5.508,5.508,0,0,0-2.757-5.127,4.828,4.828,0,0,0-4.975.788,7.348,7.348,0,0,0-2.423,4.6,15.8,15.8,0,0,0,.261,5.288,18.865,18.865,0,0,0,3.807,8.914c0,.012,0,.022,0,.033a81.536,81.536,0,0,0,2.172,10.874,20.887,20.887,0,0,0-5.875-5.342,15.789,15.789,0,0,0-4.795-2.238,7.334,7.334,0,0,0-5.17.509,4.834,4.834,0,0,0-2.607,4.312,5.507,5.507,0,0,0,3.7,4.491,16.138,16.138,0,0,0,6.066.719l9.361-.088a84.209,84.209,0,0,0,4.974,12.622,20.36,20.36,0,0,0-7.33-4,15.76,15.76,0,0,0-5.2-.977,7.332,7.332,0,0,0-4.881,1.778,4.839,4.839,0,0,0-1.455,4.827,5.5,5.5,0,0,0,4.7,3.43,16.118,16.118,0,0,0,6.053-.81l9.04-2.41c.066.126.129.254.2.38a86.826,86.826,0,0,0,7.507,11.813,19.236,19.236,0,0,0-8.816-2.965,15.736,15.736,0,0,0-5.287.1,7.335,7.335,0,0,0-4.419,2.731,4.842,4.842,0,0,0-.448,5.023,5.5,5.5,0,0,0,5.3,2.408,16.129,16.129,0,0,0,5.762-2.021l8.633-4.328.121.154-.029.087.063-.043a85.441,85.441,0,0,0,9.209,10.033,20.849,20.849,0,0,0-8.4.24,16.073,16.073,0,0,0-5.082,1.795,7.482,7.482,0,0,0-3.4,4.06,4.925,4.925,0,0,0,1.175,5,5.6,5.6,0,0,0,5.892.623,16.464,16.464,0,0,0,4.924-3.806l6.292-6.29.222-.154a81.322,81.322,0,0,0,12.121,8.832c.455.271.964-.388.5-.662a81.162,81.162,0,0,1-11.919-8.66l7.178-4.985a16.144,16.144,0,0,0,4.533-4.093A5.5,5.5,0,0,0,256.642,196.911Z" transform="translate(-88.957 -36.643)" fill="#ffba50"/>
      <g id="Group_7377" data-name="Group 7377" transform="translate(369.52 328.092)">
        <g id="Group_7370" data-name="Group 7370">
          <g id="Group_7369" data-name="Group 7369">
            <path id="Path_13425" data-name="Path 13425" d="M749.354,668.043l.56,25.1c2.239-1.85,4.683-3.484,7.039-5.146a48.857,48.857,0,0,0,6.624-5.361,26.3,26.3,0,0,0,4.84-7,40.477,40.477,0,0,1,4.114-7.3,19.244,19.244,0,0,1,4.976-4.317c3.874-2.437,8.246-3.921,12.181-6.243a20.64,20.64,0,0,0,5.332-4.307,30.307,30.307,0,0,0,4.223-7.143,64.158,64.158,0,0,1,3.718-7.4,24.613,24.613,0,0,1,4.581-5.349,32.064,32.064,0,0,1,12.4-6.574c11.069-3.189,22.693-.972,33.614,1.739.645.162,1.29.323,1.939.49.465-6.558-9.28-11.105-15.282-11.853-4.106-.511-8.177,1.133-12.309,1.254-20.942.629-34.981-5.678-43.329,18.944-.932,2.757-1.7,5.685-3.611,7.881C772.239,654.123,748.682,649.99,749.354,668.043Z" transform="translate(-749.34 -617.282)" fill="#434342"/>
          </g>
        </g>
        <g id="Group_7372" data-name="Group 7372" transform="translate(0.587 8.631)">
          <g id="Group_7371" data-name="Group 7371">
            <path id="Path_13426" data-name="Path 13426" d="M769.3,727.768c17.329,5.135,33.656-10.629,21.513-28.962-8.239-9.327,1.263-16.029,9.966-18.781,4.319-1.371,9.665-1.921,11.757-5.943,3.513-9.07-8.7-19.692,9.966-25.356,10.534-3.2,31,5,33.556-9.088.011-.066.023-.137.03-.2-10.374-2.643-21.226-5.126-31.9-3.077a34.481,34.481,0,0,0-13.2,5.366,25.879,25.879,0,0,0-5.172,4.717,30.991,30.991,0,0,0-4.013,6.641c-1.172,2.491-2.223,5.049-3.633,7.422a19.607,19.607,0,0,1-4.691,5.454c-3.456,2.726-7.62,4.3-11.532,6.242a31.39,31.39,0,0,0-5.693,3.474,18.828,18.828,0,0,0-4.7,5.825c-1.324,2.447-2.359,5.046-3.873,7.388a26.433,26.433,0,0,1-5.424,5.919c-3.72,3.109-7.967,5.542-11.67,8.67C750.591,703.473,749.811,721.992,769.3,727.768Z" transform="translate(-750.587 -635.601)" fill="#201d22"/>
          </g>
        </g>
        <g id="Group_7374" data-name="Group 7374" transform="translate(0.574 8.149)">
          <g id="Group_7373" data-name="Group 7373">
            <path id="Path_13427" data-name="Path 13427" d="M750.559,702.285l.018.647c3.7-3.128,7.95-5.561,11.67-8.669a26.442,26.442,0,0,0,5.424-5.919c1.514-2.342,2.549-4.941,3.873-7.387a18.825,18.825,0,0,1,4.7-5.825,31.382,31.382,0,0,1,5.693-3.474c3.912-1.937,8.077-3.516,11.532-6.242a19.607,19.607,0,0,0,4.691-5.454c1.41-2.373,2.462-4.931,3.633-7.422a31.006,31.006,0,0,1,4.013-6.641,25.888,25.888,0,0,1,5.172-4.716,34.489,34.489,0,0,1,13.2-5.367c10.673-2.048,21.524.434,31.9,3.077.028-.172.049-.341.06-.513-.648-.167-1.294-.329-1.939-.49-10.921-2.711-22.546-4.928-33.614-1.74a32.072,32.072,0,0,0-12.4,6.574,24.628,24.628,0,0,0-4.581,5.349,64.167,64.167,0,0,0-3.718,7.4,30.316,30.316,0,0,1-4.222,7.143,20.635,20.635,0,0,1-5.333,4.307c-3.934,2.322-8.307,3.806-12.181,6.243a19.244,19.244,0,0,0-4.977,4.317,40.469,40.469,0,0,0-4.113,7.3,26.293,26.293,0,0,1-4.841,7,48.892,48.892,0,0,1-6.625,5.361C755.243,698.8,752.8,700.435,750.559,702.285Z" transform="translate(-750.559 -634.578)" fill="#004763"/>
          </g>
        </g>
        <g id="Group_7376" data-name="Group 7376" transform="translate(0.574 8.149)">
          <g id="Group_7375" data-name="Group 7375">
            <path id="Path_13428" data-name="Path 13428" d="M750.559,702.285l.018.647c3.7-3.128,7.95-5.561,11.67-8.669a26.442,26.442,0,0,0,5.424-5.919c1.514-2.342,2.549-4.941,3.873-7.387a18.825,18.825,0,0,1,4.7-5.825,31.382,31.382,0,0,1,5.693-3.474c3.912-1.937,8.077-3.516,11.532-6.242a19.607,19.607,0,0,0,4.691-5.454c1.41-2.373,2.462-4.931,3.633-7.422a31.006,31.006,0,0,1,4.013-6.641,25.888,25.888,0,0,1,5.172-4.716,34.489,34.489,0,0,1,13.2-5.367c10.673-2.048,21.524.434,31.9,3.077.028-.172.049-.341.06-.513-.648-.167-1.294-.329-1.939-.49-10.921-2.711-22.546-4.928-33.614-1.74a32.072,32.072,0,0,0-12.4,6.574,24.628,24.628,0,0,0-4.581,5.349,64.167,64.167,0,0,0-3.718,7.4,30.316,30.316,0,0,1-4.222,7.143,20.635,20.635,0,0,1-5.333,4.307c-3.934,2.322-8.307,3.806-12.181,6.243a19.244,19.244,0,0,0-4.977,4.317,40.469,40.469,0,0,0-4.113,7.3,26.293,26.293,0,0,1-4.841,7,48.892,48.892,0,0,1-6.625,5.361C755.243,698.8,752.8,700.435,750.559,702.285Z" transform="translate(-750.559 -634.578)" fill="#fff"/>
          </g>
        </g>
      </g>
      <g id="Group_7386" data-name="Group 7386" transform="translate(59.427 158.578)">
        <g id="Group_7379" data-name="Group 7379" transform="translate(0)">
          <g id="Group_7378" data-name="Group 7378">
            <path id="Path_13429" data-name="Path 13429" d="M202.778,296.2l3.986,24.783c-2.537-1.414-5.236-2.58-7.854-3.789a48.869,48.869,0,0,1-7.484-4.074,26.28,26.28,0,0,1-6.026-6.008,40.452,40.452,0,0,0-5.365-6.432,19.242,19.242,0,0,0-5.675-3.346c-4.25-1.7-8.819-2.366-13.109-3.938a20.644,20.644,0,0,1-6.024-3.272,30.326,30.326,0,0,1-5.444-6.262,64.053,64.053,0,0,0-4.995-6.606,24.625,24.625,0,0,0-5.473-4.434,32.082,32.082,0,0,0-13.38-4.225c-11.462-1.135-22.495,3.148-32.746,7.788-.6.276-1.21.551-1.818.833-1.643-6.367,7.119-12.6,12.888-14.421,3.946-1.244,8.247-.363,12.333-.991,20.71-3.168,33.378-11.908,46.039,10.8,1.415,2.542,2.7,5.284,4.977,7.1C177.753,286.649,200.175,278.326,202.778,296.2Z" transform="translate(-91.171 -257.49)" fill="#434342"/>
          </g>
        </g>
        <g id="Group_7381" data-name="Group 7381" transform="translate(0.353 11.43)">
          <g id="Group_7380" data-name="Group 7380">
            <path id="Path_13430" data-name="Path 13430" d="M193.248,361.733c-16.116,8.183-35.023-4.37-26.4-24.6,6.417-10.662-4.14-15.536-13.2-16.67-4.5-.568-9.853-.142-12.638-3.719-5.1-8.286,5-20.941-14.386-23.137-10.939-1.244-29.582,10.519-34.645-2.872-.023-.063-.048-.13-.066-.195,9.725-4.475,19.95-8.879,30.817-8.793a34.482,34.482,0,0,1,13.948,2.893,25.866,25.866,0,0,1,5.939,3.7,30.952,30.952,0,0,1,5.147,5.806c1.6,2.238,3.1,4.564,4.915,6.642a19.608,19.608,0,0,0,5.6,4.515c3.892,2.057,8.273,2.856,12.471,4.054a31.393,31.393,0,0,1,6.228,2.387,18.839,18.839,0,0,1,5.68,4.878c1.745,2.168,3.233,4.537,5.145,6.566a26.476,26.476,0,0,0,6.406,4.841c4.22,2.384,8.837,4.009,13.045,6.416C207.26,334.455,211.376,352.528,193.248,361.733Z" transform="translate(-91.92 -281.75)" fill="#201d22"/>
          </g>
        </g>
        <g id="Group_7383" data-name="Group 7383" transform="translate(0.202 10.926)">
          <g id="Group_7382" data-name="Group 7382">
            <path id="Path_13431" data-name="Path 13431" d="M206.99,333.249l.1.64c-4.208-2.407-8.825-4.032-13.045-6.417a26.471,26.471,0,0,1-6.406-4.841c-1.912-2.029-3.4-4.4-5.145-6.566a18.835,18.835,0,0,0-5.68-4.878,31.383,31.383,0,0,0-6.228-2.387c-4.2-1.2-8.579-2-12.471-4.054a19.605,19.605,0,0,1-5.6-4.515c-1.816-2.079-3.313-4.4-4.915-6.642a30.958,30.958,0,0,0-5.147-5.806,25.873,25.873,0,0,0-5.939-3.7,34.484,34.484,0,0,0-13.948-2.893c-10.867-.085-21.091,4.319-30.817,8.794-.058-.165-.109-.327-.151-.493.608-.282,1.213-.557,1.818-.833,10.251-4.641,21.284-8.924,32.746-7.788a32.08,32.08,0,0,1,13.38,4.225,24.625,24.625,0,0,1,5.473,4.434,64.04,64.04,0,0,1,4.995,6.606,30.332,30.332,0,0,0,5.444,6.261,20.643,20.643,0,0,0,6.024,3.272c4.289,1.572,8.858,2.241,13.109,3.938a19.238,19.238,0,0,1,5.675,3.346,40.451,40.451,0,0,1,5.365,6.432,26.28,26.28,0,0,0,6.026,6.008,48.86,48.86,0,0,0,7.484,4.075C201.754,330.669,204.454,331.835,206.99,333.249Z" transform="translate(-91.599 -280.679)" fill="#004763"/>
          </g>
        </g>
        <g id="Group_7385" data-name="Group 7385" transform="translate(0.202 10.926)">
          <g id="Group_7384" data-name="Group 7384">
            <path id="Path_13432" data-name="Path 13432" d="M206.99,333.249l.1.64c-4.208-2.407-8.825-4.032-13.045-6.417a26.471,26.471,0,0,1-6.406-4.841c-1.912-2.029-3.4-4.4-5.145-6.566a18.835,18.835,0,0,0-5.68-4.878,31.383,31.383,0,0,0-6.228-2.387c-4.2-1.2-8.579-2-12.471-4.054a19.605,19.605,0,0,1-5.6-4.515c-1.816-2.079-3.313-4.4-4.915-6.642a30.958,30.958,0,0,0-5.147-5.806,25.873,25.873,0,0,0-5.939-3.7,34.484,34.484,0,0,0-13.948-2.893c-10.867-.085-21.091,4.319-30.817,8.794-.058-.165-.109-.327-.151-.493.608-.282,1.213-.557,1.818-.833,10.251-4.641,21.284-8.924,32.746-7.788a32.08,32.08,0,0,1,13.38,4.225,24.625,24.625,0,0,1,5.473,4.434,64.04,64.04,0,0,1,4.995,6.606,30.332,30.332,0,0,0,5.444,6.261,20.643,20.643,0,0,0,6.024,3.272c4.289,1.572,8.858,2.241,13.109,3.938a19.238,19.238,0,0,1,5.675,3.346,40.451,40.451,0,0,1,5.365,6.432,26.28,26.28,0,0,0,6.026,6.008,48.86,48.86,0,0,0,7.484,4.075C201.754,330.669,204.454,331.835,206.99,333.249Z" transform="translate(-91.599 -280.679)" fill="#fff"/>
          </g>
        </g>
      </g>
      <g id="Group_7421" data-name="Group 7421" transform="translate(143.442 70.46)">
        <g id="Group_7393" data-name="Group 7393" transform="translate(5.12 0)">
          <path id="Path_13433" data-name="Path 13433" d="M524.182,100.86V479.076a16.349,16.349,0,0,1-16.351,16.34h-204.5a16.123,16.123,0,0,1-6.09-1.184,16.321,16.321,0,0,1-10.25-15.155V100.86a16.34,16.34,0,0,1,16.34-16.34h204.5a16.771,16.771,0,0,1,3.26.325A16.358,16.358,0,0,1,524.182,100.86Z" transform="translate(-283.864 -77.896)" fill="#ececf6"/>
          <path id="Path_13434" data-name="Path 13434" d="M511.091,84.845l-224.1,191.383V198.773L420.777,84.52h87.055A16.771,16.771,0,0,1,511.091,84.845Z" transform="translate(-283.864 -77.896)" fill="#fff"/>
          <path id="Path_13435" data-name="Path 13435" d="M524.182,172.681V206.44L286.987,409.016v-33.77Z" transform="translate(-283.864 -124.52)" fill="#fff"/>
          <path id="Path_13436" data-name="Path 13436" d="M535.688,542.76V683.771l-63.211,53.987H314.833a16.126,16.126,0,0,1-6.09-1.184Z" transform="translate(-295.37 -320.239)" fill="#fff"/>
          <g id="Group_7388" data-name="Group 7388">
            <g id="Group_7387" data-name="Group 7387">
              <path id="Path_13437" data-name="Path 13437" d="M508.835,70.46H294.677a14.5,14.5,0,0,0-14.318,14.688V476.6a14.51,14.51,0,0,0,14.318,14.7H508.835a14.508,14.508,0,0,0,14.317-14.7V85.148A14.5,14.5,0,0,0,508.835,70.46ZM519.51,458.521c0,7.414-6.5,13.422-14.508,13.422H298.755c-8.013,0-14.508-6.008-14.508-13.421V95.093c0-7.417,6.5-13.43,14.518-13.43h81.622a1.9,1.9,0,0,1,1.954,1.772c.429,9.482,9.1,17.207,19.538,17.207s19.1-7.7,19.528-17.207a1.9,1.9,0,0,1,1.953-1.772h81.633c8.017,0,14.516,6.014,14.516,13.43Z" transform="translate(-280.359 -70.46)" fill="#434442"/>
            </g>
          </g>
          <g id="Group_7392" data-name="Group 7392" transform="translate(110.433 3.771)">
            <g id="Group_7389" data-name="Group 7389">
              <path id="Path_13438" data-name="Path 13438" d="M514.752,89.55a11.087,11.087,0,1,1,11.087,11.088A11.086,11.086,0,0,1,514.752,89.55Z" transform="translate(-514.752 -78.463)" fill="#fff"/>
            </g>
            <g id="Group_7390" data-name="Group 7390" transform="translate(2.852 2.855)">
              <path id="Path_13439" data-name="Path 13439" d="M520.8,92.754a8.234,8.234,0,1,1,8.235,8.232A8.234,8.234,0,0,1,520.8,92.754Z" transform="translate(-520.805 -84.522)" fill="#434442"/>
            </g>
            <g id="Group_7391" data-name="Group 7391" transform="translate(6.751 5.087)">
              <path id="Path_13440" data-name="Path 13440" d="M529.08,91.6a2.336,2.336,0,1,1,2.336,2.336A2.336,2.336,0,0,1,529.08,91.6Z" transform="translate(-529.08 -89.26)" fill="#fff"/>
            </g>
          </g>
        </g>
        <g id="Group_7420" data-name="Group 7420" transform="translate(0 10.599)">
          <path id="Path_13441" data-name="Path 13441" d="M697.877,333.64s-2.47,41.629-10.7,73.689c-4.054,15.818-9.029,28.9-14.844,32.681-17.6,11.454-50.99-26.539-50.99-26.539l-9.662-76.219c33.2,11.245,41.1,54.789,51.3,71.829l20.254-76.32Z" transform="translate(-450.46 -219.778)" fill="#fac9c7"/>
          <g id="Group_7396" data-name="Group 7396" transform="translate(193.933 0)">
            <g id="Group_7394" data-name="Group 7394">
              <circle id="Ellipse_245" data-name="Ellipse 245" cx="17.38" cy="17.38" r="17.38" transform="matrix(0.425, -0.905, 0.905, 0.425, 69.315, 52.625)" fill="#00438f"/>
              <path id="Path_13442" data-name="Path 13442" d="M688.327,228.18l15.76,33.036a18.744,18.744,0,0,1-15.76-33.036Z" transform="translate(-681.112 -164.47)" fill="#ffba50"/>
              <path id="Path_13443" data-name="Path 13443" d="M690.334,230.986l7.683,16.107A5.845,5.845,0,0,1,690.453,255l-.111-.05a18.776,18.776,0,0,0,18.622,6.265L693.2,228.18A18.549,18.549,0,0,0,690.334,230.986Z" transform="translate(-685.989 -164.47)" fill="#ff9e16"/>
              <path id="Path_13444" data-name="Path 13444" d="M724.875,230.419a18.745,18.745,0,0,1-8.842,24.99,18.475,18.475,0,0,1-3.848,1.345l-15.76-33.036a18.5,18.5,0,0,1,3.467-2.145A18.739,18.739,0,0,1,724.875,230.419Z" transform="translate(-689.21 -160.008)" fill="#ffba50"/>
              <path id="Path_13445" data-name="Path 13445" d="M809.582,178.532c-21.011-7.99-58.744,2.8-84.907,9.38L709.61,156.334c21.262-15.509,52.215-36.6,60.718-60.088Z" transform="translate(-696.183 -94.696)" fill="#ffba50"/>
              <path id="Path_13446" data-name="Path 13446" d="M773.183,109.148h0A43.922,43.922,0,0,1,743.3,170.883c-5.2,1.185-10.319,2.455-15.22,3.7l6.36,13.334c26.164-6.578,63.9-17.37,84.907-9.38L780.1,96.246A55.681,55.681,0,0,1,773.183,109.148Z" transform="translate(-705.953 -94.696)" fill="#ff9e16"/>
              <path id="Path_13447" data-name="Path 13447" d="M719.372,189.915l19.866,41.643a1.973,1.973,0,0,1-.937,2.631l-23.951,11.425a1.973,1.973,0,0,1-2.634-.927L691.85,203.044a1.977,1.977,0,0,1,.938-2.63l23.95-11.425A1.977,1.977,0,0,1,719.372,189.915Z" transform="translate(-686.689 -143.641)" fill="#2c5da0"/>
              <path id="Path_13448" data-name="Path 13448" d="M783.891,327.455l-15.409,7.35a3.712,3.712,0,0,1-5.148-2.266l-10.945-35.856,12-5.724,20.98,31.068A3.712,3.712,0,0,1,783.891,327.455Z" transform="translate(-718.807 -197.671)" fill="#2c5da0"/>
              <path id="Path_13449" data-name="Path 13449" d="M793.673,322.027l-20.98-31.068-4.6,2.2,13.11,26.238a3.711,3.711,0,0,1-1.478,5.427l-9.114,4.348,1.029,3.372a3.712,3.712,0,0,0,5.148,2.266l15.409-7.35A3.712,3.712,0,0,0,793.673,322.027Z" transform="translate(-727.112 -197.671)" fill="#201d22"/>
              <rect id="Rectangle_17494" data-name="Rectangle 17494" width="3.599" height="91.17" transform="matrix(0.903, -0.431, 0.431, 0.903, 74.145, 1.55)" fill="#2c5da0"/>
              <rect id="Rectangle_17495" data-name="Rectangle 17495" width="20.243" height="1.949" rx="0.975" transform="translate(11.509 60.81) rotate(-25.503)" fill="#201d22"/>
              <rect id="Rectangle_17496" data-name="Rectangle 17496" width="20.243" height="1.949" rx="0.975" transform="translate(14.461 66.999) rotate(-25.503)" fill="#201d22"/>
              <path id="Rectangle_17497" data-name="Rectangle 17497" d="M.975,0H19.269a.975.975,0,0,1,.975.975v0a.975.975,0,0,1-.975.975H.975A.975.975,0,0,1,0,.975v0A.975.975,0,0,1,.975,0Z" transform="matrix(0.903, -0.431, 0.431, 0.903, 17.414, 73.188)" fill="#201d22"/>
              <rect id="Rectangle_17498" data-name="Rectangle 17498" width="20.243" height="1.949" rx="0.975" transform="translate(20.366 79.377) rotate(-25.503)" fill="#201d22"/>
              <path id="Rectangle_17499" data-name="Rectangle 17499" d="M.975,0H19.269a.975.975,0,0,1,.975.975v0a.975.975,0,0,1-.975.975H.975A.975.975,0,0,1,0,.975v0A.975.975,0,0,1,.975,0Z" transform="matrix(0.903, -0.431, 0.431, 0.903, 23.319, 85.566)" fill="#201d22"/>
              <rect id="Rectangle_17500" data-name="Rectangle 17500" width="20.243" height="1.949" rx="0.975" transform="matrix(0.903, -0.431, 0.431, 0.903, 26.271, 91.755)" fill="#201d22"/>
            </g>
            <g id="Group_7395" data-name="Group 7395" transform="translate(105.72 15.694)">
              <path id="Path_13450" data-name="Path 13450" d="M909.338,126.361a.8.8,0,0,0-1.064.3,51.789,51.789,0,0,0-2.685,4.945.781.781,0,1,0,1.359.768,51.807,51.807,0,0,1,2.685-4.945A.787.787,0,0,0,909.338,126.361Z" transform="translate(-905.501 -126.267)" fill="#2c5da0"/>
              <path id="Path_13451" data-name="Path 13451" d="M933.687,139.449,920.8,147.623c-.846.538-.044,1.877.807,1.337l12.882-8.174C935.341,140.248,934.538,138.908,933.687,139.449Z" transform="translate(-913.403 -133.172)" fill="#2c5da0"/>
              <path id="Path_13452" data-name="Path 13452" d="M935.143,177.949l-5.7.6a.781.781,0,0,0,.208,1.547l5.7-.6a.781.781,0,1,0-.208-1.547Z" transform="translate(-917.807 -153.597)" fill="#2c5da0"/>
            </g>
          </g>
          <path id="Path_13453" data-name="Path 13453" d="M696.171,403.6c-4.059,18.967-11.443,38.866-17.259,42.647a13.185,13.185,0,0,1-6.281,2.062c-18.613,1.414-46.941-29.581-46.941-29.581L619.9,367.292l.942-24.6c25.424,8.2,35.349,47.391,45.55,64.43l3.652-12.616A108.575,108.575,0,0,1,696.171,403.6Z" transform="translate(-454.807 -225.033)" fill="#d33237"/>
          <path id="Path_13454" data-name="Path 13454" d="M672.631,471.879C654.018,473.293,625.69,442.3,625.69,442.3L619.9,390.864l13.088-3.6s20.151,30.822,15.54,54.884C646.3,453.79,657.83,468.746,672.631,471.879Z" transform="translate(-454.807 -248.605)" fill="#d85559"/>
          <path id="Path_13455" data-name="Path 13455" d="M723.581,486.381c-.188-12.991-5-21.093-5-21.093l3.652-12.616C729.5,472.6,723.581,486.381,723.581,486.381Z" transform="translate(-506.994 -283.194)" fill="#d85559"/>
          <g id="Group_7397" data-name="Group 7397" transform="translate(66.561 234.38)">
            <path id="Path_13456" data-name="Path 13456" d="M570.4,747.052H502.778l-2.08-6.993L478.19,664.343l-5.6-18.819-6.027-20.271-9.143-30.772,21.213-1.02,58.193-2.8C538.667,597.1,557.839,682.448,570.4,747.052Z" transform="translate(-435.442 -590.548)" fill="#434342"/>
            <path id="Path_13457" data-name="Path 13457" d="M565.8,696.965s-17.6,11.882-28.1,48.713c-5.141,18.011-5.824,35.018-4.937,53.209H519.806l-2.08-6.993-22.508-75.717-5.6-18.819c11.308-5.164,19.486-8.688,19.486-8.688l14.017,2.048,1.64.243Z" transform="translate(-452.47 -642.382)" fill="#201d22"/>
            <path id="Path_13458" data-name="Path 13458" d="M484.067,597.7c.008,3.375-.016,6.851-.023,10.359-.047,8.091-.393,18.71-.981,30.945-.22,4.646-.479,9.527-.769,14.589v.016a.614.614,0,0,1-.008.118c-1.483,26.275-3.775,57.408-6.263,86.21-.2,2.347-.408,4.686-.612,6.993H410.767c.133-8.554.267-17.328.447-26.149.714-34.468,2.206-69.682,7.314-95.306.291-1.444.589-2.856.895-4.222,3.273-14.565,7.9-25.568,14.448-30.827l20.091,2.912,14.786,2.142,13.161,1.907Z" transform="translate(-410.767 -590.425)" fill="#434342"/>
            <path id="Path_13459" data-name="Path 13459" d="M411.723,759.266c4.381-20.843,14.889-57.987,31.764-56.521a60.1,60.1,0,0,0,39.3-10.531l.012-.014-1.7-29s-47.564.456-62.064.76C413.924,689.583,412.436,724.795,411.723,759.266Z" transform="translate(-411.273 -628.911)" fill="#201d22"/>
          </g>
          <path id="Path_13460" data-name="Path 13460" d="M391.365,415.467c6.039,32.575,8.741,62.906,2.23,95.647a345.057,345.057,0,0,0,46.6,2.778q5.951-.077,11.771-.38c2.9-6.995,4.041-16.469,3.968-25.9,5.178,7.091,7.513,17.243,7.981,25,8.385-.817,16.631-2.04,24.8-3.636,8.35-1.632,16.625-3.675,24.9-6.133-6.322-18.183-7.917-41.806-8.044-65.62,0-.234,0-.441,0-.636q0-.623,0-1.246c0-.285,0-.441,0-.441-.031-45.383,6.2-88.244-6.163-97.249-7.224-5.258-32.447-10.091-47.35-10.229-8.244-.087-16.41,2.482-24.671,2.539-5.265.049-47.361,8.321-49.273,21.5-1.991,13.818,1.131,23.456,5.14,35.17C386,394.621,389.161,403.569,391.365,415.467Z" transform="translate(-326.615 -216.956)" fill="#d33237"/>
          <path id="Path_13461" data-name="Path 13461" d="M400.058,565.924a345.059,345.059,0,0,0,46.6,2.778c-6.938-3.031-23.47-11.259-29.53-23.2-7.748-15.283-13.053-62.436-1.537-86.722,5.482-11.562,4.873-27.714,4.873-27.714l-28.8,9.32a10.033,10.033,0,0,1-1.936,1.061c2.74,7.987,5.9,16.936,8.1,28.833C403.866,502.852,406.568,533.184,400.058,565.924Z" transform="translate(-333.077 -271.766)" fill="#d85559"/>
          <path id="Path_13462" data-name="Path 13462" d="M483.206,307.713a28.076,28.076,0,0,0,8.918,9.162l.04,0c9.257,5.5,17.9-.142,16.491-10.654l-3.526-16.277-.917-4.176-17.489-2.294Z" transform="translate(-382.516 -193.712)" fill="#fac9c7"/>
          <path id="Path_13463" data-name="Path 13463" d="M483.206,307.713a28.076,28.076,0,0,0,8.918,9.162l.04,0c.841.187,1.321.278,1.321.278s-7.694-19.274-4-18.9c3.7.336,11.385-4.028,11.385-4.028l4.255-4.282-.917-4.176-17.489-2.294Z" transform="translate(-382.516 -193.712)" fill="#f5a29f"/>
          <path id="Path_13464" data-name="Path 13464" d="M273.08,441.719c1.381,9.157,10.881,22.235,22.478,33.685a135.375,135.375,0,0,0,19.813,16.378c7.454,4.973,12.621,8.108,12.621,8.108s3.545,6.681,12.177,3.436c5.178-1.965,8.832.39,16.873.553s8.445-8.2,3.139-12.393c-11.148-8.882-26.415-4.184-26.415-4.184l-5.74-6.942-7.4-13.267-15.777-28.279s31.57-24.248,42.881-36.887c23.671-26.418.169-48.833-14.148-39.65C309.543,377.715,270.063,421.928,273.08,441.719Z" transform="translate(-271.303 -234.28)" fill="#fac9c7"/>
          <path id="Path_13465" data-name="Path 13465" d="M269.839,438.895c1.768,6.24,7.939,16.984,15.469,26.792a114.346,114.346,0,0,0,10.142,11.64,67.8,67.8,0,0,0,10.77-6.172,52.194,52.194,0,0,0,12.354-12.1l-5.8-8.9-8.613-13.221s7.208-4.964,16.074-11.519a.627.627,0,0,1,.074-.056c10.332-7.665,22.884-17.51,28.959-24.3,23.671-26.418,4.458-56.649-18.183-46.069C305.195,367.094,265.356,423.083,269.839,438.895Z" transform="translate(-269.491 -230.387)" fill="#d33237"/>
          <path id="Path_13466" data-name="Path 13466" d="M493.05,327.024a39.123,39.123,0,0,1,13.945.648l-11.244,17.8-11.309-3-10.685,5.366-19.224-15.785a41.365,41.365,0,0,1,13.453-2.456s6.144,11.619,15.757,11.054S493.05,327.024,493.05,327.024Z" transform="translate(-367.352 -216.556)" fill="#d85559"/>
          <path id="Path_13467" data-name="Path 13467" d="M517.55,361.331l-2.692,8.029-8.032.472-3.648-6.945,6.481-4.263Z" transform="translate(-393.078 -233.456)" fill="#434342"/>
          <path id="Path_13468" data-name="Path 13468" d="M509.63,376.6l4.059-.13,4.06-.13c8.385,19.713,17.344,69.045,17.915,92.2L524.01,487.917l-15.029-18.735C513.383,431.857,512.9,395.629,509.63,376.6Z" transform="translate(-396.147 -242.827)" fill="#434342"/>
          <path id="Path_13469" data-name="Path 13469" d="M319.426,514.3c.365.484,9.907,12.73,19.753,17.341l-8.613-13.221s7.208-4.965,16.074-11.519C345.344,507.585,326.506,517.773,319.426,514.3Z" transform="translate(-295.9 -311.872)" fill="#d85559"/>
          <path id="Path_13470" data-name="Path 13470" d="M303.062,592.378a114.347,114.347,0,0,0,10.142,11.64,67.81,67.81,0,0,0,10.77-6.172S312.87,597.667,303.062,592.378Z" transform="translate(-287.245 -357.078)" fill="#d85559"/>
          <path id="Path_13471" data-name="Path 13471" d="M638.449,626.1c-6.322-18.183-7.917-41.806-8.044-65.62-.1,10.424-1.5,53.179-16.857,71.752C621.9,630.6,630.173,628.558,638.449,626.1Z" transform="translate(-451.447 -340.209)" fill="#d85559"/>
          <g id="Group_7419" data-name="Group 7419" transform="translate(77.975 22.438)">
            <path id="Path_13472" data-name="Path 13472" d="M458.793,250.628s.362.945,1.108,2.406h.013l-3.126-16.856s-7.82-4.288-8.247,2.522C447.932,248.406,458.793,250.628,458.793,250.628Z" transform="translate(-442.144 -190.434)" fill="#434342"/>
            <path id="Path_13473" data-name="Path 13473" d="M452.748,203.182c-.746-1.46-1.108-2.406-1.108-2.406s-10.861-2.222-10.252-11.929c.427-6.809,8.247-2.522,8.247-2.522s5.977-16.443,17.461-14.531c8.626,1.43,21.54,2.662,27.791-2.618,10.532-8.9-2.362-26.144-8.717-28.595,0,0,.6,10.131-9.6,8.511-9.239-1.467-23.081-2.121-25.373,4.064,0,0-9.764-.718-14.05,10.072C431.617,177.146,436.7,199.64,452.748,203.182Z" transform="translate(-434.992 -140.582)" fill="#434342"/>
            <path id="Path_13474" data-name="Path 13474" d="M459.775,232.874s.362.945,1.108,2.406h.013c3.15,6.135,13.053,21.318,30.71,12.976,15.126-7.153,14.141-32.364,11.416-46.981-5.972,5.593-19.165,4.048-27.791,2.618-11.484-1.912-17.461,14.531-17.461,14.531s-5.474-3.089-7.023,2.552C448.172,230.355,459.775,232.874,459.775,232.874Z" transform="translate(-443.127 -172.679)" fill="#fac9c7"/>
            <g id="Group_7418" data-name="Group 7418" transform="translate(27.819 40.264)">
              <g id="Group_7400" data-name="Group 7400" transform="translate(8.42 19.145)">
                <g id="Group_7398" data-name="Group 7398">
                  <path id="Path_13475" data-name="Path 13475" d="M511.914,268.636a5.01,5.01,0,0,0,1.729,3.545,6.1,6.1,0,0,0,8.57-.608,4.993,4.993,0,0,0,1.2-3.445c-.128-2.912-3.723-.556-5.87-.461C515.748,267.746,511.785,265.724,511.914,268.636Z" transform="translate(-511.911 -266.677)" fill="#a83b3e"/>
                </g>
                <g id="Group_7399" data-name="Group 7399" transform="translate(1.733 3.629)">
                  <path id="Path_13476" data-name="Path 13476" d="M515.588,276.254a6.1,6.1,0,0,0,8.57-.608,6.018,6.018,0,0,0-4.251-1.259A5.752,5.752,0,0,0,515.588,276.254Z" transform="translate(-515.588 -274.379)" fill="#f18083"/>
                </g>
              </g>
              <g id="Group_7406" data-name="Group 7406" transform="translate(19.889 2.786)">
                <g id="Group_7401" data-name="Group 7401">
                  <path id="Path_13477" data-name="Path 13477" d="M536.332,235.215A2.353,2.353,0,1,0,537.987,232,2.578,2.578,0,0,0,536.332,235.215Z" transform="translate(-536.252 -231.954)" fill="#fde3db"/>
                </g>
                <g id="Group_7402" data-name="Group 7402" transform="translate(0.501 0.591)">
                  <path id="Path_13478" data-name="Path 13478" d="M537.379,235.77a1.849,1.849,0,1,0,1.3-2.526A2.026,2.026,0,0,0,537.379,235.77Z" transform="translate(-537.316 -233.207)" fill="#434342"/>
                </g>
                <g id="Group_7403" data-name="Group 7403" transform="translate(1.186 1.399)">
                  <path id="Path_13479" data-name="Path 13479" d="M538.809,236.529a1.16,1.16,0,1,0,.816-1.584A1.272,1.272,0,0,0,538.809,236.529Z" transform="translate(-538.77 -234.922)" fill="#101423"/>
                </g>
                <g id="Group_7404" data-name="Group 7404" transform="translate(2.374 1.339)">
                  <path id="Path_13480" data-name="Path 13480" d="M542.293,235.193a.507.507,0,1,0-.384.605A.507.507,0,0,0,542.293,235.193Z" transform="translate(-541.292 -234.796)" fill="#fff"/>
                </g>
                <g id="Group_7405" data-name="Group 7405" transform="translate(1.562 1.251)">
                  <path id="Path_13481" data-name="Path 13481" d="M540.015,234.786a.227.227,0,1,0-.172.27A.227.227,0,0,0,540.015,234.786Z" transform="translate(-539.568 -234.609)" fill="#fff"/>
                </g>
              </g>
              <g id="Group_7411" data-name="Group 7411" transform="translate(1.944 4.641)">
                <g id="Group_7407" data-name="Group 7407">
                  <path id="Path_13482" data-name="Path 13482" d="M502.784,238.374a2.353,2.353,0,1,1-2.644-2.466A2.578,2.578,0,0,1,502.784,238.374Z" transform="translate(-498.165 -235.892)" fill="#fde3db"/>
                </g>
                <g id="Group_7408" data-name="Group 7408" transform="translate(0.498 0.594)">
                  <path id="Path_13483" data-name="Path 13483" d="M502.851,239.1a1.849,1.849,0,1,1-2.077-1.938A2.025,2.025,0,0,1,502.851,239.1Z" transform="translate(-499.221 -237.152)" fill="#434342"/>
                </g>
                <g id="Group_7409" data-name="Group 7409" transform="translate(1.178 1.405)">
                  <path id="Path_13484" data-name="Path 13484" d="M502.941,240.1a1.16,1.16,0,1,1-1.3-1.216A1.27,1.27,0,0,1,502.941,240.1Z" transform="translate(-500.665 -238.875)" fill="#101423"/>
                </g>
                <g id="Group_7410" data-name="Group 7410" transform="translate(0.997 1.59)">
                  <path id="Path_13485" data-name="Path 13485" d="M500.286,239.837a.507.507,0,1,1,.567.44A.507.507,0,0,1,500.286,239.837Z" transform="translate(-500.282 -239.266)" fill="#fff"/>
                </g>
              </g>
              <g id="Group_7412" data-name="Group 7412" transform="translate(19.247)">
                <path id="Path_13486" data-name="Path 13486" d="M535.043,227.159a3.305,3.305,0,0,1,4.081-.709.488.488,0,1,1-.524.824,2.336,2.336,0,0,0-1.493-.236,2.378,2.378,0,0,0-1.4.837.491.491,0,0,1-.691-.026A.5.5,0,0,1,535.043,227.159Z" transform="translate(-534.891 -226.041)" fill="#434342"/>
              </g>
              <g id="Group_7413" data-name="Group 7413" transform="translate(1.28 2.319)">
                <path id="Path_13487" data-name="Path 13487" d="M496.915,232.036a3.3,3.3,0,0,1,4.093-.634.493.493,0,0,1,.138.677.5.5,0,0,1-.677.138,2.33,2.33,0,0,0-1.488-.263,2.375,2.375,0,0,0-1.414.811.492.492,0,0,1-.69-.039A.5.5,0,0,1,496.915,232.036Z" transform="translate(-496.755 -230.963)" fill="#434342"/>
              </g>
              <g id="Group_7414" data-name="Group 7414" transform="translate(12.575 10.876)">
                <path id="Path_13488" data-name="Path 13488" d="M520.929,253.084a4.754,4.754,0,0,1,1.3-.158c.41-.046.633-.252.6-.658a7.879,7.879,0,0,0-.294-1.308l-.376-1.486c-.042-.168.131-.334.294-.349a.346.346,0,0,1,.371.286l.416,1.642a4.314,4.314,0,0,1,.25,1.5,1.11,1.11,0,0,1-.852.947,12.452,12.452,0,0,0-1.468.184A.323.323,0,0,1,520.929,253.084Z" transform="translate(-520.728 -249.124)" fill="#e4868a"/>
              </g>
              <g id="Group_7415" data-name="Group 7415" transform="translate(4.023 6.538)">
                <path id="Path_13489" data-name="Path 13489" d="M503.025,240.095a.226.226,0,1,0-.172.27A.227.227,0,0,0,503.025,240.095Z" transform="translate(-502.577 -239.918)" fill="#fff"/>
              </g>
              <g id="Group_7416" data-name="Group 7416" transform="translate(0 11.224)">
                <path id="Path_13490" data-name="Path 13490" d="M494.045,251.678c.105.77,1.407,1.228,2.907,1.023s2.631-1,2.526-1.765-1.406-1.228-2.907-1.023S493.94,250.907,494.045,251.678Z" transform="translate(-494.039 -249.863)" fill="#f49a98"/>
              </g>
              <g id="Group_7417" data-name="Group 7417" transform="translate(22.562 8.669)">
                <path id="Path_13491" data-name="Path 13491" d="M541.932,246.255c.1.77,1.407,1.228,2.907,1.023s2.632-1,2.526-1.765-1.406-1.228-2.907-1.023S541.827,245.485,541.932,246.255Z" transform="translate(-541.926 -244.44)" fill="#f49a98"/>
              </g>
            </g>
          </g>
          <path id="Path_13492" data-name="Path 13492" d="M755,324.757c-6.331,0-1.612,18.469-1.612,18.469l5.759-5.334C757.049,333.991,761.2,324.752,755,324.757Z" transform="translate(-524.507 -215.545)" fill="#fac9c7"/>
          <path id="Path_13493" data-name="Path 13493" d="M797.406,315.129c2.873,4.245,3.545,7.413,1.945,8.5s-5.249-.22-8.121-4.465S788.4,310.6,790,309.518,794.533,310.885,797.406,315.129Z" transform="translate(-544.186 -207.351)" fill="#fac9c7"/>
        </g>
      </g>
      <g id="Group_7422" data-name="Group 7422" transform="translate(85.474 382.915)">
        <path id="Path_13494" data-name="Path 13494" d="M238.73,740.957c-.126-2.423-1.165-4.944-1.772-7.315-19.722,17.286-8.241,20.032-35.795,26.34-27.56-6.308-16.075-9.053-35.8-26.34-.608,2.372-1.646,4.892-1.773,7.315-2.578-.077-5.153.018-7.734.046,11.114,6.222,23.261,17.935,36.549,22.616h17.505c13.29-4.682,25.435-16.394,36.549-22.616C243.883,740.975,241.308,740.88,238.73,740.957Z" transform="translate(-151.428 -733.642)" fill="#ffad5f"/>
        <rect id="Rectangle_17501" data-name="Rectangle 17501" width="88.299" height="76.268" transform="translate(4.297 38.571)" fill="#eb535c"/>
        <rect id="Rectangle_17502" data-name="Rectangle 17502" width="96.894" height="18.261" transform="translate(0 28.688)" fill="#d4343f"/>
        <path id="Path_13495" data-name="Path 13495" d="M229.047,756.909c4.825-3.614,8.756-8.3,8.195-13.5-.882-8.165-13.921,5.408-20.116,13.212.759-7.147.893-22.988-4.065-18.773-4.334,3.684-3.021,11.642-1.057,17.355-6.525-7.894-18.137-19.483-18.967-11.794-.562,5.2,3.369,9.888,8.195,13.5-8.964-2.472-18.721-3.826-16.066,1.786,4.157,8.788,20.648,7.969,27.824,6.5a3,3,0,0,0,4.323,0c7.188,1.466,23.649,2.275,27.8-6.5C247.767,753.082,238.011,754.436,229.047,756.909Zm4.5-10.638c.517,4.512-5.072,9.29-10.1,12.351a64.6,64.6,0,0,0-6.164,2.361,2.993,2.993,0,0,0-.974-.652C219.647,754.806,232.827,740.032,233.542,746.271ZM213.6,741.348c3.788-3.177,3.139,13.189,2.011,17.245q-.206.282-.39.541c-.117-.2-.276-.381-.412-.349l.011.021c0-.007-.009-.013-.015-.02h0c-.1-.167-.205-.364-.331-.6C212.813,755.077,209.724,744.6,213.6,741.348Zm-16.864,4.922c.716-6.242,13.909,8.551,17.241,14.068a3.024,3.024,0,0,0-.96.652,64.616,64.616,0,0,0-6.183-2.369C201.808,755.561,196.219,750.782,196.736,746.271Zm14.847,17.579c-4.533,1.061-18.948,1.419-21.768-4.645-1.943-4.179,7.752-2.21,15.315.305a51.884,51.884,0,0,0,7.02,3.5c0,.032,0,.063,0,.1a3.017,3.017,0,0,0,.058.591C212.018,763.745,211.813,763.8,211.583,763.85Zm28.879-4.645c-2.82,6.064-17.234,5.707-21.767,4.645-.22-.051-.416-.1-.595-.144a3.016,3.016,0,0,0,.06-.6c0-.036,0-.072-.005-.107a51.831,51.831,0,0,0,6.992-3.491C232.71,756.994,242.405,755.025,240.462,759.2Z" transform="translate(-166.692 -735.494)" fill="#ffad5f"/>
        <rect id="Rectangle_17503" data-name="Rectangle 17503" width="8.042" height="67.89" transform="translate(43.413 46.949)" fill="#ffad5f"/>
        <rect id="Rectangle_17504" data-name="Rectangle 17504" width="8.042" height="88.299" transform="translate(92.596 76.873) rotate(90)" fill="#ffad5f"/>
      </g>
      <g id="Group_7428" data-name="Group 7428" transform="translate(361.043 451.309)">
        <g id="Group_7424" data-name="Group 7424" transform="translate(0 0)">
          <g id="Group_7423" data-name="Group 7423" transform="translate(0)">
            <path id="Path_13496" data-name="Path 13496" d="M801.376,901.7l.3,30.638c-1.458,2.226-5.129,4.216-10.285,5.748a91.41,91.41,0,0,1-24.628,3.144c-12.051.062-22.747-1.711-29.239-4.476-2.805-1.188-4.832-2.564-5.844-4.059l-.3-30.639Z" transform="translate(-731.365 -890.917)" fill="#ffb542"/>
            <path id="Path_13497" data-name="Path 13497" d="M801.46,918.118l.012,2.4c-5.526,4.41-18.915,7.474-34.962,7.514s-29.466-2.954-35.035-7.335l-.012-2.4c3.333,4.956,17.786,8.67,35.042,8.625S798.176,923.09,801.46,918.118Z" transform="translate(-731.409 -899.598)" fill="#e7e2d3" style="mix-blend-mode: multiply;isolation: isolate"/>
            <path id="Path_13498" data-name="Path 13498" d="M801.539,934.269l.012,2.4c-5.525,4.409-18.916,7.473-34.962,7.514s-29.466-2.954-35.035-7.335l-.012-2.4c3.332,4.956,17.786,8.669,35.041,8.625S798.255,939.242,801.539,934.269Z" transform="translate(-731.451 -908.139)" fill="#e7e2d3" style="mix-blend-mode: multiply;isolation: isolate"/>
            <path id="Path_13499" data-name="Path 13499" d="M801.618,950.419l.012,2.4c-5.526,4.409-18.916,7.473-34.963,7.514S737.2,957.378,731.633,953l-.012-2.4c3.333,4.956,17.786,8.669,35.041,8.625S798.334,955.392,801.618,950.419Z" transform="translate(-731.493 -916.68)" fill="#e7e2d3" style="mix-blend-mode: multiply;isolation: isolate"/>
            <path id="Path_13500" data-name="Path 13500" d="M737.188,901.887l.17,34.728c-2.8-1.2-4.82-2.577-5.824-4.074l-.15-30.639Z" transform="translate(-731.367 -891.014)" fill="#868686" style="mix-blend-mode: overlay;isolation: isolate"/>
            <path id="Path_13501" data-name="Path 13501" d="M868.344,901.539l.15,30.639c-1.468,2.222-5.15,4.2-10.313,5.722L858,901.565Z" transform="translate(-798.331 -890.83)" fill="#e7dfc9" style="mix-blend-mode: multiply;isolation: isolate"/>
            <ellipse id="Ellipse_246" data-name="Ellipse 246" cx="34.963" cy="10.656" rx="34.963" ry="10.656" transform="translate(0 0.324) rotate(-0.265)" fill="#ffb542"/>
          </g>
        </g>
        <g id="Group_7427" data-name="Group 7427" transform="translate(0.05 0.162)">
          <path id="Path_13502" data-name="Path 13502" d="M771.808,881.7c-15.1.077-28.41,3.669-29.854,8.435-1.6,5.293,11.768,9.959,30.033,9.866s31.544-4.9,29.837-10.172C800.286,885.077,786.906,881.621,771.808,881.7Zm.171,17.536c-16.868.086-29.32-4.207-27.941-9.112,1.252-4.449,13.643-7.823,27.774-7.9s26.588,3.175,27.926,7.611C801.214,894.729,788.848,899.149,771.979,899.235Z" transform="translate(-736.938 -880.498)" fill="#ffb542"/>
          <path id="Path_13503" data-name="Path 13503" d="M766.312,879.153c-17.288.088-32.713,4.168-34.652,9.659-2.19,6.2,13.294,11.761,34.86,11.651s36.94-5.827,34.629-12.006C799.1,882.987,783.6,879.066,766.312,879.153Zm.191,19.5c-18.264.093-31.637-4.573-30.033-9.866,1.444-4.766,14.756-8.359,29.854-8.435s28.479,3.379,30.016,8.13C798.047,893.758,784.767,898.561,766.5,898.654Z" transform="translate(-731.454 -879.152)" fill="#ffb542"/>
          <path id="Path_13504" data-name="Path 13504" d="M771.861,881.344c-15.1.038-28.428,3.6-29.895,8.359-1.63,5.289,11.72,9.99,29.985,9.943s31.568-4.815,29.887-10.1C800.323,884.795,786.959,881.305,771.861,881.344Zm.086,17.537c-16.869.043-29.3-4.282-27.9-9.183,1.272-4.446,13.681-7.788,27.813-7.824s26.572,3.243,27.889,7.682C801.2,894.449,788.815,898.837,771.946,898.881Z" transform="translate(-736.942 -880.311)" fill="#e7e2d3" style="mix-blend-mode: multiply;isolation: isolate"/>
          <path id="Path_13505" data-name="Path 13505" d="M802.109,890.433c1.475,4.891-10.892,9.31-27.76,9.4s-29.32-4.207-27.941-9.112c1.251-4.449,13.643-7.822,27.774-7.895S800.77,886,802.109,890.433Z" transform="translate(-739.307 -881.093)" fill="#ffb542"/>
          <path id="Path_13506" data-name="Path 13506" d="M805.221,895.706c-.2-1.647-3.332-2.537-9.281-3.227l-.108-3.576a41.842,41.842,0,0,1,6.005.459l1.112-1.054a48.341,48.341,0,0,0-7.149-.462l-.041-1.343-3.516.009-.013,1.439c-4.782.318-7.881,1.336-8.005,2.654-.129,1.372,2.878,2.249,7.956,2.864l-.04,4.4a46.147,46.147,0,0,1-8.087-.756l-1.347,1.3a53.355,53.355,0,0,0,9.423.756l-.016,1.752,4.081-.01-.056-1.863C802.485,898.636,805.409,897.235,805.221,895.706Zm-16.442-5.266c.024-.518,1.032-1.106,3.441-1.38l-.026,2.917C789.819,891.576,788.747,891.132,788.779,890.44ZM796.1,897.7l-.114-3.748c3.038.476,4.33,1.028,4.393,1.887S798.909,897.394,796.1,897.7Z" transform="translate(-758.559 -883.04)" fill="#e7e2d3" style="mix-blend-mode: multiply;isolation: isolate"/>
          <path id="Path_13507" data-name="Path 13507" d="M804.014,894.352c-.19-1.624-3.292-2.5-9.2-3.182l-.087-3.528a41.792,41.792,0,0,1,5.963.452l1.111-1.04a48.2,48.2,0,0,0-7.1-.455l-.033-1.326-3.493.009-.021,1.421c-4.752.314-7.836,1.318-7.966,2.618-.135,1.354,2.847,2.219,7.886,2.824l-.064,4.338a46.034,46.034,0,0,1-8.025-.746l-1.344,1.285a53.329,53.329,0,0,0,9.35.745l-.026,1.726,4.05-.01-.045-1.835C801.28,897.24,804.191,895.859,804.014,894.352Zm-16.3-5.193c.026-.512,1.03-1.092,3.425-1.362l-.042,2.877C788.745,890.28,787.682,889.842,787.718,889.159Zm7.226,7.157-.091-3.695c3.014.469,4.294,1.013,4.351,1.861S797.737,896.016,794.943,896.317Z" transform="translate(-757.999 -882.39)" fill="#ffecb1"/>
          <g id="Group_7425" data-name="Group 7425" transform="translate(2.109 0.637)" style="mix-blend-mode: multiply;isolation: isolate">
            <path id="Path_13508" data-name="Path 13508" d="M767.394,900.507h-.02c-1.029-.011-2.065-.037-3.075-.076-.279-.011-.474-.1-.435-.191s.3-.164.573-.15c.979.039,1.982.063,2.98.073.28,0,.5.082.489.177S767.667,900.507,767.394,900.507Zm3.048-.011c-.272,0-.5-.071-.512-.163s.2-.175.482-.181c.994-.017,1.995-.049,2.977-.095.272-.015.536.052.578.146s-.152.181-.43.194c-1.012.047-2.047.08-3.072.1Zm-9.068-.226c-.035,0-.071,0-.106,0-1-.069-1.992-.153-2.961-.25-.266-.026-.409-.121-.319-.211a.971.971,0,0,1,.642-.115c.939.094,1.9.175,2.87.241.273.019.443.109.379.2A.727.727,0,0,1,761.373,900.271Zm15.083-.054a.735.735,0,0,1-.507-.134c-.066-.092.1-.183.372-.2.965-.073,1.928-.162,2.86-.262a.987.987,0,0,1,.645.11c.093.09-.047.185-.312.214-.962.1-1.956.194-2.951.271C776.528,900.215,776.492,900.216,776.457,900.216Zm-20.828-.521a1.344,1.344,0,0,1-.185-.012c-.932-.124-1.852-.263-2.737-.412-.242-.041-.327-.142-.191-.225a1.2,1.2,0,0,1,.687-.077c.857.145,1.749.279,2.652.4.255.034.37.132.257.219A.912.912,0,0,1,755.629,899.7Zm26.548-.1a.921.921,0,0,1-.483-.1c-.115-.086,0-.185.251-.221.893-.125,1.779-.266,2.636-.417a1.208,1.208,0,0,1,.687.072c.14.082.057.184-.184.226-.883.157-1.8.3-2.718.432A1.348,1.348,0,0,1,782.177,899.6Zm-31.8-.791a1.231,1.231,0,0,1-.258-.024c-.828-.172-1.639-.359-2.412-.554-.212-.053-.239-.157-.062-.23a1.315,1.315,0,0,1,.7-.036c.752.189,1.539.369,2.341.536.229.047.286.15.129.228A1.1,1.1,0,0,1,750.381,898.81Zm37.008-.132a1.094,1.094,0,0,1-.44-.077c-.16-.078-.106-.181.12-.229.8-.174,1.582-.359,2.322-.552a1.316,1.316,0,0,1,.7.031c.18.072.155.175-.055.231-.762.2-1.567.392-2.392.571A1.239,1.239,0,0,1,787.389,898.678Zm-41.58-1.023a1.12,1.12,0,0,1-.318-.04c-.7-.214-1.379-.439-2.013-.672-.174-.063-.143-.165.066-.227a1.3,1.3,0,0,1,.695,0c.617.224,1.275.443,1.957.649.193.059.193.162,0,.23A1.241,1.241,0,0,1,745.809,897.654Zm46.112-.164a1.245,1.245,0,0,1-.383-.054c-.2-.067-.2-.17-.009-.23.674-.211,1.325-.434,1.935-.663a1.3,1.3,0,0,1,.693-.007c.212.06.246.162.074.227-.627.237-1.3.467-1.992.685A1.108,1.108,0,0,1,791.921,897.491Zm-49.87-1.209a.981.981,0,0,1-.365-.058c-.555-.246-1.08-.5-1.561-.76-.13-.071-.046-.168.187-.218a1.182,1.182,0,0,1,.663.039c.466.251.978.5,1.52.736.154.068.1.168-.127.223A1.361,1.361,0,0,1,742.051,896.282Zm53.583-.19a1.384,1.384,0,0,1-.316-.034c-.225-.055-.284-.154-.133-.222.532-.241,1.037-.492,1.5-.747a1.178,1.178,0,0,1,.661-.044c.236.047.323.144.194.216-.474.263-.99.522-1.537.771A.954.954,0,0,1,795.634,896.092ZM739.2,894.747a.806.806,0,0,1-.4-.077,10.893,10.893,0,0,1-1.074-.82c-.086-.076.047-.166.3-.2a.966.966,0,0,1,.61.073,10.6,10.6,0,0,0,1.049.795c.11.073,0,.168-.242.211A1.443,1.443,0,0,1,739.2,894.747Zm59.232-.209a1.508,1.508,0,0,1-.24-.019c-.245-.041-.356-.134-.248-.208a10.457,10.457,0,0,0,1.025-.8.965.965,0,0,1,.607-.077c.252.034.387.123.3.2a10.633,10.633,0,0,1-1.05.828A.794.794,0,0,1,798.435,894.538Zm-61.111-1.431a.643.643,0,0,1-.416-.1,4.874,4.874,0,0,1-.572-.852c-.04-.078.136-.159.392-.18s.5.025.54.1a4.825,4.825,0,0,0,.564.827c.064.077-.09.162-.345.191A1.506,1.506,0,0,1,737.325,893.107Zm62.939-.223a1.359,1.359,0,0,1-.16-.008c-.255-.026-.413-.111-.35-.189a4.725,4.725,0,0,0,.538-.83c.039-.078.282-.126.536-.107s.435.1.4.177a4.779,4.779,0,0,1-.546.856A.633.633,0,0,1,800.264,892.884Zm-63.831-1.465c-.222,0-.4-.048-.418-.118a3.059,3.059,0,0,1-.079-.855c0-.078.214-.147.471-.154s.46.05.457.127a3.015,3.015,0,0,0,.084.83c.019.078-.174.153-.433.168Zm64.672-.228-.078,0c-.258-.012-.454-.086-.438-.164a3.091,3.091,0,0,0,.059-.831c-.005-.078.205-.133.453-.13s.468.073.474.151a3.143,3.143,0,0,1-.052.855C801.508,891.14,801.327,891.19,801.1,891.191Zm-64.6-1.456c-.253,0-.437-.061-.412-.138l.012-.038a4.062,4.062,0,0,1,.395-.835.787.787,0,0,1,.531-.126c.247.006.411.071.365.146a3.976,3.976,0,0,0-.375.809l-.012.041C736.981,889.672,736.756,889.735,736.5,889.735Zm64.48-.226c-.252,0-.478-.061-.5-.138a3.935,3.935,0,0,0-.389-.807c-.046-.075.115-.141.362-.148a.79.79,0,0,1,.533.122,4.143,4.143,0,0,1,.408.83c.027.077-.156.14-.409.141Zm-63.478-1.442-.076,0c-.241-.012-.383-.08-.317-.154a8.041,8.041,0,0,1,.826-.788,1,1,0,0,1,.573-.1c.233.018.354.09.269.16a7.623,7.623,0,0,0-.8.767A.8.8,0,0,1,737.505,888.068Zm62.46-.18a.8.8,0,0,1-.48-.11,7.79,7.79,0,0,0-.808-.762c-.086-.07.033-.142.266-.161a1.011,1.011,0,0,1,.575.093,8.185,8.185,0,0,1,.839.783c.068.073-.073.143-.314.156Zm-60.634-1.352c-.049,0-.1,0-.146-.007-.222-.024-.32-.1-.217-.166.372-.245.783-.489,1.22-.725a1.189,1.189,0,0,1,.6-.065c.212.029.288.1.169.168-.424.231-.821.468-1.181.707A.939.939,0,0,1,739.331,886.536Zm58.784-.169a.957.957,0,0,1-.445-.085c-.363-.237-.764-.472-1.19-.7-.12-.064-.045-.139.166-.169a1.2,1.2,0,0,1,.6.062c.44.233.854.475,1.231.718.1.068.007.142-.215.166A1.256,1.256,0,0,1,798.114,886.368Zm-56.2-1.231a1.346,1.346,0,0,1-.208-.016c-.2-.034-.253-.11-.118-.171.488-.219,1.013-.437,1.563-.647a1.3,1.3,0,0,1,.609-.035c.188.037.22.115.07.172-.533.205-1.043.417-1.516.631A1.084,1.084,0,0,1,741.913,885.137Zm53.6-.152a1.075,1.075,0,0,1-.4-.063c-.478-.213-.992-.422-1.525-.622-.151-.057-.122-.134.065-.173a1.3,1.3,0,0,1,.61.031c.551.206,1.08.42,1.573.638.137.06.085.137-.115.172A1.294,1.294,0,0,1,795.515,884.984ZM745.148,883.9a1.154,1.154,0,0,1-.264-.027c-.174-.042-.182-.119-.019-.172.591-.193,1.214-.38,1.852-.557a1.319,1.319,0,0,1,.6,0c.159.045.147.122-.027.171-.62.173-1.226.356-1.8.543A1.189,1.189,0,0,1,745.148,883.9Zm47.114-.133a1.2,1.2,0,0,1-.346-.044c-.578-.185-1.186-.364-1.807-.533-.175-.048-.189-.125-.03-.171a1.322,1.322,0,0,1,.6,0c.639.174,1.264.357,1.86.546.163.053.156.129-.017.173A1.156,1.156,0,0,1,792.262,883.764Zm-43.334-.922a1.029,1.029,0,0,1-.31-.039c-.145-.049-.111-.125.074-.169.673-.16,1.374-.314,2.088-.458a1.228,1.228,0,0,1,.586.023c.13.052.076.126-.119.166-.694.141-1.377.291-2.031.447A1.3,1.3,0,0,1,748.928,882.842Zm39.539-.111a1.327,1.327,0,0,1-.288-.029c-.657-.153-1.343-.3-2.038-.436-.2-.038-.251-.112-.122-.165a1.229,1.229,0,0,1,.585-.026c.715.14,1.42.29,2.1.446.186.043.221.118.078.169A1.051,1.051,0,0,1,788.466,882.731Zm-35.317-.744a.891.891,0,0,1-.349-.055c-.112-.055-.038-.127.166-.162.737-.125,1.5-.243,2.271-.351a1.08,1.08,0,0,1,.555.049c.1.058,0,.128-.208.157-.749.106-1.493.221-2.211.343A1.339,1.339,0,0,1,753.149,881.987Zm31.082-.088a1.331,1.331,0,0,1-.224-.017c-.722-.118-1.468-.23-2.218-.33-.212-.028-.3-.1-.21-.156a1.068,1.068,0,0,1,.554-.053c.77.1,1.536.217,2.278.339.2.034.279.105.168.161A.885.885,0,0,1,784.231,881.9Zm-26.521-.553a.753.753,0,0,1-.379-.072c-.08-.059.033-.126.249-.151.79-.089,1.6-.169,2.405-.239a.853.853,0,0,1,.514.075c.061.06-.068.125-.29.145-.785.068-1.573.146-2.342.233A1.413,1.413,0,0,1,757.71,881.346Zm21.947-.062a1.519,1.519,0,0,1-.156-.008c-.771-.082-1.56-.157-2.347-.22-.222-.018-.352-.082-.292-.143a.857.857,0,0,1,.512-.078c.808.066,1.618.142,2.409.225.218.024.33.091.253.15A.755.755,0,0,1,779.657,881.284Zm-17.149-.354a.623.623,0,0,1-.4-.09c-.044-.062.1-.123.328-.137.819-.05,1.654-.092,2.483-.123.223-.009.434.035.462.1s-.137.121-.364.129c-.808.031-1.622.071-2.42.12Zm12.344-.035c-.029,0-.059,0-.087,0-.8-.045-1.615-.081-2.422-.106-.227-.007-.392-.064-.366-.127s.236-.107.459-.1c.827.026,1.663.063,2.484.109.226.013.374.073.331.135A.621.621,0,0,1,774.852,880.895Zm-7.414-.151c-.222,0-.405-.047-.414-.108s.17-.116.4-.12c.829-.012,1.675-.015,2.511-.007.229,0,.408.055.4.118s-.22.112-.431.111c-.813-.007-1.636,0-2.447.007Z" transform="translate(-735.931 -880.504)" fill="#e7e2d3"/>
          </g>
          <g id="Group_7426" data-name="Group 7426" transform="translate(2.139 0.409)">
            <path id="Path_13509" data-name="Path 13509" d="M767.458,900.024h-.02c-1.029-.011-2.065-.036-3.076-.076-.279-.011-.473-.1-.435-.191s.3-.164.573-.15c.98.038,1.982.063,2.98.073.28,0,.5.082.488.177S767.73,900.023,767.458,900.024Zm3.047-.011c-.273,0-.5-.071-.512-.163s.2-.176.482-.18c.994-.018,1.995-.05,2.977-.095.271-.015.536.052.577.146s-.151.181-.43.194c-1.012.047-2.047.081-3.071.1Zm-9.068-.226c-.035,0-.071,0-.106,0-.995-.069-1.992-.153-2.961-.25-.266-.026-.409-.121-.319-.211a.969.969,0,0,1,.642-.115c.939.094,1.905.175,2.87.241.273.019.443.109.38.2A.723.723,0,0,1,761.437,899.788Zm15.083-.054a.733.733,0,0,1-.506-.134c-.066-.092.1-.183.372-.2.965-.074,1.928-.162,2.861-.262a.989.989,0,0,1,.645.11c.093.09-.047.186-.312.214-.962.1-1.956.2-2.951.271C776.591,899.732,776.555,899.733,776.52,899.733Zm-20.827-.521a1.322,1.322,0,0,1-.186-.012c-.931-.124-1.851-.262-2.737-.412-.242-.041-.327-.142-.19-.225a1.2,1.2,0,0,1,.686-.077c.857.145,1.75.279,2.652.4.255.034.37.131.258.219A.913.913,0,0,1,755.692,899.213Zm26.547-.1a.92.92,0,0,1-.483-.1c-.116-.087,0-.185.251-.221.893-.125,1.779-.265,2.636-.417a1.209,1.209,0,0,1,.687.072c.141.082.057.183-.184.226-.883.156-1.8.3-2.718.432A1.35,1.35,0,0,1,782.24,899.117Zm-31.8-.791a1.281,1.281,0,0,1-.258-.024c-.828-.172-1.64-.359-2.412-.555-.212-.053-.238-.156-.062-.23a1.327,1.327,0,0,1,.7-.037c.751.189,1.539.37,2.342.537.228.047.285.149.128.229A1.092,1.092,0,0,1,750.445,898.326Zm37.008-.132a1.093,1.093,0,0,1-.441-.078c-.16-.077-.1-.18.12-.229.8-.174,1.582-.359,2.323-.553a1.317,1.317,0,0,1,.7.032c.179.072.155.175-.054.23-.763.2-1.567.392-2.392.571A1.259,1.259,0,0,1,787.453,898.194Zm-41.58-1.023a1.107,1.107,0,0,1-.318-.04c-.7-.213-1.379-.439-2.012-.671-.174-.063-.144-.165.066-.227a1.312,1.312,0,0,1,.694,0c.617.225,1.276.443,1.958.65.193.059.193.161,0,.229A1.228,1.228,0,0,1,745.872,897.171Zm46.112-.163a1.239,1.239,0,0,1-.383-.054c-.2-.067-.2-.17-.009-.229.674-.211,1.326-.435,1.934-.663a1.3,1.3,0,0,1,.694-.008c.212.061.245.162.074.227-.627.236-1.3.467-1.992.685A1.117,1.117,0,0,1,791.985,897.008Zm-49.87-1.209a.97.97,0,0,1-.365-.057c-.556-.246-1.081-.5-1.561-.76-.131-.071-.047-.168.187-.218a1.186,1.186,0,0,1,.663.039c.466.251.978.5,1.519.736.154.068.1.167-.127.223A1.334,1.334,0,0,1,742.114,895.8Zm53.583-.19a1.367,1.367,0,0,1-.315-.034c-.225-.055-.285-.154-.133-.222.532-.241,1.036-.492,1.5-.747a1.18,1.18,0,0,1,.661-.044c.237.047.323.144.194.216-.473.263-.99.523-1.537.771A.965.965,0,0,1,795.7,895.609Zm-56.431-1.345a.8.8,0,0,1-.4-.077,10.96,10.96,0,0,1-1.073-.82c-.086-.076.046-.166.3-.2a.972.972,0,0,1,.611.073,10.556,10.556,0,0,0,1.049.795c.11.074,0,.168-.242.21A1.542,1.542,0,0,1,739.266,894.264Zm59.232-.209a1.478,1.478,0,0,1-.24-.018c-.244-.041-.356-.134-.248-.209a10.318,10.318,0,0,0,1.025-.8.968.968,0,0,1,.607-.077c.251.034.386.123.3.2a10.561,10.561,0,0,1-1.049.828A.8.8,0,0,1,798.5,894.055Zm-61.11-1.43a.643.643,0,0,1-.416-.1,4.909,4.909,0,0,1-.572-.852c-.041-.078.135-.158.392-.18s.5.025.54.1a4.744,4.744,0,0,0,.563.826c.064.077-.09.163-.345.191A1.438,1.438,0,0,1,737.388,892.624Zm62.938-.223a1.508,1.508,0,0,1-.16-.008c-.255-.026-.412-.111-.35-.189a4.674,4.674,0,0,0,.537-.83c.04-.078.282-.125.537-.106s.435.1.4.177a4.756,4.756,0,0,1-.546.855A.629.629,0,0,1,800.326,892.4ZM736.5,890.936c-.222,0-.4-.049-.419-.118a3.074,3.074,0,0,1-.079-.855c0-.078.215-.147.471-.154s.461.049.457.127a3.026,3.026,0,0,0,.084.83c.019.078-.174.153-.433.168Zm64.672-.228-.078,0c-.258-.012-.454-.086-.438-.164a3.123,3.123,0,0,0,.059-.831c-.006-.077.205-.133.453-.13s.467.073.474.151a3.146,3.146,0,0,1-.052.854C801.571,890.657,801.391,890.707,801.167,890.708Zm-64.6-1.455c-.253,0-.437-.061-.411-.138l.012-.038a4.1,4.1,0,0,1,.4-.835.787.787,0,0,1,.531-.125c.247.006.411.071.365.145a3.984,3.984,0,0,0-.375.81l-.013.041C737.044,889.189,736.819,889.252,736.565,889.252Zm64.481-.226c-.253,0-.478-.061-.5-.137a3.966,3.966,0,0,0-.389-.807c-.047-.075.115-.142.363-.149a.79.79,0,0,1,.532.123,4.154,4.154,0,0,1,.409.83c.027.077-.156.14-.409.14Zm-63.478-1.442c-.025,0-.051,0-.076,0-.242-.012-.383-.081-.318-.154a8.087,8.087,0,0,1,.826-.788.988.988,0,0,1,.573-.1c.233.018.354.089.27.16a7.565,7.565,0,0,0-.8.767A.8.8,0,0,1,737.569,887.584Zm62.46-.179a.807.807,0,0,1-.48-.11,7.738,7.738,0,0,0-.808-.762c-.086-.07.034-.143.266-.162a1.011,1.011,0,0,1,.574.093,8.2,8.2,0,0,1,.84.784c.067.072-.074.142-.315.155Zm-60.635-1.352a1.392,1.392,0,0,1-.145-.007c-.223-.024-.32-.1-.217-.166.372-.245.782-.489,1.219-.725a1.19,1.19,0,0,1,.6-.066c.212.028.288.1.169.168-.424.231-.822.468-1.181.707A.935.935,0,0,1,739.393,886.053Zm58.784-.168a.952.952,0,0,1-.445-.085c-.363-.237-.764-.472-1.19-.7-.12-.064-.046-.14.165-.17a1.2,1.2,0,0,1,.6.062c.439.233.854.475,1.23.718.1.067.008.142-.216.166A1.362,1.362,0,0,1,798.177,885.884Zm-56.2-1.231a1.234,1.234,0,0,1-.209-.016c-.2-.034-.252-.11-.117-.171.487-.219,1.012-.437,1.562-.647a1.306,1.306,0,0,1,.609-.035c.188.038.22.115.07.172-.533.2-1.043.417-1.516.631A1.079,1.079,0,0,1,741.976,884.653Zm53.6-.152a1.07,1.07,0,0,1-.4-.064c-.478-.212-.992-.421-1.526-.621-.15-.057-.121-.134.066-.173a1.3,1.3,0,0,1,.61.032c.551.205,1.08.42,1.572.638.137.06.085.137-.114.172A1.3,1.3,0,0,1,795.578,884.5Zm-50.367-1.087a1.137,1.137,0,0,1-.264-.026c-.174-.042-.182-.119-.019-.172.592-.193,1.215-.38,1.851-.557a1.32,1.32,0,0,1,.6-.005c.16.046.148.122-.026.171-.62.173-1.226.356-1.8.544A1.185,1.185,0,0,1,745.211,883.414Zm47.114-.133a1.2,1.2,0,0,1-.347-.045c-.578-.185-1.186-.364-1.807-.533-.175-.047-.189-.125-.03-.171a1.318,1.318,0,0,1,.6,0c.639.173,1.264.357,1.86.546.164.052.156.129-.017.172A1.132,1.132,0,0,1,792.325,883.281Zm-43.334-.923a1.03,1.03,0,0,1-.31-.039c-.144-.05-.111-.125.075-.169.672-.16,1.374-.314,2.088-.458a1.229,1.229,0,0,1,.586.023c.129.052.076.126-.12.166-.694.141-1.377.291-2.031.447A1.3,1.3,0,0,1,748.991,882.359Zm39.538-.111a1.333,1.333,0,0,1-.287-.029c-.657-.153-1.342-.3-2.038-.436-.2-.038-.251-.113-.122-.165a1.232,1.232,0,0,1,.585-.027c.715.14,1.42.29,2.095.446.186.043.221.118.078.168A1.031,1.031,0,0,1,788.529,882.248Zm-35.317-.744a.9.9,0,0,1-.349-.055c-.111-.055-.038-.128.166-.162.737-.125,1.5-.243,2.271-.351a1.07,1.07,0,0,1,.555.049c.1.057,0,.127-.208.157-.748.105-1.493.221-2.211.343A1.39,1.39,0,0,1,753.212,881.5Zm31.083-.088a1.334,1.334,0,0,1-.224-.017c-.722-.118-1.468-.229-2.218-.33-.212-.029-.305-.1-.21-.156a1.055,1.055,0,0,1,.554-.053c.77.1,1.537.218,2.278.339.2.033.279.106.168.161A.907.907,0,0,1,784.295,881.416Zm-26.521-.553a.755.755,0,0,1-.379-.071c-.079-.059.033-.127.249-.151.79-.088,1.6-.169,2.406-.239a.86.86,0,0,1,.514.075c.061.061-.069.125-.29.145-.786.068-1.573.147-2.342.233A1.379,1.379,0,0,1,757.773,880.863Zm21.947-.062a1.4,1.4,0,0,1-.157-.008c-.77-.082-1.56-.156-2.347-.22-.223-.018-.353-.082-.292-.143a.849.849,0,0,1,.511-.078c.808.065,1.618.141,2.409.225.218.024.33.091.253.15A.755.755,0,0,1,779.72,880.8Zm-17.15-.354a.625.625,0,0,1-.4-.09c-.043-.062.1-.123.329-.137.819-.051,1.655-.091,2.484-.123.223-.008.434.035.461.1s-.136.12-.364.129c-.808.03-1.622.071-2.42.12C762.629,880.446,762.6,880.447,762.57,880.447Zm12.345-.035-.087,0c-.8-.045-1.615-.081-2.422-.106-.228-.007-.392-.064-.366-.127s.235-.107.459-.1c.827.026,1.664.063,2.484.109.226.013.374.073.332.135A.624.624,0,0,1,774.915,880.412Zm-7.414-.151c-.222,0-.405-.047-.414-.108s.17-.116.4-.12c.829-.012,1.674-.015,2.51-.007.229,0,.408.055.4.117s-.22.112-.43.111c-.814-.007-1.637,0-2.447.007Z" transform="translate(-735.994 -880.021)" fill="#ffecb1"/>
          </g>
        </g>
      </g>
      <g id="Group_7431" data-name="Group 7431" transform="translate(363.566 399.873)">
        <path id="Path_13510" data-name="Path 13510" d="M772.761,778.711c-14.482-.489-26.621,11.416-26.567,26.606s12.277,27.009,26.755,26.418c13.911-.568,24.756-12.47,24.706-26.6S786.676,779.18,772.761,778.711Zm.181,51.178c-13.45.515-24.777-10.483-24.827-24.578s11.2-25.173,24.652-24.754c12.962.4,23.17,11.407,23.216,24.584S785.9,829.393,772.942,829.889Z" transform="translate(-741.723 -774.428)" fill="#ffb542"/>
        <path id="Path_13511" data-name="Path 13511" d="M767.727,769.66c-16.868-.67-31.086,13.139-31.023,30.882s14.378,31.452,31.241,30.662c16.1-.754,28.572-14.56,28.515-30.873S783.831,770.3,767.727,769.66Zm.2,57.284c-14.478.591-26.7-11.228-26.755-26.418s12.086-27.1,26.567-26.607c13.915.47,24.844,12.295,24.893,26.425S781.841,826.376,767.93,826.944Z" transform="translate(-736.704 -769.636)" fill="#ffb542"/>
        <path id="Path_13512" data-name="Path 13512" d="M772.551,778.183c-14.479-.541-26.661,11.322-26.661,26.512s12.181,27.052,26.661,26.512c13.913-.518,24.8-12.382,24.8-26.512S786.464,778.7,772.551,778.183Zm0,51.178c-13.451.467-24.74-10.571-24.74-24.666s11.288-25.133,24.74-24.667c12.961.45,23.13,11.489,23.13,24.667S785.512,828.912,772.551,829.361Z" transform="translate(-741.562 -774.147)" fill="#e7e2d3" style="mix-blend-mode: multiply;isolation: isolate"/>
        <path id="Path_13513" data-name="Path 13513" d="M798.141,807.217c.047,13.177-10.083,24.252-23.042,24.747-13.45.515-24.777-10.484-24.827-24.578s11.2-25.173,24.653-24.753C787.887,783.037,798.094,794.04,798.141,807.217Z" transform="translate(-743.879 -776.503)" fill="#ffb542"/>
        <path id="Path_13514" data-name="Path 13514" d="M802.088,823.426c0-4.508-2.509-7.022-7.49-9.039v-10.8a11.7,11.7,0,0,1,5.238,1.544l1.062-3.259a13.183,13.183,0,0,0-6.3-1.641v-4.376l-3.211-.083v4.706c-4.326.9-7.073,4.082-7.073,8.183,0,4.153,2.691,6.761,7.073,8.559v12.039a13.68,13.68,0,0,1-6.7-1.924l-1.018,3.468a15.345,15.345,0,0,0,7.721,1.825v4.394l3.211-.1v-4.657C799.654,831.123,802.088,827.477,802.088,823.426Zm-13.727-15.2a4.468,4.468,0,0,1,3.027-4.22v8.881C789.316,811.673,788.361,810.329,788.361,808.224Zm6.237,20.554V818.6c2.516,1.336,3.552,2.861,3.552,5.2A5.076,5.076,0,0,1,794.6,828.777Z" transform="translate(-761.54 -783.459)" fill="#e7e2d3" style="mix-blend-mode: multiply;isolation: isolate"/>
        <path id="Path_13515" data-name="Path 13515" d="M801.095,819.325c0-4.51-2.513-7.033-7.5-9.065V799.455a11.753,11.753,0,0,1,5.245,1.56l1.063-3.259A13.23,13.23,0,0,0,793.6,796.1v-4.38l-3.215-.091v4.71c-4.332.893-7.082,4.065-7.082,8.169,0,4.156,2.694,6.772,7.082,8.585v12.047a13.736,13.736,0,0,1-6.713-1.944l-1.019,3.468a15.409,15.409,0,0,0,7.732,1.847v4.4l3.215-.1v-4.66C798.657,827.021,801.095,823.379,801.095,819.325ZM787.35,804.075a4.455,4.455,0,0,1,3.03-4.214v8.886C788.307,807.53,787.35,806.182,787.35,804.075ZM793.6,824.66V814.477c2.519,1.343,3.557,2.872,3.557,5.214A5.062,5.062,0,0,1,793.6,824.66Z" transform="translate(-761.002 -781.266)" fill="#ffecb1"/>
        <g id="Group_7429" data-name="Group 7429" transform="translate(2.173 2.089)" style="mix-blend-mode: multiply;isolation: isolate">
          <path id="Path_13516" data-name="Path 13516" d="M769.359,831.88h-.015c-.795,0-1.6-.033-2.381-.1a.386.386,0,0,1-.344-.44.412.412,0,0,1,.442-.371c.763.067,1.542.1,2.314.1a.381.381,0,0,1,.377.4A.421.421,0,0,1,769.359,831.88Zm2.341-.1a.377.377,0,0,1-.39-.37.419.419,0,0,1,.372-.437c.764-.066,1.531-.166,2.283-.3a.374.374,0,0,1,.435.33.42.42,0,0,1-.335.465c-.773.136-1.563.24-2.348.308Zm-7.025-.3a.377.377,0,0,1-.083-.006c-.784-.137-1.574-.312-2.346-.52a.4.4,0,0,1-.268-.5.416.416,0,0,1,.5-.293c.749.2,1.516.373,2.279.508a.391.391,0,0,1,.307.471A.423.423,0,0,1,764.674,831.476Zm11.617-.506a.37.37,0,0,1-.377-.3.42.42,0,0,1,.295-.489c.738-.2,1.474-.426,2.188-.684a.368.368,0,0,1,.479.245.42.42,0,0,1-.253.511c-.734.266-1.491.5-2.25.707A.368.368,0,0,1,776.292,830.97Zm-16.2-.726a.382.382,0,0,1-.149-.024c-.757-.277-1.51-.592-2.24-.936a.4.4,0,0,1-.181-.546.416.416,0,0,1,.546-.2c.708.334,1.438.641,2.173.912a.4.4,0,0,1,.226.524A.422.422,0,0,1,760.093,830.244Zm20.566-.856a.365.365,0,0,1-.353-.236.418.418,0,0,1,.211-.527c.686-.317,1.37-.668,2.032-1.047a.363.363,0,0,1,.509.156.417.417,0,0,1-.165.541c-.682.39-1.385.752-2.091,1.078A.365.365,0,0,1,780.658,829.388Zm-24.9-1.184a.388.388,0,0,1-.213-.053c-.7-.409-1.395-.856-2.061-1.328a.42.42,0,0,1,.486-.683c.648.459,1.32.893,2,1.292a.408.408,0,0,1,.135.563A.424.424,0,0,1,755.761,828.2Zm28.922-1.113a.358.358,0,0,1-.32-.176.417.417,0,0,1,.122-.551c.627-.431,1.241-.893,1.827-1.373a.358.358,0,0,1,.524.064.415.415,0,0,1-.076.556c-.6.494-1.235.969-1.878,1.413A.37.37,0,0,1,784.683,827.09Zm-32.871-1.683a.4.4,0,0,1-.272-.094c-.625-.53-1.237-1.1-1.817-1.682a.421.421,0,0,1,.6-.6c.563.568,1.156,1.119,1.763,1.635a.414.414,0,0,1,.039.585A.423.423,0,0,1,751.812,825.407Zm36.454-1.255a.352.352,0,0,1-.279-.125.412.412,0,0,1,.032-.558c.545-.527,1.076-1.084,1.577-1.656a.357.357,0,0,1,.524-.028.41.41,0,0,1,.013.556c-.515.588-1.06,1.162-1.62,1.7A.37.37,0,0,1,788.266,824.152Zm-39.891-2.219a.406.406,0,0,1-.323-.145c-.53-.638-1.04-1.307-1.514-1.99a.423.423,0,0,1,.11-.584.416.416,0,0,1,.581.1c.46.663.955,1.314,1.469,1.933a.42.42,0,0,1-.06.589A.427.427,0,0,1,748.375,821.934Zm42.946-1.268a.35.35,0,0,1-.232-.081.407.407,0,0,1-.056-.551c.452-.609.885-1.245,1.288-1.892a.359.359,0,0,1,.511-.117.4.4,0,0,1,.1.541c-.415.666-.86,1.32-1.324,1.946A.375.375,0,0,1,791.321,820.666Zm-45.76-2.785a.411.411,0,0,1-.366-.205c-.414-.722-.8-1.476-1.158-2.24a.424.424,0,0,1,.209-.559.417.417,0,0,1,.559.2c.342.741.72,1.473,1.123,2.174a.423.423,0,0,1-.159.573A.418.418,0,0,1,745.561,817.881Zm48.214-1.153a.338.338,0,0,1-.178-.046.4.4,0,0,1-.142-.529c.349-.675.674-1.374.969-2.077a.364.364,0,0,1,.483-.2.4.4,0,0,1,.184.514c-.3.723-.637,1.442-1,2.135A.372.372,0,0,1,793.775,816.728Zm-50.3-3.358a.415.415,0,0,1-.4-.273c-.289-.8-.545-1.614-.759-2.423a.424.424,0,0,1,.3-.517.418.418,0,0,1,.517.294c.207.785.455,1.576.735,2.351a.425.425,0,0,1-.255.54A.42.42,0,0,1,743.473,813.37Zm52.093-.928a.337.337,0,0,1-.121-.021.393.393,0,0,1-.223-.495c.235-.72.444-1.462.623-2.206a.368.368,0,0,1,.443-.285.388.388,0,0,1,.262.472c-.182.764-.4,1.527-.64,2.268A.374.374,0,0,1,795.566,812.442Zm-53.382-3.906a.419.419,0,0,1-.417-.345c-.148-.835-.26-1.685-.333-2.526a.424.424,0,0,1,.845-.077c.072.816.18,1.641.322,2.452a.424.424,0,0,1-.344.489A.482.482,0,0,1,742.185,808.536Zm54.465-.613a.306.306,0,0,1-.06,0,.384.384,0,0,1-.3-.446c.117-.757.206-1.524.264-2.279a.364.364,0,1,1,.724.061c-.059.775-.15,1.563-.271,2.34A.376.376,0,0,1,796.65,807.923Zm-54.91-4.386a.421.421,0,0,1-.424-.421V803c0-.856.036-1.713.107-2.556a.424.424,0,0,1,.846.072c-.069.818-.1,1.65-.1,2.474v.124A.422.422,0,0,1,741.74,803.537ZM797,803.29a.376.376,0,0,1-.363-.388c0-.766-.033-1.537-.094-2.292a.381.381,0,0,1,.331-.421.374.374,0,0,1,.393.356c.063.776.1,1.568.1,2.355a.377.377,0,0,1-.362.391Zm-54.839-4.878a.537.537,0,0,1-.071-.006.425.425,0,0,1-.347-.488c.143-.833.324-1.67.538-2.487a.415.415,0,0,1,.516-.3.425.425,0,0,1,.3.515c-.208.793-.384,1.606-.522,2.415A.421.421,0,0,1,742.164,798.412Zm54.465.247a.375.375,0,0,1-.358-.326c-.12-.752-.272-1.508-.453-2.247a.389.389,0,0,1,.261-.474.366.366,0,0,1,.444.283c.185.76.341,1.537.466,2.31a.386.386,0,0,1-.3.448A.334.334,0,0,1,796.629,798.658Zm-53.2-5.09a.418.418,0,0,1-.141-.026.425.425,0,0,1-.258-.539c.282-.791.6-1.58.953-2.347a.418.418,0,0,1,.559-.2.425.425,0,0,1,.211.558c-.341.745-.652,1.512-.925,2.279A.416.416,0,0,1,743.431,793.568Zm52.1.579a.375.375,0,0,1-.344-.264c-.237-.722-.509-1.442-.8-2.143a.4.4,0,0,1,.182-.515.362.362,0,0,1,.484.2c.3.72.583,1.462.828,2.2a.394.394,0,0,1-.222.5A.332.332,0,0,1,795.529,794.147ZM745.5,789.039a.431.431,0,0,1-.206-.057.423.423,0,0,1-.161-.573c.409-.721.858-1.438,1.334-2.131a.423.423,0,0,1,.694.483c-.461.674-.9,1.37-1.294,2.071A.412.412,0,0,1,745.5,789.039Zm48.221.838a.371.371,0,0,1-.32-.206c-.35-.672-.734-1.339-1.139-1.983a.405.405,0,0,1,.1-.543.359.359,0,0,1,.511.115c.417.662.811,1.349,1.17,2.04a.4.4,0,0,1-.14.53A.345.345,0,0,1,793.725,789.877ZM748.3,784.965a.425.425,0,0,1-.262-.1.42.42,0,0,1-.062-.589c.527-.64,1.088-1.263,1.666-1.852a.422.422,0,0,1,.6.593c-.562.573-1.106,1.178-1.617,1.8A.4.4,0,0,1,748.3,784.965Zm42.954.99a.371.371,0,0,1-.288-.153c-.456-.609-.941-1.205-1.443-1.772a.41.41,0,0,1,.01-.556.357.357,0,0,1,.524.025c.515.583,1.014,1.2,1.483,1.823a.408.408,0,0,1-.054.551A.348.348,0,0,1,791.257,785.955Zm-39.53-4.486a.425.425,0,0,1-.31-.15.415.415,0,0,1,.037-.585c.621-.532,1.273-1.043,1.94-1.52a.419.419,0,0,1,.489.68c-.647.465-1.281.962-1.883,1.479A.4.4,0,0,1,751.727,781.469Zm36.462,1.019a.369.369,0,0,1-.247-.105c-.547-.525-1.124-1.034-1.713-1.511a.414.414,0,0,1-.079-.556.358.358,0,0,1,.524-.066c.605.491,1.2,1.015,1.761,1.556a.413.413,0,0,1,.034.558A.354.354,0,0,1,788.189,782.488Zm-32.526-3.841a.423.423,0,0,1-.348-.207.409.409,0,0,1,.133-.565c.7-.411,1.42-.8,2.152-1.146a.414.414,0,0,1,.546.2.4.4,0,0,1-.179.547c-.71.341-1.413.716-2.089,1.116A.384.384,0,0,1,755.663,778.647Zm28.931.926a.374.374,0,0,1-.2-.065c-.628-.427-1.281-.833-1.942-1.206a.417.417,0,0,1-.168-.54.36.36,0,0,1,.508-.159c.68.384,1.351.8,2,1.242a.417.417,0,0,1,.124.55A.36.36,0,0,1,784.594,779.573Zm-24.609-2.993a.422.422,0,0,1-.375-.271.4.4,0,0,1,.223-.527c.754-.281,1.527-.531,2.3-.742a.414.414,0,0,1,.5.29.4.4,0,0,1-.267.5c-.748.206-1.5.45-2.231.724A.39.39,0,0,1,759.984,776.579Zm20.571.719a.372.372,0,0,1-.141-.033c-.694-.316-1.409-.6-2.124-.859a.419.419,0,0,1-.256-.509.366.366,0,0,1,.479-.248c.735.262,1.47.56,2.183.885a.419.419,0,0,1,.212.527A.365.365,0,0,1,780.555,777.3Zm-16-1.982a.422.422,0,0,1-.389-.337.391.391,0,0,1,.306-.473c.783-.142,1.581-.25,2.371-.323a.421.421,0,0,1,.443.37.388.388,0,0,1-.343.441c-.769.072-1.544.178-2.3.316A.406.406,0,0,1,764.557,775.316Zm11.622.428a.346.346,0,0,1-.081-.012c-.74-.192-1.5-.353-2.247-.48a.42.42,0,0,1-.337-.463.378.378,0,0,1,.434-.332c.772.131,1.549.3,2.309.5a.42.42,0,0,1,.3.488A.372.372,0,0,1,776.18,775.745Zm-6.936-.864a.419.419,0,0,1-.394-.4.383.383,0,0,1,.377-.407c.786,0,1.586.027,2.374.093a.419.419,0,0,1,.375.435.392.392,0,0,1-.407.371c-.766-.062-1.542-.091-2.308-.087Z" transform="translate(-741.315 -774.07)" fill="#e7e2d3"/>
        </g>
        <g id="Group_7430" data-name="Group 7430" transform="translate(1.834 1.815)">
          <path id="Path_13517" data-name="Path 13517" d="M768.665,831.325h-.015c-.8,0-1.6-.033-2.383-.1a.386.386,0,0,1-.345-.44.413.413,0,0,1,.442-.371c.764.067,1.542.1,2.316.1a.382.382,0,0,1,.378.405A.419.419,0,0,1,768.665,831.325Zm2.343-.1a.378.378,0,0,1-.39-.37.419.419,0,0,1,.373-.437c.764-.065,1.532-.165,2.285-.3a.374.374,0,0,1,.435.33.42.42,0,0,1-.335.465c-.774.136-1.565.239-2.35.308Zm-7.032-.3a.379.379,0,0,1-.083-.006c-.784-.138-1.574-.313-2.347-.521a.4.4,0,0,1-.269-.5.416.416,0,0,1,.5-.293c.75.2,1.517.373,2.28.508a.392.392,0,0,1,.308.471A.424.424,0,0,1,763.976,830.92Zm11.627-.5a.372.372,0,0,1-.377-.3.42.42,0,0,1,.295-.49c.738-.2,1.475-.426,2.19-.683a.368.368,0,0,1,.48.245.419.419,0,0,1-.253.51c-.735.266-1.492.5-2.252.707A.408.408,0,0,1,775.6,830.417Zm-16.213-.732a.383.383,0,0,1-.149-.024c-.758-.277-1.511-.592-2.241-.937a.4.4,0,0,1-.182-.547.416.416,0,0,1,.547-.2c.707.335,1.439.642,2.174.913a.4.4,0,0,1,.226.525A.424.424,0,0,1,759.391,829.685Zm20.583-.85a.364.364,0,0,1-.354-.236.419.419,0,0,1,.211-.527c.687-.317,1.371-.669,2.034-1.046a.363.363,0,0,1,.509.156.417.417,0,0,1-.165.541c-.682.39-1.386.753-2.092,1.079A.364.364,0,0,1,779.974,828.835Zm-24.92-1.193a.4.4,0,0,1-.213-.054c-.7-.409-1.4-.856-2.062-1.329a.411.411,0,0,1-.089-.576.416.416,0,0,1,.575-.108c.648.459,1.322.895,2,1.293a.407.407,0,0,1,.136.563A.425.425,0,0,1,755.055,827.642Zm28.948-1.1a.357.357,0,0,1-.32-.176.417.417,0,0,1,.122-.551c.628-.432,1.242-.893,1.829-1.374a.359.359,0,0,1,.525.064.415.415,0,0,1-.077.556c-.6.494-1.236.97-1.88,1.414A.369.369,0,0,1,784,826.538Zm-32.9-1.7a.4.4,0,0,1-.272-.094c-.626-.531-1.238-1.1-1.818-1.683a.422.422,0,0,1,.6-.6c.564.569,1.157,1.12,1.765,1.637a.414.414,0,0,1,.038.585A.423.423,0,0,1,751.1,824.843Zm36.486-1.242a.351.351,0,0,1-.279-.124.413.413,0,0,1,.032-.558c.545-.527,1.075-1.084,1.577-1.656a.358.358,0,0,1,.525-.028.41.41,0,0,1,.013.556c-.516.588-1.061,1.161-1.622,1.7A.371.371,0,0,1,787.589,823.6Zm-39.927-2.234a.405.405,0,0,1-.324-.145c-.53-.638-1.04-1.308-1.515-1.991a.422.422,0,0,1,.11-.584.417.417,0,0,1,.583.1c.46.663.955,1.315,1.47,1.935a.419.419,0,0,1-.06.589A.425.425,0,0,1,747.662,821.367Zm42.984-1.253a.345.345,0,0,1-.232-.08.408.408,0,0,1-.057-.552c.452-.608.886-1.244,1.29-1.891a.359.359,0,0,1,.511-.117.4.4,0,0,1,.1.541c-.415.666-.861,1.32-1.325,1.946A.371.371,0,0,1,790.646,820.114Zm-45.8-2.8a.411.411,0,0,1-.367-.206c-.414-.723-.8-1.476-1.159-2.241a.425.425,0,0,1,.209-.56.418.418,0,0,1,.559.2c.343.742.721,1.474,1.123,2.176a.428.428,0,0,1-.365.633Zm48.256-1.136a.344.344,0,0,1-.179-.046.4.4,0,0,1-.142-.53c.349-.675.674-1.374.97-2.078a.364.364,0,0,1,.484-.2.4.4,0,0,1,.184.515c-.3.723-.638,1.442-1,2.135A.372.372,0,0,1,793.1,816.176ZM742.756,812.8a.416.416,0,0,1-.4-.273c-.289-.8-.545-1.615-.759-2.425a.425.425,0,0,1,.3-.517.418.418,0,0,1,.517.3c.208.785.456,1.577.737,2.352a.426.426,0,0,1-.255.541A.42.42,0,0,1,742.756,812.8Zm52.139-.91a.339.339,0,0,1-.121-.021.393.393,0,0,1-.223-.495c.236-.721.445-1.464.623-2.206a.369.369,0,0,1,.444-.285.389.389,0,0,1,.262.472c-.183.764-.4,1.527-.641,2.268A.374.374,0,0,1,794.9,811.888Zm-53.429-3.927a.417.417,0,0,1-.417-.345c-.148-.836-.26-1.686-.334-2.527a.425.425,0,0,1,.846-.076c.072.816.181,1.641.323,2.453a.425.425,0,0,1-.344.49A.45.45,0,0,1,741.466,807.961Zm54.513-.593a.263.263,0,0,1-.06-.005.384.384,0,0,1-.3-.447c.117-.758.206-1.525.264-2.279a.365.365,0,1,1,.725.061c-.059.775-.151,1.563-.271,2.341A.377.377,0,0,1,795.979,807.368Zm-54.958-4.408a.423.423,0,0,1-.425-.421v-.116c0-.856.035-1.714.107-2.556a.425.425,0,0,1,.846.072c-.069.818-.1,1.652-.1,2.476v.124A.423.423,0,0,1,741.022,802.96Zm55.312-.227a.378.378,0,0,1-.364-.389c0-.766-.033-1.538-.094-2.293a.381.381,0,0,1,.331-.421.375.375,0,0,1,.394.356c.062.776.094,1.569.1,2.357a.378.378,0,0,1-.363.39Zm-54.887-4.9a.418.418,0,0,1-.072-.007.425.425,0,0,1-.348-.488c.144-.834.324-1.671.538-2.488a.416.416,0,0,1,.517-.3.425.425,0,0,1,.3.516c-.208.794-.384,1.606-.522,2.416A.421.421,0,0,1,741.446,797.832Zm54.513.267a.376.376,0,0,1-.358-.326c-.12-.752-.273-1.509-.453-2.248a.39.39,0,0,1,.261-.474.367.367,0,0,1,.445.284c.185.761.342,1.538.466,2.311a.386.386,0,0,1-.3.448A.435.435,0,0,1,795.959,798.1Zm-53.245-5.111a.444.444,0,0,1-.141-.026.425.425,0,0,1-.258-.54c.283-.791.6-1.58.955-2.348a.418.418,0,0,1,.559-.2.424.424,0,0,1,.211.558c-.341.746-.653,1.513-.926,2.281A.417.417,0,0,1,742.714,792.988Zm52.144.6a.375.375,0,0,1-.345-.264c-.238-.721-.509-1.443-.805-2.144a.4.4,0,0,1,.182-.515.362.362,0,0,1,.485.2c.3.721.583,1.462.828,2.2a.393.393,0,0,1-.222.5A.332.332,0,0,1,794.858,793.585Zm-50.069-5.13a.427.427,0,0,1-.367-.631c.41-.721.859-1.439,1.335-2.131a.417.417,0,0,1,.581-.1.422.422,0,0,1,.113.583c-.462.673-.9,1.37-1.3,2.071A.411.411,0,0,1,744.789,788.456Zm48.264.857a.37.37,0,0,1-.32-.206c-.351-.673-.735-1.34-1.14-1.985a.4.4,0,0,1,.1-.543.359.359,0,0,1,.512.115c.417.663.811,1.35,1.171,2.041a.4.4,0,0,1-.139.53A.35.35,0,0,1,793.052,789.313Zm-45.462-4.931a.432.432,0,0,1-.263-.1.421.421,0,0,1-.062-.589c.528-.64,1.088-1.263,1.667-1.853a.422.422,0,0,1,.6.593c-.562.573-1.107,1.179-1.619,1.8A.4.4,0,0,1,747.59,784.382Zm42.992,1.006a.371.371,0,0,1-.287-.152c-.456-.609-.942-1.206-1.444-1.773a.41.41,0,0,1,.01-.557.358.358,0,0,1,.525.026c.516.583,1.014,1.2,1.484,1.824a.408.408,0,0,1-.054.551A.346.346,0,0,1,790.582,785.388Zm-39.564-4.5a.424.424,0,0,1-.31-.15.415.415,0,0,1,.036-.585c.622-.532,1.275-1.043,1.942-1.52a.42.42,0,0,1,.49.681c-.647.465-1.281.962-1.885,1.479A.4.4,0,0,1,751.017,780.885Zm36.494,1.033a.365.365,0,0,1-.246-.105c-.548-.525-1.125-1.034-1.715-1.512a.414.414,0,0,1-.079-.556.359.359,0,0,1,.524-.066c.606.492,1.2,1.016,1.762,1.557a.413.413,0,0,1,.034.557A.352.352,0,0,1,787.511,781.918Zm-32.555-3.854a.427.427,0,0,1-.348-.208.408.408,0,0,1,.134-.564c.7-.411,1.421-.8,2.154-1.146a.415.415,0,0,1,.546.2.4.4,0,0,1-.179.547c-.71.341-1.414.716-2.091,1.116A.4.4,0,0,1,754.956,778.064Zm28.956.937a.369.369,0,0,1-.2-.066c-.629-.428-1.282-.834-1.944-1.206a.419.419,0,0,1-.168-.541.361.361,0,0,1,.509-.159c.68.384,1.353.8,2,1.244a.416.416,0,0,1,.123.55A.36.36,0,0,1,783.912,779Zm-24.631-3a.424.424,0,0,1-.375-.271.4.4,0,0,1,.223-.526c.755-.281,1.528-.531,2.3-.742a.415.415,0,0,1,.5.291.4.4,0,0,1-.267.5c-.75.206-1.5.449-2.233.723A.389.389,0,0,1,759.282,776Zm20.59.727a.369.369,0,0,1-.142-.034c-.695-.316-1.41-.605-2.125-.86a.419.419,0,0,1-.256-.509.367.367,0,0,1,.479-.248c.736.263,1.471.561,2.185.887a.419.419,0,0,1,.212.527A.365.365,0,0,1,779.871,776.724Zm-16.012-1.989a.422.422,0,0,1-.39-.338.391.391,0,0,1,.306-.473c.784-.142,1.582-.25,2.374-.322a.421.421,0,0,1,.443.37.387.387,0,0,1-.343.441c-.77.071-1.545.178-2.305.315A.342.342,0,0,1,763.86,774.734Zm11.632.434a.414.414,0,0,1-.081-.012c-.74-.192-1.5-.354-2.248-.482a.42.42,0,0,1-.337-.463.379.379,0,0,1,.435-.333c.772.132,1.55.3,2.311.5a.42.42,0,0,1,.3.488A.373.373,0,0,1,775.492,775.168Zm-6.943-.867a.42.42,0,0,1-.394-.4.382.382,0,0,1,.377-.407c.787,0,1.587.027,2.377.093a.419.419,0,0,1,.375.435.392.392,0,0,1-.407.371c-.766-.063-1.543-.092-2.31-.089Z" transform="translate(-740.596 -773.489)" fill="#ffecb1"/>
        </g>
      </g>
      <g id="Group_7436" data-name="Group 7436" transform="translate(422.191 247.704)">
        <g id="Group_7432" data-name="Group 7432" transform="translate(0 0)">
          <circle id="Ellipse_247" data-name="Ellipse 247" cx="20.123" cy="20.123" r="20.123" transform="matrix(0.24, -0.971, 0.971, 0.24, 0, 39.071)" fill="#434442"/>
        </g>
        <g id="Group_7435" data-name="Group 7435" transform="translate(13.013 7.621)">
          <g id="Group_7433" data-name="Group 7433" transform="translate(0 0)">
            <circle id="Ellipse_248" data-name="Ellipse 248" cx="7.812" cy="7.812" r="7.812" transform="translate(0 11.048) rotate(-45)" fill="#fff"/>
          </g>
          <g id="Group_7434" data-name="Group 7434" transform="translate(1.676 18.564)">
            <path id="Path_13518" data-name="Path 13518" d="M908.848,502.594a1.7,1.7,0,0,0-2.126.03,7.808,7.808,0,0,1-9.744.1,1.681,1.681,0,0,0-2.131.037,7.378,7.378,0,0,0-2.536,5.833v.229a2.372,2.372,0,0,0,2.372,2.372h14.6a2.372,2.372,0,0,0,2.372-2.372V508.6A7.3,7.3,0,0,0,908.848,502.594Z" transform="translate(-892.312 -502.235)" fill="#fff"/>
          </g>
        </g>
      </g>
      <g id="Group_7441" data-name="Group 7441" transform="translate(31.465 206.365)">
        <g id="Group_7437" data-name="Group 7437" transform="translate(0 0)">
          <circle id="Ellipse_249" data-name="Ellipse 249" cx="20.123" cy="20.123" r="20.123" transform="translate(0 39.146) rotate(-76.576)" fill="#434442"/>
        </g>
        <g id="Group_7440" data-name="Group 7440" transform="translate(14.573 10.741)">
          <g id="Group_7438" data-name="Group 7438" transform="translate(1.56)">
            <circle id="Ellipse_250" data-name="Ellipse 250" cx="7.812" cy="7.812" r="7.812" fill="#fff"/>
          </g>
          <g id="Group_7439" data-name="Group 7439" transform="translate(0 15.328)">
            <path id="Path_13519" data-name="Path 13519" d="M79.291,414.607a1.7,1.7,0,0,0-2.126.031,7.807,7.807,0,0,1-9.744.1,1.682,1.682,0,0,0-2.131.037,7.378,7.378,0,0,0-2.536,5.833v.229a2.372,2.372,0,0,0,2.372,2.372h14.6a2.372,2.372,0,0,0,2.372-2.372v-.229A7.3,7.3,0,0,0,79.291,414.607Z" transform="translate(-62.755 -414.249)" fill="#fff"/>
          </g>
        </g>
      </g>
      <g id="Group_7446" data-name="Group 7446" transform="translate(447.483 378.263)">
        <g id="Group_7442" data-name="Group 7442" transform="translate(0 0)">
          <circle id="Ellipse_251" data-name="Ellipse 251" cx="12.495" cy="12.495" r="12.495" transform="translate(0 23.418) rotate(-69.565)" fill="#434442"/>
        </g>
        <g id="Group_7445" data-name="Group 7445" transform="translate(9.548 6.199)">
          <g id="Group_7443" data-name="Group 7443" transform="translate(0 0)">
            <circle id="Ellipse_252" data-name="Ellipse 252" cx="4.851" cy="4.851" r="4.851" transform="translate(0 8.963) rotate(-67.5)" fill="#fff"/>
          </g>
          <g id="Group_7444" data-name="Group 7444" transform="translate(0.519 11.006)">
            <path id="Path_13520" data-name="Path 13520" d="M946.451,760.509a1.056,1.056,0,0,0-1.32.019,4.848,4.848,0,0,1-6.05.063,1.045,1.045,0,0,0-1.324.023,4.581,4.581,0,0,0-1.575,3.622v.142a1.473,1.473,0,0,0,1.473,1.473h9.065a1.473,1.473,0,0,0,1.473-1.473v-.142A4.533,4.533,0,0,0,946.451,760.509Z" transform="translate(-936.183 -760.287)" fill="#fff"/>
          </g>
        </g>
      </g>
      <g id="Group_7451" data-name="Group 7451" transform="translate(111.071 277.394)">
        <g id="Group_7447" data-name="Group 7447" transform="translate(0 0)">
          <circle id="Ellipse_253" data-name="Ellipse 253" cx="12.495" cy="12.495" r="12.495" transform="matrix(0.201, -0.98, 0.98, 0.201, 0, 24.482)" fill="#434442"/>
        </g>
        <g id="Group_7450" data-name="Group 7450" transform="translate(8.744 6.364)">
          <g id="Group_7448" data-name="Group 7448" transform="translate(0.968)">
            <circle id="Ellipse_254" data-name="Ellipse 254" cx="4.851" cy="4.851" r="4.851" fill="#fff"/>
          </g>
          <g id="Group_7449" data-name="Group 7449" transform="translate(0 9.518)">
            <path id="Path_13521" data-name="Path 13521" d="M229.612,543.608a1.054,1.054,0,0,0-1.32.019,4.849,4.849,0,0,1-6.05.063,1.044,1.044,0,0,0-1.323.023,4.58,4.58,0,0,0-1.575,3.622v.142a1.473,1.473,0,0,0,1.473,1.473h9.065a1.473,1.473,0,0,0,1.473-1.473v-.142A4.532,4.532,0,0,0,229.612,543.608Z" transform="translate(-219.344 -543.385)" fill="#fff"/>
          </g>
        </g>
      </g>
      <g id="Group_7452" data-name="Group 7452" transform="translate(79.102 114.585)">
        <path id="Path_13522" data-name="Path 13522" d="M148,186.091c0-3.618-2.1-5.643-6.221-7.258v-8.576a9.857,9.857,0,0,1,4.336,1.174l.887-2.622a11.117,11.117,0,0,0-5.224-1.217v-3.476h-2.627v3.721c-3.5.776-5.7,3.3-5.7,6.511,0,3.251,2.156,5.3,5.7,6.726v9.519a11.416,11.416,0,0,1-5.409-1.62l-.812,2.7a12.824,12.824,0,0,0,6.22,1.585v3.474h2.627v-3.7C145.963,192.222,148,189.343,148,186.091Zm-11.3-12.113a3.581,3.581,0,0,1,2.454-3.356v7.021C137.471,176.691,136.7,175.635,136.7,173.977Zm5.081,16.284v-8.082c2.074,1.078,2.934,2.3,2.934,4.17A3.967,3.967,0,0,1,141.779,190.261Z" transform="translate(-132.932 -164.115)" fill="#d33237"/>
      </g>
      <g id="Group_7453" data-name="Group 7453" transform="translate(495.566 303.192)">
        <path id="Path_13523" data-name="Path 13523" d="M1031.94,586.407c0-3.618-2.1-5.643-6.22-7.258v-8.576a9.848,9.848,0,0,1,4.336,1.174l.887-2.622a11.12,11.12,0,0,0-5.224-1.217v-3.476h-2.627v3.721c-3.5.775-5.7,3.3-5.7,6.512,0,3.251,2.156,5.3,5.7,6.725v9.518a11.412,11.412,0,0,1-5.409-1.62l-.812,2.7a12.82,12.82,0,0,0,6.221,1.586v3.474h2.627v-3.7C1029.9,592.537,1031.94,589.658,1031.94,586.407Zm-11.3-12.114a3.581,3.581,0,0,1,2.454-3.356v7.021C1021.411,577.006,1020.638,575.95,1020.638,574.293Zm5.081,16.284V582.5c2.075,1.078,2.934,2.3,2.934,4.17A3.968,3.968,0,0,1,1025.719,590.577Z" transform="translate(-1016.872 -564.431)" fill="#d33237"/>
      </g>
      <path id="Path_13524" data-name="Path 13524" d="M910.57,321.388a2.413,2.413,0,0,0-1.882.931l-11.914-6.7a4.1,4.1,0,0,0-.016-2.692l11.975-7.961a2.4,2.4,0,0,0,1.838.878,2.7,2.7,0,1,0-2.491-2.688,2.865,2.865,0,0,0,.095.726l-11.988,7.97a3.482,3.482,0,0,0-2.776-1.422,3.878,3.878,0,0,0,0,7.733,3.484,3.484,0,0,0,2.8-1.462l11.945,6.722a2.88,2.88,0,0,0-.079.659,2.5,2.5,0,1,0,2.491-2.689Z" transform="translate(-454.118 -121.638)" fill="#d33237"/>
      <path id="Path_13525" data-name="Path 13525" d="M62.166,757.915a2.414,2.414,0,0,0-1.883.931l-11.914-6.7a4.1,4.1,0,0,0-.016-2.692l11.974-7.96a2.407,2.407,0,0,0,1.838.878,2.7,2.7,0,1,0-2.491-2.688,2.875,2.875,0,0,0,.095.726l-11.988,7.97a3.482,3.482,0,0,0-2.776-1.423,3.878,3.878,0,0,0,0,7.733,3.484,3.484,0,0,0,2.8-1.462l11.944,6.722a2.882,2.882,0,0,0-.079.659,2.5,2.5,0,1,0,2.491-2.689Z" transform="translate(-5.435 -352.498)" fill="#d33237"/>
    </g>
  </g>
</svg>
