<svg xmlns="http://www.w3.org/2000/svg" width="295" height="222.685" viewBox="0 0 295 222.685">
  <g id="review_msg" transform="translate(-38 -150)">
    <g id="Group_6937" data-name="Group 6937" transform="translate(0 72.018)">
      <g id="Group_6932" data-name="Group 6932" transform="translate(-192.544 -285.889)">
        <g id="Group_6930" data-name="Group 6930" transform="translate(308.441 422.596)">
          <g id="Group_6925" data-name="Group 6925" transform="translate(0)">
            <path id="Path_2771" data-name="Path 2771" d="M453.3,523.812h-2.1a1.7,1.7,0,0,1-1.619-2.208h0c.775-2.461,1.677-4.907,2.677-7.275a81.957,81.957,0,0,1,129.576-29.743,1.7,1.7,0,0,1,.078,2.477l-1.445,1.445a1.694,1.694,0,0,1-2.314.078,76.557,76.557,0,0,0-123.235,34.053v0A1.7,1.7,0,0,1,453.3,523.812Z" transform="translate(-449.496 -464.26)" fill="#2c272e"/>
            <path id="Path_2772" data-name="Path 2772" d="M609.771,634.259A82,82,0,0,1,452.253,666.17c-1-2.368-1.9-4.815-2.677-7.276h0a1.7,1.7,0,0,1,1.619-2.208h2.1a1.7,1.7,0,0,1,1.614,1.172v0a76.587,76.587,0,1,0,135.9-67.074,1.693,1.693,0,0,1,.2-2.159l1.466-1.466a1.7,1.7,0,0,1,2.59.223,81.873,81.873,0,0,1,13.089,30.56A82.365,82.365,0,0,1,609.771,634.259Z" transform="translate(-449.496 -552.28)" fill="#2c272e"/>
          </g>
        </g>
        <rect id="Rectangle_17349" data-name="Rectangle 17349" width="39.392" height="6.568" rx="3.284" transform="translate(274.547 475.581)" fill="#2c272e"/>
        <rect id="Rectangle_17350" data-name="Rectangle 17350" width="32.041" height="6.568" rx="3.284" transform="translate(281.897 526.922)" fill="#2c272e"/>
        <rect id="Rectangle_17351" data-name="Rectangle 17351" width="40.83" height="6.568" rx="3.284" transform="translate(271.625 501.938)" fill="#2c272e"/>
        <g id="Group_6931" data-name="Group 6931" transform="translate(306.262 406.32)">
          <path id="Path_2781" data-name="Path 2781" d="M535.487,410.071v.052a3.2,3.2,0,0,1-3.551,3.175,91.582,91.582,0,0,0-84.4,37.742,3.183,3.183,0,0,1-2.6,1.332h0a3.2,3.2,0,0,1-2.6-5.063,98.51,98.51,0,0,1,10.473-12.342,97.521,97.521,0,0,1,69.159-28.647,99.374,99.374,0,0,1,10.642.569A3.2,3.2,0,0,1,535.487,410.071Z" transform="translate(-441.739 -406.32)" fill="#2c272e"/>
          <path id="Path_2782" data-name="Path 2782" d="M877.949,452.507l-1.725,1.725a2.023,2.023,0,0,1-2.759.093,91.5,91.5,0,0,0-24.521-15.381A3.2,3.2,0,0,1,846.99,436v-.076a3.193,3.193,0,0,1,4.425-2.951l.044.019a97.361,97.361,0,0,1,26.4,16.559A2.03,2.03,0,0,1,877.949,452.507Z" transform="translate(-733.152 -425.304)" fill="#2c272e"/>
        </g>
      </g>
      <g id="Group_6933" data-name="Group 6933" transform="translate(-2983.66 -1251.905)">
        <path id="Path_2783" data-name="Path 2783" d="M3282.668,1385.108a4.809,4.809,0,0,1,4.694-7.337c.123.017.248.018.372.026a5.216,5.216,0,0,1,2.628,1.6,4.787,4.787,0,1,1-7.46,6C3282.827,1385.3,3282.746,1385.2,3282.668,1385.108Z" transform="translate(-26.959 -28.511)" fill="#dd4a48"/>
        <path id="Path_2784" data-name="Path 2784" d="M3252.681,1438.859a11.087,11.087,0,0,1-.486-1.605c-.074-.367.007-.646.386-.716s.52.206.583.526a4.79,4.79,0,0,0,.554,1.619,6.4,6.4,0,0,0,4.582,3.644,6.184,6.184,0,0,0,2.6.045c.351-.067.647-.025.718.377s-.222.549-.557.6a7.619,7.619,0,0,1-7.069-2.452A7.833,7.833,0,0,1,3252.681,1438.859Z" transform="translate(0 -81.796)" fill="#2c272e"/>
        <path id="Path_2785" data-name="Path 2785" d="M3266.927,1347.31a6.212,6.212,0,0,0-4.157.907,6.6,6.6,0,0,0-2.446,2.526c-.038.068-.075.136-.114.2-.152.262-.366.4-.66.251a.473.473,0,0,1-.2-.715,7.645,7.645,0,0,1,1.99-2.455,7.841,7.841,0,0,1,5.481-1.755c.472.085.946.165,1.417.255.359.069.575.273.462.655s-.414.364-.725.287A3.165,3.165,0,0,0,3266.927,1347.31Z" transform="translate(-6.432)" fill="#2c272e"/>
        <path id="Path_2786" data-name="Path 2786" d="M3387.458,1381.055a7.981,7.981,0,0,1-1.755,4.918c-.078.1-.16.192-.245.283-.22.239-.478.326-.735.084a.482.482,0,0,1,.019-.743,6.721,6.721,0,0,0,.527-8.346c-.026-.039-.052-.078-.081-.115-.208-.268-.273-.558.026-.779.324-.239.573-.06.781.228a7.605,7.605,0,0,1,1.3,2.972A7.865,7.865,0,0,1,3387.458,1381.055Z" transform="translate(-119.964 -27.171)" fill="#2c272e"/>
      </g>
      <g id="Group_6934" data-name="Group 6934" transform="translate(-3156.513 -1075.283)">
        <path id="Path_2783-2" data-name="Path 2783" d="M3282.6,1384.474a4.4,4.4,0,0,1,4.291-6.707c.113.015.227.017.34.024a4.769,4.769,0,0,1,2.4,1.464,4.376,4.376,0,1,1-6.82,5.481C3282.75,1384.646,3282.675,1384.561,3282.6,1384.474Z" transform="translate(-27.199 -28.764)" fill="#dd4a48"/>
        <path id="Path_2784-2" data-name="Path 2784" d="M3252.637,1438.659a10.117,10.117,0,0,1-.444-1.468c-.067-.335.006-.59.353-.654s.475.188.533.48a4.377,4.377,0,0,0,.507,1.48,5.849,5.849,0,0,0,4.188,3.331,5.651,5.651,0,0,0,2.38.041c.321-.061.591-.023.657.344s-.2.5-.51.547a6.965,6.965,0,0,1-6.462-2.241A7.156,7.156,0,0,1,3252.637,1438.659Z" transform="translate(0 -82.523)" fill="#2c272e"/>
        <path id="Path_2785-2" data-name="Path 2785" d="M3266.27,1347.22a5.679,5.679,0,0,0-3.8.829,6.031,6.031,0,0,0-2.236,2.309c-.035.062-.069.125-.1.186-.139.24-.335.365-.6.23a.432.432,0,0,1-.18-.654,6.984,6.984,0,0,1,1.818-2.244,7.169,7.169,0,0,1,5.011-1.6c.431.077.865.151,1.3.234.329.063.525.25.422.6s-.378.333-.663.262A2.891,2.891,0,0,0,3266.27,1347.22Z" transform="translate(-6.488 0)" fill="#2c272e"/>
        <path id="Path_2786-2" data-name="Path 2786" d="M3387.209,1380.643a7.3,7.3,0,0,1-1.605,4.5c-.071.089-.146.175-.224.259-.2.218-.436.3-.671.076a.44.44,0,0,1,.017-.679,6.144,6.144,0,0,0,.481-7.629c-.024-.035-.047-.071-.073-.1-.19-.245-.25-.51.024-.712.3-.219.524-.055.714.208a6.952,6.952,0,0,1,1.193,2.717A7.248,7.248,0,0,1,3387.209,1380.643Z" transform="translate(-121.03 -27.412)" fill="#2c272e"/>
      </g>
      <path id="Path_2787" data-name="Path 2787" d="M2002.882,626.974l6.722-12.636c.908,1.439,1.718,2.706,2.511,3.984,1.583,2.551,3.153,5.11,4.738,7.66.235.378.453.657-.266.677-4.422.12-8.844.259-13.266.389A3.233,3.233,0,0,1,2002.882,626.974Z" transform="matrix(0.438, 0.899, -0.899, 0.438, -139.518, -1802.769)" fill="#dd4a48"/>
      <path id="Path_2788" data-name="Path 2788" d="M2002.882,632.734l9.786-18.4c1.322,2.1,2.5,3.94,3.656,5.8,2.3,3.714,4.59,7.44,6.9,11.152.342.55.66.957-.386.985-6.438.174-12.875.377-19.313.566A4.706,4.706,0,0,1,2002.882,632.734Z" transform="matrix(0.438, 0.899, -0.899, 0.438, -271.212, -1953.777)" fill="#dd4a48"/>
      <path id="Path_2789" data-name="Path 2789" d="M3072,440.028c0,1.1-.018,2.194.009,3.29.011.426-.087.577-.549.578-1.345,0-1.345.026-1.341-1.349,0-1.358-.015-2.716.017-4.073.01-.451-.13-.564-.566-.556-1.54.027-3.082-.019-4.621.03-.7.023-.97-.143-.938-.9.064-1.538.005-3.081.04-4.621.011-.49-.136-.613-.615-.6-1.592.033-3.186,0-4.778.03-.554.012-.726-.175-.714-.719.033-1.592.006-3.186.037-4.778.009-.477-.126-.629-.615-.619-1.592.035-3.186,0-4.778.035-.556.012-.724-.176-.712-.721.033-1.592,0-3.186.032-4.778.011-.484-.12-.63-.605-.618-1.514.035-3.03-.01-4.542.046-.67.025-.909-.124-.875-.848.069-1.459,0-2.925.047-4.385.02-.6-.112-.814-.758-.79-1.513.055-3.029,0-4.542.043-.6.017-.837-.13-.817-.778.047-1.539-.018-3.082.041-4.621.024-.627-.188-.731-.746-.716-1.513.04-3.029,0-4.542.041-.546.015-.765-.136-.684-.689a2.611,2.611,0,0,0,0-.7c-.056-.433.144-.511.533-.509,2.246.011,4.491.014,6.736-.021.526-.008.587.2.58.644-.025,1.619.007,3.238-.029,4.857-.011.495.138.609.612.6,1.618-.033,3.238,0,4.856-.036.53-.012.66.161.649.666-.034,1.566,0,3.134-.034,4.7-.011.508.122.677.65.664,1.565-.04,3.133-.009,4.7-.042.5-.011.675.114.662.649-.041,1.618,0,3.238-.035,4.856-.011.5.141.608.614.6,1.592-.033,3.187.013,4.778-.037.612-.019.739.183.724.751-.041,1.592,0,3.186-.039,4.778-.011.489.131.611.609.6,1.618-.033,3.238.008,4.856-.032.53-.013.648.153.637.653-.034,1.618,0,3.238-.035,4.856-.01.477.109.627.6.616,1.592-.034,3.186.008,4.778-.03.553-.013.776.082.741.705-.061,1.093-.017,2.192-.017,3.289Z" transform="translate(-2739.033 -204.723)" fill="#2c272e"/>
      <g id="Group_6935" data-name="Group 6935" transform="translate(-2522.903 -1255.044)">
        <path id="Path_2790" data-name="Path 2790" d="M2665.994,1351.079c-.125-.081-.249-.229-.375-.232-1.755-.041-1.734-1.049-1.519-2.427.752-4.8,1.423-9.621,2.054-14.442.126-.965.4-1.035,1.315-.9q7.579,1.15,15.188,2.1c1.067.135,1.351.437,1.031,1.483-.2.647-.064,1.388-.335,2.049a2.344,2.344,0,0,1,.285,1.865c-.48,3.508-1.03,7.007-1.466,10.522-.258,2.084-.542,2.279-2.583,2.024-4.157-.52-8.3-1.137-12.449-1.735A2.756,2.756,0,0,1,2665.994,1351.079Z" fill="#dd4a48"/>
        <path id="Path_2791" data-name="Path 2791" d="M2669.929,1364.332c1.957-.391,3.819.325,5.722.527,2.968.314,5.92.792,8.872,1.241.613.093.876.036.966-.668.572-4.492,1.193-8.979,1.8-13.468,2.3.124,2.346.13,2.048,2.328-.655,4.842-1.373,9.676-2.023,14.519-.1.719-.186,1.018-1.059.886q-7.764-1.172-15.552-2.191c-.864-.114-1.285-.253-.979-1.246A9.756,9.756,0,0,0,2669.929,1364.332Z" transform="translate(-3.936 -13.253)" fill="#2c272e"/>
      </g>
    </g>
    <g id="Group_6954" data-name="Group 6954" transform="translate(-264.974 -177.098)">
      <g id="Group_6953" data-name="Group 6953" transform="translate(422.02 444.247)">
        <path id="Path_2798" data-name="Path 2798" d="M688.457,570.739a11.022,11.022,0,0,0-1.744-.251,1.869,1.869,0,0,1-1.874-1.305,10.22,10.22,0,0,0-.866-1.732,3.493,3.493,0,0,0-3.205-1.789,3.187,3.187,0,0,0-3.134,2.081,4.022,4.022,0,0,1-4.158,2.992,3.146,3.146,0,0,0-2.909,2.355,3.1,3.1,0,0,0,.824,3.642c1.828,1.4,2.169,2.981,1.71,5.189a3.491,3.491,0,0,0,4.967,3.752,21.463,21.463,0,0,0,2.034-1.053,1.4,1.4,0,0,1,1.5-.018,20.764,20.764,0,0,0,2.2,1.116,3.553,3.553,0,0,0,4.9-3.69,20.943,20.943,0,0,0-.355-2.174,1.487,1.487,0,0,1,.487-1.581,19.9,19.9,0,0,0,1.515-1.48A3.591,3.591,0,0,0,688.457,570.739Zm-.167,4.276c-.473.443-.915.919-1.395,1.353a3.944,3.944,0,0,0-1.225,3.929,16.8,16.8,0,0,1,.3,1.915c.062.859-.514,1.267-1.305.929a18.8,18.8,0,0,1-1.8-.935,3.812,3.812,0,0,0-4.023.014c-.536.307-1.083.6-1.643.856-.889.41-1.451.033-1.418-1.072.075-.434.165-1.014.279-1.59a4.038,4.038,0,0,0-1.236-4.093c-.418-.372-.8-.787-1.208-1.165a1.057,1.057,0,0,1-.454-1.153c.161-.488.584-.594,1.051-.649.7-.082,1.394-.209,2.09-.325A3.548,3.548,0,0,0,679.01,571c.343-.684.65-1.387,1.022-2.053a.885.885,0,0,1,1.658-.013,13.969,13.969,0,0,1,.781,1.582,4.134,4.134,0,0,0,3.745,2.648c.5.044.99.133,1.487.2a.937.937,0,0,1,.882.62A.949.949,0,0,1,688.29,575.015Z" transform="translate(-644.964 -565.659)"/>
        <path id="Path_2799" data-name="Path 2799" d="M877.3,570.817a16.366,16.366,0,0,0-2.346-.382,1.609,1.609,0,0,1-1.467-1.068,15.045,15.045,0,0,0-.947-1.89,3.6,3.6,0,0,0-6.545.6,3.459,3.459,0,0,1-3.58,2.58,3.41,3.41,0,0,0-3.322,2.458,3.631,3.631,0,0,0,1.152,3.986c2.294,2.268,1.872,1.217,1.381,4.391a3.632,3.632,0,0,0,1.362,3.758,3.244,3.244,0,0,0,3.963.217,3.842,3.842,0,0,1,4.883-.024,3.245,3.245,0,0,0,3.966-.164,3.6,3.6,0,0,0,1.389-3.834c-.109-.608-.194-1.22-.314-1.825a1.339,1.339,0,0,1,.467-1.338,19.961,19.961,0,0,0,1.745-1.748A3.548,3.548,0,0,0,877.3,570.817Zm-.452,4.169c-.523.518-1.055,1.028-1.573,1.55a3.589,3.589,0,0,0-1.1,3.369q.208,1.083.366,2.173a.907.907,0,0,1-.911,1.173,4.831,4.831,0,0,1-.542-.177,4.172,4.172,0,0,1-.7-.37,4.8,4.8,0,0,0-5.979.015,4.784,4.784,0,0,1-.7.375.959.959,0,0,1-1.084-.035.939.939,0,0,1-.3-1.03c.123-.512.135-1.053.268-1.562a4.1,4.1,0,0,0-1.485-4.409c-.377-.327-.72-.7-1.078-1.046a.933.933,0,0,1-.317-1.028.956.956,0,0,1,.88-.623c.755-.115,1.511-.221,2.264-.346a3.543,3.543,0,0,0,2.709-2.033c.342-.683.649-1.386,1.024-2.051a.879.879,0,0,1,1.653-.011,13.319,13.319,0,0,1,.784,1.58,4.128,4.128,0,0,0,3.743,2.648c.5.046.989.139,1.486.194a1.009,1.009,0,0,1,.9.616A.885.885,0,0,1,876.852,574.986Z" transform="translate(-808.135 -565.647)"/>
        <path id="Path_2800" data-name="Path 2800" d="M502.15,576.826c-.543.618-1.155,1.175-1.75,1.746a1.241,1.241,0,0,0-.4,1.27c.154.687.256,1.388.363,2.085a3.5,3.5,0,0,1-1.373,3.514,3.08,3.08,0,0,1-3.719.345c-1.9-1.3-3.495-1.165-5.459-.018-2.372,1.385-5.19-.57-5.123-3.562.1-.6.219-1.44.379-2.278a1.462,1.462,0,0,0-.505-1.5,19.476,19.476,0,0,1-1.575-1.546,3.563,3.563,0,0,1,1.825-5.917,16.239,16.239,0,0,1,1.828-.294,2.443,2.443,0,0,0,1.78-.8,1.336,1.336,0,0,1,2.067,1.678,3.944,3.944,0,0,1-3.086,1.8c-.523.072-1.047.158-1.573.2a1.061,1.061,0,0,0-1.029.692c-.151.427.116.728.395,1,.544.54,1.112,1.056,1.632,1.617a3.55,3.55,0,0,1,.977,3.241c-.136.691-.232,1.39-.361,2.082a1.01,1.01,0,0,0,.286,1.048.966.966,0,0,0,1.155.034c.628-.321,1.252-.649,1.877-.979a3.6,3.6,0,0,1,3.545-.008c.625.328,1.253.649,1.878.978a1.028,1.028,0,0,0,1.165.013.987.987,0,0,0,.3-1.117c-.131-.541-.141-1.111-.278-1.65a3.905,3.905,0,0,1,1.378-4.109,16.034,16.034,0,0,0,1.258-1.24c.622-.7.352-1.441-.575-1.6-.752-.131-1.51-.231-2.266-.346a3.573,3.573,0,0,1-2.741-1.994c-.26-.494-.512-.993-.741-1.5a1.977,1.977,0,0,0-1.328-1.283,1.139,1.139,0,0,1-.783-1.544,1.218,1.218,0,0,1,1.444-.995,3.345,3.345,0,0,1,2.667,1.8,15.011,15.011,0,0,1,.9,1.816,1.723,1.723,0,0,0,1.611,1.145,14.484,14.484,0,0,1,2.175.347A3.553,3.553,0,0,1,502.15,576.826Z" transform="translate(-482.024 -565.846)"/>
      </g>
      <path id="Path_2801" data-name="Path 2801" d="M500.366,570.8a14.476,14.476,0,0,0-2.175-.347,1.723,1.723,0,0,1-1.611-1.145,15.011,15.011,0,0,0-.9-1.816,3.345,3.345,0,0,0-2.667-1.8,1.218,1.218,0,0,0-1.444.995,1.139,1.139,0,0,0,.783,1.544,1.977,1.977,0,0,1,1.328,1.283c.229.509.481,1.008.741,1.5a3.573,3.573,0,0,0,2.741,1.994c.756.115,1.514.215,2.266.346.927.161,1.2.9.575,1.6a16.045,16.045,0,0,1-1.258,1.24,3.9,3.9,0,0,0-1.378,4.109c.136.539.147,1.109.278,1.65a.987.987,0,0,1-.3,1.117,1.028,1.028,0,0,1-1.165-.013c-.625-.328-1.253-.649-1.878-.978a3.6,3.6,0,0,0-3.545.008c-.625.329-1.249.658-1.877.979a.966.966,0,0,1-1.155-.034,1.01,1.01,0,0,1-.286-1.048c.129-.692.225-1.391.361-2.082a3.55,3.55,0,0,0-.977-3.242c-.52-.561-1.087-1.078-1.632-1.617-.279-.276-.545-.577-.395-1a1.061,1.061,0,0,1,1.029-.692c.526-.044,1.049-.131,1.573-.2a3.944,3.944,0,0,0,3.086-1.8,1.336,1.336,0,0,0-2.067-1.678,2.443,2.443,0,0,1-1.78.8,16.239,16.239,0,0,0-1.828.294,3.563,3.563,0,0,0-1.825,5.917,19.475,19.475,0,0,0,1.575,1.546,1.462,1.462,0,0,1,.505,1.5c-.161.837-.281,1.682-.379,2.277-.066,2.992,2.752,4.947,5.123,3.563,1.964-1.146,3.56-1.282,5.459.018a3.08,3.08,0,0,0,3.719-.345,3.5,3.5,0,0,0,1.373-3.514c-.107-.7-.209-1.4-.363-2.085a1.241,1.241,0,0,1,.4-1.27c.6-.57,1.207-1.128,1.75-1.746A3.553,3.553,0,0,0,500.366,570.8Zm25.15-.073a11.027,11.027,0,0,0-1.744-.251,1.869,1.869,0,0,1-1.874-1.305,10.229,10.229,0,0,0-.866-1.732,3.493,3.493,0,0,0-3.205-1.789,3.187,3.187,0,0,0-3.134,2.081,4.022,4.022,0,0,1-4.158,2.992,3.146,3.146,0,0,0-2.909,2.355,3.1,3.1,0,0,0,.824,3.642c1.828,1.4,2.169,2.981,1.71,5.189a3.491,3.491,0,0,0,4.967,3.752,21.469,21.469,0,0,0,2.034-1.053,1.4,1.4,0,0,1,1.5-.018,20.768,20.768,0,0,0,2.2,1.116,3.553,3.553,0,0,0,4.9-3.69,20.98,20.98,0,0,0-.355-2.174,1.487,1.487,0,0,1,.487-1.581,19.91,19.91,0,0,0,1.515-1.48A3.591,3.591,0,0,0,525.516,570.727ZM525.35,575c-.473.443-.915.919-1.395,1.353a3.944,3.944,0,0,0-1.225,3.929,16.814,16.814,0,0,1,.3,1.915c.062.859-.514,1.267-1.305.929a18.789,18.789,0,0,1-1.8-.935,3.812,3.812,0,0,0-4.023.014c-.536.307-1.083.6-1.643.856-.889.41-1.451.033-1.418-1.072.075-.434.165-1.014.279-1.59a4.037,4.037,0,0,0-1.236-4.093c-.418-.372-.8-.787-1.208-1.165a1.057,1.057,0,0,1-.454-1.153c.161-.488.584-.594,1.051-.649.7-.082,1.394-.209,2.09-.325a3.548,3.548,0,0,0,2.71-2.032c.343-.684.65-1.387,1.022-2.053a.885.885,0,0,1,1.658-.013,13.975,13.975,0,0,1,.781,1.582,4.134,4.134,0,0,0,3.745,2.648c.5.044.99.133,1.487.2a.937.937,0,0,1,.882.62A.949.949,0,0,1,525.35,575Zm25.843-4.187a16.369,16.369,0,0,0-2.346-.382,1.609,1.609,0,0,1-1.467-1.068,15.036,15.036,0,0,0-.947-1.89,3.6,3.6,0,0,0-6.545.6,3.459,3.459,0,0,1-3.58,2.58,3.41,3.41,0,0,0-3.322,2.458,3.631,3.631,0,0,0,1.152,3.986c2.294,2.268,1.872,1.217,1.381,4.391a3.632,3.632,0,0,0,1.362,3.758,3.244,3.244,0,0,0,3.963.217,3.842,3.842,0,0,1,4.883-.024,3.245,3.245,0,0,0,3.966-.164,3.6,3.6,0,0,0,1.389-3.834c-.109-.608-.194-1.22-.314-1.825a1.339,1.339,0,0,1,.467-1.338,19.97,19.97,0,0,0,1.745-1.748A3.549,3.549,0,0,0,551.192,570.817Zm-.452,4.169c-.523.518-1.055,1.028-1.573,1.55a3.589,3.589,0,0,0-1.1,3.369q.208,1.083.366,2.173a.907.907,0,0,1-.911,1.173,4.831,4.831,0,0,1-.543-.177,4.172,4.172,0,0,1-.7-.37,4.8,4.8,0,0,0-5.979.015,4.777,4.777,0,0,1-.7.375.959.959,0,0,1-1.084-.035.939.939,0,0,1-.3-1.03c.123-.512.135-1.053.268-1.562A4.1,4.1,0,0,0,537,576.057c-.377-.327-.72-.7-1.078-1.046a.933.933,0,0,1-.317-1.028.956.956,0,0,1,.88-.623c.755-.115,1.511-.221,2.264-.346a3.543,3.543,0,0,0,2.709-2.033c.342-.683.649-1.386,1.024-2.051a.879.879,0,0,1,1.653-.011,13.291,13.291,0,0,1,.784,1.58,4.128,4.128,0,0,0,3.743,2.648c.5.046.989.139,1.486.194a1.009,1.009,0,0,1,.9.616A.885.885,0,0,1,550.741,574.986Z" transform="translate(-60.003 -121.4)" fill="#2c272e"/>
      <path id="Path_2802" data-name="Path 2802" d="M517.244,467.255a86.908,86.908,0,0,0-.761-9.945A13.822,13.822,0,0,0,504,445.905c-8.694-.653-17.408-.861-26.126-.913-9.16-.055-18.315.133-27.463.616a35.759,35.759,0,0,0-6.326.56,14.034,14.034,0,0,0-10.854,12.54,234.95,234.95,0,0,0-.365,35.3,40.617,40.617,0,0,0,.732,7.192,14.039,14.039,0,0,0,12.891,10.654c2.969.156,5.938.342,8.908.472a8.326,8.326,0,0,1,5.735,2.559q4.96,4.972,9.933,9.933c2.611,2.61,5.191,2.6,7.821-.028,3.25-3.249,6.513-6.483,9.74-9.753a8.6,8.6,0,0,1,6.115-2.725c1.943-.052,3.882-.2,5.823-.288.965-.042,1.558.373,1.658,1.095l2.674-.18a1.326,1.326,0,0,1,1.155-1.462,14.029,14.029,0,0,0,8.965-6.917,15.127,15.127,0,0,0,1.768-6.412A241.362,241.362,0,0,0,517.244,467.255Zm-52.583,1.409a3.146,3.146,0,0,1,2.909-2.355,4.022,4.022,0,0,0,4.158-2.992,3.187,3.187,0,0,1,3.134-2.081,3.493,3.493,0,0,1,3.205,1.789,10.229,10.229,0,0,1,.866,1.732,1.869,1.869,0,0,0,1.874,1.305,11.02,11.02,0,0,1,1.744.251,3.591,3.591,0,0,1,1.887,6.053,19.922,19.922,0,0,1-1.515,1.48,1.487,1.487,0,0,0-.487,1.581,20.986,20.986,0,0,1,.355,2.174,3.553,3.553,0,0,1-4.9,3.69,20.783,20.783,0,0,1-2.2-1.116,1.4,1.4,0,0,0-1.5.018,21.483,21.483,0,0,1-2.034,1.053,3.491,3.491,0,0,1-4.967-3.752c.459-2.208.119-3.786-1.71-5.189A3.1,3.1,0,0,1,464.661,468.664Zm-22.937,8.928c.1-.6.219-1.44.379-2.277a1.462,1.462,0,0,0-.505-1.5,19.48,19.48,0,0,1-1.574-1.546,3.563,3.563,0,0,1,1.825-5.917,16.223,16.223,0,0,1,1.827-.294,2.443,2.443,0,0,0,1.78-.8,1.336,1.336,0,0,1,2.067,1.678,3.943,3.943,0,0,1-3.086,1.8c-.523.072-1.047.158-1.573.2a1.061,1.061,0,0,0-1.029.692c-.151.427.116.728.395,1,.544.54,1.112,1.056,1.632,1.617a3.55,3.55,0,0,1,.977,3.241c-.136.691-.232,1.39-.361,2.082a1.01,1.01,0,0,0,.286,1.048.966.966,0,0,0,1.155.034c.629-.321,1.252-.649,1.877-.979a3.6,3.6,0,0,1,3.545-.008c.625.328,1.253.649,1.878.978a1.028,1.028,0,0,0,1.165.013.987.987,0,0,0,.3-1.117c-.131-.541-.141-1.111-.278-1.65a3.9,3.9,0,0,1,1.378-4.109,16.05,16.05,0,0,0,1.258-1.24c.622-.7.352-1.441-.575-1.6-.752-.131-1.51-.231-2.266-.346a3.573,3.573,0,0,1-2.741-1.994c-.26-.494-.512-.993-.741-1.5a1.978,1.978,0,0,0-1.328-1.283,1.139,1.139,0,0,1-.783-1.544,1.218,1.218,0,0,1,1.444-.995,3.346,3.346,0,0,1,2.667,1.8,15.018,15.018,0,0,1,.9,1.816,1.723,1.723,0,0,0,1.611,1.145,14.477,14.477,0,0,1,2.175.347,3.553,3.553,0,0,1,1.783,5.827c-.543.618-1.155,1.175-1.75,1.746a1.241,1.241,0,0,0-.4,1.27c.154.688.256,1.388.363,2.085a3.5,3.5,0,0,1-1.373,3.514,3.08,3.08,0,0,1-3.719.345c-1.9-1.3-3.495-1.165-5.459-.018C444.476,482.539,441.658,480.584,441.724,477.592ZM494.938,496a1.18,1.18,0,0,1-1,1.181,4.619,4.619,0,0,1-.966.064q-23.765,0-47.531,0a4.807,4.807,0,0,1-.88-.05,1.294,1.294,0,0,1-.016-2.543,5.368,5.368,0,0,1,1.055-.063q11.794-.005,23.588,0,11.839,0,23.677,0a4.582,4.582,0,0,1,1.139.09A1.184,1.184,0,0,1,494.938,496Zm9.433-5.216H445.362q-1.888-.009-1.865-1.367c.014-.873.6-1.29,1.828-1.29h59.1c1.388,0,1.988.39,2,1.3C506.432,490.355,505.788,490.784,504.371,490.784Zm5.644-18.66a19.967,19.967,0,0,1-1.745,1.748,1.339,1.339,0,0,0-.467,1.338c.12.6.2,1.217.314,1.825a3.6,3.6,0,0,1-1.389,3.834,3.245,3.245,0,0,1-3.966.164,3.841,3.841,0,0,0-4.883.024,3.244,3.244,0,0,1-3.963-.217,3.632,3.632,0,0,1-1.362-3.758c.491-3.173.912-2.122-1.381-4.391a3.631,3.631,0,0,1-1.152-3.986,3.41,3.41,0,0,1,3.322-2.458,3.459,3.459,0,0,0,3.58-2.58,3.6,3.6,0,0,1,6.546-.6,15.038,15.038,0,0,1,.947,1.89,1.608,1.608,0,0,0,1.467,1.068,16.368,16.368,0,0,1,2.346.382A3.548,3.548,0,0,1,510.015,472.125Z" transform="translate(-17.038 -16.986)" fill="#f2f2f0"/>
      <path id="Path_2803" data-name="Path 2803" d="M566.465,814.722a1.18,1.18,0,0,1-1,1.181,4.62,4.62,0,0,1-.966.064q-23.766,0-47.531,0a4.8,4.8,0,0,1-.88-.05,1.294,1.294,0,0,1-.016-2.543,5.368,5.368,0,0,1,1.055-.063q11.794-.005,23.588,0,11.839,0,23.677,0a4.583,4.583,0,0,1,1.139.09A1.184,1.184,0,0,1,566.465,814.722Z" transform="translate(-88.566 -335.708)" fill="#dd4a48"/>
      <path id="Path_2804" data-name="Path 2804" d="M502.765,475.673a47.28,47.28,0,0,1-.849,8.866A16.225,16.225,0,0,1,491.1,496.591q-.7.249-1.439.457a1.319,1.319,0,0,1-1.783-.951,1.35,1.35,0,0,1-.027-.144,1.326,1.326,0,0,1,1.155-1.462,14.029,14.029,0,0,0,8.965-6.917,15.124,15.124,0,0,0,1.768-6.412,241.34,241.34,0,0,0,.462-30.892,86.9,86.9,0,0,0-.761-9.945,13.822,13.822,0,0,0-12.484-11.4c-8.694-.653-17.408-.861-26.126-.913-9.16-.055-18.315.133-27.463.616a35.753,35.753,0,0,0-6.326.56,14.033,14.033,0,0,0-10.854,12.54,234.934,234.934,0,0,0-.365,35.3,40.616,40.616,0,0,0,.732,7.192,14.039,14.039,0,0,0,12.891,10.654c2.969.156,5.938.342,8.908.472a8.327,8.327,0,0,1,5.735,2.559q4.96,4.972,9.933,9.933c2.611,2.61,5.191,2.6,7.821-.028,3.25-3.249,6.513-6.483,9.74-9.753a8.6,8.6,0,0,1,6.115-2.725c1.943-.052,3.882-.2,5.823-.288.965-.042,1.558.373,1.658,1.095a1.448,1.448,0,0,1,.014.168c.027.842-.533,1.333-1.571,1.386-.36.018-.721.038-1.081.058-1.61.09-3.219.19-4.829.238a5.882,5.882,0,0,0-4.156,1.852q-4.983,5.012-9.993,10c-3.451,3.446-7.8,3.47-11.24.045q-4.947-4.922-9.864-9.877a6.482,6.482,0,0,0-4.53-2.039c-3.439-.161-6.894-.156-10.309-.633a16.74,16.74,0,0,1-14.078-14.987c-.348-4.374-.64-8.75-.731-13.139a9.676,9.676,0,0,0-.132-1.04V455.615c.29-2.279.168-4.579.346-6.866a76.531,76.531,0,0,1,.805-9.23,16.877,16.877,0,0,1,16.094-13.4c16.392-.866,32.785-1.038,49.183-.316a78.96,78.96,0,0,1,9.51.65A16.76,16.76,0,0,1,502.3,441.43,243.29,243.29,0,0,1,502.765,475.673Z"/>
      <path id="Path_2805" data-name="Path 2805" d="M894.672,592.327c-.523.518-1.055,1.028-1.573,1.55a3.589,3.589,0,0,0-1.1,3.369q.208,1.083.366,2.173a.907.907,0,0,1-.911,1.173,4.847,4.847,0,0,1-.542-.177,4.177,4.177,0,0,1-.7-.37,4.8,4.8,0,0,0-5.979.015,4.8,4.8,0,0,1-.7.375.959.959,0,0,1-1.084-.035.939.939,0,0,1-.3-1.03c.123-.512.135-1.053.268-1.562a4.1,4.1,0,0,0-1.485-4.409c-.377-.327-.72-.7-1.078-1.046a.933.933,0,0,1-.317-1.028.957.957,0,0,1,.88-.623c.755-.115,1.511-.221,2.264-.346a3.543,3.543,0,0,0,2.709-2.033c.342-.683.649-1.386,1.024-2.051a.879.879,0,0,1,1.653-.011,13.314,13.314,0,0,1,.783,1.58,4.128,4.128,0,0,0,3.743,2.648c.5.046.99.139,1.486.194a1.009,1.009,0,0,1,.9.616A.885.885,0,0,1,894.672,592.327Z" transform="translate(-403.934 -138.741)" fill="#dd4a48"/>
      <path id="Path_2806" data-name="Path 2806" d="M706.2,592.371c-.473.443-.915.919-1.395,1.353a3.943,3.943,0,0,0-1.225,3.929,16.826,16.826,0,0,1,.3,1.915c.062.859-.514,1.267-1.305.929a18.8,18.8,0,0,1-1.8-.935,3.811,3.811,0,0,0-4.023.014c-.536.307-1.083.6-1.643.856-.889.41-1.451.033-1.417-1.072.075-.434.165-1.014.278-1.59a4.037,4.037,0,0,0-1.236-4.093c-.418-.372-.8-.787-1.208-1.165a1.057,1.057,0,0,1-.454-1.153c.161-.488.584-.594,1.051-.649.7-.082,1.394-.209,2.09-.325a3.547,3.547,0,0,0,2.71-2.032c.343-.684.65-1.387,1.022-2.053a.885.885,0,0,1,1.658-.013,13.969,13.969,0,0,1,.781,1.582,4.134,4.134,0,0,0,3.745,2.648c.5.044.99.133,1.486.2a.937.937,0,0,1,.882.62A.949.949,0,0,1,706.2,592.371Z" transform="translate(-240.858 -138.768)" fill="#dd4a48"/>
      <path id="Path_2807" data-name="Path 2807" d="M577.9,766.643c.011.931-.633,1.36-2.05,1.36H516.843q-1.888-.01-1.865-1.367c.014-.872.6-1.29,1.828-1.29h59.1C577.291,765.347,577.891,765.737,577.9,766.643Z" transform="translate(-88.52 -294.205)" fill="#dd4a48"/>
    </g>
  </g>
</svg>
