<svg id="set_noti_icon" xmlns="http://www.w3.org/2000/svg" width="24" height="24" viewBox="0 0 24 24">
  <rect id="Rectangle_1263" data-name="Rectangle 1263" width="24" height="24" fill="none"/>
  <g id="Icon_feather-shopping-bag" data-name="Icon feather-shopping-bag" transform="translate(4.223 3.602)">
    <path id="Path_2740" data-name="Path 2740" d="M683.5,670.284c-.287-.476-.626-.915-.931-1.377A4.307,4.307,0,0,1,681.81,667c-.126-1.221-.181-2.449-.274-3.674a6.658,6.658,0,0,0-1.015-3.167,4.371,4.371,0,0,0-3.408-2.119,15.8,15.8,0,0,0-2.112-.017,4.248,4.248,0,0,0-2.733,1.1,5.9,5.9,0,0,0-1.843,3.66,31.844,31.844,0,0,0-.259,3.336,5.4,5.4,0,0,1-.927,2.928c-.291.42-.578.841-.84,1.28a1.322,1.322,0,0,0-.207.837,1.364,1.364,0,0,0,1.376,1.219c1.5,0,2.994,0,4.49,0a.414.414,0,0,1,.2.015,1.827,1.827,0,0,0,.679,2.073,1.806,1.806,0,0,0,2.022.017,1.838,1.838,0,0,0,.7-2.106h.223c1.484,0,2.969.005,4.453,0a1.355,1.355,0,0,0,1.238-.737A1.275,1.275,0,0,0,683.5,670.284Zm-7.543,3.3a.6.6,0,1,1,.6-.611A.6.6,0,0,1,675.961,673.583Zm6.573-2.485c-.062.1-.183.09-.288.09H669.765c-.127,0-.283.036-.356-.1-.064-.121.052-.22.112-.316.352-.558.717-1.108,1.062-1.67a5.121,5.121,0,0,0,.741-2.475c.059-1.164.151-2.328.263-3.488a5.223,5.223,0,0,1,.731-2.216,3.26,3.26,0,0,1,2.642-1.693,12.987,12.987,0,0,1,2,0,3.275,3.275,0,0,1,2.7,1.794,5.94,5.94,0,0,1,.719,2.548c.089,1.219.17,2.438.271,3.656a4.177,4.177,0,0,0,.679,1.84c.366.594.752,1.174,1.128,1.762C682.5,670.91,682.6,670.993,682.534,671.1Z" transform="translate(-668.184 -657.997)" fill="#2c272e"/>
  </g>
</svg>
