<svg xmlns="http://www.w3.org/2000/svg" width="37" height="23" viewBox="0 0 37 23">
  <g id="stripe" transform="translate(0.269 -0.697)">
    <rect id="Rectangle_72" data-name="Rectangle 72" width="37" height="23" rx="11.5" transform="translate(-0.268 0.697)" fill="none"/>
    <g id="g32" transform="translate(1.159 4.959)">
      <path id="path18" d="M346.777,71.962c0-2.439-1.181-4.362-3.438-4.362s-3.638,1.924-3.638,4.343c0,2.867,1.619,4.315,3.943,4.315a5.311,5.311,0,0,0,2.638-.619v-1.9a5.057,5.057,0,0,1-2.334.524c-.924,0-1.743-.324-1.847-1.448h4.658C346.758,72.686,346.777,72.191,346.777,71.962Zm-4.705-.905c0-1.077.657-1.524,1.257-1.524.581,0,1.2.448,1.2,1.524Z" transform="translate(-312.488 -64.59)" fill="#32325d" fill-rule="evenodd"/>
      <path id="path20" d="M262.286,67.6a2.691,2.691,0,0,0-1.867.743l-.124-.591h-2.1V78.858l2.381-.5.01-2.7a2.682,2.682,0,0,0,1.686.6c1.7,0,3.257-1.371,3.257-4.391C265.524,69.105,263.953,67.6,262.286,67.6Zm-.571,6.563a1.424,1.424,0,0,1-1.124-.448l-.01-3.533a1.418,1.418,0,0,1,1.134-.466c.867,0,1.468.972,1.468,2.219,0,1.275-.592,2.228-1.468,2.228Z" transform="translate(-238.751 -64.59)" fill="#32325d" fill-rule="evenodd"/>
      <path id="polygon22" d="M226.191,36l-2.391.5v1.942l2.391-.514Z" transform="translate(-207.627 -36)" fill="#32325d" fill-rule="evenodd"/>
      <path id="rect24" d="M223.8,69.3h2.391v8.334H223.8Z" transform="translate(-207.627 -66.128)" fill="#32325d" fill-rule="evenodd"/>
      <path id="path26" d="M175.91,69.069l-.152-.7H173.7V76.7h2.381V71.049a1.68,1.68,0,0,1,1.811-.5v-2.19a1.618,1.618,0,0,0-1.982.7Z" transform="translate(-162.299 -65.192)" fill="#32325d" fill-rule="evenodd"/>
      <path id="path28" d="M124.731,47.6l-2.324.5-.009,7.629a2.393,2.393,0,0,0,2.467,2.447,3.687,3.687,0,0,0,1.667-.314V55.924c-.3.124-1.811.563-1.811-.848V51.7h1.811V49.667h-1.811Z" transform="translate(-115.883 -46.495)" fill="#32325d" fill-rule="evenodd"/>
      <path id="path30" d="M56.41,70.18c0-.371.3-.514.81-.514a5.313,5.313,0,0,1,2.362.61V68.037a6.281,6.281,0,0,0-2.362-.438c-1.934,0-3.219,1.009-3.219,2.7,0,2.629,3.619,2.21,3.619,3.343,0,.438-.381.581-.915.581a5.929,5.929,0,0,1-2.6-.762v2.267a6.6,6.6,0,0,0,2.6.543c1.982,0,3.343-.981,3.343-2.686-.01-2.838-3.638-2.334-3.638-3.4Z" transform="translate(-54 -64.589)" fill="#32325d" fill-rule="evenodd"/>
    </g>
  </g>
</svg>
