<svg xmlns="http://www.w3.org/2000/svg" width="24" height="24" viewBox="0 0 24 24">
  <g id="wallet_icon" transform="translate(16597 5603)">
    <rect id="Rectangle_17478" data-name="Rectangle 17478" width="24" height="24" transform="translate(-16597 -5603)" fill="none"/>
    <g id="Group_7359" data-name="Group 7359" transform="translate(-16451.113 -7184.847)">
      <g id="Group_7358" data-name="Group 7358" transform="translate(-142.148 1581.847)">
        <g id="Group_7357" data-name="Group 7357" transform="translate(0 0)">
          <path id="Path_13320" data-name="Path 13320" d="M-127.591,1871.283h-3.934v.787h3.934a1.182,1.182,0,0,1,1.18,1.18v1.584a1.945,1.945,0,0,0-1.18-.4h-12.59a1.182,1.182,0,0,1-1.18-1.18,1.182,1.182,0,0,1,1.18-1.18h4.328v-.787h-4.328a1.97,1.97,0,0,0-1.967,1.967v11.41a1.969,1.969,0,0,0,1.967,1.967h12.59a1.969,1.969,0,0,0,1.967-1.967v-11.41A1.969,1.969,0,0,0-127.591,1871.283Zm1.18,11.41h-4.721a1.969,1.969,0,0,1-1.967-1.967,1.969,1.969,0,0,1,1.967-1.967h4.721Zm0-4.721h-4.721a2.757,2.757,0,0,0-2.754,2.754,2.758,2.758,0,0,0,2.754,2.754h4.721v1.18a1.182,1.182,0,0,1-1.18,1.18h-12.59a1.182,1.182,0,0,1-1.18-1.18v-9.837a1.957,1.957,0,0,0,1.18.394h12.59a1.182,1.182,0,0,1,1.18,1.18Z" transform="translate(142.148 -1862.627)" fill="#2c272e"/>
          <rect id="Rectangle_17479" data-name="Rectangle 17479" width="12.59" height="0.787" transform="translate(1.967 10.229)" fill="#fff"/>
          <path id="Path_13321" data-name="Path 13321" d="M35.177,1729.712a3.148,3.148,0,1,1-3.148-3.147A3.136,3.136,0,0,1,35.177,1729.712Z" transform="translate(-23.767 -1722.236)" fill="#dd4a48"/>
          <path id="Path_13322" data-name="Path 13322" d="M83.472,1756.417h-.787a.394.394,0,0,1-.393-.393H81.5a1.182,1.182,0,0,0,1.18,1.18v.393h.787v-.393a1.18,1.18,0,0,0,0-2.361h-.787a.393.393,0,1,1,0-.786h.787a.394.394,0,0,1,.393.393h.787a1.182,1.182,0,0,0-1.18-1.18v-.394h-.787v.394a1.18,1.18,0,1,0,0,2.361h.787a.393.393,0,1,1,0,.787Z" transform="translate(-74.817 -1747.761)" fill="#fff"/>
          <path id="Path_13323" data-name="Path 13323" d="M187.942,2147.564a1.18,1.18,0,1,0,1.18,1.18A1.182,1.182,0,0,0,187.942,2147.564Zm0,1.574a.394.394,0,1,1,.394-.394A.394.394,0,0,1,187.942,2149.138Z" transform="translate(-176.926 -2130.646)" fill="#333"/>
          <rect id="Rectangle_17480" data-name="Rectangle 17480" width="0.787" height="3.147" rx="0.393" transform="translate(7.869)" fill="#2c272e"/>
          <rect id="Rectangle_17481" data-name="Rectangle 17481" width="0.787" height="3.147" rx="0.393" transform="translate(10.623 1.18)" fill="#2c272e"/>
          <rect id="Rectangle_17482" data-name="Rectangle 17482" width="0.787" height="2.361" rx="0.393" transform="translate(5.115 1.967)" fill="#2c272e"/>
        </g>
      </g>
      <path id="Path_13324" data-name="Path 13324" d="M-108.363,1995.565a2.758,2.758,0,0,0,2.754,2.754h4.721v1.18a1.182,1.182,0,0,1-1.18,1.18h-12.59a1.182,1.182,0,0,1-1.18-1.18v-9.837a1.958,1.958,0,0,0,1.18.394h12.59a1.182,1.182,0,0,1,1.18,1.18v1.574h-4.721A2.757,2.757,0,0,0-108.363,1995.565Z" transform="translate(-25.523 -395.62)" fill="#dd4a48"/>
      <path id="Path_13325" data-name="Path 13325" d="M-100.887,1898.774v1.584a1.945,1.945,0,0,0-1.18-.4h-12.59a1.182,1.182,0,0,1-1.18-1.18,1.182,1.182,0,0,1,1.18-1.18h3.838a3.153,3.153,0,0,0,.932.787h-4.77v.787h12.59v-.787h-4.77a3.153,3.153,0,0,0,.932-.787h3.838A1.182,1.182,0,0,1-100.887,1898.774Z" transform="translate(-25.523 -306.304)" fill="#dd4a48"/>
      <path id="Path_13326" data-name="Path 13326" d="M162.409,2121.253a1.967,1.967,0,0,0,0,3.935h4.721v-3.935Zm0,3.147a1.18,1.18,0,1,1,1.18-1.18A1.182,1.182,0,0,1,162.409,2124.4Z" transform="translate(-293.541 -523.275)" fill="#dd4a48"/>
      <path id="Path_13327" data-name="Path 13327" d="M213.859,2174.267a.393.393,0,1,1-.394-.394A.394.394,0,0,1,213.859,2174.267Z" transform="translate(-344.597 -574.321)" fill="#fff"/>
    </g>
  </g>
</svg>
