<svg xmlns="http://www.w3.org/2000/svg" width="24" height="24" viewBox="0 0 24 24">
  <g id="work_address" transform="translate(16616 5800)">
    <g id="Group_7194" data-name="Group 7194" transform="translate(-16615.99 -5800)">
      <g id="Path_2690" data-name="Path 2690" transform="translate(-1040.463 -547.64)" fill="#2c272e" stroke-miterlimit="10">
        <path d="M 1062.325073242188 571.5146484375 L 1042.559936523438 571.5146484375 C 1041.794311523438 571.366943359375 1041.452392578125 570.9450073242188 1041.45166015625 570.14794921875 C 1041.44970703125 567.4138793945312 1041.448486328125 564.7346801757812 1041.455078125 562.0181274414062 C 1041.455688476562 561.7178344726562 1041.393798828125 561.4834594726562 1041.08984375 561.3151245117188 C 1040.752685546875 561.12841796875 1040.589111328125 560.8108520507812 1040.58984375 560.3442993164062 L 1040.5908203125 559.7438354492188 C 1040.593994140625 557.7288208007812 1040.597290039062 555.6451416015625 1040.587890625 553.5956420898438 C 1040.584106445312 552.805908203125 1041.272338867188 552.474365234375 1041.706909179688 552.4508666992188 C 1041.77978515625 552.4468994140625 1041.854248046875 552.4463500976562 1041.917358398438 552.4463500976562 L 1041.983764648438 552.446533203125 L 1042.051025390625 552.4466552734375 L 1042.459716796875 552.4466552734375 L 1043.279174804688 552.4466552734375 L 1044.098754882812 552.4467163085938 L 1044.83349609375 552.4466552734375 C 1045.37109375 552.446533203125 1045.426635742188 552.3919677734375 1045.427490234375 551.8632202148438 C 1045.427856445312 551.5341796875 1045.427368164062 551.2052612304688 1045.427001953125 550.8762817382812 C 1045.42626953125 550.25537109375 1045.425415039062 549.61328125 1045.429931640625 548.9821166992188 C 1045.432861328125 548.5835571289062 1045.572387695312 548.2578125 1045.856201171875 547.986328125 C 1045.979858398438 547.8681030273438 1046.128784179688 547.8359375 1046.301025390625 547.7987060546875 C 1046.3486328125 547.7883911132812 1046.397827148438 547.77783203125 1046.447143554688 547.7650146484375 L 1058.44189453125 547.7650146484375 C 1059.192626953125 547.9081420898438 1059.499877929688 548.28759765625 1059.502197265625 549.072265625 C 1059.50390625 549.5974731445312 1059.503662109375 550.1226196289062 1059.50341796875 550.647705078125 C 1059.503173828125 551.0985717773438 1059.5029296875 551.5493774414062 1059.50390625 552.0003051757812 C 1059.504760742188 552.3707885742188 1059.579345703125 552.4458618164062 1059.947021484375 552.4466552734375 C 1060.331420898438 552.4475708007812 1060.715942382812 552.4478149414062 1061.100463867188 552.4478149414062 L 1061.687622070312 552.4476928710938 L 1062.274658203125 552.4475708007812 C 1062.55078125 552.4475708007812 1062.826904296875 552.4476928710938 1063.10302734375 552.4481201171875 C 1063.408203125 552.448486328125 1063.67626953125 552.5361328125 1063.9228515625 552.7161865234375 C 1064.162109375 552.8907470703125 1064.287353515625 553.1412963867188 1064.316650390625 553.50439453125 L 1064.316650390625 553.515625 C 1064.284790039062 553.5872192382812 1064.2890625 553.657470703125 1064.292236328125 553.7107543945312 C 1064.293090820312 553.7245483398438 1064.2939453125 553.73828125 1064.2939453125 553.7518310546875 C 1064.29296875 555.89599609375 1064.29296875 558.0400390625 1064.2939453125 560.1842651367188 C 1064.2939453125 560.19775390625 1064.293090820312 560.2114868164062 1064.292236328125 560.2252807617188 C 1064.2890625 560.278564453125 1064.284790039062 560.3488159179688 1064.316650390625 560.42041015625 L 1064.316650390625 560.4786987304688 C 1064.28173828125 560.9158935546875 1064.0791015625 561.2174682617188 1063.697265625 561.4004516601562 C 1063.566528320312 561.4630737304688 1063.4931640625 561.57763671875 1063.484985351562 561.7318115234375 C 1063.479614257812 561.8260498046875 1063.479614257812 561.9208374023438 1063.479736328125 562.012451171875 L 1063.479736328125 562.042724609375 L 1063.479736328125 563.6259765625 C 1063.479858398438 565.759033203125 1063.479858398438 567.8921508789062 1063.479248046875 570.0252685546875 C 1063.479248046875 570.0555419921875 1063.4794921875 570.0860595703125 1063.479858398438 570.1165771484375 C 1063.481201171875 570.2388916015625 1063.482543945312 570.3544311523438 1063.458862304688 570.4656372070312 C 1063.320068359375 571.1141967773438 1063.033447265625 571.3800659179688 1062.325073242188 571.5146484375 Z" stroke="none"/>
        <path d="M 1062.313110351562 571.3896484375 C 1062.960205078125 571.2646484375 1063.210083007812 571.03125 1063.336547851562 570.4395751953125 C 1063.357421875 570.3419189453125 1063.356201171875 570.233154296875 1063.354858398438 570.1179809570312 C 1063.3544921875 570.0869140625 1063.354248046875 570.055908203125 1063.354248046875 570.0252075195312 C 1063.354858398438 567.89208984375 1063.354858398438 565.759033203125 1063.354736328125 563.6259765625 L 1063.354736328125 562.0125732421875 C 1063.354614257812 561.9191284179688 1063.354614257812 561.822509765625 1063.360229492188 561.7252807617188 C 1063.370727539062 561.5255126953125 1063.47119140625 561.3701171875 1063.643188476562 561.2877197265625 C 1063.984741210938 561.1240844726562 1064.1591796875 560.865234375 1064.191650390625 560.4735717773438 L 1064.191650390625 560.4444580078125 C 1064.159301757812 560.3551025390625 1064.164184570312 560.272216796875 1064.16748046875 560.2177734375 C 1064.168090820312 560.20654296875 1064.1689453125 560.1953125 1064.1689453125 560.184326171875 C 1064.16796875 558.0401000976562 1064.16796875 555.8959350585938 1064.1689453125 553.7518310546875 C 1064.1689453125 553.74072265625 1064.168090820312 553.7294921875 1064.16748046875 553.71826171875 C 1064.164184570312 553.66455078125 1064.159423828125 553.5831298828125 1064.1904296875 553.4950561523438 C 1064.161376953125 553.1774291992188 1064.055541992188 552.9677124023438 1063.84912109375 552.817138671875 C 1063.624755859375 552.6532592773438 1063.380615234375 552.5734252929688 1063.102905273438 552.5731201171875 C 1062.826782226562 552.5726928710938 1062.55078125 552.5725708007812 1062.274658203125 552.5725708007812 L 1061.100463867188 552.5728149414062 C 1060.715942382812 552.5728149414062 1060.331176757812 552.5725708007812 1059.94677734375 552.5716552734375 C 1059.5126953125 552.5707397460938 1059.380004882812 552.4373168945312 1059.37890625 552.0005493164062 C 1059.3779296875 551.549560546875 1059.378173828125 551.0985717773438 1059.37841796875 550.6476440429688 C 1059.378662109375 550.1226806640625 1059.37890625 549.5977172851562 1059.377197265625 549.0726318359375 C 1059.375122070312 548.3560180664062 1059.109008789062 548.0226440429688 1058.430053710938 547.8900146484375 L 1046.462768554688 547.8900146484375 C 1046.416625976562 547.901611328125 1046.371459960938 547.911376953125 1046.327392578125 547.9208984375 C 1046.167236328125 547.9555053710938 1046.040771484375 547.9827880859375 1045.942626953125 548.07666015625 C 1045.684448242188 548.3235473632812 1045.5576171875 548.6200561523438 1045.554931640625 548.9829711914062 C 1045.550415039062 549.6137084960938 1045.55126953125 550.2554931640625 1045.552001953125 550.8761596679688 C 1045.552368164062 551.2052001953125 1045.552856445312 551.5342407226562 1045.552490234375 551.8634643554688 C 1045.552001953125 552.1431884765625 1045.5517578125 552.31201171875 1045.418212890625 552.4427490234375 C 1045.28662109375 552.571533203125 1045.116088867188 552.5715942382812 1044.833618164062 552.5716552734375 L 1044.098754882812 552.5717163085938 L 1041.917358398438 552.5713500976562 C 1041.85595703125 552.5713500976562 1041.78369140625 552.5718994140625 1041.713623046875 552.57568359375 C 1041.324951171875 552.5966796875 1040.709594726562 552.8919677734375 1040.712890625 553.5950317382812 C 1040.722290039062 555.6449584960938 1040.718994140625 557.7288208007812 1040.7158203125 559.7440795898438 L 1040.71484375 560.344482421875 C 1040.714233398438 560.7672119140625 1040.8525390625 561.0408325195312 1041.150390625 561.2057495117188 C 1041.530029296875 561.416015625 1041.58056640625 561.7344970703125 1041.580078125 562.0184326171875 C 1041.573486328125 564.7348022460938 1041.57470703125 567.4138793945312 1041.57666015625 570.1478271484375 C 1041.577270507812 570.8792724609375 1041.875244140625 571.2518310546875 1042.572021484375 571.3896484375 L 1062.313110351562 571.3896484375 M 1062.336669921875 571.6396484375 L 1042.548095703125 571.6396484375 C 1041.719970703125 571.483642578125 1041.327392578125 571.00830078125 1041.32666015625 570.1480712890625 C 1041.32470703125 567.43798828125 1041.323486328125 564.7279052734375 1041.330078125 562.017822265625 C 1041.33056640625 561.754638671875 1041.284912109375 561.5660400390625 1041.029296875 561.4244384765625 C 1040.617431640625 561.1964111328125 1040.464111328125 560.8089599609375 1040.46484375 560.3441162109375 C 1040.46826171875 558.0948486328125 1040.47314453125 555.845458984375 1040.462890625 553.59619140625 C 1040.458984375 552.774658203125 1041.16015625 552.355224609375 1041.7001953125 552.3260498046875 C 1041.81689453125 552.3197021484375 1041.933959960938 552.3216552734375 1042.051025390625 552.3216552734375 C 1042.73388671875 552.3217163085938 1043.416137695312 552.3217163085938 1044.098754882812 552.3217163085938 C 1044.34375 552.3217163085938 1044.588500976562 552.3217163085938 1044.83349609375 552.3216552734375 C 1045.3017578125 552.321533203125 1045.3017578125 552.3211669921875 1045.302490234375 551.863037109375 C 1045.303466796875 550.90234375 1045.298095703125 549.9417724609375 1045.304931640625 548.981201171875 C 1045.30810546875 548.5562744140625 1045.455810546875 548.1962890625 1045.769775390625 547.89599609375 C 1045.962646484375 547.711669921875 1046.201904296875 547.70166015625 1046.430908203125 547.6400146484375 L 1058.45361328125 547.6400146484375 C 1059.26806640625 547.7918701171875 1059.624755859375 548.2247314453125 1059.627197265625 549.0718994140625 C 1059.63037109375 550.0479736328125 1059.626708984375 551.0238037109375 1059.62890625 552 C 1059.629638671875 552.299560546875 1059.650634765625 552.321044921875 1059.947265625 552.3216552734375 C 1060.723022460938 552.3235473632812 1061.498901367188 552.3225708007812 1062.274658203125 552.3225708007812 C 1062.550903320312 552.3225708007812 1062.827026367188 552.3226928710938 1063.103271484375 552.3231201171875 C 1063.433349609375 552.323486328125 1063.728271484375 552.4193115234375 1063.99658203125 552.615234375 C 1064.299072265625 552.8359375 1064.413818359375 553.1436767578125 1064.441650390625 553.4993896484375 L 1064.441650390625 553.546142578125 C 1064.401123046875 553.6109619140625 1064.4189453125 553.68310546875 1064.4189453125 553.7518310546875 C 1064.41796875 555.89599609375 1064.41796875 558.0400390625 1064.4189453125 560.1842041015625 C 1064.4189453125 560.2529296875 1064.401123046875 560.3250732421875 1064.441650390625 560.389892578125 L 1064.441650390625 560.4835205078125 C 1064.4052734375 560.9573974609375 1064.183837890625 561.305908203125 1063.751220703125 561.51318359375 C 1063.658203125 561.5577392578125 1063.615234375 561.636474609375 1063.60986328125 561.7384033203125 C 1063.60400390625 561.8397216796875 1063.604736328125 561.9412841796875 1063.604736328125 562.042724609375 C 1063.604736328125 564.7034912109375 1063.60498046875 567.3643798828125 1063.604248046875 570.0252685546875 C 1063.60400390625 570.1807861328125 1063.614013671875 570.337158203125 1063.5810546875 570.49169921875 C 1063.431884765625 571.189208984375 1063.0986328125 571.497314453125 1062.336669921875 571.6396484375 Z" stroke="none" fill="#000"/>
      </g>
      <path id="Path_2691" data-name="Path 2691" d="M1159.264,789.754c-1.664,0-3.328,0-4.991,0-.183,0-.256-.029-.255-.238.01-1.408.007-2.816,0-4.223a.262.262,0,0,1,.172-.289.5.5,0,0,0,.3-.481c.006-.726,0-1.452,0-2.178a.541.541,0,0,0-.333-.51.207.207,0,0,1-.143-.217q.01-.411,0-.822c0-.127.046-.165.169-.164q1.365.006,2.729,0c.11,0,.146.035.168.145a.732.732,0,0,0,.81.655c.1,0,.192,0,.289,0s.108.057.106.132-.015.134-.108.133c-.155,0-.311.006-.466,0-.2-.008-.3.077-.3.287.006.363,0,.726,0,1.089a.613.613,0,0,0,.618.626q1.242.014,2.485,0a.616.616,0,0,0,.627-.64c.007-.356,0-.711,0-1.067,0-.2-.08-.3-.29-.3-.147.005-.3,0-.444,0-.1,0-.128-.044-.129-.136s.038-.134.132-.131c.111,0,.222,0,.333,0a.707.707,0,0,0,.725-.619c.024-.162.09-.181.227-.18q1.32.007,2.64,0c.148,0,.213.034.206.2-.011.259-.009.519,0,.778a.215.215,0,0,1-.148.234.555.555,0,0,0-.331.535q0,1.056,0,2.112a.541.541,0,0,0,.332.532c.132.057.147.14.146.259,0,1.415,0,2.83,0,4.245,0,.187-.055.234-.236.233C1162.635,789.752,1160.949,789.754,1159.264,789.754Z" transform="translate(-1147.284 -766.818)" fill="#dd4a48"/>
      <path id="Path_2692" data-name="Path 2692" d="M1159.225,641.976c1.67,0,3.341,0,5.011,0,.194,0,.264.038.263.251q-.012,3.633,0,7.266c0,.217-.061.272-.273.269-.857-.012-1.715-.009-2.572,0-.16,0-.218-.036-.217-.208,0-.53-.168-.693-.687-.693h-3.06c-.489,0-.675.178-.667.667,0,.185-.049.237-.234.235q-1.308-.014-2.616,0c-.169,0-.211-.052-.211-.215q.007-3.677,0-7.354c0-.187.069-.215.231-.215C1155.869,641.978,1157.547,641.976,1159.225,641.976Z" transform="translate(-1147.23 -636.378)" fill="#dd4a48"/>
      <path id="Path_2693" data-name="Path 2693" d="M1170.119,595.936c-1.448,0-2.9,0-4.345,0-.176,0-.219-.047-.216-.219.01-.674.009-1.348,0-2.021,0-.155.043-.2.2-.2q4.39.007,8.779,0c.161,0,.2.054.194.2-.007.681-.009,1.363,0,2.044,0,.163-.051.191-.2.19C1173.06,595.934,1171.589,595.936,1170.119,595.936Z" transform="translate(-1158.139 -590.782)" fill="#fefefe"/>
      <path id="Path_2694" data-name="Path 2694" d="M1076.316,641.967c.517,0,1.035,0,1.552-.011.192-.006.229.059.228.238q-.009,3.233,0,6.466c0,.3,0,.607,0,.911,0,.121-.032.171-.161.169-.539-.008-1.079-.007-1.618-.009-.369-.135-.381-.474-.439-.782a1.565,1.565,0,0,1-.007-.288q0-2.811,0-5.622a2.145,2.145,0,0,1,.092-.678A.554.554,0,0,1,1076.316,641.967Z" transform="translate(-1073.766 -636.363)" fill="#dd4a48"/>
      <path id="Path_2695" data-name="Path 2695" d="M1372.242,649.7c0-.8-.006-1.6-.007-2.4,0-1.7,0-3.4,0-5.105,0-.18.039-.242.229-.237.516.016,1.033.01,1.55.012.346.125.382.439.442.735a1.026,1.026,0,0,1,.007.2q0,2.944,0,5.888a1.6,1.6,0,0,1-.121.627.443.443,0,0,1-.462.3c-.487-.012-.975,0-1.463,0A.265.265,0,0,1,1372.242,649.7Z" transform="translate(-1352.557 -636.365)" fill="#dd4a48"/>
      <path id="Path_2696" data-name="Path 2696" d="M1160.254,569.653c-.473.027-.473.027-.473-.442q0-1.044,0-2.088c0-.278-.059-.337-.341-.337q-4.689,0-9.378,0c-.275,0-.331.062-.332.345q0,1.122,0,2.244c0,.288,0,.288-.281.286-.052,0-.1-.005-.154-.008a.294.294,0,0,1-.091-.26c0-1.055-.009-2.11,0-3.165a.611.611,0,0,1,.4-.649c.081,0,.162-.007.243-.007h9.81c.081,0,.162,0,.243.007a.711.711,0,0,1,.437.752c.028,1.035.014,2.071.009,3.107A.255.255,0,0,1,1160.254,569.653Z" transform="translate(-1142.751 -564.507)" fill="#dd4a48"/>
      <path id="Path_2697" data-name="Path 2697" d="M1075.232,789.744c-.236,0-.473.015-.708.005a.863.863,0,0,1-.837-.866q-.007-4.043-.005-8.086c0-.124.033-.168.161-.164.317.01.635.008.953.01.109.087.094.21.094.327,0,.828,0,1.657,0,2.486,0,1.694,0,3.388,0,5.082a1.588,1.588,0,0,0,.286,1.024A.2.2,0,0,1,1075.232,789.744Z" transform="translate(-1071.711 -766.816)" fill="#fff"/>
      <path id="Path_2698" data-name="Path 2698" d="M1386.765,780.628c.3,0,.606,0,.908-.011.171-.009.211.054.209.216-.007.9,0,1.807,0,2.711,0,1.711-.018,3.422.009,5.132a.95.95,0,0,1-1.079,1.062c-.146-.014-.3-.007-.443-.01a.238.238,0,0,1,.064-.224,1.422,1.422,0,0,0,.24-.861q0-3.8,0-7.6C1386.673,780.9,1386.632,780.744,1386.765,780.628Z" transform="translate(-1365.846 -766.8)" fill="#fff"/>
      <path id="Path_2699" data-name="Path 2699" d="M1373.456,780.667q0,4.073,0,8.146a1.306,1.306,0,0,1-.4.954c-.214,0-.43-.005-.642.012-.175.014-.205-.057-.2-.215.006-1.237,0-2.473,0-3.71,0-.126.005-.252,0-.378-.011-.21-.016-.391.236-.5a.5.5,0,0,0,.243-.494c0-.689.005-1.377,0-2.066a.574.574,0,0,0-.357-.565.166.166,0,0,1-.121-.18q.01-.433,0-.866c0-.121.047-.151.157-.149C1372.732,780.664,1373.094,780.664,1373.456,780.667Z" transform="translate(-1352.537 -766.839)" fill="#dd4a48"/>
      <path id="Path_2700" data-name="Path 2700" d="M1092.9,789.754a1.213,1.213,0,0,1-.436-.976q0-4.063,0-8.125c.362,0,.724,0,1.086-.01.131,0,.165.049.161.17-.007.192-.01.385,0,.578.012.226.014.417-.25.535a.511.511,0,0,0-.228.5q-.005,1.011,0,2.022a.6.6,0,0,0,.357.59.173.173,0,0,1,.121.183q0,2.189,0,4.379c0,.128-.044.168-.167.162C1093.328,789.755,1093.114,789.757,1092.9,789.754Z" transform="translate(-1089.379 -766.826)" fill="#dd4a48"/>
      <path id="Path_2701" data-name="Path 2701" d="M1372.417,649.782c.51,0,1.021-.015,1.531.008a.441.441,0,0,0,.473-.311,1.372,1.372,0,0,0,.119-.538q0-3,0-6a1.27,1.27,0,0,0-.354-.885c.214,0,.428-.009.643-.007a.782.782,0,0,1,.82.826c0,1.267,0,2.534,0,3.8,0,.763,0,1.526,0,2.289a.793.793,0,0,1-.856.86q-1.076,0-2.151,0C1372.567,649.825,1372.478,649.867,1372.417,649.782Z" transform="translate(-1352.732 -636.45)" fill="#fff"/>
      <path id="Path_2702" data-name="Path 2702" d="M1060.251,642.051a1.4,1.4,0,0,0-.352,1.018q.006,2.863,0,5.726a1.393,1.393,0,0,0,.35,1.019c-.214,0-.428.011-.642.007a.79.79,0,0,1-.819-.829q0-3.062,0-6.124a.779.779,0,0,1,.82-.822C1059.823,642.043,1060.037,642.049,1060.251,642.051Z" transform="translate(-1057.701 -636.447)" fill="#fff"/>
      <path id="Path_2703" data-name="Path 2703" d="M1121.987,642.009c.207,0,.414,0,.62-.009.111,0,.17.025.156.146a.989.989,0,0,0,0,.111q0,4.418.006,8.837c0,.227-.057.295-.281.278-.411-.03-.824.028-1.235-.026.085-.131.221-.1.342-.1.26-.014.293-.041.294-.3,0-.917,0-1.834,0-2.751q0-2.9,0-5.79C1121.891,642.266,1121.855,642.115,1121.987,642.009Z" transform="translate(-1116.46 -636.404)" fill="#dd4a48"/>
      <path id="Path_2704" data-name="Path 2704" d="M1338.942,651.245a.421.421,0,0,1-.024-.239q0-4.421,0-8.842c0-.193.034-.284.249-.258a5.048,5.048,0,0,0,.531.012.275.275,0,0,1,.094.238c0,.119,0,.237,0,.355q0,4.154,0,8.308c0,.449,0,.452-.453.448A1.151,1.151,0,0,1,1338.942,651.245Z" transform="translate(-1321.214 -636.312)" fill="#fff"/>
      <path id="Path_2705" data-name="Path 2705" d="M1339.411,651.327c.177,0,.355-.013.531,0s.242-.064.221-.232a.358.358,0,0,1,0-.044q0-4.525,0-9.051c.2,0,.4,0,.6-.01.133-.008.17.05.156.169a.771.771,0,0,0,0,.089q0,4.43,0,8.861c0,.207-.057.264-.258.255-.346-.015-.694,0-1.041,0C1339.551,651.361,1339.472,651.391,1339.411,651.327Z" transform="translate(-1321.683 -636.394)" fill="#dd4a48"/>
      <path id="Path_2706" data-name="Path 2706" d="M1121.626,641.924q0,4.509,0,9.018c0,.313,0,.312-.315.313-.14,0-.281,0-.421.007-.006-.08-.017-.161-.017-.241q0-4.427-.005-8.854c0-.2.044-.277.25-.253A5,5,0,0,0,1121.626,641.924Z" transform="translate(-1116.099 -636.319)" fill="#fff"/>
      <path id="Path_2707" data-name="Path 2707" d="M1218.211,766.714c-.208.105-.16.3-.149.47.013.2-.053.258-.247.244a6.8,6.8,0,0,0-.707,0c-.12,0-.18-.03-.17-.16.049-.661-.11-.543-.6-.553a.81.81,0,0,1-.432-.038.145.145,0,0,1,.1-.077c.147-.022.163-.123.161-.244,0-.207,0-.414,0-.62a.32.32,0,0,1,.093-.262c.828-.021,1.656-.018,2.485,0a.307.307,0,0,1,.092.239c0,.235.007.47,0,.706s-.064.276-.3.283A1.044,1.044,0,0,0,1218.211,766.714Z" transform="translate(-1205.498 -752.54)" fill="#bebebe"/>
      <path id="Path_2708" data-name="Path 2708" d="M1132.1,855.643c.17,0,.341.008.509-.011.209-.024.274.04.272.261-.012,1.177-.005,2.353-.005,3.53,0,.237,0,.474,0,.71,0,.117-.021.177-.157.169-.206-.012-.413-.007-.62-.01a.289.289,0,0,1-.1-.259q-.006-2.066,0-4.131A.279.279,0,0,1,1132.1,855.643Z" transform="translate(-1126.569 -837.363)" fill="#dd4a48"/>
      <path id="Path_2709" data-name="Path 2709" d="M1339.708,860.676c-.192,0-.385-.007-.575.011s-.2-.057-.2-.214c.006-1.333,0-2.665,0-4,0-.14.01-.28.016-.42a4.723,4.723,0,0,1,.66-.019c.12-.006.173.064.188.172a1.758,1.758,0,0,1,.009.221q0,1.937,0,3.875C1339.8,860.436,1339.833,860.577,1339.708,860.676Z" transform="translate(-1321.23 -837.748)" fill="#fff"/>
      <path id="Path_2710" data-name="Path 2710" d="M1340.024,860.312c0-1.45,0-2.9.005-4.349,0-.219-.069-.289-.278-.27-.161.015-.324,0-.487,0,.041-.065.106-.039.161-.04.392,0,.783.005,1.175,0,.129,0,.181.028.18.171q-.007,2.165,0,4.33c0,.119-.024.176-.158.168C1340.423,860.311,1340.223,860.315,1340.024,860.312Z" transform="translate(-1321.545 -837.384)" fill="#dd4a48"/>
      <path id="Path_2711" data-name="Path 2711" d="M1121.167,855.679q0,2.325,0,4.65c-.242,0-.551.085-.707-.032s-.044-.441-.045-.674c0-1.248,0-2.5-.006-3.745,0-.163.036-.225.206-.209S1120.983,855.677,1121.167,855.679Z" transform="translate(-1115.641 -837.4)" fill="#fff"/>
      <path id="Path_2712" data-name="Path 2712" d="M1138.592,565.583a1.117,1.117,0,0,0-.315.864c.012,1.07,0,2.14,0,3.211-.214,0-.428,0-.642.011-.121.006-.148-.044-.147-.155,0-1.051,0-2.1,0-3.152a.757.757,0,0,1,.807-.784C1138.4,565.576,1138.5,565.581,1138.592,565.583Z" transform="translate(-1131.739 -564.513)" fill="#fff"/>
      <path id="Path_2713" data-name="Path 2713" d="M1330,569.66c0-1.036,0-2.071,0-3.107a1.274,1.274,0,0,0-.356-.968c.11,0,.22-.009.331-.006a.752.752,0,0,1,.768.753c.011,1.063,0,2.126.006,3.188,0,.119-.045.153-.156.149C1330.4,569.661,1330.2,569.662,1330,569.66Z" transform="translate(-1312.502 -564.514)" fill="#fff"/>
      <path id="Path_2714" data-name="Path 2714" d="M1339.977,810.106c-.453.026-.452.026-.453-.415,0-.244,0-.488,0-.732,0-.149-.056-.269-.226-.269s-.218.12-.217.272c0,.3-.012.607,0,.909.01.192-.041.277-.241.244a1.864,1.864,0,0,0-.243-.009.3.3,0,0,1-.093-.26q0-.938,0-1.877a.314.314,0,0,1,.094-.26h1.375a.261.261,0,0,1,.137.257q.006.94,0,1.879A.294.294,0,0,1,1339.977,810.106Z" transform="translate(-1320.832 -792.287)" fill="#bebebe"/>
      <path id="Path_2715" data-name="Path 2715" d="M1120.181,807.455q.687-.03,1.375,0a.338.338,0,0,1,.094.282q0,.916,0,1.832a.308.308,0,0,1-.095.28c-.477.026-.477.026-.477-.436q0-.366,0-.733c0-.146-.06-.248-.218-.247s-.221.107-.223.248c0,.311-.012.622,0,.932.009.187-.032.282-.238.245a1.557,1.557,0,0,0-.22-.009.3.3,0,0,1-.136-.283q-.005-.916,0-1.833A.278.278,0,0,1,1120.181,807.455Z" transform="translate(-1115.321 -792.034)" fill="#bebebe"/>
      <path id="Path_2716" data-name="Path 2716" d="M1227.228,807.406h-1.775c-.027-.025-.072-.042-.079-.075a1.5,1.5,0,0,1,.035-1.026h1.863a.265.265,0,0,1,.093.216c0,.207,0,.415,0,.622A.3.3,0,0,1,1227.228,807.406Z" transform="translate(-1214.339 -790.965)" fill="#bebebe"/>
      <path id="Path_2717" data-name="Path 2717" d="M1331.528,807.556q0,1.2,0,2.4c-.647.03-.531.008-.536-.494-.005-.53,0-1.06,0-1.591,0-.317.005-.323.318-.322C1331.382,807.547,1331.455,807.553,1331.528,807.556Z" transform="translate(-1313.758 -792.134)" fill="#d8d8d8"/>
      <path id="Path_2718" data-name="Path 2718" d="M1145.568,809.812q0-1.2,0-2.4c.537-.044.537-.044.537.5s0,1.051,0,1.577c0,.326-.006.332-.34.33C1145.7,809.819,1145.634,809.815,1145.568,809.812Z" transform="translate(-1139.335 -791.996)" fill="#ababab"/>
      <path id="Path_2719" data-name="Path 2719" d="M1113.476,807.493a.489.489,0,0,0-.045.236c0,.633,0,1.266,0,1.9a1.708,1.708,0,0,0,.04.26c-.561.032-.561.032-.561-.525q0-.777,0-1.553c0-.316.013-.33.321-.329C1113.315,807.481,1113.4,807.489,1113.476,807.493Z" transform="translate(-1108.617 -792.072)" fill="#d7d7d7"/>
      <path id="Path_2720" data-name="Path 2720" d="M1363.3,809.886a1.049,1.049,0,0,0,.046-.326c0-.6,0-1.194,0-1.791a.551.551,0,0,0-.044-.28c.563-.038.563-.038.563.521q0,.765,0,1.529c0,.34-.015.355-.344.354C1363.452,809.893,1363.379,809.888,1363.3,809.886Z" transform="translate(-1344.16 -792.067)" fill="#ababab"/>
      <path id="Path_2721" data-name="Path 2721" d="M1254.832,766.7a.427.427,0,0,1,.3-.039c.17.008.24-.06.236-.232-.007-.324,0-.649,0-.973.523-.038.523-.038.523.471,0,.147,0,.295,0,.442-.009.224-.105.323-.327.329C1255.317,766.7,1255.074,766.695,1254.832,766.7Z" transform="translate(-1242.12 -752.521)" fill="#ababab"/>
      <path id="Path_2722" data-name="Path 2722" d="M1213.487,765.433c0,.322-.018.645,0,.966.014.2-.037.269-.23.236a.76.76,0,0,0-.131,0,.28.28,0,0,1-.171-.3c0-.228.009-.457,0-.685-.009-.17.045-.25.223-.23C1213.281,765.43,1213.385,765.428,1213.487,765.433Z" transform="translate(-1202.727 -752.501)" fill="#d7d7d7"/>
      <path id="Path_2723" data-name="Path 2723" d="M1219.314,806.144a6.244,6.244,0,0,0,.044,1.1c-.537.033-.537.033-.537-.488V806.6C1218.822,806.115,1218.822,806.115,1219.314,806.144Z" transform="translate(-1208.245 -790.805)" fill="#d8d8d8"/>
      <path id="Path_2724" data-name="Path 2724" d="M1257.807,807.24a5.611,5.611,0,0,0,.044-1.1c.492-.031.492-.031.492.459v.154C1258.343,807.268,1258.339,807.271,1257.807,807.24Z" transform="translate(-1244.918 -790.799)" fill="#ababab"/>
      <path id="Path_2725" data-name="Path 2725" d="M1177.336,677.016h3.882c.134,0,.235.051.245.2s-.093.228-.234.237a4.393,4.393,0,0,1-.509.006c-.155-.009-.216.047-.2.2a2.168,2.168,0,0,1,0,.311c-.008.143-.073.251-.226.25s-.216-.107-.215-.254a2.063,2.063,0,0,1,0-.266c.028-.2-.062-.245-.251-.245q-3.072.009-6.144,0a1.929,1.929,0,0,1-.287-.016.2.2,0,0,1-.187-.232.2.2,0,0,1,.2-.193c.066-.005.133,0,.2,0Z" transform="translate(-1165.334 -669.344)" fill="#2c272e"/>
    </g>
    <rect id="Rectangle_17433" data-name="Rectangle 17433" width="24" height="24" transform="translate(-16616 -5800)" fill="none"/>
  </g>
</svg>
